<svg xmlns="http://www.w3.org/2000/svg" viewBox="0 0 400 225">
  <defs>
    <style>
      .cls-1 {
        fill: #ea964d;
      }

      .cls-2 {
        fill: #f0f1f5;
      }

      .cls-3 {
        fill: #b8b8bf;
      }

      .cls-4 {
        fill: #34495e;
      }

      .cls-5 {
        fill: #e94c3d;
      }

      .cls-6 {
        fill: #c1392b;
      }

      .cls-7 {
        fill: #3497da;
      }

      .cls-8 {
        fill: #2a80bb;
      }

      .cls-9 {
        fill: #2c3e50;
        opacity: 0.1;
      }

      .cls-10 {
        fill: #8e44ad;
      }

      .cls-11 {
        fill: none;
      }
    </style>
  </defs>
  <title>course presentation</title>
  <g id="Layer_2" data-name="Layer 2">
    <g id="course_presentation" data-name="course presentation">
      <g>
        <rect class="cls-1" x="201.87" y="30.81" width="4.27" height="165.39"/>
        <rect class="cls-1" x="161.1" y="159.92" width="59.53" height="4.27" transform="translate(-58.68 182.43) rotate(-45)"/>
        <rect class="cls-1" x="215" y="132.29" width="4.27" height="59.53" transform="translate(-50.99 201) rotate(-45)"/>
        <rect class="cls-2" x="101.91" y="38.46" width="204.18" height="118.18"/>
        <rect class="cls-3" x="209.86" y="73.09" width="62.37" height="5.91"/>
        <rect class="cls-3" x="209.86" y="86.22" width="68.28" height="5.91"/>
        <rect class="cls-3" x="209.86" y="99.36" width="49.24" height="5.91"/>
        <g>
          <polygon class="cls-3" points="201 142.95 191.64 137.55 201 132.14 201 142.95"/>
          <polygon class="cls-3" points="209 132.14 218.36 137.55 209 142.95 209 132.14"/>
        </g>
        <g>
          <rect class="cls-4" x="127.11" y="90.82" width="23.06" height="5.2" transform="translate(12.8 203.48) rotate(-75.14)"/>
          <rect class="cls-4" x="160.18" y="68.58" width="5.2" height="23.06" transform="translate(47.67 220.34) rotate(-76.82)"/>
          <circle class="cls-5" cx="142.18" cy="74.49" r="14.29" transform="translate(65.92 215.74) rotate(-89.29)"/>
          <path class="cls-6" d="M142.36,60.21a14.4,14.4,0,0,0-1.92.11,14.29,14.29,0,0,1,0,28.36,14.29,14.29,0,1,0,1.93-28.47Z"/>
          <circle class="cls-7" cx="134.37" cy="110.12" r="11.45" transform="translate(22.59 243.12) rotate(-89.29)"/>
          <circle class="cls-7" cx="179.51" cy="84.7" r="11.45" transform="translate(92.59 263.15) rotate(-89.29)"/>
          <path class="cls-8" d="M179.65,73.25a11.52,11.52,0,0,0-1.89.13,11.45,11.45,0,0,1,0,22.63,11.45,11.45,0,1,0,1.89-22.77Z"/>
          <path class="cls-8" d="M134.52,98.67a11.52,11.52,0,0,0-1.89.13,11.45,11.45,0,0,1,0,22.63,11.45,11.45,0,1,0,1.89-22.77Z"/>
        </g>
        <g>
          <polygon class="cls-9" points="194.43 161.5 199.3 156.5 193.27 156.5 188.4 161.5 194.43 161.5"/>
          <polygon class="cls-9" points="214.73 156.5 208.7 156.5 213.57 161.5 219.6 161.5 214.73 156.5"/>
          <rect class="cls-9" x="202" y="156.5" width="5" height="5"/>
        </g>
        <circle class="cls-10" cx="268.27" cy="102.23" r="4.52"/>
        <ellipse class="cls-9" cx="204" cy="186.64" rx="102.09" ry="9.56"/>
        <rect class="cls-9" x="101.91" y="38.46" width="204.18" height="4.87"/>
        <rect class="cls-1" x="97.31" y="34.68" width="213.37" height="4.27"/>
      </g>
      <rect class="cls-11" width="400" height="225"/>
    </g>
  </g>
</svg>
