<?xml version="1.0" encoding="utf-8"?>
<!-- Generator: Adobe Illustrator 18.0.0, SVG Export Plug-In . SVG Version: 6.00 Build 0)  -->
<!DOCTYPE svg PUBLIC "-//W3C//DTD SVG 1.1//EN" "http://www.w3.org/Graphics/SVG/1.1/DTD/svg11.dtd">
<svg version="1.1" id="Layer_1" xmlns="http://www.w3.org/2000/svg" xmlns:xlink="http://www.w3.org/1999/xlink" x="0px" y="0px"
	 viewBox="0 237.4 283.5 159.4" enable-background="new 0 237.4 283.5 159.4" xml:space="preserve">
<path fill="#F37D4F" d="M193.1,379.5h-13.9c-3.8,0-6.8-3.1-6.8-6.8v0c0-3.8,3.1-6.8,6.8-6.8h13.9c3.8,0,6.8,3.1,6.8,6.8v0
	C199.9,376.5,196.9,379.5,193.1,379.5z"/>
<g>
	<g>
		<circle fill="#3396DA" cx="114.2" cy="363" r="20.8"/>
	</g>
</g>
<g opacity="0.1">
	<g>
		<path fill="#050505" d="M122.7,375.6c0,0.7-0.6,1.2-1.2,1.2c-0.3,0-0.6-0.1-0.9-0.4l-6.3-6.3h-5c-0.7,0-1.2-0.6-1.2-1.2v-7.4
			c0-0.7,0.6-1.2,1.2-1.2h5l6.3-6.3c0.3-0.3,0.6-0.4,0.9-0.4c0.7,0,1.2,0.6,1.2,1.2V375.6z"/>
	</g>
</g>
<g>
	<g>
		<path fill="#FFFFFF" d="M120.1,373.8c0,0.7-0.6,1.2-1.2,1.2c-0.3,0-0.6-0.1-0.9-0.4l-6.3-6.2h-5c-0.7,0-1.2-0.6-1.2-1.2v-7.4
			c0-0.7,0.6-1.2,1.2-1.2h5l6.3-6.3c0.3-0.3,0.6-0.4,0.9-0.4c0.7,0,1.2,0.6,1.2,1.2V373.8z"/>
	</g>
</g>
<title>course presentation</title>
<path fill="#3396DA" d="M198.4,306l-1.1-43.1c-0.3-8.6-7.6-15.2-16-14.9l-40.4,2.4l-34.8,2c-8.6,0.3-15.2,7.6-14.9,16l1.1,43.1
	c0.3,8.6,7.6,15.2,16,14.9l1.3-0.1l4.3,9.6c0.5,0.6,1.2,0.8,1.8,1c0.9,0.1,1.9-0.1,2.6-0.8l11.8-10.6l29.2-2
	c-0.7-2.4-1.5-6.4-2.2-9.1c-0.4-1.4-0.7-2.4-0.9-2.7c-1.4-1.5-8,0.6-10.1,0.6c-0.7,0-1.4-0.1-2.2-0.2c-1.7-0.3-3.5-0.8-4.4-2.5
	c-1.2-2.1,0.4-4.5-0.4-6.7c-0.9-2.4-2.8-2.3,0.6-4.4c-2-1.7-2.1-1.7-1.9-3.9c0.2-1.9,0.8-1.3,0-2.9c-0.4-0.9-1.7-1.2-1.9-2.2
	c-1-4.2,5.7-6.7,5.9-10.7c0.1-2,0.8-11.5,4.8-15.3c4-3.8,6.9-5.1,12.4-5.4c5.1-0.3,11.1,0.4,16.3,2.7c6.8,2.9,12.3,8.4,12.3,17.3
	c0,4.1-0.7,8.1-2.1,11.6c-0.1,0.5-0.3,1-0.4,1.3c-1.4,3.7-3.5,7.6-5.1,11.2c-2.5,5.6,2,13.2,5.1,19.5c0.4-0.1,0.8-0.2,1.2-0.3
	C193.5,320,198.7,313.5,198.4,306z"/>
<path opacity="0.1" fill="#050505" enable-background="new    " d="M185.7,305.1c1.6-3.7,3.7-7.6,5.2-11.4c0.1-0.3,0.3-0.8,0.4-1.3
	c1.5-3.6,2.3-7.7,2.3-11.9c-0.2-11.3-8.8-17.3-18-19.5c6.8,2.9,12.3,8.4,12.3,17.3c0,4.1-0.7,8.1-2.1,11.6c-0.1,0.5-0.3,1-0.4,1.3
	c-1.4,3.7-3.5,7.6-5.1,11.2c-2.5,5.6,2,13.2,5.1,19.5c0.4-0.1,0.8-0.2,1.2-0.3c1.4-0.5,2.3-0.9,2.3-0.9
	C185.5,314.2,183,311.1,185.7,305.1z"/>
<g>
	<path fill="#FFFFFF" d="M193.4,373.9h-0.3c-0.8,0-1.2-0.6-1.2-1.2v-3.2c0-0.8,0.6-1.2,1.2-1.2h0.3c0.8,0,1.2,0.6,1.2,1.2v3.2
		C194.7,373.3,194.2,373.9,193.4,373.9z"/>
</g>
<g>
	<path fill="#FFFFFF" d="M194,376.9h-1.5c-0.3,0-0.6-0.4-0.6-0.9v-0.4c0-0.4,0.3-0.9,0.6-0.9h1.5c0.3,0,0.6,0.4,0.6,0.9v0.4
		C194.7,376.4,194.3,376.9,194,376.9z"/>
</g>
<g opacity="0.1">
	<path fill="#050505" d="M117.6,312c0,0.4-2.6,2.8-3.1,2.8c-0.1,0-0.3-0.1-0.4-0.2c-4.2-4.6-6.4-11.1-6.2-17.3
		c0.3-6.2,2.9-12.5,7.5-16.8c0.1-0.1,0.2-0.2,0.4-0.2c0.4,0,2.8,2.6,2.8,3.1c0,0.1-0.1,0.3-0.1,0.4c-3.7,3.9-5.8,8.2-6.1,13.7
		c-0.2,5.5,1.6,9.9,5,14.1C117.5,311.7,117.6,311.9,117.6,312z M124.5,307.6c0,0.4-2.6,2.8-3.1,2.8c-0.1,0-0.3-0.1-0.4-0.2
		c-3-3.3-4.6-8.1-4.4-12.5c0.2-4.4,2.1-9,5.3-12.1c0.1-0.1,0.2-0.2,0.4-0.2c0.4,0,2.8,2.6,2.8,3.1c0,0.2-3.9,4.1-4.1,9.4
		c-0.2,3.8,1.1,6.3,3.2,9.2C124.4,307.2,124.5,307.3,124.5,307.6z M130.9,303c0,0.4-2.6,2.8-3.1,2.8c-0.1,0-0.3-0.1-0.4-0.2
		c-1.8-1.9-2.6-5-2.6-7.7c0-2.6,1.2-5.6,3.2-7.4c0.1-0.1,0.2-0.2,0.4-0.2c0.4,0,2.8,2.6,2.8,3.1c0,0.2-1.8,2.1-1.9,4.6
		C129.3,300.8,130.9,302.8,130.9,303z"/>
</g>
<g>
	<path fill="#FFFFFF" d="M114,309.2c0,0.4-2.6,2.8-3.1,2.8c-0.1,0-0.3-0.1-0.4-0.2c-4.2-4.6-6.4-11.1-6.2-17.3
		c0.3-6.1,2.9-12.5,7.5-16.8c0.1-0.1,0.2-0.2,0.4-0.2c0.4,0,2.8,2.6,2.8,3.1c0,0.1-0.1,0.3-0.1,0.4c-3.7,3.9-5.8,8.2-6.1,13.7
		c-0.2,5.5,1.6,9.9,5,14.1C113.9,309,114,309.1,114,309.2z M120.9,304.8c0,0.4-2.6,2.8-3.1,2.8c-0.1,0-0.3-0.1-0.4-0.2
		c-3-3.3-4.6-8.1-4.4-12.5c0.2-4.4,2.1-9,5.3-12.1c0.1-0.1,0.2-0.2,0.4-0.2c0.4,0,2.8,2.6,2.8,3.1c0,0.2-3.9,4.1-4.1,9.4
		c-0.2,3.8,1.1,6.3,3.2,9.2C120.8,304.5,120.9,304.6,120.9,304.8z M127.3,300.2c0,0.4-2.6,2.8-3.1,2.8c-0.1,0-0.3-0.1-0.4-0.2
		c-1.8-1.9-2.6-5-2.6-7.7c0.1-2.6,1.2-5.6,3.2-7.4c0.1-0.1,0.2-0.2,0.4-0.2c0.4,0,2.8,2.6,2.8,3.1c0,0.2-1.8,2.1-1.9,4.6
		C125.7,298,127.3,300,127.3,300.2z"/>
</g>
<rect y="237.4" fill="none" width="283.5" height="159.4"/>
<path fill="#3DB991" d="M193.1,360.7h-43.3c-3.8,0-6.8-3.1-6.8-6.8v0c0-3.8,3.1-6.8,6.8-6.8h43.3c3.8,0,6.8,3.1,6.8,6.8v0
	C199.9,357.6,196.9,360.7,193.1,360.7z"/>
<path fill="#DA4D6B" d="M163.7,379.5h-13.9c-3.8,0-6.8-3.1-6.8-6.8v0c0-3.8,3.1-6.8,6.8-6.8h13.9c3.8,0,6.8,3.1,6.8,6.8v0
	C170.6,376.5,167.5,379.5,163.7,379.5z"/>
<path fill="#295748" d="M183.1,355.8h-33c-1,0-1.8-0.8-1.8-1.8V354c0-1,0.8-1.8,1.8-1.8h33c1,0,1.8,0.8,1.8,1.8v0.1
	C184.9,355,184.1,355.8,183.1,355.8z"/>
<path fill="#812E42" d="M157,374.6h-6.8c-1,0-1.8-0.8-1.8-1.8v0c0-1,0.8-1.8,1.8-1.8h6.8c1,0,1.8,0.8,1.8,1.8v0
	C158.8,373.8,158,374.6,157,374.6z"/>
<path fill="#9B462B" d="M187,374.6h-8.1c-1,0-1.8-0.8-1.8-1.8v0c0-1,0.8-1.8,1.8-1.8h8.1c1,0,1.8,0.8,1.8,1.8v0
	C188.8,373.8,188,374.6,187,374.6z"/>
<g>
	<path fill="#FFFFFF" d="M190.2,357.3l-3.5-3.4c-0.3-0.3-0.3-0.3,0-0.7s0.5-0.5,0.8-0.8c0.3-0.3,0.8-0.3,1.2,0
		c0.5,0.5,1,0.8,1.7,1.3c0.3,0.3,0.8,0.3,1.2,0l3.2-3.2c0.3-0.3,0.8-0.3,1.2,0s0.5,0.3,0.7,0.7c0.3,0.3,0.5,0.5,0.2,0.8l-5.4,5
		C191,357.4,190.5,357.4,190.2,357.3z"/>
</g>
<path fill="#FFFFFF" d="M165.4,372.6l1.7-1.8c0.3-0.3,0.2-0.5-0.2-0.6c-0.2-0.2-0.3-0.3-0.6-0.5c-0.3-0.3-0.6-0.3-0.9,0l-1.5,1.5
	l-1.8-1.7c-0.3-0.3-0.5-0.2-0.6,0.2c-0.2,0.2-0.3,0.3-0.5,0.6c-0.3,0.3-0.3,0.6,0,0.9l1.5,1.5l-1.7,1.8c-0.3,0.3-0.2,0.5,0.2,0.6
	c0.2,0.2,0.3,0.3,0.6,0.5c0.3,0.3,0.6,0.3,0.9,0l1.5-1.5l1.8,1.7c0.3,0.3,0.5,0.2,0.6-0.2c0.2-0.2,0.3-0.3,0.5-0.6
	c0.3-0.3,0.3-0.6,0-0.9L165.4,372.6z"/>
</svg>
