<svg width="200" height="200" viewBox="0 0 200 200" fill="none" xmlns="http://www.w3.org/2000/svg">
<g filter="url(#filter0_di_3103_43411)">
<path d="M66.0039 163.337C77.4087 163.337 86.6542 159.569 86.6542 154.922C86.6542 150.274 77.4087 146.506 66.0039 146.506C54.599 146.506 45.3535 150.274 45.3535 154.922C45.3535 159.569 54.599 163.337 66.0039 163.337Z" fill="white"/>
</g>
<g filter="url(#filter1_di_3103_43411)">
<path d="M66.003 76.1228C49.433 76.1228 36 89.5555 36 106.126C36 131.359 66.003 154.576 66.003 154.576C66.003 154.576 96.0061 131.359 96.0061 106.126C96.0061 89.5555 82.5734 76.1228 66.003 76.1228ZM66.003 118.092C59.3942 118.092 54.0366 112.735 54.0366 106.126C54.0366 99.517 59.3942 94.1591 66.003 94.1591C72.6119 94.1591 77.9697 99.5168 77.9697 106.126C77.9697 112.735 72.6121 118.092 66.003 118.092Z" fill="#00A76F"/>
</g>
<g filter="url(#filter2_di_3103_43411)">
<path d="M139.156 104.029C147.922 104.029 155.028 101.134 155.028 97.5615C155.028 93.9895 147.922 91.0938 139.156 91.0938C130.391 91.0938 123.285 93.9895 123.285 97.5615C123.285 101.134 130.391 104.029 139.156 104.029Z" fill="white"/>
</g>
<g filter="url(#filter3_di_3103_43411)">
<path d="M139.158 37C126.422 37 116.099 47.324 116.099 60.0594C116.099 79.453 139.158 97.2969 139.158 97.2969C139.158 97.2969 162.217 79.453 162.217 60.0594C162.217 47.324 151.893 37 139.158 37ZM139.158 69.2566C134.078 69.2566 129.961 65.139 129.961 60.0594C129.961 54.9799 134.078 50.8623 139.158 50.8623C144.237 50.8623 148.355 54.9799 148.355 60.0594C148.355 65.139 144.237 69.2566 139.158 69.2566Z" fill="#FFAB00"/>
</g>
<path opacity="0.24" d="M114.401 99.4702C115.455 99.4702 116.31 98.6161 116.31 97.5616C116.31 96.5072 115.455 95.6531 114.401 95.6531H113.53C112.895 95.6531 112.258 95.695 111.634 95.7781C111.136 95.8495 110.687 96.1145 110.383 96.5154C110.079 96.9164 109.946 97.4209 110.013 97.9195C110.079 98.418 110.339 98.8702 110.737 99.1778C111.135 99.4854 111.638 99.6235 112.138 99.5622C112.599 99.5012 113.064 99.4706 113.53 99.4707H114.401V99.4702ZM108.092 152.915H108.083L105.562 152.926C105.056 152.927 104.571 153.129 104.214 153.488C103.857 153.847 103.657 154.333 103.658 154.839C103.659 155.345 103.861 155.83 104.22 156.187C104.578 156.544 105.064 156.744 105.57 156.743H105.579L108.1 156.732C108.606 156.729 109.091 156.526 109.447 156.166C109.803 155.807 110.002 155.321 110 154.814C109.998 154.31 109.796 153.827 109.438 153.47C109.08 153.114 108.596 152.915 108.092 152.915ZM116.666 124.192C116.917 124.192 117.165 124.142 117.396 124.046C117.628 123.951 117.838 123.81 118.016 123.633C118.193 123.455 118.333 123.245 118.429 123.013C118.525 122.782 118.575 122.534 118.575 122.283C118.575 122.032 118.525 121.784 118.429 121.553C118.333 121.321 118.193 121.111 118.016 120.933C117.838 120.756 117.628 120.616 117.396 120.52C117.165 120.424 116.917 120.374 116.666 120.375H114.145C113.895 120.374 113.646 120.424 113.415 120.52C113.183 120.616 112.973 120.756 112.796 120.933C112.618 121.111 112.478 121.321 112.382 121.553C112.286 121.784 112.237 122.032 112.237 122.283C112.237 122.534 112.286 122.782 112.382 123.013C112.478 123.245 112.618 123.455 112.796 123.633C112.973 123.81 113.183 123.951 113.415 124.046C113.646 124.142 113.895 124.192 114.145 124.192H116.666ZM102.369 104.27C102.693 104.504 103.082 104.629 103.481 104.629C103.785 104.629 104.084 104.557 104.353 104.419C104.623 104.281 104.856 104.08 105.033 103.833C105.448 103.255 105.921 102.721 106.444 102.238C106.812 101.894 107.029 101.418 107.047 100.915C107.066 100.411 106.884 99.9211 106.543 99.5508C106.201 99.1806 105.727 98.9603 105.224 98.9382C104.72 98.916 104.229 99.0938 103.856 99.4326C103.143 100.09 102.499 100.819 101.932 101.607C101.637 102.018 101.517 102.529 101.599 103.029C101.681 103.528 101.958 103.975 102.369 104.27ZM118.175 152.868H118.166L115.645 152.88C115.395 152.88 115.147 152.93 114.915 153.027C114.684 153.123 114.474 153.264 114.297 153.442C114.12 153.619 113.98 153.83 113.885 154.062C113.789 154.294 113.74 154.542 113.741 154.792C113.742 155.043 113.791 155.291 113.888 155.523C113.984 155.754 114.125 155.964 114.303 156.141C114.481 156.318 114.691 156.458 114.923 156.553C115.155 156.649 115.403 156.697 115.654 156.697H115.663L118.183 156.685C118.684 156.676 119.161 156.471 119.512 156.113C119.862 155.755 120.058 155.274 120.057 154.773C120.056 154.272 119.858 153.791 119.506 153.435C119.154 153.079 118.676 152.875 118.175 152.868ZM98.0083 152.96H97.9994L95.4787 152.971C94.9779 152.981 94.5008 153.186 94.1503 153.544C93.7997 153.902 93.6039 154.383 93.605 154.884C93.6061 155.385 93.804 155.865 94.1561 156.222C94.5082 156.578 94.9863 156.782 95.4871 156.789H95.496L98.0167 156.777C98.5229 156.775 99.0073 156.571 99.3636 156.212C99.7199 155.852 99.9188 155.366 99.9167 154.86C99.9145 154.355 99.7125 153.872 99.3548 153.516C98.9972 153.16 98.513 152.96 98.0083 152.96ZM106.943 122.293C107.357 122.294 107.759 122.159 108.09 121.911C108.421 121.662 108.663 121.313 108.778 120.915C108.893 120.518 108.876 120.093 108.729 119.706C108.582 119.319 108.313 118.991 107.963 118.77C107.361 118.39 106.8 117.95 106.287 117.458C106.106 117.284 105.893 117.147 105.66 117.056C105.426 116.965 105.177 116.92 104.927 116.925C104.676 116.93 104.429 116.984 104.199 117.084C103.97 117.185 103.762 117.329 103.588 117.51C103.415 117.69 103.278 117.904 103.187 118.137C103.095 118.37 103.051 118.619 103.056 118.87C103.061 119.12 103.115 119.368 103.215 119.597C103.316 119.827 103.46 120.035 103.641 120.208C104.34 120.881 105.106 121.481 105.927 121.998C106.23 122.191 106.583 122.293 106.943 122.293ZM103.271 111.934C103.142 111.272 103.078 110.598 103.078 109.923L103.078 109.817C103.081 109.566 103.035 109.317 102.942 109.085C102.848 108.852 102.71 108.64 102.535 108.461C102.36 108.281 102.151 108.138 101.921 108.04C101.69 107.941 101.443 107.889 101.192 107.886L101.169 107.886C100.667 107.886 100.185 108.084 99.8279 108.437C99.4707 108.79 99.2671 109.27 99.2613 109.772L99.2606 109.923C99.2606 110.845 99.3493 111.767 99.5242 112.665C99.5721 112.911 99.6681 113.145 99.8065 113.354C99.945 113.563 100.123 113.742 100.331 113.882C100.539 114.022 100.772 114.12 101.018 114.17C101.264 114.22 101.517 114.221 101.763 114.173C102.009 114.125 102.243 114.029 102.452 113.891C102.661 113.752 102.84 113.574 102.98 113.366C103.12 113.158 103.218 112.925 103.268 112.679C103.318 112.433 103.319 112.18 103.271 111.934ZM126.749 124.192C127 124.192 127.248 124.142 127.48 124.046C127.711 123.951 127.922 123.81 128.099 123.633C128.276 123.455 128.417 123.245 128.513 123.013C128.609 122.782 128.658 122.534 128.658 122.283C128.658 122.032 128.609 121.784 128.513 121.553C128.417 121.321 128.276 121.111 128.099 120.933C127.922 120.756 127.711 120.616 127.48 120.52C127.248 120.424 127 120.374 126.749 120.375H124.229C123.978 120.374 123.73 120.424 123.498 120.52C123.267 120.616 123.056 120.756 122.879 120.933C122.702 121.111 122.561 121.321 122.465 121.553C122.369 121.784 122.32 122.032 122.32 122.283C122.32 122.534 122.369 122.782 122.465 123.013C122.561 123.245 122.702 123.455 122.879 123.633C123.056 123.81 123.267 123.951 123.498 124.046C123.73 124.142 123.978 124.192 124.229 124.192H126.749ZM156.208 127.667C156.604 127.667 156.991 127.544 157.314 127.314C157.637 127.084 157.881 126.759 158.011 126.385C158.142 126.01 158.152 125.604 158.041 125.224C157.93 124.843 157.703 124.506 157.392 124.26C156.654 123.678 155.873 123.155 155.055 122.694C154.837 122.571 154.596 122.492 154.347 122.462C154.099 122.432 153.846 122.451 153.605 122.518C153.363 122.586 153.138 122.7 152.941 122.855C152.743 123.01 152.578 123.202 152.455 123.42C152.332 123.638 152.254 123.879 152.224 124.128C152.193 124.376 152.213 124.629 152.28 124.87C152.348 125.111 152.462 125.337 152.617 125.534C152.771 125.732 152.963 125.896 153.182 126.019C153.828 126.384 154.444 126.797 155.026 127.256C155.362 127.523 155.779 127.667 156.208 127.667ZM148.155 152.606C147.53 152.693 146.89 152.738 146.252 152.741L145.895 152.743C145.396 152.755 144.922 152.963 144.575 153.32C144.227 153.677 144.033 154.157 144.034 154.656C144.035 155.154 144.231 155.633 144.581 155.989C144.93 156.345 145.405 156.55 145.904 156.56H145.913L146.269 156.558C147.075 156.555 147.88 156.498 148.678 156.388C149.179 156.318 149.632 156.053 149.938 155.649C150.244 155.246 150.376 154.737 150.307 154.236C150.162 153.192 149.197 152.461 148.155 152.606ZM156.032 148.803C155.495 149.315 154.919 149.784 154.309 150.207C153.893 150.496 153.609 150.938 153.518 151.436C153.428 151.934 153.539 152.447 153.828 152.863C154.003 153.117 154.238 153.325 154.512 153.468C154.785 153.611 155.089 153.685 155.398 153.685C155.786 153.685 156.165 153.566 156.484 153.345C157.255 152.809 157.984 152.215 158.665 151.567C158.846 151.394 158.992 151.187 159.093 150.958C159.195 150.729 159.25 150.482 159.256 150.232C159.262 149.981 159.219 149.732 159.128 149.498C159.038 149.264 158.903 149.051 158.73 148.869C158.557 148.688 158.35 148.542 158.121 148.44C157.892 148.339 157.645 148.283 157.394 148.277C157.144 148.271 156.895 148.314 156.661 148.405C156.427 148.495 156.213 148.63 156.032 148.803ZM162.444 139.6C161.947 139.506 161.433 139.614 161.015 139.899C160.597 140.185 160.31 140.624 160.216 141.122C160.079 141.85 159.885 142.566 159.636 143.264C159.552 143.5 159.515 143.751 159.528 144.001C159.54 144.251 159.602 144.497 159.71 144.723C159.927 145.18 160.316 145.533 160.793 145.703C161.27 145.873 161.795 145.846 162.252 145.63C162.478 145.522 162.681 145.371 162.85 145.185C163.018 144.999 163.148 144.782 163.232 144.546C163.547 143.661 163.793 142.752 163.967 141.828C164.061 141.331 163.953 140.816 163.667 140.399C163.382 139.981 162.942 139.693 162.444 139.6ZM160.054 129.902C159.595 130.117 159.24 130.504 159.067 130.98C158.894 131.455 158.917 131.98 159.131 132.439C159.444 133.11 159.705 133.805 159.909 134.517C160.024 134.916 160.264 135.266 160.595 135.515C160.926 135.765 161.328 135.9 161.743 135.9C162.038 135.9 162.33 135.832 162.595 135.7C162.859 135.568 163.09 135.376 163.268 135.14C163.446 134.904 163.566 134.63 163.62 134.339C163.674 134.048 163.66 133.749 163.578 133.465C163.318 132.56 162.988 131.678 162.59 130.825C162.376 130.366 161.989 130.011 161.513 129.838C161.037 129.665 160.512 129.688 160.054 129.902ZM136.833 124.192C137.083 124.192 137.331 124.142 137.563 124.046C137.795 123.951 138.005 123.81 138.182 123.633C138.359 123.455 138.5 123.245 138.596 123.013C138.692 122.782 138.741 122.534 138.741 122.283C138.741 122.032 138.692 121.784 138.596 121.553C138.5 121.321 138.359 121.111 138.182 120.933C138.005 120.756 137.795 120.616 137.563 120.52C137.331 120.424 137.083 120.374 136.833 120.375H134.312C134.061 120.374 133.813 120.424 133.581 120.52C133.35 120.616 133.139 120.756 132.962 120.933C132.785 121.111 132.644 121.321 132.549 121.553C132.453 121.784 132.403 122.032 132.403 122.283C132.403 122.534 132.453 122.782 132.549 123.013C132.644 123.245 132.785 123.455 132.962 123.633C133.139 123.81 133.35 123.951 133.581 124.046C133.813 124.142 134.061 124.192 134.312 124.192H136.833ZM128.258 152.822H128.249L125.728 152.834C125.222 152.835 124.737 153.037 124.38 153.396C124.023 153.755 123.823 154.241 123.824 154.747C123.825 155.253 124.027 155.738 124.386 156.095C124.745 156.452 125.231 156.652 125.737 156.651H125.746L128.266 156.64C128.773 156.637 129.257 156.434 129.613 156.074C129.97 155.715 130.168 155.229 130.166 154.722C130.164 154.218 129.962 153.735 129.604 153.378C129.247 153.022 128.763 152.822 128.258 152.822ZM146.187 124.192C146.403 124.192 146.618 124.196 146.831 124.206C147.337 124.228 147.83 124.049 148.204 123.707C148.577 123.366 148.799 122.89 148.822 122.384C148.833 122.134 148.795 121.884 148.709 121.648C148.624 121.412 148.493 121.196 148.323 121.011C148.154 120.826 147.95 120.676 147.723 120.57C147.496 120.464 147.25 120.404 147 120.393C146.729 120.381 146.458 120.375 146.188 120.375H144.395C144.145 120.375 143.896 120.424 143.665 120.52C143.433 120.616 143.223 120.757 143.046 120.934C142.868 121.111 142.728 121.322 142.632 121.553C142.536 121.785 142.487 122.033 142.487 122.284C142.487 122.534 142.536 122.782 142.632 123.014C142.728 123.246 142.868 123.456 143.046 123.633C143.223 123.81 143.433 123.951 143.665 124.047C143.896 124.143 144.145 124.192 144.395 124.192L146.187 124.192ZM138.341 152.777H138.332L135.811 152.788C135.311 152.798 134.833 153.003 134.483 153.361C134.132 153.719 133.937 154.2 133.938 154.701C133.939 155.202 134.137 155.682 134.489 156.039C134.841 156.395 135.319 156.599 135.82 156.606H135.829L138.349 156.594C138.85 156.585 139.327 156.379 139.678 156.022C140.028 155.664 140.224 155.182 140.223 154.682C140.222 154.181 140.024 153.7 139.672 153.344C139.32 152.988 138.842 152.784 138.341 152.777Z" fill="#007867"/>
<defs>
<filter id="filter0_di_3103_43411" x="41.3535" y="142.506" width="57.3008" height="32.8303" filterUnits="userSpaceOnUse" color-interpolation-filters="sRGB">
<feFlood flood-opacity="0" result="BackgroundImageFix"/>
<feColorMatrix in="SourceAlpha" type="matrix" values="0 0 0 0 0 0 0 0 0 0 0 0 0 0 0 0 0 0 127 0" result="hardAlpha"/>
<feOffset dx="4" dy="4"/>
<feGaussianBlur stdDeviation="4"/>
<feColorMatrix type="matrix" values="0 0 0 0 0.568627 0 0 0 0 0.619608 0 0 0 0 0.670588 0 0 0 0.16 0"/>
<feBlend mode="normal" in2="BackgroundImageFix" result="effect1_dropShadow_3103_43411"/>
<feBlend mode="normal" in="SourceGraphic" in2="effect1_dropShadow_3103_43411" result="shape"/>
<feColorMatrix in="SourceAlpha" type="matrix" values="0 0 0 0 0 0 0 0 0 0 0 0 0 0 0 0 0 0 127 0" result="hardAlpha"/>
<feOffset dx="-1" dy="-1"/>
<feGaussianBlur stdDeviation="1"/>
<feComposite in2="hardAlpha" operator="arithmetic" k2="-1" k3="1"/>
<feColorMatrix type="matrix" values="0 0 0 0 0.568627 0 0 0 0 0.619608 0 0 0 0 0.670588 0 0 0 0.48 0"/>
<feBlend mode="normal" in2="shape" result="effect2_innerShadow_3103_43411"/>
</filter>
<filter id="filter1_di_3103_43411" x="28" y="68.1228" width="92.0059" height="110.453" filterUnits="userSpaceOnUse" color-interpolation-filters="sRGB">
<feFlood flood-opacity="0" result="BackgroundImageFix"/>
<feColorMatrix in="SourceAlpha" type="matrix" values="0 0 0 0 0 0 0 0 0 0 0 0 0 0 0 0 0 0 127 0" result="hardAlpha"/>
<feOffset dx="8" dy="8"/>
<feGaussianBlur stdDeviation="8"/>
<feColorMatrix type="matrix" values="0 0 0 0 0 0 0 0 0 0.470588 0 0 0 0 0.403922 0 0 0 0.16 0"/>
<feBlend mode="normal" in2="BackgroundImageFix" result="effect1_dropShadow_3103_43411"/>
<feBlend mode="normal" in="SourceGraphic" in2="effect1_dropShadow_3103_43411" result="shape"/>
<feColorMatrix in="SourceAlpha" type="matrix" values="0 0 0 0 0 0 0 0 0 0 0 0 0 0 0 0 0 0 127 0" result="hardAlpha"/>
<feOffset dx="-2" dy="-2"/>
<feGaussianBlur stdDeviation="2"/>
<feComposite in2="hardAlpha" operator="arithmetic" k2="-1" k3="1"/>
<feColorMatrix type="matrix" values="0 0 0 0 0 0 0 0 0 0.470588 0 0 0 0 0.403922 0 0 0 0.48 0"/>
<feBlend mode="normal" in2="shape" result="effect2_innerShadow_3103_43411"/>
</filter>
<filter id="filter2_di_3103_43411" x="119.285" y="87.0938" width="47.7427" height="28.9355" filterUnits="userSpaceOnUse" color-interpolation-filters="sRGB">
<feFlood flood-opacity="0" result="BackgroundImageFix"/>
<feColorMatrix in="SourceAlpha" type="matrix" values="0 0 0 0 0 0 0 0 0 0 0 0 0 0 0 0 0 0 127 0" result="hardAlpha"/>
<feOffset dx="4" dy="4"/>
<feGaussianBlur stdDeviation="4"/>
<feColorMatrix type="matrix" values="0 0 0 0 0.568627 0 0 0 0 0.619608 0 0 0 0 0.670588 0 0 0 0.16 0"/>
<feBlend mode="normal" in2="BackgroundImageFix" result="effect1_dropShadow_3103_43411"/>
<feBlend mode="normal" in="SourceGraphic" in2="effect1_dropShadow_3103_43411" result="shape"/>
<feColorMatrix in="SourceAlpha" type="matrix" values="0 0 0 0 0 0 0 0 0 0 0 0 0 0 0 0 0 0 127 0" result="hardAlpha"/>
<feOffset dx="-1" dy="-1"/>
<feGaussianBlur stdDeviation="1"/>
<feComposite in2="hardAlpha" operator="arithmetic" k2="-1" k3="1"/>
<feColorMatrix type="matrix" values="0 0 0 0 0.568627 0 0 0 0 0.619608 0 0 0 0 0.670588 0 0 0 0.48 0"/>
<feBlend mode="normal" in2="shape" result="effect2_innerShadow_3103_43411"/>
</filter>
<filter id="filter3_di_3103_43411" x="108.099" y="29" width="78.1187" height="92.2969" filterUnits="userSpaceOnUse" color-interpolation-filters="sRGB">
<feFlood flood-opacity="0" result="BackgroundImageFix"/>
<feColorMatrix in="SourceAlpha" type="matrix" values="0 0 0 0 0 0 0 0 0 0 0 0 0 0 0 0 0 0 127 0" result="hardAlpha"/>
<feOffset dx="8" dy="8"/>
<feGaussianBlur stdDeviation="8"/>
<feColorMatrix type="matrix" values="0 0 0 0 0.717647 0 0 0 0 0.431373 0 0 0 0 0 0 0 0 0.16 0"/>
<feBlend mode="normal" in2="BackgroundImageFix" result="effect1_dropShadow_3103_43411"/>
<feBlend mode="normal" in="SourceGraphic" in2="effect1_dropShadow_3103_43411" result="shape"/>
<feColorMatrix in="SourceAlpha" type="matrix" values="0 0 0 0 0 0 0 0 0 0 0 0 0 0 0 0 0 0 127 0" result="hardAlpha"/>
<feOffset dx="-2" dy="-2"/>
<feGaussianBlur stdDeviation="2"/>
<feComposite in2="hardAlpha" operator="arithmetic" k2="-1" k3="1"/>
<feColorMatrix type="matrix" values="0 0 0 0 0.717647 0 0 0 0 0.431373 0 0 0 0 0 0 0 0 0.48 0"/>
<feBlend mode="normal" in2="shape" result="effect2_innerShadow_3103_43411"/>
</filter>
</defs>
</svg>
