<svg xmlns="http://www.w3.org/2000/svg" viewBox="0 0 400 225">
  <defs>
    <style>
      .cls-1 {
        isolation: isolate;
      }

      .cls-2 {
        fill: #b28de2;
      }

      .cls-3 {
        opacity: 0.15;
        mix-blend-mode: multiply;
      }

      .cls-4 {
        fill: #fff;
      }

      .cls-5 {
        fill: #ddd;
      }

      .cls-6 {
        opacity: 0.1;
      }

      .cls-7 {
        fill: #231f20;
      }

      .cls-8 {
        fill: #6cd389;
      }

      .cls-9 {
        fill: #8db7e2;
      }

      .cls-10 {
        fill: #e29696;
      }

      .cls-11 {
        fill: none;
      }
    </style>
  </defs>
  <title>summary</title>
  <g class="cls-1">
    <g id="Layer_2" data-name="Layer 2">
      <g id="summary">
        <g>
          <circle class="cls-2" cx="204" cy="113.5" r="85"/>
          <g>
            <g class="cls-3">
              <rect x="154" y="71.5" width="104" height="90"/>
            </g>
            <rect class="cls-4" x="151" y="69.5" width="105" height="89"/>
          </g>
          <rect class="cls-5" x="151" y="91.5" width="105" height="1"/>
          <polygon class="cls-5" points="257.16 114.5 150.84 114.5 150.84 114.5 257.16 114.5 257.16 114.5"/>
          <rect class="cls-5" x="151" y="135.5" width="105" height="1"/>
          <rect class="cls-5" x="151" y="113.5" width="105" height="1"/>
          <g>
            <g class="cls-6">
              <path class="cls-7" d="M251.43,100.3l-8.21,8.21-1.54,1.54a1.1,1.1,0,0,1-1.54,0l-1.54-1.54-4.11-4.11a1.1,1.1,0,0,1,0-1.54l1.54-1.54a1.1,1.1,0,0,1,1.54,0l3.33,3.35,7.44-7.45a1.1,1.1,0,0,1,1.54,0l1.54,1.54a1.1,1.1,0,0,1,0,1.54Z"/>
            </g>
            <path class="cls-8" d="M249.71,98.57l-8.21,8.21L240,108.32a1.1,1.1,0,0,1-1.54,0l-1.54-1.54-4.11-4.11a1.1,1.1,0,0,1,0-1.54l1.54-1.54a1.1,1.1,0,0,1,1.54,0l3.33,3.35,7.44-7.45a1.1,1.1,0,0,1,1.54,0L249.71,97a1.1,1.1,0,0,1,0,1.54Z"/>
          </g>
          <rect class="cls-9" x="159" y="99.5" width="55" height="7"/>
          <g>
            <g class="cls-6">
              <path class="cls-7" d="M251.43,122.58l-8.21,8.21-1.54,1.54a1.1,1.1,0,0,1-1.54,0l-1.54-1.54-4.11-4.11a1.1,1.1,0,0,1,0-1.54L236,123.6a1.1,1.1,0,0,1,1.54,0l3.33,3.35,7.44-7.45a1.1,1.1,0,0,1,1.54,0l1.54,1.54a1.1,1.1,0,0,1,0,1.54Z"/>
            </g>
            <path class="cls-8" d="M249.71,120.85l-8.21,8.21L240,130.61a1.1,1.1,0,0,1-1.54,0l-1.54-1.54L232.76,125a1.1,1.1,0,0,1,0-1.54l1.54-1.54a1.1,1.1,0,0,1,1.54,0l3.33,3.35,7.44-7.45a1.1,1.1,0,0,1,1.54,0l1.54,1.54a1.1,1.1,0,0,1,0,1.54Z"/>
          </g>
          <rect class="cls-9" x="159" y="121.5" width="35" height="7"/>
          <g>
            <g class="cls-6">
              <path class="cls-7" d="M251.43,144.74l-8.21,8.21-1.54,1.54a1.1,1.1,0,0,1-1.54,0l-1.54-1.54-4.11-4.11a1.1,1.1,0,0,1,0-1.54l1.54-1.54a1.1,1.1,0,0,1,1.54,0l3.33,3.35,7.44-7.45a1.1,1.1,0,0,1,1.54,0l1.54,1.54a1.1,1.1,0,0,1,0,1.54Z"/>
            </g>
            <path class="cls-8" d="M249.71,143l-8.21,8.21L240,152.76a1.1,1.1,0,0,1-1.54,0l-1.54-1.54-4.11-4.11a1.1,1.1,0,0,1,0-1.54L234.3,144a1.1,1.1,0,0,1,1.54,0l3.33,3.35,7.44-7.45a1.1,1.1,0,0,1,1.54,0l1.54,1.54a1.1,1.1,0,0,1,0,1.54Z"/>
          </g>
          <rect class="cls-9" x="159" y="144.5" width="52" height="7"/>
          <circle class="cls-10" cx="227.12" cy="79.94" r="5.39"/>
          <circle class="cls-8" cx="244.4" cy="79.94" r="5.39"/>
        </g>
        <rect class="cls-11" width="400" height="225"/>
      </g>
    </g>
  </g>
</svg>
