<?xml version="1.0" encoding="utf-8"?>
<!-- Generator: Adobe Illustrator 20.1.0, SVG Export Plug-In . SVG Version: 6.00 Build 0)  -->
<svg version="1.1" id="Layer_1" xmlns="http://www.w3.org/2000/svg" xmlns:xlink="http://www.w3.org/1999/xlink" x="0px" y="0px"
	 viewBox="0 0 400 225" style="enable-background:new 0 0 400 225;" xml:space="preserve">
<style type="text/css">
	.st0{fill:none;}
	.st1{fill:#F5C357;}
	.st2{fill:#34485E;}
	.st3{fill:#54B3ED;}
	.st4{fill:#FFFFFF;}
</style>
<title>flashcards</title>
<g>
	<g id="Layer_2">
		<g id="flashcards">
			<rect y="0" class="st0" width="400" height="225"/>
			<path class="st1" d="M214.1,90.4c-0.8,10.6,7.9,19.3,18.5,18.5c8.3-0.7,15-7.4,15.7-15.7c0.8-10.6-7.9-19.3-18.5-18.5
				C221.5,75.4,214.8,82.1,214.1,90.4z"/>
			<g>
				<path class="st2" d="M119.5,90.2c0-0.6,0.2-1.1,0.6-1.5l4.5-4.5c0.2-0.3,0.3-0.7,0.3-1.1c0-0.6-0.2-1.1-0.6-1.5l-1.2-1.2
					c-0.4-0.4-0.9-0.6-1.5-0.6c-0.6,0-1.1,0.2-1.5,0.6l-8.4,8.3c-0.4,0.4-0.6,0.9-0.6,1.5c0,0.6,0.2,1.1,0.6,1.5l8.4,8.4
					c0.4,0.4,0.9,0.6,1.5,0.6c0.6,0,1.1-0.2,1.5-0.6l1.2-1.2c0.4-0.4,0.6-0.9,0.6-1.5c0-0.3-0.1-0.7-0.3-1l-4.6-4.6
					C119.7,91.3,119.5,90.8,119.5,90.2z"/>
			</g>
			<g>
				<path class="st2" d="M280.3,90.2c0,0.6-0.2,1.1-0.6,1.5l-4.5,4.5c-0.2,0.3-0.3,0.7-0.3,1.1c0,0.6,0.2,1.1,0.6,1.5l1.2,1.2
					c0.4,0.4,0.9,0.6,1.5,0.6c0.6,0,1.1-0.2,1.5-0.6l8.4-8.3c0.4-0.4,0.6-0.9,0.6-1.5c0-0.6-0.2-1.1-0.6-1.5l-8.4-8.4
					c-0.4-0.4-0.9-0.6-1.5-0.6c-0.6,0-1.1,0.2-1.5,0.6l-1.2,1.2c-0.4,0.4-0.6,0.9-0.6,1.5c0,0.3,0.1,0.7,0.3,1l4.6,4.6
					C280.1,89.1,280.3,89.6,280.3,90.2z"/>
			</g>
			<g>
				<path class="st3" d="M277,110V156c0,7.3-5.6,13-12.9,13h-31.2c0.6,1,1,2.4,1,3.9c0,2-0.6,4.1-1.7,5.1h32
					c12.6,0,22.9-9.4,22.9-22V111c0,0.5-2.8,0.9-4.2,0.9C280.7,111.8,279,111.1,277,110z"/>
				<path class="st3" d="M167.1,169h-29.6c-7.3,0-13.5-5.6-13.5-13v-45.7c-1,1-3,1.5-4.9,1.5l0,0c-1.6,0-4.1-0.4-4.1-1.1V156
					c0,12.6,10,22,22.5,22h30.3c-1.1-1-1.7-3.1-1.7-5.1C166.2,171.4,166.5,170,167.1,169z"/>
				<path class="st3" d="M119.1,70.1c0.9,0,1.6,0.1,2.4,0.3c1,0.2,2.5,0.5,2.5,1v-4.5c0-7.3,6.2-12.9,13.5-12.9h126.5
					c7.3,0,12.9,5.6,12.9,12.9v4.8c2-0.5,1.9-0.9,2.9-1.2c0.9-0.3,2.1-0.5,3.1-0.5c0.9,0,1.9,0.1,2.7,0.4c0.4,0.1,1.2,0.2,1.2,0.3
					v-3.9c0-12.6-10.4-21.9-22.9-21.9H137.5C125,45,115,54.3,115,66.9v4.2c0-0.2,0.7-0.3,1.1-0.4C117.1,70.3,118,70.1,119.1,70.1
					L119.1,70.1z"/>
				<path class="st4" d="M280.2,70.6c1-0.3,2.1-0.4,3.1-0.4c0.9,0,1.7,0.1,2.5,0.3c-0.9-0.3-1.8-0.4-2.7-0.4
					C282.1,70.1,281.1,70.3,280.2,70.6z"/>
				<path class="st4" d="M121.6,70.5c-0.8-0.2-1.6-0.3-2.5-0.3l0,0c-1.1,0-2.1,0.2-3.1,0.5c1-0.3,2.1-0.4,3.1-0.4
					C119.9,70.2,120.8,70.3,121.6,70.5z"/>
			</g>
			<path class="st2" d="M204.1,170.7c2.6,4.6-2.1,9.3-6.7,6.7c-0.6-0.3-1-0.8-1.4-1.4c-2.6-4.6,2.1-9.3,6.7-6.7
				C203.3,169.6,203.8,170.1,204.1,170.7z"/>
			<path class="st2" d="M189.2,170.7c2.6,4.6-2.1,9.3-6.7,6.7c-0.6-0.3-1-0.8-1.4-1.4c-2.6-4.6,2.1-9.3,6.7-6.7
				C188.4,169.6,188.8,170.1,189.2,170.7z"/>
			<path class="st2" d="M219,170.7c2.6,4.6-2.1,9.3-6.7,6.7c-0.6-0.3-1-0.8-1.4-1.4c-2.6-4.6,2.1-9.3,6.7-6.7
				C218.2,169.6,218.6,170.1,219,170.7z"/>
			<path class="st2" d="M243.8,118l-14.4,18.9l-47.6-51.3l-43.6,47v13v1.4c0,5,4.1,9,9,9h0.2h107.1c2.1,0,3.9-0.7,5.5-1.9
				c2.2-1.9,3.5-5.1,3.5-8.6v-1.7L243.8,118z"/>
		</g>
	</g>
</g>
</svg>
