<svg height="24" viewBox="0 0 24 24" width="24" xmlns="http://www.w3.org/2000/svg"><path d="m19.8008251 5.91738011c-1.01377-.46080454-2.0275399-.73728726-3.1334708-.73728726-1.4745746 0-2.7648273.46080454-3.9629191.82944817-.7372872.27648272-1.4745745.46080453-2.0275399.46080453-.3686436 0-.5529655-.0921609-.6451264-.27648272 0-.09216091.0921609-.55296544.1843218-.82944816.2764828-.82944817.5529655-1.84321815-.1843218-2.85698813-.46080451-.55296545-1.19809177-.92160908-2.02753994-.92160908-.82944816 0-1.56673542.27648272-2.30402268.73728726-2.94914904 2.02753996-4.70020628 5.43749354-4.70020628 9.03176888 0 6.0826199 4.976689 11.0593089 11.0593089 11.0593089 4.8845281 0 9.3082516-3.3177926 10.6906653-8.1101598.0921609-.5529655 1.3824136-6.26694172-2.9491491-8.38664259zm-16.03599788 5.43749349c0-1.0137699.82944817-1.8432181 1.84321815-1.8432181s1.84321815.8294482 1.84321815 1.8432181c0 1.01377-.82944817 1.8432182-1.84321815 1.8432182s-1.84321815-.8294482-1.84321815-1.8432182zm4.14724084 6.4512636c-1.01376998 0-1.84321815-.8294482-1.84321815-1.8432182s.82944817-1.8432181 1.84321815-1.8432181 1.84321815.8294481 1.84321815 1.8432181-.82944817 1.8432182-1.84321815 1.8432182zm5.06884994 1.8432181c-1.01377 0-1.8432182-.8294482-1.8432182-1.8432181 0-1.01377.8294482-1.8432182 1.8432182-1.8432182 1.0137699 0 1.8432181.8294482 1.8432181 1.8432182 0 1.0137699-.8294482 1.8432181-1.8432181 1.8432181zm3.6864363-5.5296544c-1.5667355 0-2.7648273-1.1980918-2.7648273-2.7648273 0-1.56673538 1.1980918-2.76482717 2.7648273-2.76482717 1.5667354 0 2.7648272 1.19809179 2.7648272 2.76482717 0 1.5667355-1.1980918 2.7648273-2.7648272 2.7648273z" fill-rule="evenodd"/></svg>