<svg height="24" viewBox="0 0 24 24" width="24" xmlns="http://www.w3.org/2000/svg"><g fill-rule="evenodd"><path d="m3.47368362.5c-.11968391 0-.23742198.00669674-.35403025.01871736-.23240402.02395923-.45806101.07157636-.67475369.13975621-1.08876338.34257162-1.94958903 1.21336054-2.28823931 2.31472356-.06740152.2192007-.11447207.44746946-.13815716.68256334-.0000423.00041186.0000423.0008362 0 .00124806-.01180201.11755852-.01850321.23622961-.01850321.35687976v1.27777838 14.69444503c0 1.9293006 1.56645914 3.5138883 3.47368362 3.5138883h17.05263158c1.9072262 0 3.4736848-1.5845895 3.4736848-3.5138883v-14.69444503-1.27777838c0-.12100317-.0064838-.24014139-.0185044-.35812782-.0236851-.23509388-.0707574-.46336264-.1381571-.68256334-.3386521-1.1013648-1.1994777-1.97215372-2.2882411-2.31472356-.2166927-.06818163-.4423497-.11579698-.6747537-.13975621-.0004054-.000041-.0008284.00004101-.0012338 0-.1162399-.01207767-.2335937-.01871736-.3527965-.01871736zm0 1.91666667c.52294737 0 .94736842.42933333.94736842.95833333s-.42442105.95833333-.94736842.95833333-.94736842-.42933333-.94736842-.95833333.42442105-.95833333.94736842-.95833333zm3.15789533 0c.52294737 0 .94736842.42933333.94736842.95833333s-.42442105.95833333-.94736842.95833333-.94736842-.42933333-.94736842-.95833333.42442105-.95833333.94736842-.95833333zm-4.73684211 3.83333333h20.21052686v13.7361117c0 .8933111-.6958566 1.5972216-1.5789467 1.5972216h-17.05263161c-.88309014 0-1.57894855-.7039105-1.57894855-1.5972216z"/><path d="m4.8164557 13.8227848c.34599156 0 .63502109-.1181434.8670886-.3544304.23206751-.2362869.34810127-.5274261.34810127-.8734177s-.11603376-.6371308-.34810127-.8734177-.52109704-.3544304-.8670886-.3544304c-.35443038 0-.64767933.1181435-.87974684.3544304s-.34810127.5274261-.34810127.8734177.11603376.6371308.34810127.8734177c.23206751.236287.52531646.3544304.87974684.3544304zm0 3.9746836c.34599156 0 .63502109-.1181435.8670886-.3544304s.34810127-.5274262.34810127-.8734177c0-.3459916-.11603376-.6371308-.34810127-.8734178-.23206751-.2362869-.52109704-.3544303-.8670886-.3544303-.35443038 0-.64767933.1181434-.87974684.3544303-.23206751.236287-.34810127.5274262-.34810127.8734178 0 .3459915.11603376.6371308.34810127.8734177s.52531646.3544304.87974684.3544304zm3.10126582.9367088c.18565401 0 .35232067-.0506329.5-.1518987.14767932-.1012658.25527426-.2531646.32278481-.4556962l2.87341777-9.02531648c.0337552-.13502109.0506329-.2278481.0506329-.27848101 0-.24472574-.0907173-.44303797-.2721519-.59493671-.1814346-.15189873-.3902954-.2278481-.6265823-.2278481-.1772152 0-.3396625.05063291-.4873418.15189873-.1476793.10126583-.2552742.25316456-.3227848.45569621l-2.87341772 9.02531646c-.03375527.092827-.05063291.1898734-.05063291.2911392 0 .236287.08860759.4303798.26582278.5822785s.38396625.2278481.62025317.2278481zm3.75949368 0c.185654 0 .3523207-.0506329.5-.1518987s.2552743-.2531646.3227848-.4556962l2.8734177-9.02531648c.0337553-.13502109.0506329-.2278481.0506329-.27848101 0-.24472574-.0907173-.44303797-.2721519-.59493671-.1814346-.15189873-.3902953-.2278481-.6265822-.2278481-.1772152 0-.3396625.05063291-.4873418.15189873-.1476793.10126583-.2552743.25316456-.3227848.45569621l-2.8734177 9.02531646c-.0337553.092827-.050633.1898734-.050633.2911392 0 .236287.0886076.4303798.2658228.5822785s.3839663.2278481.6202532.2278481zm7.8860759.2658228c.2616034 0 .4683545-.0590717.6202532-.1772152.1518987-.1181434.2278481-.2742616.2278481-.4683544s-.0759494-.3481013-.2278481-.4620253c-.1518987-.1139241-.3586498-.1708861-.6202532-.1708861h-4.6329114c-.2616033 0-.4683544.056962-.6202531.1708861-.1518988.113924-.2278481.2679325-.2278481.4620253s.0759493.350211.2278481.4683544c.1518987.1181435.3586498.1772152.6202531.1772152z"/></g></svg>