<svg height="24" viewBox="0 0 24 24" width="24" xmlns="http://www.w3.org/2000/svg"><path d="m9.91018455 2.28593239c-.24801721-.10389886-.53625392-.04692231-.72729459.14411835l-7.98682185 6.27416385c-.26142414.25807143-.26142414.68372238 0 .94514652l7.98682185 6.24399989c.12736002.12736.29829094.1977435.47257327.1977435.08714051 0 .17428233-.0201098.25472003-.0536252.25136864-.1038988.39883834-.3452132.39883834-.6166916v-3.7403666c8.5431869 0 12.2768494 2.4097873 11.7104328 10.0849139 3.616358-12.27684929-3.3281226-15.05196091-11.7104328-15.05196091v-3.81075008c0-.27147837-.1474697-.51279147-.39883834-.61669162z" fill-rule="evenodd" transform="matrix(-1 0 0 1 24 0)"/></svg>