<svg height="24" viewBox="0 0 24 24" width="24" xmlns="http://www.w3.org/2000/svg"><path d="m20 1c2.209139 0 4 1.790861 4 4v14c0 2.209139-1.790861 4-4 4h-16c-2.209139 0-4-1.790861-4-4v-14c0-2.209139 1.790861-4 4-4zm-4.5210628 7.91431888c-.369459-.41051002-1.0017488-.44378843-1.4122588-.07432941l-7.1296849 6.41671643c-.21071386.1896424-.33103527.4598076-.33103527.7432941 0 .5522847.44771525 1 1 1h10.69452727c.1699443 0 .337085-.0433105.485643-.1258427.4827837-.2682132.6567275-.8770165.3885143-1.3598002l-3.5648424-6.41671642c-.0365781-.0658405-.0804775-.12733776-.1308632-.1833218zm-8.4789372-2.91431888c-1.1045695 0-2 .8954305-2 2s.8954305 2 2 2 2-.8954305 2-2-.8954305-2-2-2z" fill-rule="evenodd"/></svg>