<svg height="24" viewBox="0 0 24 24" width="24" xmlns="http://www.w3.org/2000/svg"><path d="m20.8333324 20.9047624c.2891428 0 .523809.2341428.523809.523809v1.0476196c0 .2891428-.2346662.523809-.523809.523809h-17.80952336c-.28966618 0-.52380904-.2346662-.52380904-.523809v-1.0476196c0-.2896662.23414286-.523809.52380904-.523809zm-13.09523765-19.9047624c.28914286 0 .52380904.23466618.52380904.52380904v9.40814286c0 3.157 1.2330481 4.7347143 3.70071431 4.7347143 2.4215714 0 3.6326195-1.5242857 3.6326195-4.5718091v-9.57104806c0-.28914286.2346662-.52380904.523809-.52380904h3.1056677c.3095714 0 .561.25143003.561.56100146v9.21223764c0 5.7069038-2.6588572 8.5600947-7.9765714 8.5600947-5.15900004 0-7.73771433-2.7871909-7.73771433-8.3610481v-9.4112857c0-.30957143.25142857-.561.561-.561z" fill-rule="evenodd"/></svg>