<svg height="24" viewBox="0 0 24 24" width="24" xmlns="http://www.w3.org/2000/svg"><path d="m21.5188212 16.5880682c0 1.0120733-.2130694 1.8714489-.6427565 2.5710221-.4261362.6995731-1.0404824 1.2535504-1.8359367 1.6583808-.8487213.4296871-1.8217329.7386364-2.9261365.9161922-1.1044036.1775572-1.4950288.2663367-2.9900577.2663367h-10.64275505v-1.6228702c.29119313-.024858 1.84659091-.3799724 1.84659091-1.7755677v-12.91548218c0-1.69034081-1.55539778-1.88565413-1.84659091-1.93181787v-1.75426205h10.86647735c2.7343755 0 3.3096585.37642146 4.5205961 1.12571068 1.2144886.75284154 1.8181819 1.86079609 1.8181819 3.32741596 0 2.80539725-2.244318 4.48153426-2.9758511 4.65198816v.2663351c.7315331.0745741 4.8082382.8664775 4.8082382 5.2166197zm-6.8252844-9.29332349c0-.82741427-.3125002-1.47727272-.9375006-1.93892114-.6250005-.46875031-1.3529826-.69957315-2.6029835-.69957315-.1775571 0-.4083813.00710328-.6960222.01775613-.2840912.01065423-.53267151.02130709-.73863631.02485804v5.54687601h.73153311c1.5234378 0 2.4360804-.2663351 3.1605116-.79545434.7208802-.52912062 1.0830979-1.24644852 1.0830979-2.15554017zm.7386364 8.77485849c0-1.0617895-.3941763-1.8749999-1.1896306-2.4396314-.7919034-.5646315-1.729404-.8487214-3.2173296-.8487214-.1704539 0-.3977272.003551-.6818184.0177562-.2805403.0106542-.49005739.0177561-.62500041.024858v6.5198861h2.09516991c1.0724436 0 1.9424721-.2840912 2.6136362-.8558232.6711642-.5752844 1.0049729-1.3813916 1.0049729-2.4183243z" fill-rule="evenodd"/></svg>