<svg height="24" viewBox="0 0 24 24" width="24" xmlns="http://www.w3.org/2000/svg"><path d="m14.9989353 22h-11.09020053l.45454517-1.7258518c.27343702 0 .7279822-.0923303 1.18252874-.0923303.54687542 0 .81676149-.0923288 1.09019851-.1811081.36576726-.1811068.63565332-.3657659.82031243-.5468741.18110678-.273437.36221493-.543323.45454517-.9090903l3.27059691-12.8160524c.0923288-.36576726.0923288-.63920428 0-.82031243-.0887779-.27343702-.2734371-.45454517-.5433231-.63565333-.1846591-.09232886-.5468754-.18110815-.90909037-.27343702-.45454517-.08877791-.90909034-.18110815-1.18252874-.18110815l.45454518-1.81818207h11.09020053l-.4545451 1.81818207c-.2734371 0-1.0014206.09233024-1.4559658.09233024-.4545452.08877791-.8167615.08877791-1.0901985.18110678-.3622163.08877929-.7279822.27343839-.9090904.54332446-.1811081.27343702-.3622163.54687404-.3622163.90909035l-3.2741478 12.8196033c-.0887779.3622163-.0887779.6356534 0 .9090904.0923289.273437.273437.4545452.5468741.5468754.1811081.0887779.4545451.1811068.9090903.2698861.4545452.0923288 1.1825287.0923288 1.4524162.1846591z" fill-rule="evenodd"/></svg>