<svg height="24" viewBox="0 0 24 24" width="24" xmlns="http://www.w3.org/2000/svg"><path d="m5.64666667 9.66666667c-.34-.63333334-.51333334-1.37333334-.51333334-2.22 0-.81333334.17333334-1.55333334.52666667-2.22666667s.84666667-1.24666667 1.48666667-1.72 1.39333333-.84 2.27333333-1.1 1.84-.39333333 2.8933333-.39333333c1.08 0 2.06.14666666 2.94.44666666s1.6333334.71333334 2.26 1.25333334c.6266667.53333333 1.1066667 1.16666666 1.4466667 1.90666666.34.73333334.5066667 1.54.5066667 2.41333334h-4.0133334c0-.40666667-.0666666-.78666667-.1933333-1.13333334-.1266667-.35333333-.3266667-.65333333-.5933333-.9-.2666667-.24666666-.6-.44666666-1-.58-.4-.14-.8733334-.20666666-1.42-.20666666-.5266667 0-.98.06-1.3733334.17333333-.3866666.11333333-.7066666.27333333-.95999997.48-.25333333.20666667-.44666666.44666667-.57333333.72s-.19333333.57333333-.19333333.88c0 .64.32666666 1.18.98000003 1.61333333.5.32666667 1.02.64 1.8733333.93333337h-6.14666667c-.06666666-.11333337-.14-.22000003-.20666666-.34000003zm18.35333333 4.34000003v-2.6666667h-24v2.6666667h12.8333333c.24.0933333.5333334.1866666.7333334.2733333.4933333.22.88.4533333 1.16.68.28.2333333.4666666.4866667.5666666.7533333.1.2733334.1466667.58.1466667.9133334 0 .3133333-.06.6066666-.18.8733333-.12.2733333-.3066667.5066667-.5533333.7-.2466667.1933333-.5666667.3466667-.9466667.46-.3866667.1133333-.8333333.1666667-1.3533333.1666667-.58 0-1.1066667-.06-1.58-.1733334-.4733334-.1133333-.87333337-.3-1.2066667-.5533333s-.59333333-.5866667-.78-.9933333c-.18666667-.4066667-.34-1.02-.34-1.6066667h-3.96666667c0 .7333333.10666667 1.5066667.31333334 2.1066667.20666666.6.5 1.14.86666666 1.6133333.36666667.4733333.80666667.88 1.30666667 1.2266667.5.3466666 1.04.64 1.62666667.8666666.58666666.2333334 1.19333333.4066667 1.84000003.5133334.64.1133333 1.2866666.1666666 1.9266666.1666666 1.0666667 0 2.04-.12 2.9066667-.3666666.8666667-.2466667 1.6133333-.6 2.2266667-1.0533334.6133333-.46 1.0866666-1.02 1.4266666-1.6933333s.5-1.4333333.5-2.2866667c0-.8-.14-1.52-.4133333-2.1533333-.0666667-.1533333-.14-.3-.2266667-.4466667h5.1666667z" fill-rule="evenodd"/></svg>