<svg height="24" viewBox="0 0 24 24" width="24" xmlns="http://www.w3.org/2000/svg"><path d="m8.3267219 10.9587669.24103809.0061668c.42823716.0217918.85403592.1011594 1.26479609.2384288l-1.88184561 1.8818456c-.53807487.0791132-1.05709945.3172556-1.47047926.7306354l-2.61964397 2.619644c-1.02113722 1.0211372-1.02113722 2.6826784 0 3.7043395 1.02113722 1.0216612 2.68320232 1.0216612 3.70433953 0l2.61964393-2.6196439c.4133799-.4133799.6510227-.9324044.729612-1.4704793l1.8828691-1.8828691c.5490774 1.6430407.1748856 3.5284304-1.1307449 4.834061l-2.61964401 2.619644c-.91949503.919495-2.12677471 1.379407-3.33390664 1.379407-1.20713194 0-2.41441162-.4594125-3.33390665-1.3783836-1.83846613-1.8384661-1.83846613-4.8303691 0-6.6688352l2.61964396-2.619644c.97961587-.9792229 2.28455038-1.433527 3.56926491-1.3681502zm6.7962889-3.15991963c.4320144-.0127403.8275364.24104685.9959841.63907129.1684477.39802596.075263.85863705-.2346516 1.15988696l-6.28714548 6.28714548c-.26282035.2737437-.65309551.384014-1.02030868.2882858-.36721468-.0957297-.65398497-.3825-.74971316-.7497132s.01454207-.7574883.28828573-1.0203087l6.28714549-6.28714549c.1897902-.19533558.4481708-.30911038.7204021-.31722214zm3.1640365-6.79879396c1.2075249 0 2.4144116.46043593 3.3339066 1.37940704 1.8384662 1.83846613 1.8389901 4.82934563 0 6.66781176l-2.6196439 2.61964399c-.9194951.919495-2.1272728 1.379407-3.3349287 1.379407-.507687 0-1.0139499-.0862441-1.5001558-.2486621l1.8828691-1.8828691c.5385988-.0791132 1.0570994-.3162321 1.4704792-.7296119l2.619644-2.619644c1.0211372-1.02113722 1.0211372-2.68267839 0-3.70433954-.5103066-.51083057-1.1815417-.76644994-1.8521705-.76644994-.6706289 0-1.3423619.2561433-1.8531925.76644994l-2.619644 2.61964397c-.4133798.41337982-.6510226.93240439-.7296119 1.47047926l-1.8818457 1.88184561c-.5490773-1.64304069-.1759091-3.52843044 1.1297215-4.83406099l2.619644-2.61964396c.919495-.91923307 2.1274037-1.37940704 3.3349286-1.37940704z" fill-rule="evenodd"/></svg>