<svg height="24" viewBox="0 0 24 24" width="24" xmlns="http://www.w3.org/2000/svg"><g fill-rule="evenodd"><path d="m22.4322055 17.8c-.3785991.0005454-.7458061-.1564642-1.0398636-.444624l-4.0794652-4.0692635c-.3240712-.3117537-.5128767-.7849998-.5128767-1.2855393s.1888055-.9737856.5128767-1.2855393l4.0794652-4.06926353c.5010792-.48514274 1.187193-.58268164 1.7677682-.25130843.5050841.26902487.8334646.86990235.8398899 1.53684773v8.13852703c-.0064253.6669453-.3348058 1.2678228-.8398899 1.5368477-.2286638.1256522-.4767119.1915279-.7279046.1933156z" transform="matrix(-1 0 0 1 40.8 0)"/><rect height="2.4" rx="1.2" width="19.61" y=".8"/><rect height="2.4" rx="1.2" width="14" y="5.8"/><rect height="2.4" rx="1.2" width="14" y="10.8"/><rect height="2.4" rx="1.2" width="14" y="15.8"/><rect height="2.4" rx="1.2" width="19.61" y="20.8"/></g></svg>