<svg height="24" viewBox="0 0 24 24" width="24" xmlns="http://www.w3.org/2000/svg"><g fill-rule="evenodd"><rect height="2.4" rx="1.2" width="19.61" x="4.39" y=".8"/><rect height="2.4" rx="1.2" width="14" x="10" y="5.8"/><rect height="2.4" rx="1.2" width="14" x="10" y="10.8"/><rect height="2.4" rx="1.2" width="14" x="10" y="15.8"/><rect height="2.4" rx="1.2" width="19.61" x="4.39" y="20.8"/><path d="m5.63220554 17.8c-.37859915.0005454-.74580614-.1564642-1.03986368-.444624l-4.07946518-4.0692635c-.32407118-.3117537-.51287668-.7849998-.51287668-1.2855393s.1888055-.9737856.51287668-1.2855393l4.07946518-4.06926353c.50107928-.48514274 1.18719301-.58268164 1.76776825-.25130843.50508407.26902487.83346463.86990235.83988989 1.53684773v8.13852703c-.00642526.6669453-.33480582 1.2678228-.83988989 1.5368477-.22866379.1256522-.4767119.1915279-.72790457.1933156z"/></g></svg>