<svg height="24" viewBox="0 0 24 24" width="24" xmlns="http://www.w3.org/2000/svg"><path d="m2.4 1.2c1.3254834 0 2.4 1.0745166 2.4 2.4s-1.0745166 2.4-2.4 2.4-2.4-1.0745166-2.4-2.4 1.0745166-2.4 2.4-2.4zm20.4 1.2c.6627417 0 1.2.5372583 1.2 1.2s-.5372583 1.2-1.2 1.2h-13.6c-.6627417 0-1.2-.5372583-1.2-1.2s.5372583-1.2 1.2-1.2zm-20.4 7.2c1.3254834 0 2.4 1.0745166 2.4 2.4s-1.0745166 2.4-2.4 2.4-2.4-1.0745166-2.4-2.4 1.0745166-2.4 2.4-2.4zm20.4 1.2c.6627417 0 1.2.5372583 1.2 1.2s-.5372583 1.2-1.2 1.2h-13.6c-.6627417 0-1.2-.5372583-1.2-1.2s.5372583-1.2 1.2-1.2zm-20.4 7.2c1.3254834 0 2.4 1.0745166 2.4 2.4s-1.0745166 2.4-2.4 2.4-2.4-1.0745166-2.4-2.4 1.0745166-2.4 2.4-2.4zm20.4 1.2c.6627417 0 1.2.5372583 1.2 1.2s-.5372583 1.2-1.2 1.2h-13.6c-.6627417 0-1.2-.5372583-1.2-1.2s.5372583-1.2 1.2-1.2z" fill-rule="evenodd"/></svg>