<svg height="24" viewBox="0 0 24 24" width="24" xmlns="http://www.w3.org/2000/svg"><path d="m7.8824164 22.5016181c.28478964 0 .52211434-.0791082.71197411-.2373247.18985976-.1582164.28478964-.3876303.28478964-.6882416s-.09492988-.5300252-.28478964-.6882417c-.18985977-.1582164-.42718447-.2373247-.71197411-.2373247h-.92556635c-.34807623 0-.60517799-.0830636-.77130528-.2491909s-.24919094-.4311399-.24919094-.7950378v-5.0312837c0-.6961524-.17799353-1.2736425-.53398058-1.7324703-.35598706-.4588278-.77921611-.7436174-1.26968717-.8543689.49047106-.1107516.91370011-.3915858 1.26968717-.8425027.35598705-.450917.53398058-1.0244517.53398058-1.72060413v-5.03128371c0-.36389788.08306365-.62891047.24919094-.79503776s.42322905-.24919094.77130528-.24919094h.92556635c.28478964 0 .52211434-.07910823.71197411-.2373247.18985976-.15821647.28478964-.38763035.28478964-.68824164s-.09492988-.53002517-.28478964-.68824164c-.18985977-.15821647-.42718447-.2373247-.71197411-.2373247h-1.70873787c-.82272564 0-1.45954692.22941388-1.91046386.68824164s-.6763754 1.10751528-.6763754 1.94606256v5.03128372c0 .63286587-.11866236 1.095649-.35598706 1.3883495s-.65659834.4548724-1.25782093.4865157c-.31643293.0158216-.55771305.1107515-.72384034.2847896s-.24919094.3955412-.24919094.6645092c0 .2847896.08306365.5142035.24919094.6882416s.40740741.268968.72384034.2847896c.60122259.0316433 1.02049623.1938152 1.25782093.4865157s.35598706.7554836.35598706 1.3883495v5.0312837c0 .8385473.22545846 1.4872348.6763754 1.9460626.45091694.4588277 1.08773822.6882416 1.91046386.6882416zm9.9439051 0c.8385473 0 1.4832794-.2294139 1.9341963-.6882416.4509169-.4588278.6763754-1.1075153.6763754-1.9460626l.0237325-5.0312837c0-.6486875.1147069-1.1154261.3441208-1.4002157.2294139-.2847897.6368213-.4430062 1.2222222-.4746495.316433-.0158216.5577131-.1107515.7238404-.2847896s.2491909-.403452.2491909-.6882416c0-.268968-.0830636-.4904711-.2491909-.6645092s-.4074074-.268968-.7238404-.2847896c-.6012226-.0316433-1.0165408-.1898598-1.2459547-.4746495-.2294139-.2847896-.3441208-.75152818-.3441208-1.4002157v-5.03128372c0-.83854728-.2254585-1.4872348-.6763754-1.94606256s-1.095649-.68824164-1.9341963-.68824164h-1.7087379c-.2847896 0-.5181589.07910823-.7001079.2373247-.1819489.15821647-.2729234.38763035-.2729234.68824164s.0949299.53002517.2847897.68824164c.1898597.15821647.4192736.2373247.6882416.2373247h.9492988c.6803308 0 1.0204962.34807623 1.0204962 1.0442287v5.03128371c0 .69615243.1779936 1.26968713.5339806 1.72060413.3559871.4509169.7792161.7317511 1.2696872.8425027-.4904711.1107515-.9137001.3955411-1.2696872.8543689-.355987.4588278-.5339806 1.0363179-.5339806 1.7324703v5.0312837c0 .6961525-.3401654 1.0442287-1.0204962 1.0442287h-.9492988c-.268968 0-.4983819.0791083-.6882416.2373247-.1898598.1582165-.2847897.3876304-.2847897.6882417s.0909745.5300252.2729234.6882416c.181949.1582165.4153183.2373247.7001079.2373247z" fill-rule="evenodd"/></svg>