<svg height="24" viewBox="0 0 24 24" width="24" xmlns="http://www.w3.org/2000/svg"><path d="m12.6118335 2.06669945-11.15696751 11.15696745c-1.27315465 1.2731547-1.27315465 3.333594 0 4.6067486l4.71471847 4.750709c.21144331.2069437.49486598.3194132.79178429.3239128h15.96079375c.2886943 0 .5227273-.234033.5227273-.5227273v-1.257919c0-.2886943-.234033-.5227272-.5227273-.5227272h-9.0146811l8.6376526-8.6376527c1.2731547-1.2731546 1.2731547-3.33359395 0-4.6067486l-5.3265519-5.29056145c-.6343267-.63432671-1.4666011-.97173833-2.3033735-.97173833-.836774 0-1.6690484.33740841-2.3033751.97173673zm-3.61556885 8.33318295 5.17969435 5.1796943c.4082754.4082754.4082754 1.0702206 0 1.478496l-3.3904846 3.3904846c-.0980304.0980304-.2309881.1531033-.369624.1531033h-2.73409732c-.13863589 0-.27159362-.0550729-.369624-.1531033l-4.23770403-4.237704c-.34190641-.3419065-.34190641-1.0257209 0-1.3676289l4.44334348-4.4433421c.40827553-.40827519 1.07022065-.40827514 1.47849612.0000001z" fill-rule="evenodd"/></svg>