<svg height="24" viewBox="0 0 24 24" width="24" xmlns="http://www.w3.org/2000/svg"><path d="m7.49480769 5.65136614 2.61126571-5.10664355c.1709653-.33434322.5148306-.54472259.8903496-.54472259h2.3226828c.5522847 0 1 .44771525 1 1 0 .16667431-.0416607.33070525-.1211943.4771796l-3.813296 7.0228204 3.813296 7.0228204c.2635391.485351.0837249 1.0924464-.4016261 1.3559854-.1464744.0795336-.3105053.1211942-.4771796.1211942h-2.3214297c-.3761748 0-.7205248-.2111074-.8911779-.546346l-2.6064982-5.1203201-2.60649815 5.1203201c-.17065319.3352386-.51500312.546346-.89117791.546346h-2.32142969c-.55228475 0-1-.4477153-1-1 0-.1666743.04166062-.3307053.1211942-.4771796l3.81329604-7.0228204-3.81329604-7.0228204c-.26353902-.48535103-.08372485-1.09244638.40162619-1.35598539.14647435-.07953359.3105053-.12119421.47717961-.12119421h2.3216806c.37604352 0 .72029649.21096154.89101237.54602098zm15.40855361 18.34863386c.3697479 0 .644958-.0756303.8256303-.2268908s.2710084-.3865546.2710084-.7058823c0-.3109244-.0903361-.539916-.2710084-.6869748s-.4558824-.2205882-.8256303-.2205882h-2.5336134l1.789916-1.8277311c.4957983-.5210084.8466386-.9936975 1.052521-1.4180673.2058823-.4243697.3088235-.8928571.3088235-1.4054621 0-.4957984-.1281513-.934874-.3844538-1.3172269-.2563025-.382353-.6197479-.6764706-1.0903361-.882353-.4705882-.2058823-1.0168067-.3088235-1.6386555-.3088235-.4789916 0-.9642857.0756303-1.4558823.2268908-.4915967.1512605-.934874.3613445-1.329832.6302521-.1512605.1008403-.2542016.210084-.3088235.327731-.0546218.1176471-.0819328.2689076-.0819328.4537816 0 .2605042.0714286.4852941.2142858.6743697.1428571.1890756.3193277.2836135.5294117.2836135.0840336 0 .1638656-.0126051.2394958-.0378152.0756303-.0252101.1617647-.065126.2584034-.1197479.0966386-.0546218.1617647-.0903361.1953781-.1071428l.2521009-.1260504c.2689075-.1344538.5063025-.237395.7121848-.3088236.2058824-.0714285.4306723-.1071428.6743698-.1071428.302521 0 .5357143.0756302.6995798.2268907.1638656.1512605.2457983.3697479.2457983.6554622 0 .487395-.2773109 1.0210084-.8319327 1.6008403l-2.6722689 2.7857143c-.2857143.2941177-.4285715.6218488-.4285715.9831933 0 .2773109.0882353.5063025.2647059.6869748s.4159664.2710084.7184874.2710084z" fill-rule="evenodd"/></svg>