<svg height="24" viewBox="0 0 24 24" width="24" xmlns="http://www.w3.org/2000/svg"><path d="m7.49480769 12.6513661 2.61126571-5.10664351c.1709653-.33434322.5148306-.54472259.8903496-.54472259h2.3226828c.5522847 0 1 .44771525 1 1 0 .16667431-.0416607.33070525-.1211943.4771796l-3.813296 7.0228204 3.813296 7.0228204c.2635391.485351.0837249 1.0924464-.4016261 1.3559854-.1464744.0795336-.3105053.1211942-.4771796.1211942h-2.3214297c-.3761748 0-.7205248-.2111074-.8911779-.546346l-2.6064982-5.1203201-2.60649815 5.1203201c-.17065319.3352386-.51500312.546346-.89117791.546346h-2.32142969c-.55228475 0-1-.4477153-1-1 0-.1666743.04166062-.3307053.1211942-.4771796l3.81329604-7.0228204-3.81329604-7.0228204c-.26353902-.48535103-.08372485-1.09244638.40162619-1.35598539.14647435-.07953359.3105053-.12119421.47717961-.12119421h2.3216806c.37604352 0 .72029649.21096154.89101237.54602097zm15.40855361-3.6513661c.3697479 0 .644958-.07563025.8256303-.22689076.1806723-.1512605.2710084-.38655462.2710084-.70588235 0-.31092437-.0903361-.53991597-.2710084-.68697479s-.4558824-.22058823-.8256303-.22058823h-2.5336134l1.789916-1.8277311c.4957983-.5210084.8466386-.99369748 1.052521-1.41806722.2058823-.42436975.3088235-.89285715.3088235-1.40546219 0-.49579832-.1281513-.93487395-.3844538-1.31722689s-.6197479-.67647059-1.0903361-.88235294-1.0168067-.30882353-1.6386555-.30882353c-.4789916 0-.9642857.07563025-1.4558823.22689076-.4915967.1512605-.934874.36134453-1.329832.6302521-.1512605.10084033-.2542016.21008403-.3088235.32773109-.0546218.11764706-.0819328.26890756-.0819328.45378151 0 .2605042.0714286.48529412.2142858.67436975.1428571.18907563.3193277.28361345.5294117.28361345.0840336 0 .1638656-.01260505.2394958-.03781513.0756303-.02521008.1617647-.06512605.2584034-.1197479.0966386-.05462185.1617647-.09033613.1953781-.10714286l.2521009-.12605042c.2689075-.13445378.5063025-.23739496.7121848-.30882353.2058824-.07142857.4306723-.10714285.6743698-.10714285.302521 0 .5357143.07563025.6995798.22689075.1638656.15126051.2457983.3697479.2457983.65546219 0 .48739496-.2773109 1.0210084-.8319327 1.60084033l-2.6722689 2.78571429c-.2857143.29411765-.4285715.62184874-.4285715.98319328 0 .27731092.0882353.50630252.2647059.68697479s.4159664.2710084.7184874.2710084z" fill-rule="evenodd"/></svg>