<svg height="24" viewBox="0 0 24 24" width="24" xmlns="http://www.w3.org/2000/svg"><path d="m16.9992979.5c-1.1524994 0-2.3053652.43919428-3.18296 1.31651879l-2.50027 2.50021236c-1.2461346 1.24610584-1.6022981 3.04553919-1.0782415 4.61367238l1.7960922-1.7960508c.0750081-.51354362.3018219-1.00890546.6963645-1.40343897l2.50027-2.50021235c.4875527-.48704137 1.1286757-.7315069 1.7687448-.7315069s1.2807168.24396549 1.7677694.7315069c.9746053.97508281.9746053 2.56087303 0 3.5354558l-2.50027 2.50021236c-.3945426.3945335-.8894158.62084197-1.4034713.69634838l-1.7970691 1.79702765c.4640501.1550131.9472433.2373254 1.4317956.2373254 1.1526245 0 2.3053653-.4389443 3.18296-1.3165188l2.5002701-2.50021238c1.7551895-1.75464903 1.7546895-4.609172 0-6.36382103-.8775948-.87707449-2.0294852-1.31651879-3.1819847-1.31651879zm-3.0198566 6.48883165c-.2598261.00774193-.5064327.11632965-.6875743.30275972l-6.00064808 6.00050963c-.2612695.2508382-.36651487.6233204-.2751489.973792.09136597.3504717.3650685.6241679.71554966.7155332.35047971.0913639.72297052-.0138791.97381448-.2751426l6.00064804-6.00050961c.2957921-.2875157.3847305-.72712717.2239588-1.10700682-.1607717-.37987819-.5382703-.62209499-.9505983-.60993552zm-6.25653622 3.02174215c-1.22617167-.06239633-2.47164194.3711957-3.40661792 1.3057751l-2.50027003 2.5002124c-1.75468951 1.754649-1.75468951 4.6101488 0 6.3647978.87759478.8770745 2.02986021 1.315542 3.18198464 1.315542s2.30438987-.4389443 3.18198465-1.3165188l2.50026998-2.5002124c1.2461346-1.2461058 1.6032749-3.0455392 1.0792183-4.6136723l-1.79706903 1.7970276c-.07500811.5135436-.30182185 1.0089054-.69636446 1.403439l-2.50027003 2.5002123c-.97460525.9750828-2.5609321.9750828-3.53553736 0s-.97460526-2.560873 0-3.5354558l2.50027003-2.5002123c.39454261-.3945336.88991588-.6218189 1.40347134-.6973253l1.79609224-1.7960508c-.39204234-.1310111-.79843798-.2067603-1.2071609-.2275585zm10.77655482 3.4885768c-2.5687774 0-4.7007111 1.9625809-4.9712403 4.4622932-.0190021.176515-.0292997.3566161-.0292997.5381315 0 2.7502336 2.250243 5.0004247 5.00054 5.0004247 2.7502971 0 5.0005401-2.2501911 5.0005401-5.0004247s-2.250243-5.0004247-5.0005401-5.0004247zm-1.750189 2.7502336c.1500162 0 .249636.0503952.3496468.1504037l1.4005422 1.3995331 1.4005423-1.3995331c.2000216-.200017.4992734-.200017.699295 0s.2000216.4992619 0 .6992789l-1.3995654 1.4005099 1.3995654 1.40051c.2000216.200017.2000216.4992619 0 .6992789-.1000108.1000084-.249636.1504037-.3496468.1504037s-.249636-.0503953-.3496468-.1504037l-1.4005422-1.3995332-1.4005423 1.3995332c-.1000108.1000084-.2496359.1504037-.3496467.1504037s-.249636-.0503953-.3496468-.1504037c-.2000216-.200017-.2000216-.4992619 0-.6992789l1.3995654-1.40051-1.3995654-1.4005099c-.2000216-.200017-.2000216-.4992619 0-.6992789.1000108-.1000085.1996306-.1504037.3496468-.1504037z" fill-rule="evenodd"/></svg>