<?xml version="1.0" encoding="utf-8"?>
<!-- Generator: Adobe Illustrator 20.1.0, SVG Export Plug-In . SVG Version: 6.00 Build 0)  -->
<svg version="1.1" id="Layer_1" xmlns="http://www.w3.org/2000/svg" xmlns:xlink="http://www.w3.org/1999/xlink" x="0px" y="0px"
	 viewBox="0 0 213 165.3" style="enable-background:new 0 0 213 165.3;" xml:space="preserve">
<style type="text/css">
	.st0{fill:#FFFFFF;}
	.st1{fill:#4A4B5D;}
</style>
<g>
	<path class="st0" d="M98.4,165.3c-25.5,0-49.7-8.1-68.1-22.9C10.8,126.8,0,105.5,0,82.7c0-22.9,10.8-44.1,30.3-59.8
		C48.7,8.1,72.9,0,98.4,0c25.5,0,49.7,8.1,68.1,22.9c19.5,15.7,30.3,36.9,30.3,59.8c0,13.7-3.9,26.9-11.4,38.8
		c2,2.4,4.6,4.7,6.8,6.4l20.7,19c0,0-59.4,29.5-81.1,13.6C121.2,163.7,110,165.3,98.4,165.3z"/>
</g>
<g>
	<path class="st1" d="M163.7,119.7c9.2-10.5,14.6-23.2,14.6-37c0-35.4-35.8-64.2-79.9-64.2S18.5,47.2,18.5,82.7s35.8,64.2,79.9,64.2
		c11.7,0,22.8-2,32.7-5.6c35.8,9.3,50.4,1.6,50.4,1.6S166.7,132.4,163.7,119.7z M103.6,118.2c0,1.4-1.2,2.6-2.6,2.6h-5.2
		c-1.4,0-2.6-1.2-2.6-2.6V97.5h10.3L103.6,118.2L103.6,118.2z M129.5,92.3c0,1.4-1.2,2.6-2.6,2.6H72.5c-1,0-2-0.4-2.7-1.1L64.1,88
		c-0.5-0.5-0.5-1.3,0-1.9l5.7-5.7c0.7-0.7,1.7-1.1,2.7-1.1h20.7v-7.8h10.3v7.8h23.3c1.4,0,2.6,1.2,2.6,2.6V92.3z M132.8,62.1
		l-5.7,5.7c-0.7,0.7-1.7,1.1-2.7,1.1H69.9c-1.4,0-2.6-1.2-2.6-2.6V56c0-1.4,1.2-2.6,2.6-2.6h23.3v-2.6c0-1.4,1.2-2.6,2.6-2.6h5.2
		c1.4,0,2.6,1.2,2.6,2.6v2.6h20.7c1,0,2,0.4,2.7,1.1l5.7,5.7C133.3,60.8,133.3,61.6,132.8,62.1z"/>
</g>
</svg>
