<?xml version="1.0" encoding="utf-8"?>
<!-- Generator: Adobe Illustrator 20.1.0, SVG Export Plug-In . SVG Version: 6.00 Build 0)  -->
<svg version="1.1" id="Layer_1" xmlns="http://www.w3.org/2000/svg" xmlns:xlink="http://www.w3.org/1999/xlink" x="0px" y="0px"
   viewBox="0 0 24 24" style="enable-background:new 0 0 24 24;" xml:space="preserve">
<style type="text/css">
  .st0{fill:red;}
  .st1{fill:none;}
</style>
<g>
  <path class="st0" d="M19.4,11.9l1.7-1.7c0.1-0.1,0.2-0.2,0.2-0.4c0-0.1-0.1-0.3-0.2-0.4l-0.8-0.8c-0.1-0.1-0.2-0.2-0.4-0.2
  c-0.1,0-0.3,0.1-0.4,0.2l-1.7,1.7l-1.7-1.7c-0.1-0.1-0.2-0.2-0.4-0.2s-0.3,0.1-0.4,0.2l-0.8,0.8c-0.1,0.1-0.2,0.2-0.2,0.4
  c0,0.1,0.1,0.3,0.2,0.4l1.7,1.7l-1.7,1.7c-0.1,0.1-0.2,0.2-0.2,0.4c0,0.1,0.1,0.3,0.2,0.4l0.8,0.8c0.1,0.1,0.2,0.2,0.4,0.2
  s0.3-0.1,0.4-0.2l1.7-1.7l1.7,1.7c0.1,0.1,0.2,0.2,0.4,0.2c0.1,0,0.3-0.1,0.4-0.2l0.8-0.8c0.1-0.1,0.2-0.2,0.2-0.4
  c0-0.1-0.1-0.3-0.2-0.4L19.4,11.9z"/>
  <path class="st0" d="M11.1,4.7c-0.2,0-0.4,0.1-0.5,0.2l-4,4H3.5C3,8.9,2.7,9.3,2.7,9.7v4.6c0,0.4,0.3,0.8,0.8,0.8h3.1l4,4
  c0.1,0.1,0.3,0.2,0.5,0.2c0.4,0,0.8-0.3,0.8-0.8V5.5C11.9,5,11.6,4.7,11.1,4.7z"/>
</g>
<g id="normal">
  <rect y="0" class="st1" width="24" height="24"/>
</g>
</svg>
