<svg xmlns="http://www.w3.org/2000/svg" viewBox="0 0 400 225"><defs><clipPath id="clippath"><path d="M159.2 57.5h82.1v111.8h-82.1z" class="st72"/></clipPath><clipPath id="clippath-1"><path d="M159.2 57.5h82.1v111.8h-82.1z" class="st72"/></clipPath><clipPath id="clippath-2"><path d="M159.2 57.5h82.1v111.8h-82.1z" class="st72"/></clipPath><clipPath id="clippath-3"><path d="M159.2 57.5h82.1v111.8h-82.1z" class="st72"/></clipPath><clipPath id="clippath-4"><path d="M159.2 57.5h82.1v111.8h-82.1z" class="st72"/></clipPath><clipPath id="clippath-5"><path d="M159.2 57.5h82.1v111.8h-82.1z" class="st72"/></clipPath><clipPath id="clippath-6"><path d="M159.2 57.5h82.1v111.8h-82.1z" class="st72"/></clipPath><clipPath id="clippath-7"><path d="M159.2 57.5h82.1v111.8h-82.1z" class="st72"/></clipPath><clipPath id="clippath-8"><path d="M159.2 57.5h82.1v111.8h-82.1z" class="st72"/></clipPath><clipPath id="clippath-9"><path d="M159.2 57.5h82.1v111.8h-82.1z" class="st72"/></clipPath><clipPath id="clippath-10"><path d="M159.2 57.5h82.1v111.8h-82.1z" class="st72"/></clipPath><clipPath id="clippath-11"><path d="M159.2 57.5h82.1v111.8h-82.1z" class="st72"/></clipPath><clipPath id="clippath-12"><path d="M159.2 57.5h82.1v111.8h-82.1z" class="st72"/></clipPath><clipPath id="clippath-13"><path d="M159.2 57.5h82.1v111.8h-82.1z" class="st72"/></clipPath><clipPath id="clippath-14"><path d="M159.2 57.5h82.1v111.8h-82.1z" class="st72"/></clipPath><clipPath id="clippath-15"><path d="M159.2 57.5h82.1v111.8h-82.1z" class="st72"/></clipPath><clipPath id="clippath-16"><path d="M159.2 57.5h82.1v111.8h-82.1z" class="st72"/></clipPath><clipPath id="clippath-17"><path d="M159.2 57.5h82.1v111.8h-82.1z" class="st72"/></clipPath><clipPath id="clippath-18"><path d="M159.2 57.5h82.1v111.8h-82.1z" class="st72"/></clipPath><clipPath id="clippath-19"><path d="M159.2 57.5h82.1v111.8h-82.1z" class="st72"/></clipPath><clipPath id="clippath-20"><path d="M159.2 57.5h82.1v111.8h-82.1z" class="st72"/></clipPath><clipPath id="clippath-21"><path d="M159.2 57.5h82.1v111.8h-82.1z" class="st72"/></clipPath><clipPath id="clippath-22"><path d="M159.2 57.5h82.1v111.8h-82.1z" class="st72"/></clipPath><clipPath id="clippath-23"><path d="M159.2 57.5h82.1v111.8h-82.1z" class="st72"/></clipPath><clipPath id="clippath-24"><path d="M159.2 57.5h82.1v111.8h-82.1z" class="st72"/></clipPath><clipPath id="clippath-25"><path d="M159.2 57.5h82.1v111.8h-82.1z" class="st72"/></clipPath><clipPath id="clippath-26"><path d="M159.2 57.5h82.1v111.8h-82.1z" class="st72"/></clipPath><clipPath id="clippath-27"><path d="M159.2 57.5h82.1v111.8h-82.1z" class="st72"/></clipPath><clipPath id="clippath-28"><path d="M159.2 57.5h82.1v111.8h-82.1z" class="st72"/></clipPath><clipPath id="clippath-29"><path d="M159.2 57.5h82.1v111.8h-82.1z" class="st72"/></clipPath><clipPath id="clippath-30"><path d="M159.2 57.5h82.1v111.8h-82.1z" class="st72"/></clipPath><clipPath id="clippath-31"><path d="M159.2 57.5h82.1v111.8h-82.1z" class="st72"/></clipPath><clipPath id="clippath-32"><path d="M159.2 57.5h82.1v111.8h-82.1z" class="st72"/></clipPath><clipPath id="clippath-33"><path d="M159.2 57.5h82.1v111.8h-82.1z" class="st72"/></clipPath><clipPath id="clippath-34"><path d="M159.2 57.5h82.1v111.8h-82.1z" class="st72"/></clipPath><clipPath id="clippath-35"><path d="M159.2 57.5h82.1v111.8h-82.1z" class="st72"/></clipPath><clipPath id="clippath-36"><path d="M159.2 57.5h82.1v111.8h-82.1z" class="st72"/></clipPath><clipPath id="clippath-37"><path d="M159.2 57.5h82.1v111.8h-82.1z" class="st72"/></clipPath><clipPath id="clippath-38"><path d="M159.2 57.5h82.1v111.8h-82.1z" class="st72"/></clipPath><clipPath id="clippath-39"><path d="M159.2 57.5h82.1v111.8h-82.1z" class="st72"/></clipPath><clipPath id="clippath-40"><path d="M159.2 57.5h82.1v111.8h-82.1z" class="st72"/></clipPath><clipPath id="clippath-41"><path d="M159.2 57.5h82.1v111.8h-82.1z" class="st72"/></clipPath><clipPath id="clippath-42"><path d="M159.2 57.5h82.1v111.8h-82.1z" class="st72"/></clipPath><clipPath id="clippath-43"><path d="M159.2 57.5h82.1v111.8h-82.1z" class="st72"/></clipPath><clipPath id="clippath-44"><path d="M159.2 57.5h82.1v111.8h-82.1z" class="st72"/></clipPath><clipPath id="clippath-45"><path d="M159.2 57.5h82.1v111.8h-82.1z" class="st72"/></clipPath><clipPath id="clippath-46"><path d="M159.2 57.5h82.1v111.8h-82.1z" class="st72"/></clipPath><clipPath id="clippath-47"><path d="M159.2 57.5h82.1v111.8h-82.1z" class="st72"/></clipPath><clipPath id="clippath-48"><path d="M159.2 57.5h82.1v111.8h-82.1z" class="st72"/></clipPath><clipPath id="clippath-49"><path d="M159.2 57.5h82.1v111.8h-82.1z" class="st72"/></clipPath><clipPath id="clippath-50"><path d="M159.2 57.5h82.1v111.8h-82.1z" class="st72"/></clipPath><clipPath id="clippath-51"><path d="M159.2 57.5h82.1v111.8h-82.1z" class="st72"/></clipPath><clipPath id="clippath-52"><path d="M159.2 57.5h82.1v111.8h-82.1z" class="st72"/></clipPath><clipPath id="clippath-53"><path d="M159.2 57.5h82.1v111.8h-82.1z" class="st72"/></clipPath><clipPath id="clippath-54"><path d="M159.2 57.5h82.1v111.8h-82.1z" class="st72"/></clipPath><clipPath id="clippath-55"><path d="M159.2 57.5h82.1v111.8h-82.1z" class="st72"/></clipPath><clipPath id="clippath-56"><path d="M159.2 57.5h82.1v111.8h-82.1z" class="st72"/></clipPath><clipPath id="clippath-57"><path d="M159.2 57.5h82.1v111.8h-82.1z" class="st72"/></clipPath><clipPath id="clippath-58"><path d="M159.2 57.5h82.1v111.8h-82.1z" class="st72"/></clipPath><clipPath id="clippath-59"><path d="M159.2 57.5h82.1v111.8h-82.1z" class="st72"/></clipPath><clipPath id="clippath-60"><path d="M159.2 57.5h82.1v111.8h-82.1z" class="st72"/></clipPath><clipPath id="clippath-61"><path d="M159.2 57.5h82.1v111.8h-82.1z" class="st72"/></clipPath><clipPath id="clippath-62"><path d="M159.2 57.5h82.1v111.8h-82.1z" class="st72"/></clipPath><clipPath id="clippath-63"><path d="M159.2 57.5h82.1v111.8h-82.1z" class="st72"/></clipPath><clipPath id="clippath-64"><path d="M159.2 57.5h82.1v111.8h-82.1z" class="st72"/></clipPath><clipPath id="clippath-65"><path d="M159.2 57.5h82.1v111.8h-82.1z" class="st72"/></clipPath><clipPath id="clippath-66"><path d="M159.2 57.5h82.1v111.8h-82.1z" class="st72"/></clipPath><clipPath id="clippath-67"><path d="M159.2 57.5h82.1v111.8h-82.1z" class="st72"/></clipPath><clipPath id="clippath-68"><path d="M159.2 57.5h82.1v111.8h-82.1z" class="st72"/></clipPath><clipPath id="clippath-69"><path d="M159.2 57.5h82.1v111.8h-82.1z" class="st72"/></clipPath><clipPath id="clippath-70"><path d="M159.2 57.5h82.1v111.8h-82.1z" class="st72"/></clipPath><clipPath id="clippath-71"><path d="M159.2 57.5h82.1v111.8h-82.1z" class="st72"/></clipPath><clipPath id="clippath-72"><path d="M159.2 57.5h82.1v111.8h-82.1z" class="st72"/></clipPath><clipPath id="clippath-73"><path d="M159.2 57.5h82.1v111.8h-82.1z" class="st72"/></clipPath><clipPath id="clippath-74"><path d="M159.2 57.5h82.1v111.8h-82.1z" class="st72"/></clipPath><clipPath id="clippath-75"><path d="M159.2 57.5h82.1v111.8h-82.1z" class="st72"/></clipPath><clipPath id="clippath-76"><path d="M159.2 57.5h82.1v111.8h-82.1z" class="st72"/></clipPath><clipPath id="clippath-77"><path d="M159.2 57.5h82.1v111.8h-82.1z" class="st72"/></clipPath><clipPath id="clippath-78"><path d="M159.2 57.5h82.1v111.8h-82.1z" class="st72"/></clipPath><clipPath id="clippath-79"><path d="M159.2 57.5h82.1v111.8h-82.1z" class="st72"/></clipPath><style>.st58{fill:#fff}.st68{opacity:.2}.st72{fill:none}.st68{isolation:isolate}.st99{fill:#abe9f8}.st113{fill:#f9fdfe}.st150{opacity:.1}</style></defs><g style="isolation:isolate"><g id="Layer_1"><path d="M255.2 57.8h82.1v111.8h-82.1z" style="fill:#94e4ea"/><path d="m327.3 131.7-27.9-19-26.1 16.4-18-14.3.2 34.2 81.8-6.9v-19.8l-10 9.4z" style="fill:#017c6b"/><path d="m315.3 142.3 12.2-10.8-3-1.7-14.9 12.5h5.7zM255.4 137.2l-.1 3.4 18-11.6-1.8-1.4-16.1 9.6z" class="st150"/><path d="M268.6 144s13.8-6 33.5-6.5c16.4-.4 30.6 6.5 30.6 6.5l-39.2 11.4-24.9-11.4Z" style="fill:#5cc55e"/><path d="M324.8 142.6s-20.1 9.1-41 5.9c-8-1.2-22.2-15.1-28.4-12v33.1l74.1-.7-4.7-26.3Z" style="fill:#47ac49"/><path d="M337.3 169.6v-29.5c.1 0-17.2-.3-25.3 7-14.1 12.7-56.3 22.6-56.3 22.6h81.6Z" style="fill:#3c943b"/><path d="M62.7 57.5h82.1v111.8H62.7z" style="fill:#8fbaf7"/><path d="M144.8 169.2v-31.9l-10.1 10.1-27.8-25.3-26.1 25.1-17.9-21.7v43.7h81.9z" style="fill:#2a4c78"/><path d="m114.2 169.2 20.8-21.6-3-2.6-23.7 24.2h5.9zM62.8 159.5l-.1 5.5 18.1-17.9-2.2-2.5-15.8 14.9z" class="st150"/><path d="M146.5 43.3h107.1v140.6H146.5z" class="st58"/><path d="M255.6 185.9H144.5V41.3h111.1v144.6Zm-107.1-4h103.1V45.3H148.5v136.6Z" style="fill:#1d0ee0"/><path d="M159.2 132.7h82.1v36.7h-82.1z" class="st113" style="clip-path:url(#clippath)"/><path d="M159.2 131.8h82.1v.9h-82.1z" class="st113" style="clip-path:url(#clippath-1)"/><g style="clip-path:url(#clippath-2)"><path d="M159.2 131h82.1v.9h-82.1z" style="fill:#f8fdfe"/></g><g style="clip-path:url(#clippath-3)"><path d="M159.2 130.1h82.1v.9h-82.1z" style="fill:#f7fcfe"/></g><g style="clip-path:url(#clippath-4)"><path d="M159.2 129.2h82.1v.9h-82.1z" style="fill:#f6fcfe"/></g><g style="clip-path:url(#clippath-5)"><path d="M159.2 128.4h82.1v.9h-82.1z" style="fill:#f5fcfe"/></g><g style="clip-path:url(#clippath-6)"><path d="M159.2 127.5h82.1v.9h-82.1z" style="fill:#f4fcfe"/></g><g style="clip-path:url(#clippath-7)"><path d="M159.2 126.7h82.1v.9h-82.1z" style="fill:#f3fbfe"/></g><g style="clip-path:url(#clippath-8)"><path d="M159.2 125.8h82.1v.9h-82.1z" style="fill:#f2fbfd"/></g><g style="clip-path:url(#clippath-9)"><path d="M159.2 124.9h82.1v.9h-82.1z" style="fill:#f1fbfd"/></g><g style="clip-path:url(#clippath-10)"><path d="M159.2 124.1h82.1v.9h-82.1z" style="fill:#f0fbfd"/></g><g style="clip-path:url(#clippath-11)"><path d="M159.2 123.2h82.1v.9h-82.1z" style="fill:#effafd"/></g><g style="clip-path:url(#clippath-12)"><path d="M159.2 122.4h82.1v.9h-82.1z" style="fill:#eefafd"/></g><g style="clip-path:url(#clippath-13)"><path d="M159.2 121.5h82.1v.9h-82.1z" style="fill:#edfafd"/></g><g style="clip-path:url(#clippath-14)"><path d="M159.2 120.6h82.1v.9h-82.1z" style="fill:#ecfafd"/></g><g style="clip-path:url(#clippath-15)"><path d="M159.2 119.8h82.1v.9h-82.1z" style="fill:#ebf9fd"/></g><g style="clip-path:url(#clippath-16)"><path d="M159.2 118.9h82.1v.9h-82.1z" style="fill:#eaf9fd"/></g><g style="clip-path:url(#clippath-17)"><path d="M159.2 118.1h82.1v.9h-82.1z" style="fill:#e9f9fd"/></g><g style="clip-path:url(#clippath-18)"><path d="M159.2 117.2h82.1v.9h-82.1z" style="fill:#e8f9fd"/></g><g style="clip-path:url(#clippath-19)"><path d="M159.2 116.3h82.1v.9h-82.1z" style="fill:#e7f8fd"/></g><g style="clip-path:url(#clippath-20)"><path d="M159.2 115.5h82.1v.9h-82.1z" style="fill:#e6f8fd"/></g><g style="clip-path:url(#clippath-21)"><path d="M159.2 114.6h82.1v.9h-82.1z" style="fill:#e5f8fc"/></g><g style="clip-path:url(#clippath-22)"><path d="M159.2 113.8h82.1v.9h-82.1z" style="fill:#e4f8fc"/></g><g style="clip-path:url(#clippath-23)"><path d="M159.2 112.9h82.1v.9h-82.1z" style="fill:#e3f7fc"/></g><g style="clip-path:url(#clippath-24)"><path d="M159.2 112.1h82.1v.9h-82.1z" style="fill:#e2f7fc"/></g><g style="clip-path:url(#clippath-25)"><path d="M159.2 111.2h82.1v.9h-82.1z" style="fill:#e1f7fc"/></g><g style="clip-path:url(#clippath-26)"><path d="M159.2 110.3h82.1v.9h-82.1z" style="fill:#e0f7fc"/></g><g style="clip-path:url(#clippath-27)"><path d="M159.2 109.5h82.1v.9h-82.1z" style="fill:#dff6fc"/></g><g style="clip-path:url(#clippath-28)"><path d="M159.2 108.6h82.1v.9h-82.1z" style="fill:#def6fc"/></g><g style="clip-path:url(#clippath-29)"><path d="M159.2 107.8h82.1v.9h-82.1z" style="fill:#ddf6fc"/></g><g style="clip-path:url(#clippath-30)"><path d="M159.2 106.9h82.1v.9h-82.1z" style="fill:#dcf5fc"/></g><g style="clip-path:url(#clippath-31)"><path d="M159.2 106h82.1v.9h-82.1z" style="fill:#dbf5fc"/></g><g style="clip-path:url(#clippath-32)"><path d="M159.2 105.2h82.1v.9h-82.1z" style="fill:#daf5fc"/></g><g style="clip-path:url(#clippath-33)"><path d="M159.2 104.3h82.1v.9h-82.1z" style="fill:#d9f5fc"/></g><g style="clip-path:url(#clippath-34)"><path d="M159.2 103.5h82.1v.9h-82.1z" style="fill:#d8f4fb"/></g><g style="clip-path:url(#clippath-35)"><path d="M159.2 102.6h82.1v.9h-82.1z" style="fill:#d7f4fb"/></g><g style="clip-path:url(#clippath-36)"><path d="M159.2 101.7h82.1v.9h-82.1z" style="fill:#d6f4fb"/></g><g style="clip-path:url(#clippath-37)"><path d="M159.2 100.9h82.1v.9h-82.1z" style="fill:#d5f4fb"/></g><g style="clip-path:url(#clippath-38)"><path d="M159.2 100h82.1v.9h-82.1z" style="fill:#d4f3fb"/></g><g style="clip-path:url(#clippath-39)"><path d="M159.2 99.2h82.1v.9h-82.1z" style="fill:#d3f3fb"/></g><g style="clip-path:url(#clippath-40)"><path d="M159.2 98.3h82.1v.9h-82.1z" style="fill:#d1f3fb"/></g><g style="clip-path:url(#clippath-41)"><path d="M159.2 97.4h82.1v.9h-82.1z" style="fill:#d0f3fb"/></g><g style="clip-path:url(#clippath-42)"><path d="M159.2 96.6h82.1v.9h-82.1z" style="fill:#cff2fb"/></g><g style="clip-path:url(#clippath-43)"><path d="M159.2 95.7h82.1v.9h-82.1z" style="fill:#cef2fb"/></g><g style="clip-path:url(#clippath-44)"><path d="M159.2 94.9h82.1v.9h-82.1z" style="fill:#cdf2fb"/></g><g style="clip-path:url(#clippath-45)"><path d="M159.2 94h82.1v.9h-82.1z" style="fill:#ccf2fb"/></g><g style="clip-path:url(#clippath-46)"><path d="M159.2 93.1h82.1v.9h-82.1z" style="fill:#cbf1fa"/></g><g style="clip-path:url(#clippath-47)"><path d="M159.2 92.3h82.1v.9h-82.1z" style="fill:#caf1fa"/></g><g style="clip-path:url(#clippath-48)"><path d="M159.2 91.4h82.1v.9h-82.1z" style="fill:#c9f1fa"/></g><g style="clip-path:url(#clippath-49)"><path d="M159.2 90.6h82.1v.9h-82.1z" style="fill:#c8f1fa"/></g><g style="clip-path:url(#clippath-50)"><path d="M159.2 89.7h82.1v.9h-82.1z" style="fill:#c7f0fa"/></g><g style="clip-path:url(#clippath-51)"><path d="M159.2 88.9h82.1v.9h-82.1z" style="fill:#c6f0fa"/></g><g style="clip-path:url(#clippath-52)"><path d="M159.2 88h82.1v.9h-82.1z" style="fill:#c5f0fa"/></g><g style="clip-path:url(#clippath-53)"><path d="M159.2 87.1h82.1v.9h-82.1z" style="fill:#c4effa"/></g><g style="clip-path:url(#clippath-54)"><path d="M159.2 86.3h82.1v.9h-82.1z" style="fill:#c3effa"/></g><g style="clip-path:url(#clippath-55)"><path d="M159.2 85.4h82.1v.9h-82.1z" style="fill:#c2effa"/></g><g style="clip-path:url(#clippath-56)"><path d="M159.2 84.6h82.1v.9h-82.1z" style="fill:#c1effa"/></g><g style="clip-path:url(#clippath-57)"><path d="M159.2 83.7h82.1v.9h-82.1z" style="fill:#c0eefa"/></g><g style="clip-path:url(#clippath-58)"><path d="M159.2 82.8h82.1v.9h-82.1z" style="fill:#bfeefa"/></g><g style="clip-path:url(#clippath-59)"><path d="M159.2 82h82.1v.9h-82.1z" style="fill:#beeef9"/></g><g style="clip-path:url(#clippath-60)"><path d="M159.2 81.1h82.1v.9h-82.1z" style="fill:#bdeef9"/></g><g style="clip-path:url(#clippath-61)"><path d="M159.2 80.3h82.1v.9h-82.1z" style="fill:#bcedf9"/></g><g style="clip-path:url(#clippath-62)"><path d="M159.2 79.4h82.1v.9h-82.1z" style="fill:#bbedf9"/></g><g style="clip-path:url(#clippath-63)"><path d="M159.2 78.5h82.1v.9h-82.1z" style="fill:#baedf9"/></g><g style="clip-path:url(#clippath-64)"><path d="M159.2 77.7h82.1v.9h-82.1z" style="fill:#b9edf9"/></g><g style="clip-path:url(#clippath-65)"><path d="M159.2 76.8h82.1v.9h-82.1z" style="fill:#b8ecf9"/></g><g style="clip-path:url(#clippath-66)"><path d="M159.2 76h82.1v.9h-82.1z" style="fill:#b7ecf9"/></g><g style="clip-path:url(#clippath-67)"><path d="M159.2 75.1h82.1v.9h-82.1z" style="fill:#b6ecf9"/></g><g style="clip-path:url(#clippath-68)"><path d="M159.2 74.2h82.1v.9h-82.1z" style="fill:#b5ecf9"/></g><g style="clip-path:url(#clippath-69)"><path d="M159.2 73.4h82.1v.9h-82.1z" style="fill:#b4ebf9"/></g><g style="clip-path:url(#clippath-70)"><path d="M159.2 72.5h82.1v.9h-82.1z" style="fill:#b3ebf9"/></g><g style="clip-path:url(#clippath-71)"><path d="M159.2 71.7h82.1v.9h-82.1z" style="fill:#b2ebf9"/></g><g style="clip-path:url(#clippath-72)"><path d="M159.2 70.8h82.1v.9h-82.1z" style="fill:#b1ebf8"/></g><g style="clip-path:url(#clippath-73)"><path d="M159.2 69.9h82.1v.9h-82.1z" style="fill:#b0eaf8"/></g><g style="clip-path:url(#clippath-74)"><path d="M159.2 69.1h82.1v.9h-82.1z" style="fill:#afeaf8"/></g><g style="clip-path:url(#clippath-75)"><path d="M159.2 68.2h82.1v.9h-82.1z" style="fill:#aeeaf8"/></g><g style="clip-path:url(#clippath-76)"><path d="M159.2 67.4h82.1v.9h-82.1z" style="fill:#adeaf8"/></g><g style="clip-path:url(#clippath-77)"><path d="M159.2 66.5h82.1v.9h-82.1z" style="fill:#ace9f8"/></g><path d="M159.2 65.7h82.1v.9h-82.1z" class="st99" style="clip-path:url(#clippath-78)"/><path d="M159.2 57.5h82.1v8.1h-82.1z" class="st99" style="clip-path:url(#clippath-79)"/><path d="M173.9 57.9c3.2 10.9 13.3 18.8 25.2 18.8s22-7.9 25.2-18.8h-50.4Z" style="fill:#ffdf50"/><path d="M159.4 125.1h81.8v37.3h-81.8z" style="fill:#a8edea"/><path d="M238.1 147.1c-3.1-2.9-7.6-3.4-11.2-1.3l-1.4.8c-2.9 1.7-6.3 1.8-9.2.1l-4.4-2.5c-3.2-1.8-7.1-1.5-10.1.7l-2.5 1.9c-3.4 2.6-8 2.5-11.4-.2l-5.7-4.6c-2.7-2.2-6.3-2.7-9.4-1.3l-13.4 6.8v21.7h82v-14.4c0-2.9-1.2-5.7-3.3-7.7Z" style="fill:#fcd995"/><path d="m213.9 99.7-19.8 55.2 1.9.8 19.6-55.3-1.7-.7z" style="fill:#37352b"/><path d="M221.9 133c3.9-2.3 8.2-3.7 12.8-4.3-1.3-6.3-4.4-12.4-9.4-17.4s-7.9-6.3-12.5-8c.3.2.5.5.8.7 7.8 8 10.6 19 8.3 29Z" style="fill:#40ae80"/><path d="M211.6 102.9c-11.2-3.7-23.8-1.3-32.5 7.4l-.6.6c2.9 2 5.7 4.2 8.3 6.8 2.6 2.6 4.8 5.3 6.8 8.2h.2c1-6.1 3.8-12 8.5-16.7 2.8-2.7 6-4.8 9.3-6.3Z" style="fill:#fb4143"/><path d="M202.3 109.3c-4.7 4.7-7.5 10.5-8.5 16.7 9-.7 18.8 1.8 27.6 7.3.1-.1.3-.2.4-.3 2.3-10-.5-21.1-8.3-28.9s-.5-.5-.8-.7c-.4 0-.8-.3-1.1-.4-3.3 1.4-6.5 3.5-9.3 6.3Z" style="fill:#ffe13c"/><g id="_Group_"><path d="M238.4 177.2v13.7c0 3.5-.9 6.9-2.6 9.9-1 1.8-2.5 3.4-4.2 4.6-1.7 1.2-3.7 1.8-5.7 1.8H221c-2.3-.2-4.5-1.1-6.3-2.7-2-1.8-3.5-4.1-4.4-6.6-.1-.3-.3-.5-.4-.8-1.2-1.4-2.3-2.7-3.5-4.1-1.7-1.8-3.7-3.2-5.9-4.2-1.1-.5-1.9-1.5-2-2.7-.2-1.4.5-2.4 1.7-3.1 1.2-.7 2.7-.9 4.1-.8 1.6.1 3.3.6 4.7 1.4h.2c0-.4-.1-.9-.1-1.3v-22.5c0-2.4 2-4.3 4.3-4.3s.5 0 .7.1c2.2.3 3.8 2.2 3.6 4.4v9.1c2-1.4 4.7-1 6.2 1 .3.4.5.9.7 1.4 1.2-.9 2.7-1.2 4.2-.7 1.4.5 2.5 1.7 2.8 3.2l.3-.2c2-1.3 4.8-.7 6.1 1.3.2.7.4 1.4.4 2.1Z" class="st58"/><path d="M223.2 209.2c-.8 0-1.7 0-2.5-.1-2.8-.2-5.5-1.3-7.5-3.2-2.2-2-4-4.5-5-7.4 0 0-.1-.1-.1-.2l-.6-.8c-.9-1.1-1.8-2.2-2.8-3.2-1.5-1.6-3.3-2.9-5.3-3.8-1.7-.7-3-2.4-3.2-4.3-.3-2.1.7-3.8 2.7-5 1.7-.9 3.5-1.2 5.3-1.1.9 0 1.8.2 2.7.4v-20.8c0-1.7.7-3.3 1.9-4.5s2.8-1.8 4.5-1.8.7 0 1.1.1c3.1.4 5.4 3.2 5.3 6.4v6.2c.5 0 1.1 0 1.6.1 1.6.3 3.1 1.2 4.1 2.5 1.3-.4 2.6-.3 3.9.1 1.3.4 2.4 1.3 3.2 2.4 1-.3 2-.3 3-.1 1.7.4 3.1 1.3 4 2.8h.1c.6 1 .8 2.1.8 3.1v13.7c0 3.8-1 7.6-2.9 10.9-1.2 2.1-2.9 3.9-4.9 5.2-2 1.4-4.4 2.1-6.8 2.1h-1.3c-.4.3-.8.3-1.3.3Zm-19.8-25c-.9 0-1.7.2-2.5.6-.7.4-.7.8-.7 1.1.1.5.4.9.8 1.1 2.5 1.2 4.7 2.7 6.6 4.7 1 1.1 2 2.3 2.9 3.4l.6.8c.3.4.6.9.8 1.4.8 2.2 2.1 4.2 3.9 5.8 1.4 1.3 3.2 2.1 5.1 2.2 1.1.1 2.3.1 3.5 0h1.3c1.6 0 3.2-.5 4.6-1.4 1.5-1 2.7-2.4 3.6-3.9 1.6-2.7 2.4-5.8 2.4-8.9v-13.7c0-.3-.1-.7-.3-1-.3-.5-.9-.9-1.5-1s-1.3 0-1.8.3l-2.8 1.8-.5-2.9c-.1-.8-.7-1.4-1.4-1.7-.8-.3-1.7-.2-2.3.3l-2.4 1.8-.8-2.9c-.1-.3-.2-.5-.4-.8-.4-.5-.9-.9-1.6-1-.6-.1-1.3 0-1.8.4l-3.2 2.3v-13.1c.1-1.1-.8-2.2-1.9-2.3h-.5c-.6 0-1.2.2-1.6.7-.4.4-.7 1-.7 1.6V187l-3.3-1.6c-1.1-.7-2.4-1.1-3.7-1.1 0-.1-.2-.1-.4-.1Z"/></g><path d="M255.5 57.5h81.8v111.7h-81.8z" class="st68"/><g id="play_button"><path id="Rectangle_3" d="M296.4 85.4c14.5 0 26.3 11.8 26.3 26.3S310.9 138 296.4 138s-26.3-11.8-26.3-26.3c0-14.6 11.8-26.3 26.3-26.3Z" style="fill:#e23232"/><path id="Polygon_1" d="M309.6 111.2c.8.5.8 1.6 0 2.1l-19.7 11.3c-.8.5-1.8-.1-1.8-1v-22.7c0-.9 1-1.5 1.8-1l19.7 11.3Z" class="st58"/></g><path d="M62.8 57.5h81.8v111.7H62.8z" class="st68"/><g id="play_button1" data-name="play_button"><path id="Rectangle_31" d="M103.7 85.4c14.5 0 26.3 11.8 26.3 26.3S118.2 138 103.7 138s-26.3-11.8-26.3-26.3c0-14.6 11.7-26.3 26.3-26.3Z" data-name="Rectangle_3" style="fill:#3239e2"/><path id="Vector" d="M111 111.5V125.8c-.3 1.1-1.6 1.5-2.5.8 0-.1-.2-.2-.3-.3-2.3-2.3-4.6-4.5-6.9-6.8s-.4-.3-.6-.3h-3.5c-2 0-3.3-1.3-3.3-3.2v-9c0-1.9 1.3-3.2 3.3-3.2h3.5c.3 0 .4-.1.6-.3l6.9-6.9c.4-.4.8-.6 1.4-.6s1.4.6 1.4 1.4v14.1Z" class="st58"/></g></g></g></svg>