<?xml version="1.0" encoding="utf-8"?>
<!-- Generator: Adobe Illustrator 20.1.0, SVG Export Plug-In . SVG Version: 6.00 Build 0)  -->
<svg version="1.1" id="Layer_1" xmlns="http://www.w3.org/2000/svg" xmlns:xlink="http://www.w3.org/1999/xlink" x="0px" y="0px"
	 viewBox="0 0 22 22" style="enable-background:new 0 0 22 22;" xml:space="preserve">
<style type="text/css">
	.st0{
	fill:#FFFFFF;
	filter:url(#dropshadow);
	}
</style>
<path d="M19.8,11.2L19.8,11.2L19.8,11.2L19.8,11.2z"/>
<path d="M19.8,11.2L19.8,11.2L19.8,11.2L19.8,11.2z"/>
<g>
	<path d="M19.8,11.2"/>
	<path d="M19.8,11.2"/>
</g>
<path class="st0" d="M10,11c-0.2,0.2-2.8,2.8-3.8,4.1c-1.3,1.8,1.3,4.5,3.2,3.2c0.9-0.6,4.2-4.4,4.2-4.4s2.6-2.7,2.6-2.9l0,0l0,0
	c0-0.2-3.5-3.9-3.5-3.9s-2.5-2.8-3.4-3.4C7.4,2.3,4.8,5,6.2,6.9C7.1,8.2,9.8,10.8,10,11z"/>

<filter id="dropshadow" height="130%">
  <feGaussianBlur in="SourceAlpha" stdDeviation="1.5"/> <!-- stdDeviation is how much to blur -->
  <feOffset dx="0" dy="0" result="offsetblur"/> <!-- how much to offset -->
  <feColorMatrix result="matrixOut" in="offOut" type="matrix"
      values="
	  0.2 0 0 0 0.2
	  0 0.2 0 0 0.2
	  0 0 0.2 0 0.2
	  0 0 0 1 0" />
  <feMerge> 
    <feMergeNode/> <!-- this contains the offset blurred image -->
    <feMergeNode in="SourceGraphic"/> <!-- this contains the element that the filter is applied to -->
  </feMerge>
</filter>
</svg>
