<?xml version="1.0" encoding="utf-8"?>
<!-- Generator: Adobe Illustrator 20.1.0, SVG Export Plug-In . SVG Version: 6.00 Build 0)  -->
<svg version="1.1" id="Layer_1" xmlns="http://www.w3.org/2000/svg" xmlns:xlink="http://www.w3.org/1999/xlink" x="0px" y="0px"
	 viewBox="0 0 24 24" style="enable-background:new 0 0 24 24;" xml:space="preserve">
<style type="text/css">
	.st0{clip-path:url(#SVGID_2_);}
	.st1{fill:none;}
	.st2{fill:#FFFFFF;}
</style>
<title>minimize</title>
<g>
	<g>
		<defs>
			<rect id="SVGID_1_" y="0" width="24" height="24"/>
		</defs>
		<clipPath id="SVGID_2_">
			<use xlink:href="#SVGID_1_"  style="overflow:visible;"/>
		</clipPath>
		<g class="st0">
			<g id="Layer_28">
				<rect y="0" class="st1" width="24" height="24"/>
			</g>
			<path class="st2" d="M11.5,12.4c-0.1-0.1-0.1-0.1-0.2-0.1l-5.1,0.2c-0.1,0-0.2,0.1-0.3,0.2C5.8,12.8,5.9,13,6,13l1.6,1.6L4,18.2
				L5.6,20l3.7-3.6l1.6,1.6c0.1,0.1,0.2,0.1,0.3,0.1s0.2-0.2,0.2-0.3l0.2-5.2C11.7,12.6,11.6,12.5,11.5,12.4z"/>
			<path class="st2" d="M12.5,11.5c0.1,0.1,0.1,0.1,0.2,0.1l5.1-0.2c0.1,0,0.2-0.1,0.3-0.2c0.1-0.1,0-0.3-0.1-0.3l-1.6-1.6L20,5.7
				L18.3,4l-3.7,3.6L13,6c-0.1-0.1-0.2-0.1-0.3-0.1s-0.2,0.2-0.2,0.3l-0.2,5.2C12.4,11.4,12.4,11.5,12.5,11.5z"/>
		</g>
	</g>
</g>
</svg>
