<?xml version="1.0" encoding="utf-8"?>
<!-- Generator: Adobe Illustrator 20.1.0, SVG Export Plug-In . SVG Version: 6.00 Build 0)  -->
<svg version="1.1" id="Layer_1" xmlns="http://www.w3.org/2000/svg" xmlns:xlink="http://www.w3.org/1999/xlink" x="0px" y="0px"
	 viewBox="0 0 24 24" style="enable-background:new 0 0 24 24;" xml:space="preserve">
<style type="text/css">
	.st0{clip-path:url(#SVGID_2_);}
	.st1{fill:none;}
	.st2{fill:#FFFFFF;}
</style>
<title>maximize</title>
<g>
	<defs>
		<rect id="SVGID_1_" y="0" width="24" height="24"/>
	</defs>
	<clipPath id="SVGID_2_">
		<use xlink:href="#SVGID_1_"  style="overflow:visible;"/>
	</clipPath>
	<g class="st0">
		<g id="Layer_28">
			<rect y="0" class="st1" width="24" height="24"/>
		</g>
		<g>
			<path class="st2" d="M4.2,19.9C4.2,19.9,4.3,20,4.4,20l5.1-0.2c0.1,0,0.2-0.1,0.3-0.2c0-0.1,0-0.2-0.1-0.3l-1.6-1.6l4-4l-1.7-1.7
				l-4.1,3.9l-1.6-1.6c-0.1-0.1-0.2-0.1-0.3-0.1c-0.1,0-0.2,0.2-0.2,0.3l-0.2,5.1C4.1,19.7,4.1,19.8,4.2,19.9z"/>
			<path class="st2" d="M19.9,4.2c-0.1-0.1-0.1-0.1-0.2-0.1l-5.1,0.2c-0.1,0-0.2,0.1-0.3,0.2c0,0.1,0,0.2,0.1,0.3l1.6,1.6l-3.7,3.8
				l1.7,1.7l3.8-3.7l1.6,1.6c0.1,0.1,0.2,0.1,0.3,0.1c0.1,0,0.2-0.2,0.2-0.3L20,4.4C20,4.3,19.9,4.3,19.9,4.2z"/>
		</g>
	</g>
</g>
</svg>
