<?xml version="1.0" encoding="utf-8"?>
<!-- Generator: Adobe Illustrator 27.8.1, SVG Export Plug-In . SVG Version: 6.00 Build 0)  -->
<svg version="1.1" id="Layer_1" xmlns="http://www.w3.org/2000/svg" xmlns:xlink="http://www.w3.org/1999/xlink" x="0px" y="0px"
	 viewBox="0 0 400 225" style="enable-background:new 0 0 400 225;" xml:space="preserve">
<style type="text/css">
	.st0{fill:none;}
</style>
<rect y="0" class="st0" width="400" height="225"/>
<path d="M321.8,45.9c-4.3,0-8.6,0-13,0c0,44.5,0,89,0,133.7c4.3,0,8.7,0,13,0c0,2.7,0,5.4,0,8c-10.4,0-20.7-0.1-31-0.1
	c-0.9,0-1.8,0-2.9,0c0-2.7,0-5.1,0-7.8c4.3,0,8.4,0,12.8,0c0-44.8,0-89.2,0-133.9c-4.2,0-8.4,0-12.8,0c0-2.8,0-5.3,0-8.1
	c11.4,0,22.6,0,34,0C321.8,40.6,321.8,43.2,321.8,45.9z"/>
<path d="M136.4,55c7.3-0.2,12.2,3.8,15.2,10.5c5.9,13.4,11.9,26.7,17.7,40c7.2,16.3,14.5,32.6,21.7,49c2,4.5,2.3,8.8-0.6,13
	c-5,7-16,6.8-20.1-0.9c-3.1-5.8-5.6-12.1-8.2-18.1c-0.9-2-1.8-2.8-4.1-2.8c-15,0.1-29.9,0.1-44.9,0c-2,0-3.2,0.4-4,2.6
	c-2.2,5.4-4.5,10.8-6.9,16.2c-1.7,4-4.5,6.8-9,7.8c-4.4,1-8.4-0.2-11.4-3.6c-3-3.5-3.9-7.5-1.9-12c4.6-10.7,9.4-21.4,14.1-32
	c8.6-19.6,17.4-39.1,26-58.9C123.3,58.8,128.3,54.9,136.4,55z M151.7,123.5c-5.4-12.7-10.5-25.1-16-38.1
	c-5.4,12.9-10.6,25.3-16,38.1C130.4,123.5,140.8,123.5,151.7,123.5z"/>
<path d="M261.4,121.2c0.8-9.6-4.9-16.2-14.7-17.1c-7.5-0.8-15,0.4-22.3,2.4c-7.4,1.9-13.7-3.8-12.7-11.3c0.5-3.9,2.9-6.6,6.4-7.9
	c14.1-5.1,28.5-6.4,43.1-2.8c13.9,3.3,21.2,13,23.4,26.9c0.4,2.9,0.6,5.9,0.6,9c0.1,13-0.1,26.2,0.1,39.4
	c0.1,10.5-10.5,15.6-18.7,10.9c-3-1.7-4.4-3.9-5.4-8.4c-1,0.9-1.8,1.8-2.8,2.6c-9.2,7.9-19.8,9.5-31.4,7.4
	c-8.2-1.5-15.1-5.4-19.2-12.9c-9.1-16.6-0.2-35.6,18.5-39.9c10.9-2.4,21.7-1.9,32.2,1.3c0.8,0.2,1.3,0.4,2,0.6
	C261,121.3,261.2,121.2,261.4,121.2z M242.7,156.2c1.8-0.2,4-0.4,5.9-0.9c9.3-2.2,13.8-8,13.4-17.6c0-0.8-0.5-1.8-1.1-2
	c-8.1-3.1-16.4-4.3-24.8-1.3c-5.4,1.9-8,6.4-7.3,12.1c0.4,4.4,3.9,7.9,9.2,9C239.5,155.8,240.9,155.9,242.7,156.2z"/>
</svg>
