<?xml version="1.0" encoding="UTF-8" standalone="no"?>
<!-- Created with Inkscape (http://www.inkscape.org/) -->

<svg
   width="208.90555mm"
   height="208.90555mm"
   viewBox="0 0 740.21651 740.21651"
   id="svg2"
   version="1.1"
   inkscape:version="1.1.1 (c3084ef, 2021-09-22)"
   sodipodi:docname="testlogo.svg"
   xmlns:inkscape="http://www.inkscape.org/namespaces/inkscape"
   xmlns:sodipodi="http://sodipodi.sourceforge.net/DTD/sodipodi-0.dtd"
   xmlns:xlink="http://www.w3.org/1999/xlink"
   xmlns="http://www.w3.org/2000/svg"
   xmlns:svg="http://www.w3.org/2000/svg"
   xmlns:rdf="http://www.w3.org/1999/02/22-rdf-syntax-ns#"
   xmlns:cc="http://creativecommons.org/ns#"
   xmlns:dc="http://purl.org/dc/elements/1.1/">
  <defs
     id="defs4">
    <linearGradient
       inkscape:collect="always"
       id="linearGradient4407">
      <stop
         style="stop-color:#3498db;stop-opacity:1"
         offset="0"
         id="stop4409" />
      <stop
         style="stop-color:#1abc9c;stop-opacity:1"
         offset="1"
         id="stop4411" />
    </linearGradient>
    <inkscape:perspective
       sodipodi:type="inkscape:persp3d"
       inkscape:vp_x="0 : 214.03539 : 1"
       inkscape:vp_y="0 : 999.99998 : 0"
       inkscape:vp_z="744.09451 : 214.03539 : 1"
       inkscape:persp3d-origin="372.04725 : 38.641695 : 1"
       id="perspective4136" />
    <linearGradient
       inkscape:collect="always"
       xlink:href="#linearGradient4407"
       id="linearGradient4413"
       x1="387.04385"
       y1="648.21088"
       x2="168.03693"
       y2="430.45874"
       gradientUnits="userSpaceOnUse"
       gradientTransform="matrix(1.0738123,0,0,1.0738123,198.8157,-266.16865)" />
  </defs>
  <sodipodi:namedview
     id="base"
     pagecolor="#ffffff"
     bordercolor="#666666"
     borderopacity="1.0"
     inkscape:pageopacity="0.0"
     inkscape:pageshadow="2"
     inkscape:zoom="0.7"
     inkscape:cx="472.14286"
     inkscape:cy="535"
     inkscape:document-units="px"
     inkscape:current-layer="layer1"
     showgrid="false"
     showguides="false"
     inkscape:window-width="1440"
     inkscape:window-height="847"
     inkscape:window-x="0"
     inkscape:window-y="25"
     inkscape:window-maximized="1"
     inkscape:pagecheckerboard="0" />
  <metadata
     id="metadata7">
    <rdf:RDF>
      <cc:Work
         rdf:about="">
        <dc:format>image/svg+xml</dc:format>
        <dc:type
           rdf:resource="http://purl.org/dc/dcmitype/StillImage" />
      </cc:Work>
    </rdf:RDF>
  </metadata>
  <g
     inkscape:label="Layer 1"
     inkscape:groupmode="layer"
     id="layer1"
     transform="translate(-2.4103736,-0.89256496)">
    <g
       id="g4184"
       transform="matrix(2.1872019,0,0,2.1872019,-707.64839,-320.35208)">
      <circle
         r="169.21541"
         cy="316.09012"
         cx="493.85794"
         id="path4298"
         style="opacity:1;fill:url(#linearGradient4413);fill-opacity:1;stroke:none;stroke-width:12;stroke-linecap:round;stroke-linejoin:round;stroke-miterlimit:4;stroke-dasharray:none;stroke-dashoffset:0;stroke-opacity:0" />
      <path
         inkscape:connector-curvature="0"
         id="path4154"
         d="m 493.85794,180.37451 -85.84766,49.56445 v 99.12891 l 85.84766,49.56445 85.84766,-49.56445 v -99.12891 z m 61.48828,72.54688 a 6.3055596,5.7103896 0 0 1 6.40039,5.79101 v 0.50977 a 6.3055596,5.7103896 0 1 1 -12.60937,0 v -0.50977 a 6.3055596,5.7103896 0 0 1 6.20898,-5.79101 z m -123.67773,0.54492 a 5.2546331,4.7586581 0 0 1 5.33203,4.82617 v 33.72461 h 18.80273 a 5.2547787,4.75879 0 0 1 0,9.51758 h -24.05664 a 5.2546331,4.7586581 0 0 1 -5.2539,-4.75977 v -38.48242 a 5.2546331,4.7586581 0 0 1 5.17578,-4.82617 z m 123.69336,12.42383 a 5.2546331,4.7586581 0 0 1 5.33398,4.82617 v 26.00781 a 5.2546331,4.7586581 0 1 1 -10.50781,0 v -26.00781 a 5.2546331,4.7586581 0 0 1 5.17383,-4.82617 z m -67.92188,0.23437 a 5.2546331,4.7586581 0 0 1 5.33399,4.82422 v 16.6543 c 0.0677,0.78113 0.18458,3.5455 -1.33594,6.60547 -1.78041,3.58297 -6.81826,7.32617 -13.90039,7.32617 -6.89748,0 -11.83711,-3.69762 -13.61524,-7.19336 -1.55585,-3.05877 -1.46422,-5.82912 -1.41601,-6.50781 v -16.51563 a 5.2546331,4.7586581 0 1 1 10.50586,0 v 16.79102 l -0.0156,0.18554 c 0,0 -0.005,1.1326 0.46875,2.06446 0.474,0.93186 0.42194,1.66015 4.07227,1.66015 3.89779,0 3.85282,-0.77798 4.31836,-1.71484 0.46551,-0.93687 0.43554,-2.09375 0.43554,-2.09375 l -0.0254,-0.23633 v -17.02539 a 5.2546331,4.7586581 0 0 1 5.17383,-4.82422 z m 23.68359,0.0137 c 4.02151,0 7.37181,1.26037 9.82422,3.00196 2.49307,-1.74809 5.8993,-3.00196 9.99414,-3.00196 6.89747,0 11.83712,3.69958 13.61524,7.19532 1.55586,3.05877 1.46422,5.82734 1.41601,6.50586 v 16.51562 a 5.2546331,4.7586581 0 1 1 -10.50781,0 v -16.79102 l 0.0156,-0.18554 c 0,0 0.007,-1.13259 -0.4668,-2.06446 -0.47399,-0.93185 -0.42194,-1.66015 -4.07227,-1.66015 -3.89779,0 -3.8528,0.77798 -4.31836,1.71484 -0.4655,0.93687 -0.43554,2.09375 -0.43554,2.09375 l 0.0254,0.23633 v 17.02539 a 5.2546331,4.7586581 0 0 1 -10.46485,0.62109 5.2546331,4.7586581 0 0 1 -0.10156,-0.99023 v -16.79102 l 0.0156,-0.18554 c 0,0 0.007,-1.13259 -0.4668,-2.06446 -0.474,-0.93185 -0.42191,-1.66015 -4.07227,-1.66015 -3.89778,0 -3.85086,0.77798 -4.3164,1.71484 -0.4655,0.93687 -0.4375,2.09375 -0.4375,2.09375 l 0.0254,0.23633 v 17.02539 a 5.2546331,4.7586581 0 1 1 -10.50781,0 v -16.64258 c -0.0674,-0.76057 -0.19354,-3.53924 1.33593,-6.61718 1.78041,-3.58299 6.81826,-7.32618 13.90039,-7.32618 z"
         style="opacity:1;fill:#ffffff;fill-opacity:1;stroke:none;stroke-width:3;stroke-linecap:round;stroke-linejoin:miter;stroke-miterlimit:4;stroke-dasharray:none;stroke-dashoffset:0;stroke-opacity:0" />
      <path
         inkscape:connector-curvature="0"
         id="path4156"
         d="m 444.90482,370.07373 -0.88672,0.51172 v 57.54883 l 49.83984,28.77539 49.83984,-28.77539 v -57.54883 l -0.88672,-0.51172 -48.95312,28.26172 z"
         style="opacity:1;fill:#ffffff;fill-opacity:1;stroke:none;stroke-width:3;stroke-linecap:round;stroke-linejoin:miter;stroke-miterlimit:4;stroke-dasharray:none;stroke-dashoffset:0;stroke-opacity:1" />
    </g>
  </g>
</svg>
