<svg xmlns="http://www.w3.org/2000/svg" viewBox="0 0 400 225">
  <defs>
    <style>
      .cls-1 {
        isolation: isolate;
      }

      .cls-2 {
        fill: #d35400;
      }

      .cls-3 {
        opacity: 0.25;
        mix-blend-mode: multiply;
      }

      .cls-4 {
        fill: #fff;
      }

      .cls-5 {
        fill: #34495e;
      }

      .cls-6 {
        fill: #2ecc71;
      }

      .cls-7 {
        fill: #2980b9;
      }

      .cls-8 {
        fill: none;
      }
    </style>
  </defs>
  <title>documentation tool </title>
  <g class="cls-1">
    <g id="Layer_2" data-name="Layer 2">
      <g id="documentation_tool" data-name="documentation tool">
        <g>
          <rect class="cls-2" x="135.8" y="40.4" width="136.4" height="159.28"/>
          <g>
            <g class="cls-3">
              <rect x="153.94" y="58.29" width="107.47" height="130.84"/>
            </g>
            <rect class="cls-4" x="150.27" y="54.62" width="107.47" height="130.84"/>
          </g>
          <rect class="cls-5" x="177.6" y="40.4" width="52.8" height="24.25"/>
          <path class="cls-5" d="M218.49,41.5h-5.87c0-6-3.87-8.62-8.62-8.62s-8.62,2.62-8.62,8.62h-5.87C189.51,32.5,196,27,204,27S218.49,32.5,218.49,41.5Z"/>
          <path class="cls-6" d="M218.23,153.21,204.44,167l-2.59,2.59a1.84,1.84,0,0,1-2.59,0L196.66,167l-6.9-6.9a1.84,1.84,0,0,1,0-2.59l2.59-2.59a1.84,1.84,0,0,1,2.59,0l5.6,5.62L213,148a1.84,1.84,0,0,1,2.59,0l2.59,2.59a1.84,1.84,0,0,1,0,2.59Z"/>
          <g>
            <circle class="cls-7" cx="174.52" cy="86.68" r="5.95"/>
            <rect class="cls-7" x="186.17" y="82.89" width="53.26" height="7.57" rx="1.15" ry="1.15"/>
            <rect class="cls-7" x="186.17" y="104.52" width="53.26" height="7.57" rx="1.15" ry="1.15"/>
            <rect class="cls-7" x="186.17" y="126.15" width="53.26" height="7.57" rx="1.15" ry="1.15"/>
            <circle class="cls-7" cx="174.52" cy="108.31" r="5.95"/>
            <circle class="cls-7" cx="174.52" cy="129.93" r="5.95"/>
          </g>
        </g>
        <rect class="cls-8" width="400" height="225"/>
      </g>
    </g>
  </g>
</svg>
