<?xml version="1.0" encoding="utf-8"?>
<!-- Generator: Adobe Illustrator 20.1.0, SVG Export Plug-In . SVG Version: 6.00 Build 0)  -->
<svg version="1.1" id="Layer_1" xmlns="http://www.w3.org/2000/svg" xmlns:xlink="http://www.w3.org/1999/xlink" x="0px" y="0px"
	 viewBox="0 0 400 225" style="enable-background:new 0 0 400 225;" xml:space="preserve">
<style type="text/css">
	.st0{fill:none;}
	.st1{fill:#3497DA;}
	.st2{fill:#4AA867;}
	.st3{fill:#E94C3D;}
	.st4{opacity:0.2;}
	.st5{fill:#020202;}
	.st6{fill:#34495E;}
	.st7{fill:#FFFFFF;}
	.st8{opacity:0.8;fill:#FFFFFF;}
</style>
<title>dialog cards</title>
<rect y="0" class="st0" width="400" height="225"/>
<path class="st1" d="M267.1,44.3H136.4c-0.7,0-1.3,0.6-1.3,1.3v30.9c0,0.7,0.6,1.3,1.3,1.3h0.6h130.1c0.7,0,1.3-0.6,1.3-1.3V46v-0.4
	C268.4,44.9,267.8,44.3,267.1,44.3z"/>
<path class="st1" d="M133.5,114.2c-5.1,0-9.2,4.1-9.2,9.2c0,5.1,4.1,9.2,9.2,9.2s9.2-4.1,9.2-9.2
	C142.7,118.4,138.6,114.2,133.5,114.2z"/>
<path class="st1" d="M200.5,114.2c-5.1,0-9.2,4.1-9.2,9.2c0,5.1,4.1,9.2,9.2,9.2c5.1,0,9.2-4.1,9.2-9.2
	C209.7,118.4,205.6,114.2,200.5,114.2z"/>
<path class="st2" d="M107.7,152.9c-7.7,0-13.9,6.2-13.9,13.9c0,7.7,6.2,13.9,13.9,13.9s13.9-6.2,13.9-13.9
	C121.6,159.1,115.4,152.9,107.7,152.9z"/>
<path class="st3" d="M155.8,152.9c-7.7,0-13.9,6.2-13.9,13.9c0,7.7,6.2,13.9,13.9,13.9s13.9-6.2,13.9-13.9
	C169.7,159.1,163.4,152.9,155.8,152.9z"/>
<g class="st4">
	<path class="st5" d="M203.7,114.9c2.5,1.6,4.1,4.3,4.1,7.4c0,4.8-3.9,8.8-8.8,8.8c-2.5,0-4.8-1.1-6.4-2.8c1.6,2.7,4.5,4.4,7.9,4.4
		c5.1,0,9.2-4.1,9.2-9.2C209.7,119.5,207.2,116.2,203.7,114.9z"/>
</g>
<g class="st4">
	<path class="st5" d="M136.8,114.9c2.5,1.6,4.1,4.3,4.1,7.4c0,4.8-3.9,8.8-8.8,8.8c-2.5,0-4.8-1.1-6.4-2.8c1.6,2.7,4.5,4.4,7.9,4.4
		c5.1,0,9.2-4.1,9.2-9.2C142.7,119.5,140.3,116.2,136.8,114.9z"/>
</g>
<path class="st1" d="M264.9,114.1c-5.1,0-9.2,4.1-9.2,9.2c0,5.1,4.1,9.2,9.2,9.2c5.1,0,9.2-4.1,9.2-9.2
	C274.1,118.2,270,114.1,264.9,114.1z"/>
<path class="st2" d="M239.8,152.9c-7.7,0-13.9,6.2-13.9,13.9c0,7.7,6.2,13.9,13.9,13.9s13.9-6.2,13.9-13.9
	C253.7,159.1,247.4,152.9,239.8,152.9z"/>
<path class="st3" d="M292.2,152.9c-7.7,0-13.9,6.2-13.9,13.9c0,7.7,6.2,13.9,13.9,13.9c7.7,0,13.9-6.2,13.9-13.9
	C306.1,159.1,299.9,152.9,292.2,152.9z"/>
<g>
	<path class="st0" d="M273.1,127l0.2,0.2c0-0.1,0.1-0.2,0.1-0.2H273.1z"/>
	<path class="st0" d="M191.3,123.5c0,5.1,4.1,9.2,9.2,9.2c5.1,0,9.2-4.1,9.2-9.2c0-5.1-4.1-9.2-9.2-9.2
		C195.5,114.2,191.3,118.4,191.3,123.5z"/>
	<path class="st0" d="M141.9,166.8c0,7.7,6.2,13.9,13.9,13.9s13.9-6.2,13.9-13.9c0-7.7-6.2-13.9-13.9-13.9S141.9,159.1,141.9,166.8z
		"/>
	<path class="st6" d="M123.4,132.6l-11.9,16.3c2,0.4,3.8,1.2,5.5,2.2l11-15.1C126.3,135.1,124.7,134,123.4,132.6z"/>
	<path class="st6" d="M247,89.7L247,89.7c-0.4-0.4-1.2-0.7-1.6-0.7H204l-0.1-8h-6.2l0,8h-41.3c-0.7,0-1.1,0-5.9,6.5l-11.4,15.5
		c1.7,0.8,3.3,2,4.5,3.4l14.4-19.8c0.2-0.1,0.5-0.2,0.7-0.2l38.8-0.2v15.9c0.9-0.2,1.9-0.3,2.9-0.3c1.2,0,2.3,0.2,3.3,0.4v-16
		l38.5,0.2c0.9,0.9,5.4,7,13.6,18.6c1.5-1.3,3.3-2.3,5.4-2.9L247,89.7z"/>
	<path class="st6" d="M253.2,130.3l-12.9,18.2c2.2,0.1,4.2,0.5,6.1,1.3l10.8-15.1C255.6,133.5,254.2,132,253.2,130.3z"/>
	<path class="st6" d="M139.5,135.6l10,13.9c1.9-0.7,3.9-1.1,6-1.1L144,132C142.8,133.5,141.2,134.8,139.5,135.6z"/>
	<path class="st6" d="M276,131.2c-1.2,1.6-2.7,3-4.4,4c1.8,2.6,3.7,5.2,5.6,8l5.6,7.9c1.7-1,3.6-1.8,5.6-2.2L276,131.2z"/>
	<path class="st7" d="M301.6,177.7l0.3-1c-0.2,0.2-0.4,0.4-0.6,0.6L301.6,177.7z"/>
</g>
<g class="st4">
	<path class="st5" d="M268.4,76.5v-31c0,0,0-0.5-0.4-0.8c-0.4-0.4-0.9-0.4-0.9-0.4h-0.5v30.2c0,0.7-0.6,1.3-1.3,1.3H135.1
		c0,0-0.1,0.8,0.2,1.3c0.3,0.6,1,0.7,1,0.7h130.9C267.8,77.8,268.4,77.3,268.4,76.5z"/>
</g>
<g class="st4">
	<g>
		<path class="st5" d="M268.1,114.7c2.5,1.6,4.1,4.3,4.1,7.4c0,4.8-3.9,8.8-8.8,8.8c-2.5,0-4.8-1.1-6.4-2.8c1.6,2.7,4.5,4.4,7.9,4.4
			c5.1,0,9.2-4.1,9.2-9.2C274,119.3,271.6,116,268.1,114.7z"/>
	</g>
</g>
<path class="st8" d="M258.2,57.4h-93.8c-0.2,0-0.4-0.2-0.4-0.4v-3.3c0-0.2,0.2-0.4,0.4-0.4h93.8c0.2,0,0.4,0.2,0.4,0.4V57
	C258.6,57.2,258.4,57.4,258.2,57.4z"/>
<path class="st8" d="M233.9,66.6h-69.5c-0.2,0-0.4-0.2-0.4-0.4v-3.3c0-0.2,0.2-0.4,0.4-0.4h69.5c0.2,0,0.4,0.2,0.4,0.4v3.3
	C234.3,66.4,234.1,66.6,233.9,66.6z"/>
<path class="st8" d="M154.9,56.3c0,3.5-3.8,3.5-3.8,4.8v0.3c0,0.3-0.3,0.6-0.6,0.6h-2.4c-0.3,0-0.6-0.3-0.6-0.6V61
	c0-1.9,1.4-2.6,2.5-3.2c0.9-0.5,1.5-0.9,1.5-1.5c0-0.9-1.1-1.5-2.1-1.5c-1.2,0-1.8,0.6-2.5,1.6c-0.2,0.3-0.6,0.3-0.9,0.1l-1.4-1.1
	c-0.3-0.2-0.3-0.6-0.1-0.9c1.2-1.8,2.8-2.8,5.2-2.8C152.2,51.6,154.9,53.6,154.9,56.3z"/>
<circle class="st8" cx="149.4" cy="65.7" r="2.2"/>
<g class="st4">
	<path class="st5" d="M112.7,153.8c3.7,2.3,6.2,6.5,6.2,11.2c0,7.3-5.9,13.2-13.2,13.2c-3.8,0-7.3-1.6-9.7-4.3
		c2.4,4,6.8,6.7,11.8,6.7c7.6,0,13.8-6.2,13.8-13.8C121.6,160.9,117.9,155.8,112.7,153.8z"/>
</g>
<g class="st4">
	<path class="st5" d="M160.8,153.8c3.7,2.3,6.2,6.5,6.2,11.2c0,7.3-5.9,13.2-13.2,13.2c-3.8,0-7.3-1.6-9.7-4.3
		c2.4,4,6.8,6.7,11.8,6.7c7.6,0,13.8-6.2,13.8-13.8C169.8,160.9,166,155.8,160.8,153.8z"/>
</g>
<g class="st4">
	<path class="st5" d="M244.7,153.8c3.7,2.3,6.2,6.5,6.2,11.2c0,7.3-5.9,13.2-13.2,13.2c-3.8,0-7.3-1.6-9.7-4.3
		c2.4,4,6.8,6.7,11.8,6.7c7.6,0,13.8-6.2,13.8-13.8C253.7,160.9,250,155.8,244.7,153.8z"/>
</g>
<g class="st4">
	<path class="st5" d="M297.2,153.8c3.7,2.3,6.2,6.5,6.2,11.2c0,7.3-5.9,13.2-13.2,13.2c-3.8,0-7.3-1.6-9.7-4.3
		c2.4,4,6.8,6.7,11.8,6.7c7.6,0,13.8-6.2,13.8-13.8C306.2,160.9,302.5,155.8,297.2,153.8z"/>
</g>
</svg>
