<?xml version="1.0" encoding="utf-8"?>
<!-- Generator: Adobe Illustrator 20.1.0, SVG Export Plug-In . SVG Version: 6.00 Build 0)  -->
<svg version="1.1" id="Layer_1" xmlns="http://www.w3.org/2000/svg" xmlns:xlink="http://www.w3.org/1999/xlink" x="0px" y="0px"
	 viewBox="0 0 400 225" style="enable-background:new 0 0 400 225;" xml:space="preserve">
<style type="text/css">
	.st0{fill:#4A97DA;}
	.st1{opacity:0.15;}
	.st2{fill:#231F20;}
	.st3{fill:#FFFFFF;}
	.st4{fill:#B0AFAD;}
	.st5{fill:#757575;}
	.st6{fill:#565656;}
	.st7{fill:#E29563;}
	.st8{fill:#494949;}
	.st9{fill:#D66F6E;}
	.st10{fill:none;}
</style>
<title>fill in the blanks</title>
<g id="Layer_2">
	<g id="fill_in_the_blanks">
		<g>
			<rect x="134" y="26.8" class="st0" width="139.1" height="173.6"/>
			<g>
				<g class="st1">
					<rect x="151" y="44.5" class="st2" width="113" height="146.1"/>
				</g>
				<rect x="147.1" y="40.5" class="st3" width="113" height="146.1"/>
			</g>
			<g>
				<path class="st0" d="M228.6,121.6h-32.3c-4.9,0-8.8-3.9-8.8-8.8s3.9-8.8,8.8-8.8h32.3c4.9,0,8.8,3.9,8.8,8.8
					S233.5,121.6,228.6,121.6z"/>
			</g>
			<path class="st4" d="M197.3,157.7h-33.6c-1.9,0-3.4-1.5-3.4-3.4l0,0c0-1.9,1.5-3.4,3.4-3.4h33.6c1.9,0,3.4,1.5,3.4,3.4l0,0
				C200.8,156.2,199.2,157.7,197.3,157.7z"/>
			<path class="st4" d="M232.2,74.9h7.5c1.9,0,3.4-1.5,3.4-3.4l0,0c0-1.9-1.5-3.4-3.4-3.4h-7.5c-1.9,0-3.4,1.5-3.4,3.4l0,0
				C228.7,73.3,230.3,74.9,232.2,74.9z"/>
			<path class="st4" d="M197.3,95.7h-33.6c-1.9,0-3.4-1.5-3.4-3.4v0c0-1.9,1.5-3.4,3.4-3.4h33.6c1.9,0,3.4,1.5,3.4,3.4v0
				C200.8,94.2,199.2,95.7,197.3,95.7z"/>
			<path class="st4" d="M243.5,95.7h-33.5c-1.9,0-3.4-1.5-3.4-3.4v0c0-1.9,1.5-3.4,3.4-3.4h33.5c1.9,0,3.4,1.5,3.4,3.4v0
				C246.9,94.2,245.4,95.7,243.5,95.7z"/>
			<path class="st4" d="M178.8,116.2h-15.1c-1.9,0-3.4-1.5-3.4-3.4v0c0-1.9,1.5-3.4,3.4-3.4h15.1c1.9,0,3.4,1.5,3.4,3.4v0
				C182.3,114.7,180.7,116.2,178.8,116.2z"/>
			<path class="st4" d="M214.7,137.1h-50.9c-1.9,0-3.4-1.5-3.4-3.4l0,0c0-1.9,1.5-3.4,3.4-3.4h50.9c1.9,0,3.4,1.5,3.4,3.4l0,0
				C218.1,135.5,216.5,137.1,214.7,137.1z"/>
			<g>
				<path class="st0" d="M215.1,80.3h-51.8c-4.9,0-8.8-3.9-8.8-8.8c0-4.9,3.9-8.8,8.8-8.8h51.8c4.9,0,8.8,3.9,8.8,8.8
					C223.9,76.3,219.9,80.3,215.1,80.3z"/>
			</g>
			<path class="st3" d="M212.9,73.5h-47.5c-1.1,0-2.1-0.9-2.1-2.1l0,0c0-1.1,0.9-2.1,2.1-2.1h47.5c1.1,0,2.1,0.9,2.1,2.1l0,0
				C215,72.6,214.1,73.5,212.9,73.5z"/>
			<path class="st3" d="M226.8,114.9h-28.6c-1.1,0-2.1-0.9-2.1-2.1v0c0-1.1,0.9-2.1,2.1-2.1h28.6c1.1,0,2.1,0.9,2.1,2.1v0
				C228.9,113.9,227.9,114.9,226.8,114.9z"/>
		</g>
		<polygon class="st3" points="273.2,92.3 259.9,104.6 259.9,120.6 273.2,120.6 		"/>
		<polygon class="st3" points="273.2,136.7 259.9,149 259.9,165 273.2,153.3 		"/>
		<g>
			<polygon class="st5" points="288.4,107.8 281.4,99.2 236.9,140.5 242.9,149.5 			"/>
			<polygon class="st6" points="295.5,116.3 288.4,107.8 242.9,149.5 250.9,157.6 			"/>
			<g>
				<path class="st7" d="M235.2,155.8c1.2,1.4,2.3,2.9,3.2,4.4l12.6-2.6c0,0-0.3-3.5-5.7-9.7c-5.6-6.6-8.3-7.4-8.3-7.4l-4.8,12.2
					C233.3,153.7,234.3,154.7,235.2,155.8z"/>
				<path class="st8" d="M238.4,160.2c-0.9-1.6-2-3-3.2-4.4c-0.9-1.1-1.9-2.1-2.9-3.1l-3.7,9.5L238.4,160.2z"/>
			</g>
			<path class="st9" d="M304.5,105.9c0.5-5.4-6.6-13.4-12-13.9c-3.3-0.3-8.5,5.4-8.5,5.4l14,16.5C298,113.9,304.2,109.2,304.5,105.9
				z"/>
		</g>
		<rect y="0" class="st10" width="400" height="225"/>
	</g>
</g>
</svg>
