<?xml version="1.0" encoding="UTF-8" standalone="no"?>
<svg
   xmlns:dc="http://purl.org/dc/elements/1.1/"
   xmlns:cc="http://creativecommons.org/ns#"
   xmlns:rdf="http://www.w3.org/1999/02/22-rdf-syntax-ns#"
   xmlns:svg="http://www.w3.org/2000/svg"
   xmlns="http://www.w3.org/2000/svg"
   xmlns:sodipodi="http://sodipodi.sourceforge.net/DTD/sodipodi-0.dtd"
   xmlns:inkscape="http://www.inkscape.org/namespaces/inkscape"
   version="1.1"
   viewBox="-10 0 32 32"
   id="svg885"
   sodipodi:docname="slider_audio_unmuted.svg"
   width="32"
   height="32"
   inkscape:version="1.0.1 (3bc2e813f5, 2020-09-07)">
  <metadata
     id="metadata891">
    <rdf:RDF>
      <cc:Work
         rdf:about="">
        <dc:format>image/svg+xml</dc:format>
        <dc:type
           rdf:resource="http://purl.org/dc/dcmitype/StillImage" />
        <dc:title></dc:title>
      </cc:Work>
    </rdf:RDF>
  </metadata>
  <defs
     id="defs889" />
  <sodipodi:namedview
     pagecolor="#ffffff"
     bordercolor="#666666"
     borderopacity="1"
     objecttolerance="10"
     gridtolerance="10"
     guidetolerance="10"
     inkscape:pageopacity="0"
     inkscape:pageshadow="2"
     inkscape:window-width="1860"
     inkscape:window-height="1017"
     id="namedview887"
     showgrid="false"
     inkscape:zoom="2.2545774"
     inkscape:cx="41.631826"
     inkscape:cy="90.728433"
     inkscape:window-x="60"
     inkscape:window-y="26"
     inkscape:window-maximized="1"
     inkscape:current-layer="svg885" />
  <g
     transform="matrix(0.03125,0,0,-0.03206413,-10,29.691384)"
     id="g883"
     style="fill:#ffffff">
    <path
       fill="currentColor"
       d="M 0,597 V 256 H 228 L 512,-28 V 882 L 228,597 Z M 768,427 q 0,75 -39.5,136 Q 689,624 626,656 V 198 q 63,31 102.5,92 39.5,61 39.5,137 z M 626,926 V 808 q 61,-18 114,-55 52,-36 90,-86 38,-50 59,-111 21,-62 21,-129 0,-68 -21,-129 Q 868,237 830,186.5 792,136 740,100 687,63 626,45 V -72 q 85,19 158,65 73,46 126.5,112 53.5,66 83.5,148 30,82 30,174 0,91 -30,173 -30,82 -83.5,148 Q 857,814 784,860 711,906 626,926 Z"
       id="path881"
       style="fill:#ffffff" />
  </g>
</svg>
