<?xml version="1.0" encoding="UTF-8" standalone="no"?>
<svg
   xmlns:dc="http://purl.org/dc/elements/1.1/"
   xmlns:cc="http://creativecommons.org/ns#"
   xmlns:rdf="http://www.w3.org/1999/02/22-rdf-syntax-ns#"
   xmlns:svg="http://www.w3.org/2000/svg"
   xmlns="http://www.w3.org/2000/svg"
   xmlns:sodipodi="http://sodipodi.sourceforge.net/DTD/sodipodi-0.dtd"
   xmlns:inkscape="http://www.inkscape.org/namespaces/inkscape"
   version="1.1"
   viewBox="-10 0 32 32"
   id="svg971"
   sodipodi:docname="slider_audio_muted.svg"
   width="32"
   height="32"
   inkscape:version="1.0.1 (3bc2e813f5, 2020-09-07)">
  <metadata
     id="metadata977">
    <rdf:RDF>
      <cc:Work
         rdf:about="">
        <dc:format>image/svg+xml</dc:format>
        <dc:type
           rdf:resource="http://purl.org/dc/dcmitype/StillImage" />
        <dc:title></dc:title>
      </cc:Work>
    </rdf:RDF>
  </metadata>
  <defs
     id="defs975" />
  <sodipodi:namedview
     pagecolor="#ffffff"
     bordercolor="#666666"
     borderopacity="1"
     objecttolerance="10"
     gridtolerance="10"
     guidetolerance="10"
     inkscape:pageopacity="0"
     inkscape:pageshadow="2"
     inkscape:window-width="1860"
     inkscape:window-height="1017"
     id="namedview973"
     showgrid="false"
     inkscape:zoom="1.6305284"
     inkscape:cx="197.55533"
     inkscape:cy="79.19542"
     inkscape:window-x="60"
     inkscape:window-y="26"
     inkscape:window-maximized="1"
     inkscape:current-layer="svg971" />
  <g
     transform="matrix(0.03125,0,0,-0.03125,-10,29.34375)"
     id="g969"
     style="fill:#ffffff">
    <path
       fill="currentColor"
       d="m 768,427 q 0,75 -39.5,136 Q 689,624 626,656 V 530 L 765,391 q 1,8 2,17 1,9 1,19 z m 142,0 q 0,-40 -8,-78 -8,-38 -22,-73 l 85,-85 q 29,52 44,112 15,60 15,124 0,91 -30,173 -30,82 -83.5,148 Q 857,814 784,860 711,906 626,926 V 808 q 61,-18 114,-55 52,-36 90,-86 38,-50 59,-111 21,-62 21,-129 z M 72,939 0,866 269,597 H 0 V 256 H 228 L 512,-28 V 354 L 754,113 Q 725,90 693,73 661,56 626,46 V -72 q 59,14 111.5,40.5 Q 790,-5 836,31 l 116,-116 72,72 z M 512,882 393,763 512,644 Z"
       id="path967"
       style="fill:#ffffff" />
  </g>
</svg>
