<?xml version="1.0" encoding="UTF-8" standalone="no"?>
<svg
   xmlns:dc="http://purl.org/dc/elements/1.1/"
   xmlns:cc="http://creativecommons.org/ns#"
   xmlns:rdf="http://www.w3.org/1999/02/22-rdf-syntax-ns#"
   xmlns:svg="http://www.w3.org/2000/svg"
   xmlns="http://www.w3.org/2000/svg"
   xmlns:sodipodi="http://sodipodi.sourceforge.net/DTD/sodipodi-0.dtd"
   xmlns:inkscape="http://www.inkscape.org/namespaces/inkscape"
   viewBox="0 0 400 225"
   version="1.1"
   id="svg1131"
   sodipodi:docname="icon.svg"
   inkscape:version="0.92.4 (5da689c313, 2019-01-14)">
  <metadata
     id="metadata1135">
    <rdf:RDF>
      <cc:Work
         rdf:about="">
        <dc:format>image/svg+xml</dc:format>
        <dc:type
           rdf:resource="http://purl.org/dc/dcmitype/StillImage" />
        <dc:title>audio-recorder</dc:title>
      </cc:Work>
    </rdf:RDF>
  </metadata>
  <sodipodi:namedview
     pagecolor="#ffffff"
     bordercolor="#666666"
     borderopacity="1"
     objecttolerance="10"
     gridtolerance="10"
     guidetolerance="10"
     inkscape:pageopacity="0"
     inkscape:pageshadow="2"
     inkscape:window-width="1920"
     inkscape:window-height="1137"
     id="namedview1133"
     showgrid="false"
     inkscape:zoom="1.2374369"
     inkscape:cx="449.19657"
     inkscape:cy="61.403985"
     inkscape:window-x="1912"
     inkscape:window-y="-8"
     inkscape:window-maximized="1"
     inkscape:current-layer="svg1131" />
  <defs
     id="defs1098">
    <style
       id="style1096">
      .cls-1 {
        fill: none;
      }

      .cls-2, .cls-7 {
        fill: #ba5454;
      }

      .cls-3 {
        fill: #54a36e;
      }

      .cls-4 {
        fill: #ef5f5f;
      }

      .cls-5 {
        fill: #61c385;
      }

      .cls-6, .cls-7 {
        opacity: 0.8;
      }

      .cls-8 {
        fill: #3aaa72;
      }

      .cls-9 {
        fill: #fff;
      }
    </style>
  </defs>
  <title
     id="title1100">audio-recorder</title>
  <g
     id="g1852">
    <text
       id="text1102" />
    <rect
       style="fill:none"
       y="0"
       x="0"
       id="rect1105"
       height="225"
       width="400"
       class="cls-1" />
    <path
       id="path1107"
       d="M 259.38281 162.99023 C 259.38291 162.99151 259.38271 162.99287 259.38281 162.99414 L 233.91016 163 L 210.25781 184.58008 L 185.86914 183.39844 L 185.86914 184.75195 L 139 182.48047 C 139.51333 175.8938 140.01953 169.4 140.51953 163 L 118.21094 163 L 118.21094 169.17969 A 25.07 25.07 0 0 0 143.21094 194.17969 L 185.86914 194.17969 L 192.40039 194.17969 L 200.6582 194.17969 L 200.56055 194.2793 L 258.08008 194.43945 A 23.62 23.62 0 0 0 281.63086 170.89062 C 281.63086 172.63394 281.6756 171.65622 281.68555 169.29688 A 25.07 25.07 0 0 0 281.69141 169.16992 L 281.69141 162.99023 L 259.38281 162.99023 z "
       style="fill:#54a36e;fill-opacity:1" />
    <path
       id="path1111"
       d="M 143.21094 30.859375 A 25.07 25.07 0 0 0 141.14648 30.96875 A 25.07 25.07 0 0 0 139.89062 31.117188 A 25.07 25.07 0 0 0 138.67188 31.304688 A 25.07 25.07 0 0 0 137.4082 31.585938 A 25.07 25.07 0 0 0 136.24414 31.886719 A 25.07 25.07 0 0 0 135.01953 32.289062 A 25.07 25.07 0 0 0 133.86523 32.714844 A 25.07 25.07 0 0 0 132.71484 33.226562 A 25.07 25.07 0 0 0 131.5957 33.769531 A 25.07 25.07 0 0 0 130.49219 34.398438 A 25.07 25.07 0 0 0 129.44531 35.042969 A 25.07 25.07 0 0 0 128.41992 35.771484 A 25.07 25.07 0 0 0 127.4082 36.546875 A 25.07 25.07 0 0 0 126.50781 37.333984 A 25.07 25.07 0 0 0 125.55273 38.228516 A 25.07 25.07 0 0 0 124.71094 39.126953 A 25.07 25.07 0 0 0 123.89648 40.058594 A 25.07 25.07 0 0 0 123.10352 41.095703 A 25.07 25.07 0 0 0 122.40625 42.078125 A 25.07 25.07 0 0 0 121.74023 43.15625 A 25.07 25.07 0 0 0 121.11914 44.246094 A 25.07 25.07 0 0 0 120.57227 45.371094 A 25.07 25.07 0 0 0 120.06836 46.505859 A 25.07 25.07 0 0 0 119.63477 47.679688 A 25.07 25.07 0 0 0 119.23633 48.892578 A 25.07 25.07 0 0 0 118.93555 50.058594 A 25.07 25.07 0 0 0 118.6543 51.322266 A 25.07 25.07 0 0 0 118.4668 52.541016 A 25.07 25.07 0 0 0 118.31836 53.792969 A 25.07 25.07 0 0 0 118.21094 55.859375 L 118.21094 102.85938 L 118.21094 160.65039 A 25.07 25.07 0 0 0 143.21094 185.65039 L 199.11914 185.65039 L 200.7793 185.65039 L 256.68945 185.65039 A 25.07 25.07 0 0 0 281.68945 160.65039 L 281.68945 102.85938 L 281.68945 55.859375 A 25.07 25.07 0 0 0 281.58203 53.792969 A 25.07 25.07 0 0 0 281.43555 52.558594 A 25.07 25.07 0 0 0 281.24023 51.298828 A 25.07 25.07 0 0 0 280.97656 50.111328 A 25.07 25.07 0 0 0 280.6543 48.865234 A 25.07 25.07 0 0 0 280.27539 47.712891 A 25.07 25.07 0 0 0 279.83008 46.501953 A 25.07 25.07 0 0 0 279.32812 45.371094 A 25.07 25.07 0 0 0 278.78125 44.246094 A 25.07 25.07 0 0 0 278.16016 43.15625 A 25.07 25.07 0 0 0 277.49609 42.082031 A 25.07 25.07 0 0 0 276.77734 41.070312 A 25.07 25.07 0 0 0 276.01562 40.074219 A 25.07 25.07 0 0 0 275.17969 39.117188 A 25.07 25.07 0 0 0 274.34766 38.228516 A 25.07 25.07 0 0 0 273.40234 37.341797 A 25.07 25.07 0 0 0 272.47852 36.537109 A 25.07 25.07 0 0 0 271.49805 35.785156 A 25.07 25.07 0 0 0 270.45312 35.042969 A 25.07 25.07 0 0 0 269.4082 34.398438 A 25.07 25.07 0 0 0 268.30469 33.769531 A 25.07 25.07 0 0 0 267.18555 33.226562 A 25.07 25.07 0 0 0 266.03516 32.714844 A 25.07 25.07 0 0 0 264.88086 32.289062 A 25.07 25.07 0 0 0 263.65625 31.886719 A 25.07 25.07 0 0 0 262.49219 31.585938 A 25.07 25.07 0 0 0 261.22852 31.304688 A 25.07 25.07 0 0 0 260.00977 31.117188 A 25.07 25.07 0 0 0 258.75391 30.96875 A 25.07 25.07 0 0 0 256.68945 30.859375 L 143.21094 30.859375 z "
       style="fill:#61c385;fill-opacity:1" />
    <path
       id="path1111-3"
       d="m 151.43818,42.081723 a 21.43485,21.43485 0 0 0 -1.76511,0.09352 21.43485,21.43485 0 0 0 -1.07377,0.126914 21.43485,21.43485 0 0 0 -1.04201,0.160313 21.43485,21.43485 0 0 0 -1.08046,0.240469 21.43485,21.43485 0 0 0 -0.99526,0.257167 21.43485,21.43485 0 0 0 -1.04705,0.344004 21.43485,21.43485 0 0 0 -0.98692,0.364044 21.43485,21.43485 0 0 0 -0.98359,0.437518 21.43485,21.43485 0 0 0 -0.95686,0.464239 21.43485,21.43485 0 0 0 -0.94351,0.537715 21.43485,21.43485 0 0 0 -0.89508,0.551074 21.43485,21.43485 0 0 0 -0.8767,0.622881 21.43485,21.43485 0 0 0 -0.86503,0.662959 21.43485,21.43485 0 0 0 -0.76983,0.672978 21.43485,21.43485 0 0 0 -0.81659,0.764825 21.43485,21.43485 0 0 0 -0.71973,0.768164 21.43485,21.43485 0 0 0 -0.69636,0.796553 21.43485,21.43485 0 0 0 -0.67799,0.886728 21.43485,21.43485 0 0 0 -0.59616,0.839971 21.43485,21.43485 0 0 0 -0.56945,0.921797 21.43485,21.43485 0 0 0 -0.53103,0.931816 21.43485,21.43485 0 0 0 -0.46757,0.961875 21.43485,21.43485 0 0 0 -0.43084,0.970225 21.43485,21.43485 0 0 0 -0.37072,1.003624 21.43485,21.43485 0 0 0 -0.34067,1.037021 21.43485,21.43485 0 0 0 -0.25717,0.996943 21.43485,21.43485 0 0 0 -0.24047,1.08044 21.43485,21.43485 0 0 0 -0.16031,1.042031 21.43485,21.43485 0 0 0 -0.12691,1.07042 21.43485,21.43485 0 0 0 -0.0919,1.766777 v 40.185012 49.41131 a 21.43485,21.43485 0 0 0 21.375,21.375 h 47.80151 1.41943 47.80319 a 21.43485,21.43485 0 0 0 21.375,-21.375 V 103.64173 63.456723 a 21.43485,21.43485 0 0 0 -0.0919,-1.766777 21.43485,21.43485 0 0 0 -0.12523,-1.055391 21.43485,21.43485 0 0 0 -0.167,-1.077099 21.43485,21.43485 0 0 0 -0.22543,-1.015313 21.43485,21.43485 0 0 0 -0.27554,-1.065411 21.43485,21.43485 0 0 0 -0.32398,-0.985253 21.43485,21.43485 0 0 0 -0.38072,-1.035352 21.43485,21.43485 0 0 0 -0.42919,-0.966884 21.43485,21.43485 0 0 0 -0.46757,-0.961875 21.43485,21.43485 0 0 0 -0.53103,-0.931816 21.43485,21.43485 0 0 0 -0.56779,-0.918459 21.43485,21.43485 0 0 0 -0.61453,-0.865019 21.43485,21.43485 0 0 0 -0.65127,-0.851659 21.43485,21.43485 0 0 0 -0.71472,-0.818262 21.43485,21.43485 0 0 0 -0.71138,-0.759814 21.43485,21.43485 0 0 0 -0.80825,-0.758145 21.43485,21.43485 0 0 0 -0.78987,-0.688009 21.43485,21.43485 0 0 0 -0.8383,-0.642919 21.43485,21.43485 0 0 0 -0.89342,-0.634571 21.43485,21.43485 0 0 0 -0.89341,-0.551074 21.43485,21.43485 0 0 0 -0.9435,-0.537715 21.43485,21.43485 0 0 0 -0.95686,-0.464238 21.43485,21.43485 0 0 0 -0.98358,-0.437519 21.43485,21.43485 0 0 0 -0.98693,-0.364044 21.43485,21.43485 0 0 0 -1.04704,-0.344003 21.43485,21.43485 0 0 0 -0.99528,-0.257168 21.43485,21.43485 0 0 0 -1.08043,-0.240469 21.43485,21.43485 0 0 0 -1.04203,-0.160313 21.43485,21.43485 0 0 0 -1.07376,-0.126914 21.43485,21.43485 0 0 0 -1.76511,-0.09352 z"
       style="fill:#feffff;fill-opacity:1;stroke-width:0.85499996"
       inkscape:connector-curvature="0" />
    <g
       id="g1023"
       transform="matrix(0.39685281,0,0,0.39685281,-43.409107,48.845299)">
      <path
         style="fill:#d0d0d0;fill-opacity:1"
         d="m 487.22308,233.70181 v -42 h 42 42 v 42 42 h -42 -42 z m 72,0 v -30 h -30 -30 v 30 30 h 30 30 z m -48,0 v -18 h 18 18 v 18 18 h -18 -18 z m 72,12 v -30 h 6 6 v -6 -6 h -6 -6 v -12 -12 h -12 -12 v -6 -6 h 6 6 v -6 -6 h -6 -6 v -6 -6 h 6 6 v 6 6 h 12 12 v -6 -6 h 12 12 v -12 -12 h 6 6 v 6 6 h 6 6 v -6 -6 h 6 6 v 6 6 h 6 6 v -6 -6 h 6 6 v 6 6 h -6 -6 v 6 6 h 6 6 v 6 6 h -6 -6 v 6 6 h 6 6 v 12 12 h 6 6 v 18 18 h 6 6 v -30 -30 h -6 -6 v -6 -6 h 12 12 v 12 12 h 12 12 v 12 12 h -6 -6 v 6 6 h -6 -6 v 6 6 h -6 -6 v 6 6 h -6 -6 v -6 -6 h -6 -6 v -6 -6 h -6 -6 v -6 -6 h 6 6 v -6 -6 h -6 -6 v -12 -12 h -12 -12 v 12 12 h 6 6 v 6 6 h -6 -6 v -6 -6 h -6 -6 v 6 6 h -6 -6 v 6 6 h 6 6 v 6 6 h 6 6 v -6 -6 h 6 6 v 6 6 h 6 6 v 6 6 h 6 6 v 6 6 h -6 -6 v 6 6 h 6 6 v 6 6 h -6 -6 v -6 -6 h -12 -12 v 6 6 h -6 -6 v -6 -6 h -6 -6 v -6 -6 h 6 6 v -6 -6 h -6 -6 v -6 -6 h -6 -6 v -6 -6 h -6 -6 v 18 18 h 6 6 v 12 12 h -12 -12 z m 72,0 v -6 h -6 -6 v 6 6 h 6 6 z m -36,-48 v -6 h 6 6 v -12 -12 h -6 -6 v -6 -6 h 6 6 v -6 -6 h -6 -6 v 6 6 h -6 -6 v 6 6 h 6 6 v 12 12 h -6 -6 v -6 -6 h -6 -6 v -6 -6 h -6 -6 v 6 6 h 6 6 v 6 6 h 6 6 v 6 6 h 6 6 z m 108,0 v -6 h -6 -6 v 6 6 h 6 6 z m -72,-48 v -6 h -6 -6 v 6 6 h 6 6 z m 48,120 v -6 h -6 -6 v -6 -6 h 6 6 v 6 6 h 6 6 v 6 6 h -6 -6 z m 24,-12 v -6 h 6 6 v 6 6 h -6 -6 z m -240,-84 v -6 h 6 6 v 6 6 h -6 -6 z m 36,0 v -6 h -6 -6 v -6 -6 h -6 -6 v -6 -6 h 12 12 v -6 -6 h -18 -18 v -6 -6 h 30 30 v 12 12 h -12 -12 v 6 6 h 6 6 v 6 6 h 6 6 v 6 6 h -12 -12 z m 168,-42 v -12 h 6 6 v 6 6 h 6 6 v -6 -6 h 6 6 v 6 6 h 6 6 v 6 6 h -6 -6 v -6 -6 h -6 -6 v 6 6 h -12 -12 z m -132,-6 v -6 h 18 18 v -6 -6 h -6 -6 v -11.999995 -12 h 6 6 v -6 -6 h -6 -6 v -6 -6 h 12 12 v -6 -6 h -12 -12 v -6 -6 h 12 12 v -6 -6 h 18 18 v 30 30 h -6 -6 v 6 6 h 6 6 v 5.999995 6 h -6 -6 v -6 -5.999995 h -6 -6 v 5.999995 6 h -6 -6 v 6 6 h -6 -6 v 6 6 h -18 -18 z m 48,-24 v -5.999995 h 6 6 v -6 -6 h 6 6 v -12 -12 h -12 -12 v 12 12 h -6 -6 v 12 11.999995 h 6 6 z m 24,-59.999995 v -6 h -6 -6 v 6 6 h 6 6 z m -144,24 v -42 h 42 42 v 42 41.999995 h -42 -42 z m 72,0 v -30 h -30 -30 v 30 30 h 30 30 z m -48,0 v -18 h 18 18 v 18 18 h -18 -18 z m 144,0 v -42 h 42 42 v 42 41.999995 h -42 -42 z m 72,0 v -30 h -30 -30 v 30 30 h 30 30 z m -48,0 v -18 h 18 18 v 18 18 h -18 -18 z"
         id="path1039"
         inkscape:connector-curvature="0" />
      <path
         style="fill:#b9b9b9;fill-opacity:1"
         d="m 487.22308,233.70181 v -42 h 42 42 v 42 42 h -42 -42 z m 72,0 v -30 h -30 -30 v 30 30 h 30 30 z m -48,0 v -18 h 18 18 v 18 18 h -18 -18 z m 72,12 v -30 h 6 6 v -6 -6 h -6 -6 v -12 -12 h -12 -12 v -6 -6 h 6 6 v -6 -6 h -6 -6 v -6 -6 h 6 6 v 6 6 h 12 12 v -6 -6 h 12 12 v -12 -12 h 6 6 v 6 6 h 6 6 v -6 -6 h 6 6 v 6 6 h 6 6 v -6 -6 h 6 6 v 6 6 h -6 -6 v 6 6 h 6 6 v 6 6 h -6 -6 v 6 6 h 6 6 v 12 12 h 6 6 v 18 18 h 6 6 v -30 -30 h -6 -6 v -6 -6 h 12 12 v 12 12 h 12 12 v 12 12 h -6 -6 v 6 6 h -6 -6 v 6 6 h -6 -6 v 6 6 h -6 -6 v -6 -6 h -6 -6 v -6 -6 h -6 -6 v -6 -6 h 6 6 v -6 -6 h -6 -6 v -12 -12 h -12 -12 v 12 12 h 6 6 v 6 6 h -6 -6 v -6 -6 h -6 -6 v 6 6 h -6 -6 v 6 6 h 6 6 v 6 6 h 6 6 v -6 -6 h 6 6 v 6 6 h 6 6 v 6 6 h 6 6 v 6 6 h -6 -6 v 6 6 h 6 6 v 6 6 h -6 -6 v -6 -6 h -12 -12 v 6 6 h -6 -6 v -6 -6 h -6 -6 v -6 -6 h 6 6 v -6 -6 h -6 -6 v -6 -6 h -6 -6 v -6 -6 h -6 -6 v 18 18 h 6 6 v 12 12 h -12 -12 z m 72,0 v -6 h -6 -6 v 6 6 h 6 6 z m -36,-48 v -6 h 6 6 v -12 -12 h -6 -6 v -6 -6 h 6 6 v -6 -6 h -6 -6 v 6 6 h -6 -6 v 6 6 h 6 6 v 12 12 h -6 -6 v -6 -6 h -6 -6 v -6 -6 h -6 -6 v 6 6 h 6 6 v 6 6 h 6 6 v 6 6 h 6 6 z m 108,0 v -6 h -6 -6 v 6 6 h 6 6 z m -72,-48 v -6 h -6 -6 v 6 6 h 6 6 z m 48,120 v -6 h -6 -6 v -6 -6 h 6 6 v 6 6 h 6 6 v 6 6 h -6 -6 z m 24,-12 v -6 h 6 6 v 6 6 h -6 -6 z m -240,-84 v -6 h 6 6 v 6 6 h -6 -6 z m 36,0 v -6 h -6 -6 v -6 -6 h -6 -6 v -6 -6 h 12 12 v -6 -6 h -18 -18 v -6 -6 h 30 30 v 12 12 h -12 -12 v 6 6 h 6 6 v 6 6 h 6 6 v 6 6 h -12 -12 z m 168,-42 v -12 h 6 6 v 6 6 h 6 6 v -6 -6 h 6 6 v 6 6 h 6 6 v 6 6 h -6 -6 v -6 -6 h -6 -6 v 6 6 h -12 -12 z m -132,-6 v -6 h 18 18 v -6 -6 h -6 -6 v -11.999995 -12 h 6 6 v -6 -6 h -6 -6 v -6 -6 h 12 12 v -6 -6 h -12 -12 v -6 -6 h 12 12 v -6 -6 h 18 18 v 30 30 h -6 -6 v 6 6 h 6 6 v 5.999995 6 h -6 -6 v -6 -5.999995 h -6 -6 v 5.999995 6 h -6 -6 v 6 6 h -6 -6 v 6 6 h -18 -18 z m 48,-24 v -5.999995 h 6 6 v -6 -6 h 6 6 v -12 -12 h -12 -12 v 12 12 h -6 -6 v 12 11.999995 h 6 6 z m 24,-59.999995 v -6 h -6 -6 v 6 6 h 6 6 z m -144,24 v -42 h 42 42 v 42 41.999995 h -42 -42 z m 72,0 v -30 h -30 -30 v 30 30 h 30 30 z m -48,0 v -18 h 18 18 v 18 18 h -18 -18 z m 144,0 v -42 h 42 42 v 42 41.999995 h -42 -42 z m 72,0 v -30 h -30 -30 v 30 30 h 30 30 z m -48,0 v -18 h 18 18 v 18 18 h -18 -18 z"
         id="path1037"
         inkscape:connector-curvature="0" />
      <path
         style="fill:#a3a3a3;fill-opacity:1"
         d="m 487.22308,233.70181 v -42 h 42 42 v 42 42 h -42 -42 z m 72,0 v -30 h -30 -30 v 30 30 h 30 30 z m -48,0 v -18 h 18 18 v 18 18 h -18 -18 z m 72,12 v -30 h 6 6 v -6 -6 h -6 -6 v -12 -12 h -12 -12 v -6 -6 h 6 6 v -6 -6 h -6 -6 v -6 -6 h 6 6 v 6 6 h 12 12 v -6 -6 h 12 12 v -12 -12 h 6 6 v 6 6 h 6 6 v -6 -6 h 6 6 v 6 6 h 6 6 v -6 -6 h 6 6 v 6 6 h -6 -6 v 6 6 h 6 6 v 6 6 h -6 -6 v 6 6 h 6 6 v 12 12 h 6 6 v 18 18 h 6 6 v -30 -30 h -6 -6 v -6 -6 h 12 12 v 12 12 h 12 12 v 12 12 h -6 -6 v 6 6 h -6 -6 v 6 6 h -6 -6 v 6 6 h -6 -6 v -6 -6 h -6 -6 v -6 -6 h -6 -6 v -6 -6 h 6 6 v -6 -6 h -6 -6 v -12 -12 h -12 -12 v 12 12 h 6 6 v 6 6 h -6 -6 v -6 -6 h -6 -6 v 6 6 h -6 -6 v 6 6 h 6 6 v 6 6 h 6 6 v -6 -6 h 6 6 v 6 6 h 6 6 v 6 6 h 6 6 v 6 6 h -6 -6 v 6 6 h 6 6 v 6 6 h -6 -6 v -6 -6 h -12 -12 v 6 6 h -6 -6 v -6 -6 h -6 -6 v -6 -6 h 6 6 v -6 -6 h -6 -6 v -6 -6 h -6 -6 v -6 -6 h -6 -6 v 18 18 h 6 6 v 12 12 h -12 -12 z m 72,0 v -6 h -6 -6 v 6 6 h 6 6 z m -36,-48 v -6 h 6 6 v -12 -12 h -6 -6 v -6 -6 h 6 6 v -6 -6 h -6 -6 v 6 6 h -6 -6 v 6 6 h 6 6 v 12 12 h -6 -6 v -6 -6 h -6 -6 v -6 -6 h -6 -6 v 6 6 h 6 6 v 6 6 h 6 6 v 6 6 h 6 6 z m 108,0 v -6 h -6 -6 v 6 6 h 6 6 z m -72,-48 v -6 h -6 -6 v 6 6 h 6 6 z m 48,120 v -6 h -6 -6 v -6 -6 h 6 6 v 6 6 h 6 6 v 6 6 h -6 -6 z m 24,-12 v -6 h 6 6 v 6 6 h -6 -6 z m -240,-84 v -6 h 6 6 v 6 6 h -6 -6 z m 36,0 v -6 h -6 -6 v -6 -6 h -6 -6 v -6 -6 h 12 12 v -6 -6 h -18 -18 v -6 -6 h 30 30 v 12 12 h -12 -12 v 6 6 h 6 6 v 6 6 h 6 6 v 6 6 h -12 -12 z m 168,-42 v -12 h 6 6 v 6 6 h 6 6 v -6 -6 h 6 6 v 6 6 h 6 6 v 6 6 h -6 -6 v -6 -6 h -6 -6 v 6 6 h -12 -12 z m -132,-6 v -6 h 18 18 v -6 -6 h -6 -6 v -11.999995 -12 h 6 6 v -6 -6 h -6 -6 v -6 -6 h 12 12 v -6 -6 h -12 -12 v -6 -6 h 12 12 v -6 -6 h 18 18 v 30 30 h -6 -6 v 6 6 h 6 6 v 5.999995 6 h -6 -6 v -6 -5.999995 h -6 -6 v 5.999995 6 h -6 -6 v 6 6 h -6 -6 v 6 6 h -18 -18 z m 48,-24 v -5.999995 h 6 6 v -6 -6 h 6 6 v -12 -12 h -12 -12 v 12 12 h -6 -6 v 12 11.999995 h 6 6 z m 24,-59.999995 v -6 h -6 -6 v 6 6 h 6 6 z m -144,24 v -42 h 42 42 v 42 41.999995 h -42 -42 z m 72,0 v -30 h -30 -30 v 30 30 h 30 30 z m -48,0 v -18 h 18 18 v 18 18 h -18 -18 z m 144,0 v -42 h 42 42 v 42 41.999995 h -42 -42 z m 72,0 v -30 h -30 -30 v 30 30 h 30 30 z m -48,0 v -18 h 18 18 v 18 18 h -18 -18 z"
         id="path1035"
         inkscape:connector-curvature="0" />
      <path
         style="fill:#8c8c8c;fill-opacity:1"
         d="m 487.22308,233.70181 v -42 h 42 42 v 42 42 h -42 -42 z m 72,0 v -30 h -30 -30 v 30 30 h 30 30 z m -48,0 v -18 h 18 18 v 18 18 h -18 -18 z m 72,12 v -30 h 6 6 v -6 -6 h -6 -6 v -12 -12 h -12 -12 v -6 -6 h 6 6 v -6 -6 h -6 -6 v -6 -6 h 6 6 v 6 6 h 12 12 v -6 -6 h 12 12 v -12 -12 h 6 6 v 6 6 h 6 6 v -6 -6 h 6 6 v 6 6 h 6 6 v -6 -6 h 6 6 v 6 6 h -6 -6 v 6 6 h 6 6 v 6 6 h -6 -6 v 6 6 h 6 6 v 12 12 h 6 6 v 18 18 h 6 6 v -30 -30 h -6 -6 v -6 -6 h 12 12 v 12 12 h 12 12 v 12 12 h -6 -6 v 6 6 h -6 -6 v 6 6 h -6 -6 v 6 6 h -6 -6 v -6 -6 h -6 -6 v -6 -6 h -6 -6 v -6 -6 h 6 6 v -6 -6 h -6 -6 v -12 -12 h -12 -12 v 12 12 h 6 6 v 6 6 h -6 -6 v -6 -6 h -6 -6 v 6 6 h -6 -6 v 6 6 h 6 6 v 6 6 h 6 6 v -6 -6 h 6 6 v 6 6 h 6 6 v 6 6 h 6 6 v 6 6 h -6 -6 v 6 6 h 6 6 v 6 6 h -6 -6 v -6 -6 h -12 -12 v 6 6 h -6 -6 v -6 -6 h -6 -6 v -6 -6 h 6 6 v -6 -6 h -6 -6 v -6 -6 h -6 -6 v -6 -6 h -6 -6 v 18 18 h 6 6 v 12 12 h -12 -12 z m 72,0 v -6 h -6 -6 v 6 6 h 6 6 z m -36,-48 v -6 h 6 6 v -12 -12 h -6 -6 v -6 -6 h 6 6 v -6 -6 h -6 -6 v 6 6 h -6 -6 v 6 6 h 6 6 v 12 12 h -6 -6 v -6 -6 h -6 -6 v -6 -6 h -6 -6 v 6 6 h 6 6 v 6 6 h 6 6 v 6 6 h 6 6 z m 108,0 v -6 h -6 -6 v 6 6 h 6 6 z m -72,-48 v -6 h -6 -6 v 6 6 h 6 6 z m 48,120 v -6 h -6 -6 v -6 -6 h 6 6 v 6 6 h 6 6 v 6 6 h -6 -6 z m 24,-12 v -6 h 6 6 v 6 6 h -6 -6 z m -240,-84 v -6 h 6 6 v 6 6 h -6 -6 z m 36,0 v -6 h -6 -6 v -6 -6 h -6 -6 v -6 -6 h 12 12 v -6 -6 h -18 -18 v -6 -6 h 30 30 v 12 12 h -12 -12 v 6 6 h 6 6 v 6 6 h 6 6 v 6 6 h -12 -12 z m 168,-42 v -12 h 6 6 v 6 6 h 6 6 v -6 -6 h 6 6 v 6 6 h 6 6 v 6 6 h -6 -6 v -6 -6 h -6 -6 v 6 6 h -12 -12 z m -132,-6 v -6 h 18 18 v -6 -6 h -6 -6 v -11.999995 -12 h 6 6 v -6 -6 h -6 -6 v -6 -6 h 12 12 v -6 -6 h -12 -12 v -6 -6 h 12 12 v -6 -6 h 18 18 v 30 30 h -6 -6 v 6 6 h 6 6 v 5.999995 6 h -6 -6 v -6 -5.999995 h -6 -6 v 5.999995 6 h -6 -6 v 6 6 h -6 -6 v 6 6 h -18 -18 z m 48,-24 v -5.999995 h 6 6 v -6 -6 h 6 6 v -12 -12 h -12 -12 v 12 12 h -6 -6 v 12 11.999995 h 6 6 z m 24,-59.999995 v -6 h -6 -6 v 6 6 h 6 6 z m -144,24 v -42 h 42 42 v 42 41.999995 h -42 -42 z m 72,0 v -30 h -30 -30 v 30 30 h 30 30 z m -48,0 v -18 h 18 18 v 18 18 h -18 -18 z m 144,0 v -42 h 42 42 v 42 41.999995 h -42 -42 z m 72,0 v -30 h -30 -30 v 30 30 h 30 30 z m -48,0 v -18 h 18 18 v 18 18 h -18 -18 z"
         id="path1033"
         inkscape:connector-curvature="0" />
      <path
         style="fill:#767676;fill-opacity:1"
         d="m 487.22308,233.70181 v -42 h 42 42 v 42 42 h -42 -42 z m 72,0 v -30 h -30 -30 v 30 30 h 30 30 z m -48,0 v -18 h 18 18 v 18 18 h -18 -18 z m 72,12 v -30 h 6 6 v -6 -6 h -6 -6 v -12 -12 h -12 -12 v -6 -6 h 6 6 v -6 -6 h -6 -6 v -6 -6 h 6 6 v 6 6 h 12 12 v -6 -6 h 12 12 v -12 -12 h 6 6 v 6 6 h 6 6 v -6 -6 h 6 6 v 6 6 h 6 6 v -6 -6 h 6 6 v 6 6 h -6 -6 v 6 6 h 6 6 v 6 6 h -6 -6 v 6 6 h 6 6 v 12 12 h 6 6 v 18 18 h 6 6 v -30 -30 h -6 -6 v -6 -6 h 12 12 v 12 12 h 12 12 v 12 12 h -6 -6 v 6 6 h -6 -6 v 6 6 h -6 -6 v 6 6 h -6 -6 v -6 -6 h -6 -6 v -6 -6 h -6 -6 v -6 -6 h 6 6 v -6 -6 h -6 -6 v -12 -12 h -12 -12 v 12 12 h 6 6 v 6 6 h -6 -6 v -6 -6 h -6 -6 v 6 6 h -6 -6 v 6 6 h 6 6 v 6 6 h 6 6 v -6 -6 h 6 6 v 6 6 h 6 6 v 6 6 h 6 6 v 6 6 h -6 -6 v 6 6 h 6 6 v 6 6 h -6 -6 v -6 -6 h -12 -12 v 6 6 h -6 -6 v -6 -6 h -6 -6 v -6 -6 h 6 6 v -6 -6 h -6 -6 v -6 -6 h -6 -6 v -6 -6 h -6 -6 v 18 18 h 6 6 v 12 12 h -12 -12 z m 72,0 v -6 h -6 -6 v 6 6 h 6 6 z m -36,-48 v -6 h 6 6 v -12 -12 h -6 -6 v -6 -6 h 6 6 v -6 -6 h -6 -6 v 6 6 h -6 -6 v 6 6 h 6 6 v 12 12 h -6 -6 v -6 -6 h -6 -6 v -6 -6 h -6 -6 v 6 6 h 6 6 v 6 6 h 6 6 v 6 6 h 6 6 z m 108,0 v -6 h -6 -6 v 6 6 h 6 6 z m -72,-48 v -6 h -6 -6 v 6 6 h 6 6 z m 48,120 v -6 h -6 -6 v -6 -6 h 6 6 v 6 6 h 6 6 v 6 6 h -6 -6 z m 24,-12 v -6 h 6 6 v 6 6 h -6 -6 z m -240,-84 v -6 h 6 6 v 6 6 h -6 -6 z m 36,0 v -6 h -6 -6 v -6 -6 h -6 -6 v -6 -6 h 12 12 v -6 -6 h -18 -18 v -6 -6 h 30 30 v 12 12 h -12 -12 v 6 6 h 6 6 v 6 6 h 6 6 v 6 6 h -12 -12 z m 168,-42 v -12 h 6 6 v 6 6 h 6 6 v -6 -6 h 6 6 v 6 6 h 6 6 v 6 6 h -6 -6 v -6 -6 h -6 -6 v 6 6 h -12 -12 z m -132,-6 v -6 h 18 18 v -6 -6 h -6 -6 v -11.999995 -12 h 6 6 v -6 -6 h -6 -6 v -6 -6 h 12 12 v -6 -6 h -12 -12 v -6 -6 h 12 12 v -6 -6 h 18 18 v 30 30 h -6 -6 v 6 6 h 6 6 v 5.999995 6 h -6 -6 v -6 -5.999995 h -6 -6 v 5.999995 6 h -6 -6 v 6 6 h -6 -6 v 6 6 h -18 -18 z m 48,-24 v -5.999995 h 6 6 v -6 -6 h 6 6 v -12 -12 h -12 -12 v 12 12 h -6 -6 v 12 11.999995 h 6 6 z m 24,-59.999995 v -6 h -6 -6 v 6 6 h 6 6 z m -144,24 v -42 h 42 42 v 42 41.999995 h -42 -42 z m 72,0 v -30 h -30 -30 v 30 30 h 30 30 z m -48,0 v -18 h 18 18 v 18 18 h -18 -18 z m 144,0 v -42 h 42 42 v 42 41.999995 h -42 -42 z m 72,0 v -30 h -30 -30 v 30 30 h 30 30 z m -48,0 v -18 h 18 18 v 18 18 h -18 -18 z"
         id="path1031"
         inkscape:connector-curvature="0" />
      <path
         style="fill:#606060;fill-opacity:1"
         d="m 487.22308,233.70181 v -42 h 42 42 v 42 42 h -42 -42 z m 72,0 v -30 h -30 -30 v 30 30 h 30 30 z m -48,0 v -18 h 18 18 v 18 18 h -18 -18 z m 72,12 v -30 h 6 6 v -6 -6 h -6 -6 v -12 -12 h -12 -12 v -6 -6 h 6 6 v -6 -6 h -6 -6 v -6 -6 h 6 6 v 6 6 h 12 12 v -6 -6 h 12 12 v -12 -12 h 6 6 v 6 6 h 6 6 v -6 -6 h 6 6 v 6 6 h 6 6 v -6 -6 h 6 6 v 6 6 h -6 -6 v 6 6 h 6 6 v 6 6 h -6 -6 v 6 6 h 6 6 v 12 12 h 6 6 v 18 18 h 6 6 v -30 -30 h -6 -6 v -6 -6 h 12 12 v 12 12 h 12 12 v 12 12 h -6 -6 v 6 6 h -6 -6 v 6 6 h -6 -6 v 6 6 h -6 -6 v -6 -6 h -6 -6 v -6 -6 h -6 -6 v -6 -6 h 6 6 v -6 -6 h -6 -6 v -12 -12 h -12 -12 v 12 12 h 6 6 v 6 6 h -6 -6 v -6 -6 h -6 -6 v 6 6 h -6 -6 v 6 6 h 6 6 v 6 6 h 6 6 v -6 -6 h 6 6 v 6 6 h 6 6 v 6 6 h 6 6 v 6 6 h -6 -6 v 6 6 h 6 6 v 6 6 h -6 -6 v -6 -6 h -12 -12 v 6 6 h -6 -6 v -6 -6 h -6 -6 v -6 -6 h 6 6 v -6 -6 h -6 -6 v -6 -6 h -6 -6 v -6 -6 h -6 -6 v 18 18 h 6 6 v 12 12 h -12 -12 z m 72,0 v -6 h -6 -6 v 6 6 h 6 6 z m -36,-48 v -6 h 6 6 v -12 -12 h -6 -6 v -6 -6 h 6 6 v -6 -6 h -6 -6 v 6 6 h -6 -6 v 6 6 h 6 6 v 12 12 h -6 -6 v -6 -6 h -6 -6 v -6 -6 h -6 -6 v 6 6 h 6 6 v 6 6 h 6 6 v 6 6 h 6 6 z m 108,0 v -6 h -6 -6 v 6 6 h 6 6 z m -72,-48 v -6 h -6 -6 v 6 6 h 6 6 z m 48,120 v -6 h -6 -6 v -6 -6 h 6 6 v 6 6 h 6 6 v 6 6 h -6 -6 z m 24,-12 v -6 h 6 6 v 6 6 h -6 -6 z m -240,-84 v -6 h 6 6 v 6 6 h -6 -6 z m 36,0 v -6 h -6 -6 v -6 -6 h -6 -6 v -6 -6 h 12 12 v -6 -6 h -18 -18 v -6 -6 h 30 30 v 12 12 h -12 -12 v 6 6 h 6 6 v 6 6 h 6 6 v 6 6 h -12 -12 z m 168,-42 v -12 h 6 6 v 6 6 h 6 6 v -6 -6 h 6 6 v 6 6 h 6 6 v 6 6 h -6 -6 v -6 -6 h -6 -6 v 6 6 h -12 -12 z m -132,-6 v -6 h 18 18 v -6 -6 h -6 -6 v -11.999995 -12 h 6 6 v -6 -6 h -6 -6 v -6 -6 h 12 12 v -6 -6 h -12 -12 v -6 -6 h 12 12 v -6 -6 h 18 18 v 30 30 h -6 -6 v 6 6 h 6 6 v 5.999995 6 h -6 -6 v -6 -5.999995 h -6 -6 v 5.999995 6 h -6 -6 v 6 6 h -6 -6 v 6 6 h -18 -18 z m 48,-24 v -5.999995 h 6 6 v -6 -6 h 6 6 v -12 -12 h -12 -12 v 12 12 h -6 -6 v 12 11.999995 h 6 6 z m 24,-59.999995 v -6 h -6 -6 v 6 6 h 6 6 z m -144,24 v -42 h 42 42 v 42 41.999995 h -42 -42 z m 72,0 v -30 h -30 -30 v 30 30 h 30 30 z m -48,0 v -18 h 18 18 v 18 18 h -18 -18 z m 144,0 v -42 h 42 42 v 42 41.999995 h -42 -42 z m 72,0 v -30 h -30 -30 v 30 30 h 30 30 z m -48,0 v -18 h 18 18 v 18 18 h -18 -18 z"
         id="path1029"
         inkscape:connector-curvature="0" />
      <path
         style="fill:#494949;fill-opacity:1"
         d="m 487.22308,233.70181 v -42 h 42 42 v 42 42 h -42 -42 z m 72,0 v -30 h -30 -30 v 30 30 h 30 30 z m -48,0 v -18 h 18 18 v 18 18 h -18 -18 z m 72,12 v -30 h 6 6 v -6 -6 h -6 -6 v -12 -12 h -12 -12 v -6 -6 h 6 6 v -6 -6 h -6 -6 v -6 -6 h 6 6 v 6 6 h 12 12 v -6 -6 h 12 12 v -12 -12 h 6 6 v 6 6 h 6 6 v -6 -6 h 6 6 v 6 6 h 6 6 v -6 -6 h 6 6 v 6 6 h -6 -6 v 6 6 h 6 6 v 6 6 h -6 -6 v 6 6 h 6 6 v 12 12 h 6 6 v 18 18 h 6 6 v -30 -30 h -6 -6 v -6 -6 h 12 12 v 12 12 h 12 12 v 12 12 h -6 -6 v 6 6 h -6 -6 v 6 6 h -6 -6 v 6 6 h -6 -6 v -6 -6 h -6 -6 v -6 -6 h -6 -6 v -6 -6 h 6 6 v -6 -6 h -6 -6 v -12 -12 h -12 -12 v 12 12 h 6 6 v 6 6 h -6 -6 v -6 -6 h -6 -6 v 6 6 h -6 -6 v 6 6 h 6 6 v 6 6 h 6 6 v -6 -6 h 6 6 v 6 6 h 6 6 v 6 6 h 6 6 v 6 6 h -6 -6 v 6 6 h 6 6 v 6 6 h -6 -6 v -6 -6 h -12 -12 v 6 6 h -6 -6 v -6 -6 h -6 -6 v -6 -6 h 6 6 v -6 -6 h -6 -6 v -6 -6 h -6 -6 v -6 -6 h -6 -6 v 18 18 h 6 6 v 12 12 h -12 -12 z m 72,0 v -6 h -6 -6 v 6 6 h 6 6 z m -36,-48 v -6 h 6 6 v -12 -12 h -6 -6 v -6 -6 h 6 6 v -6 -6 h -6 -6 v 6 6 h -6 -6 v 6 6 h 6 6 v 12 12 h -6 -6 v -6 -6 h -6 -6 v -6 -6 h -6 -6 v 6 6 h 6 6 v 6 6 h 6 6 v 6 6 h 6 6 z m 108,0 v -6 h -6 -6 v 6 6 h 6 6 z m -72,-48 v -6 h -6 -6 v 6 6 h 6 6 z m 48,120 v -6 h -6 -6 v -6 -6 h 6 6 v 6 6 h 6 6 v 6 6 h -6 -6 z m 24,-12 v -6 h 6 6 v 6 6 h -6 -6 z m -240,-84 v -6 h 6 6 v 6 6 h -6 -6 z m 36,0 v -6 h -6 -6 v -6 -6 h -6 -6 v -6 -6 h 12 12 v -6 -6 h -18 -18 v -6 -6 h 30 30 v 12 12 h -12 -12 v 6 6 h 6 6 v 6 6 h 6 6 v 6 6 h -12 -12 z m 168,-42 v -12 h 6 6 v 6 6 h 6 6 v -6 -6 h 6 6 v 6 6 h 6 6 v 6 6 h -6 -6 v -6 -6 h -6 -6 v 6 6 h -12 -12 z m -132,-6 v -6 h 18 18 v -6 -6 h -6 -6 v -11.999995 -12 h 6 6 v -6 -6 h -6 -6 v -6 -6 h 12 12 v -6 -6 h -12 -12 v -6 -6 h 12 12 v -6 -6 h 18 18 v 30 30 h -6 -6 v 6 6 h 6 6 v 5.999995 6 h -6 -6 v -6 -5.999995 h -6 -6 v 5.999995 6 h -6 -6 v 6 6 h -6 -6 v 6 6 h -18 -18 z m 48,-24 v -5.999995 h 6 6 v -6 -6 h 6 6 v -12 -12 h -12 -12 v 12 12 h -6 -6 v 12 11.999995 h 6 6 z m 24,-59.999995 v -6 h -6 -6 v 6 6 h 6 6 z m -144,24 v -42 h 42 42 v 42 41.999995 h -42 -42 z m 72,0 v -30 h -30 -30 v 30 30 h 30 30 z m -48,0 v -18 h 18 18 v 18 18 h -18 -18 z m 144,0 v -42 h 42 42 v 42 41.999995 h -42 -42 z m 72,0 v -30 h -30 -30 v 30 30 h 30 30 z m -48,0 v -18 h 18 18 v 18 18 h -18 -18 z"
         id="path1027"
         inkscape:connector-curvature="0" />
      <path
         style="fill:#333333;fill-opacity:1"
         d="m 487.22308,233.70181 v -42 h 42 42 v 42 42 h -42 -42 z m 72,0 v -30 h -30 -30 v 30 30 h 30 30 z m -48,0 v -18 h 18 18 v 18 18 h -18 -18 z m 72,12 v -30 h 6 6 v -6 -6 h -6 -6 v -12 -12 h -12 -12 v -6 -6 h 6 6 v -6 -6 h -6 -6 v -6 -6 h 6 6 v 6 6 h 12 12 v -6 -6 h 12 12 v -12 -12 h 6 6 v 6 6 h 6 6 v -6 -6 h 6 6 v 6 6 h 6 6 v -6 -6 h 6 6 v 6 6 h -6 -6 v 6 6 h 6 6 v 6 6 h -6 -6 v 6 6 h 6 6 v 12 12 h 6 6 v 18 18 h 6 6 v -30 -30 h -6 -6 v -6 -6 h 12 12 v 12 12 h 12 12 v 12 12 h -6 -6 v 6 6 h -6 -6 v 6 6 h -6 -6 v 6 6 h -6 -6 v -6 -6 h -6 -6 v -6 -6 h -6 -6 v -6 -6 h 6 6 v -6 -6 h -6 -6 v -12 -12 h -12 -12 v 12 12 h 6 6 v 6 6 h -6 -6 v -6 -6 h -6 -6 v 6 6 h -6 -6 v 6 6 h 6 6 v 6 6 h 6 6 v -6 -6 h 6 6 v 6 6 h 6 6 v 6 6 h 6 6 v 6 6 h -6 -6 v 6 6 h 6 6 v 6 6 h -6 -6 v -6 -6 h -12 -12 v 6 6 h -6 -6 v -6 -6 h -6 -6 v -6 -6 h 6 6 v -6 -6 h -6 -6 v -6 -6 h -6 -6 v -6 -6 h -6 -6 v 18 18 h 6 6 v 12 12 h -12 -12 z m 72,0 v -6 h -6 -6 v 6 6 h 6 6 z m -36,-48 v -6 h 6 6 v -12 -12 h -6 -6 v -6 -6 h 6 6 v -6 -6 h -6 -6 v 6 6 h -6 -6 v 6 6 h 6 6 v 12 12 h -6 -6 v -6 -6 h -6 -6 v -6 -6 h -6 -6 v 6 6 h 6 6 v 6 6 h 6 6 v 6 6 h 6 6 z m 108,0 v -6 h -6 -6 v 6 6 h 6 6 z m -72,-48 v -6 h -6 -6 v 6 6 h 6 6 z m 48,120 v -6 h -6 -6 v -6 -6 h 6 6 v 6 6 h 6 6 v 6 6 h -6 -6 z m 24,-12 v -6 h 6 6 v 6 6 h -6 -6 z m -240,-84 v -6 h 6 6 v 6 6 h -6 -6 z m 36,0 v -6 h -6 -6 v -6 -6 h -6 -6 v -6 -6 h 12 12 v -6 -6 h -18 -18 v -6 -6 h 30 30 v 12 12 h -12 -12 v 6 6 h 6 6 v 6 6 h 6 6 v 6 6 h -12 -12 z m 168,-42 v -12 h 6 6 v 6 6 h 6 6 v -6 -6 h 6 6 v 6 6 h 6 6 v 6 6 h -6 -6 v -6 -6 h -6 -6 v 6 6 h -12 -12 z m -132,-6 v -6 h 18 18 v -6 -6 h -6 -6 v -11.999995 -12 h 6 6 v -6 -6 h -6 -6 v -6 -6 h 12 12 v -6 -6 h -12 -12 v -6 -6 h 12 12 v -6 -6 h 18 18 v 30 30 h -6 -6 v 6 6 h 6 6 v 5.999995 6 h -6 -6 v -6 -5.999995 h -6 -6 v 5.999995 6 h -6 -6 v 6 6 h -6 -6 v 6 6 h -18 -18 z m 48,-24 v -5.999995 h 6 6 v -6 -6 h 6 6 v -12 -12 h -12 -12 v 12 12 h -6 -6 v 12 11.999995 h 6 6 z m 24,-59.999995 v -6 h -6 -6 v 6 6 h 6 6 z m -144,24 v -42 h 42 42 v 42 41.999995 h -42 -42 z m 72,0 v -30 h -30 -30 v 30 30 h 30 30 z m -48,0 v -18 h 18 18 v 18 18 h -18 -18 z m 144,0 v -42 h 42 42 v 42 41.999995 h -42 -42 z m 72,0 v -30 h -30 -30 v 30 30 h 30 30 z m -48,0 v -18 h 18 18 v 18 18 h -18 -18 z"
         id="path1025"
         inkscape:connector-curvature="0" />
    </g>
  </g>
</svg>
