<?xml version="1.0" encoding="utf-8"?>
<!-- Generator: Adobe Illustrator 27.8.1, SVG Export Plug-In . SVG Version: 6.00 Build 0)  -->
<svg version="1.1" id="Layer_1" xmlns="http://www.w3.org/2000/svg" xmlns:xlink="http://www.w3.org/1999/xlink" x="0px" y="0px"
	 viewBox="0 0 400 225" style="enable-background:new 0 0 400 225;" xml:space="preserve">
<style type="text/css">
	.st0{fill:#3396DA;}
	.st1{opacity:0.5;}
	.st2{fill:url(#SVGID_1_);}
	.st3{fill:none;}
	.st4{opacity:0.1;}
	.st5{fill:#FFFFFF;}
</style>
<g id="Layer_2_00000140016676054388568610000013294672582009904018_">
	<g id="Layer_42">
	</g>
	<g id="audio">
		<path class="st0" d="M204,25.9c-48.4,0.1-87.6,39.3-87.5,87.7c0.1,45.7,35.3,83.7,80.9,87.3c2.2,0.2,4.4,0.2,6.6,0.2
			c48.4,0.5,88-38.3,88.6-86.7s-38.3-88-86.7-88.6C205.2,25.9,204.6,25.9,204,25.9z"/>
		<g class="st1">
			
				<linearGradient id="SVGID_1_" gradientUnits="userSpaceOnUse" x1="151.5" y1="51.6292" x2="219.07" y2="119.1992" gradientTransform="matrix(1 0 0 -1 0 226.2991)">
				<stop  offset="0" style="stop-color:#3081B9"/>
				<stop  offset="1" style="stop-color:#3396DA"/>
			</linearGradient>
			<path class="st2" d="M247.1,114.5c-4.1-0.5-8.1-1-12.1-1.7c-16.2-2.9-31.7-9.4-46.5-16.6c-1.7-0.8-3.3-1.6-5-2.5l-7.5,8
				l-16.2-0.6L123,147c0.4,1,0.9,2.1,1.3,3.1c12.4,26.9,37.6,45.8,66.9,50.1l56-71.5L247.1,114.5z"/>
		</g>
		<rect y="0" class="st3" width="400" height="225"/>
		<g class="st4">
			<path d="M193.4,89.7v54.6c0,1.8-1.4,3.2-3.2,3.2c-0.9,0-1.7-0.3-2.3-1l-16.7-16.7H158c-1.8,0-3.2-1.5-3.2-3.2v-19.3
				c0-1.8,1.5-3.2,3.2-3.2h13.2l16.7-16.7c1.3-1.2,3.3-1.2,4.6,0C193,88.1,193.4,88.9,193.4,89.7L193.4,89.7z M212.8,109.8
				c1.4,2.1,2.2,4.6,2.2,7.2c0,2.6-0.8,5.1-2.2,7.2c-1.4,2.2-3.4,3.8-5.8,4.8c-0.4,0.2-0.8,0.3-1.3,0.2c-0.9,0-1.7-0.3-2.3-0.9
				c-0.6-0.6-1-1.4-1-2.3c0-0.7,0.2-1.3,0.6-1.8c0.4-0.5,0.9-0.9,1.5-1.3c0.6-0.4,1.1-0.7,1.7-1.2c0.6-0.5,1.1-1.1,1.5-1.8
				c0.8-1.8,0.8-3.9,0-5.8c-0.3-0.7-0.9-1.3-1.5-1.8c-0.6-0.4-1.1-0.8-1.7-1.2c-0.6-0.3-1.1-0.8-1.5-1.3c-0.4-0.5-0.6-1.1-0.6-1.8
				c0-0.9,0.4-1.7,1-2.3c0.6-0.6,1.4-0.9,2.3-0.9c0.4,0,0.9,0.1,1.3,0.3C209.4,106,211.4,107.7,212.8,109.8L212.8,109.8z M226,102.7
				c5.7,8.7,5.7,20,0,28.7c-2.7,4.3-6.7,7.6-11.4,9.6c-0.4,0.2-0.8,0.3-1.3,0.3c-0.9,0-1.7-0.4-2.3-1c-0.6-0.6-1-1.4-1-2.3
				c0-1.3,0.8-2.5,2-3c1.3-0.7,2.6-1.4,3.9-2.2c8.7-6.3,10.6-18.5,4.3-27.1c-1.2-1.6-2.6-3.1-4.3-4.3c-1.2-0.8-2.5-1.6-3.9-2.2
				c-1.2-0.5-2-1.7-2-3c0-1.8,1.5-3.2,3.2-3.2c0.5,0,0.9,0.1,1.3,0.2C219.3,95.1,223.3,98.4,226,102.7z M239.3,95.6
				c11.9,18,6.9,42.2-11.1,54c-1.9,1.3-3.9,2.4-6.1,3.3c-0.4,0.2-0.9,0.3-1.3,0.3c-1.8,0-3.2-1.5-3.2-3.2c0-1.3,0.8-2.5,2-3
				c0.4-0.2,0.7-0.4,1.1-0.5c0.4-0.2,0.8-0.3,1.1-0.5c1.4-0.8,2.8-1.6,4.2-2.6c4.1-3,7.5-7,9.8-11.5c4.7-9.2,4.7-20.1,0-29.3
				c-2.3-4.6-5.6-8.5-9.8-11.5c-1.3-0.9-2.7-1.8-4.2-2.6c-0.4-0.2-0.8-0.4-1.1-0.5c-0.4-0.2-0.8-0.3-1.1-0.5c-1.2-0.5-2-1.7-2-3
				c0.1-1.8,1.5-3.2,3.3-3.2c0.5,0,0.9,0.1,1.3,0.3C229.2,84.2,235.2,89.2,239.3,95.6L239.3,95.6z"/>
		</g>
		<path class="st5" d="M197.4,85.7v54.6c0,1.8-1.4,3.2-3.2,3.2c-0.9,0-1.7-0.3-2.3-1l-16.7-16.7H162c-1.8,0-3.2-1.5-3.2-3.2v-19.3
			c0-1.8,1.5-3.2,3.2-3.2h13.2l16.7-16.7c1.3-1.2,3.3-1.2,4.6,0C197,84.1,197.4,84.9,197.4,85.7L197.4,85.7z M216.8,105.8
			c1.4,2.1,2.2,4.6,2.2,7.2c0,2.6-0.8,5.1-2.2,7.2c-1.4,2.2-3.4,3.8-5.8,4.8c-0.4,0.2-0.8,0.3-1.3,0.2c-0.9,0-1.7-0.3-2.3-0.9
			c-0.6-0.6-1-1.4-1-2.3c0-0.7,0.2-1.3,0.6-1.8c0.4-0.5,0.9-0.9,1.5-1.3c0.6-0.4,1.1-0.7,1.7-1.2c0.6-0.5,1.1-1.1,1.5-1.8
			c0.8-1.8,0.8-3.9,0-5.8c-0.3-0.7-0.9-1.3-1.5-1.8c-0.6-0.4-1.1-0.8-1.7-1.2c-0.6-0.3-1.1-0.8-1.5-1.3c-0.4-0.5-0.6-1.1-0.6-1.8
			c0-0.9,0.4-1.7,1-2.3c0.6-0.6,1.4-0.9,2.3-0.9c0.4,0,0.9,0.1,1.3,0.3C213.4,102,215.4,103.7,216.8,105.8L216.8,105.8z M230,98.7
			c5.7,8.7,5.7,20,0,28.7c-2.7,4.3-6.7,7.6-11.4,9.6c-0.4,0.2-0.8,0.3-1.3,0.3c-0.9,0-1.7-0.4-2.3-1c-0.6-0.6-1-1.4-1-2.3
			c0-1.3,0.8-2.5,2-3c1.3-0.7,2.6-1.4,3.9-2.2c8.7-6.3,10.6-18.5,4.3-27.1c-1.2-1.6-2.6-3.1-4.3-4.3c-1.2-0.8-2.5-1.6-3.9-2.2
			c-1.2-0.5-2-1.7-2-3c0-1.8,1.5-3.2,3.2-3.2c0.5,0,0.9,0.1,1.3,0.2C223.3,91.1,227.3,94.4,230,98.7z M243.3,91.6
			c11.9,18,6.9,42.2-11.1,54c-1.9,1.3-3.9,2.4-6.1,3.3c-0.4,0.2-0.9,0.3-1.3,0.3c-1.8,0-3.2-1.5-3.2-3.2c0-1.3,0.8-2.5,2-3
			c0.4-0.2,0.7-0.4,1.1-0.5c0.4-0.2,0.8-0.3,1.1-0.5c1.4-0.8,2.8-1.6,4.2-2.6c4.1-3,7.5-7,9.8-11.5c4.7-9.2,4.7-20.1,0-29.3
			c-2.3-4.6-5.6-8.5-9.8-11.5c-1.3-0.9-2.7-1.8-4.2-2.6c-0.4-0.2-0.8-0.4-1.1-0.5c-0.4-0.2-0.8-0.3-1.1-0.5c-1.2-0.5-2-1.7-2-3
			c0.1-1.8,1.5-3.2,3.3-3.2c0.5,0,0.9,0.1,1.3,0.3C233.2,80.2,239.2,85.2,243.3,91.6L243.3,91.6z"/>
	</g>
</g>
</svg>
