<?xml version="1.0" encoding="utf-8"?>
<!-- Generator: Adobe Illustrator 20.1.0, SVG Export Plug-In . SVG Version: 6.00 Build 0)  -->
<svg version="1.1" id="Layer_1" xmlns="http://www.w3.org/2000/svg" xmlns:xlink="http://www.w3.org/1999/xlink" x="0px" y="0px"
	 viewBox="0 0 575.5 575.5" style="enable-background:new 0 0 575.5 575.5;" xml:space="preserve">
<style type="text/css">
	.st0{fill:#FFFFFF;}
</style>
<g>
	<g>
		<path d="M287.7,575.5l-93.3-93.3h66.5v-14.7c-38.7-6-74.6-24.4-102.1-52.7c-27.2-27.9-44.2-62.5-49.6-100.6H93.4v66.8L0,287.7
			l93.3-93.3v66.5h16.1c5.9-38.9,24.4-75,52.8-102.6c27.5-26.8,61.6-43.8,99.1-49.4V93.4h-66.8L287.8,0l93.3,93.3h-66.5v15.4
			c39.4,5.6,76.1,24.2,104.1,53c26.9,27.7,43.9,61.9,49.5,99.6h13.9v-66.8l93.4,93.4l-93.3,93.3v-66.5h-14
			c-5.7,38.6-23.8,74.6-51.7,102.3c-27.8,27.7-63.8,45.6-102.3,51v14.3h66.8L287.7,575.5z M291.3,447l10.6-0.9
			c77.2-6.3,138-66.9,144.7-144.1l0.9-10.5l0-7.3l-0.9-10.5c-3.3-36.5-18.6-69.7-44.3-96c-26.7-27.4-62.2-44.2-100.1-47.3l-10.5-0.9
			l-7.3,0l-10.4,1c-36.3,3.4-69.3,18.7-95.6,44.2c-27,26.3-43.8,61.4-47.2,98.7l-1,10.4l0,7.3l0.9,10.5c3.1,36.8,18.4,70.3,44.4,97
			c26.2,26.9,61.1,43.6,98.3,47.1l10.4,1L291.3,447z"/>
	</g>
</g>
<g>
	<path class="st0" d="M559.3,287.8c-21.7-21.7-43.7-43.7-65.6-65.6c0,16.7,0,33.6,0,50.5c-26.3,0-25.4,0-35.7,0
		c-3.5-38.7-20-74.8-47.5-103c-28.8-29.6-66.6-47.4-107.4-50.8c0-11.9,0-9.7,0-37.2c17,0,33.8,0,50.3,0
		c-21.9-21.9-43.8-43.8-65.5-65.5c-21.7,21.7-43.7,43.7-65.6,65.6c16.7,0,33.6,0,50.5,0c0,27.6,0,25.2,0,37.2
		c-38.6,3.6-74.4,20.1-102.5,47.5c-29.2,28.5-46.9,65.7-50.6,105.9c-12.6,0-9.8,0-37.8,0c0-17,0-33.8,0-50.3
		c-21.9,21.9-43.8,43.8-65.5,65.5c21.7,21.7,43.7,43.7,65.6,65.6c0-16.7,0-33.6,0-50.5c27.8,0,25.2,0,37.6,0
		c3.3,39.1,19.9,75.6,47.6,104c28.4,29.1,65.4,46.8,105.4,50.6c0,11,0,9.5,0,36.3c-17,0-33.8,0-50.3,0
		c21.9,21.9,43.8,43.8,65.5,65.5c21.7-21.7,43.7-43.7,65.6-65.6c-16.7,0-33.6,0-50.5,0c0-26.6,0-25.4,0-36
		c82.1-6.7,148.1-72.2,155.2-154.5c10.3,0,9.4,0,35.7,0c0,17,0,33.8,0,50.3C515.6,331.5,537.6,309.5,559.3,287.8z M434.7,290.2
		c-0.5,39-16.2,75.4-44.1,102.6c-27.9,27.2-64.8,41.9-103.7,41.4c-39-0.5-75.4-16.2-102.6-44.1c-27.2-27.9-41.9-64.8-41.4-103.7
		s16.2-75.4,44.1-102.6c27.5-26.7,63.5-41.4,101.8-41.4c0.7,0,1.3,0,2,0c39,0.5,75.4,16.2,102.6,44.1
		C420.5,214.4,435.2,251.2,434.7,290.2z"/>
</g>
</svg>
