<svg xmlns="http://www.w3.org/2000/svg" viewBox="0 0 400 225">
  <defs>
    <style>
      .cls-1 {
        fill: #fff;
      }

      .cls-2 {
        fill: #34495e;
      }

      .cls-3 {
        opacity: 0.25;
      }

      .cls-4 {
        fill: #2ecc71;
      }

      .cls-5 {
        fill: #f1c40f;
      }

      .cls-6 {
        fill: #e74c3c;
      }

      .cls-7 {
        fill: none;
      }
    </style>
  </defs>
  <title>find the hotspot</title>
  <g id="Layer_2" data-name="Layer 2">
    <g id="find_the_hotspot" data-name="find the hotspot">
      <g>
        <rect class="cls-1" x="118" y="51.5" width="170" height="124"/>
        <polygon class="cls-2" points="280.64 109.88 291 120.31 291 177.5 116 177.5 116 151.98 156.05 112.39 176.06 132.19 191.8 116.57 239.68 68.74 280.64 109.88"/>
        <g>
          <g class="cls-3">
            <path d="M275.67,105.49a35.38,35.38,0,1,0-35.38,35.38A35.38,35.38,0,0,0,275.67,105.49Z"/>
          </g>
          <path class="cls-4" d="M271.63,101.45a35.38,35.38,0,1,0-35.38,35.38A35.38,35.38,0,0,0,271.63,101.45Z"/>
        </g>
        <circle class="cls-5" cx="146.25" cy="77.67" r="18.13"/>
        <path class="cls-1" d="M254,95.51l-17.14,17.14-3.22,3.22a2.29,2.29,0,0,1-3.22,0l-3.22-3.22-8.57-8.57a2.29,2.29,0,0,1,0-3.22l3.22-3.22a2.29,2.29,0,0,1,3.22,0l7,7,15.53-15.56a2.29,2.29,0,0,1,3.22,0L254,92.29a2.29,2.29,0,0,1,0,3.22Z"/>
        <path class="cls-6" d="M288,51.5v124H118V51.5H288m14-12H105v149H302V39.5Z"/>
      </g>
      <rect class="cls-7" width="400" height="225"/>
    </g>
  </g>
</svg>
