<?xml version="1.0" encoding="UTF-8" standalone="no"?>
<svg
   xmlns:dc="http://purl.org/dc/elements/1.1/"
   xmlns:cc="http://creativecommons.org/ns#"
   xmlns:rdf="http://www.w3.org/1999/02/22-rdf-syntax-ns#"
   xmlns:svg="http://www.w3.org/2000/svg"
   xmlns="http://www.w3.org/2000/svg"
   xmlns:sodipodi="http://sodipodi.sourceforge.net/DTD/sodipodi-0.dtd"
   xmlns:inkscape="http://www.inkscape.org/namespaces/inkscape"
   version="1.1"
   id="Layer_1"
   x="0px"
   y="0px"
   viewBox="0 0 356 227.3"
   style="enable-background:new 0 0 356 227.3;"
   xml:space="preserve"
   sodipodi:docname="plus-one.svg"
   inkscape:version="1.0 (262b4497e3, 2020-09-04)"><metadata
   id="metadata987"><rdf:RDF><cc:Work
       rdf:about=""><dc:format>image/svg+xml</dc:format><dc:type
         rdf:resource="http://purl.org/dc/dcmitype/StillImage" /></cc:Work></rdf:RDF></metadata><defs
   id="defs985" /><sodipodi:namedview
   pagecolor="#ffffff"
   bordercolor="#666666"
   borderopacity="1"
   objecttolerance="10"
   gridtolerance="10"
   guidetolerance="10"
   inkscape:pageopacity="0"
   inkscape:pageshadow="2"
   inkscape:window-width="1860"
   inkscape:window-height="1017"
   id="namedview983"
   showgrid="false"
   inkscape:zoom="0.5863621"
   inkscape:cx="71.838968"
   inkscape:cy="424.616"
   inkscape:window-x="60"
   inkscape:window-y="26"
   inkscape:window-maximized="1"
   inkscape:current-layer="Layer_1" />
<style
   type="text/css"
   id="style970">
	.st0{fill:#FFFFFF;}
	.st1{fill:#216340;}
</style>
<g
   id="g980">
	<path
   class="st0"
   d="M356,48.3C356,21.6,335.4,0,310,0H46C20.6,0,0,21.6,0,48.3V179c0,26.7,20.6,48.3,46,48.3h264   c25.4,0,46-21.6,46-48.3V48.3z"
   id="path972" />
	
	<path
   class="st1"
   d="M158.8,102.8h-26.3V76.7c0-3.3-2.2-5.9-5.5-5.9h-11.9c-3.3,0-5.6,2.6-5.6,5.9v26.1H83.3   c-3.3,0-5.8,2.4-5.8,5.7v11.9c0,3.3,2.5,6.4,5.8,6.4h26.2v25.4c0,3.3,2.3,5.6,5.6,5.6H127c3.3,0,5.5-2.3,5.5-5.6v-25.4h26.3   c3.3,0,5.7-3.1,5.7-6.4v-11.9C164.5,105.2,162.1,102.8,158.8,102.8z"
   id="path976" />
	<path
   class="st1"
   d="M333.5,65.3c0-23.5-19-42.5-42.5-42.5H65c-23.5,0-42.5,19-42.5,42.5v97c0,23.5,19,42.5,42.5,42.5h226   c23.5,0,42.5-19,42.5-42.5V65.3z M318.5,162.3c0,15.2-12.3,27.5-27.5,27.5H65c-15.2,0-27.5-12.3-27.5-27.5v-97   c0-15.2,12.3-27.5,27.5-27.5h226c15.2,0,27.5,12.3,27.5,27.5V162.3z"
   id="path978" />
</g>
<g
   id="g4482"
   transform="translate(84.89797,-180.9861)"
   style="font-variation-settings:normal;opacity:1;vector-effect:none;fill:#216340;fill-opacity:1;stroke-width:1;stroke-linecap:butt;stroke-linejoin:miter;stroke-miterlimit:4;stroke-dasharray:none;stroke-dashoffset:0;stroke-opacity:1;stop-color:#000000;stop-opacity:1"><g
     style="font-variation-settings:normal;vector-effect:none;fill:#216340;fill-opacity:1;stroke-width:6.16008;stroke-linecap:butt;stroke-linejoin:miter;stroke-miterlimit:4;stroke-dasharray:none;stroke-dashoffset:0;stroke-opacity:1;stop-color:#000000;stop-opacity:1"
     id="g3565"
     transform="matrix(0.16233562,0,0,0.16233562,125.5914,224.14874)"><path
       inkscape:connector-curvature="0"
       id="path3569"
       d="m 228.48212,708.61333 v -33.12392 l 22.50597,-14.68858 c 12.37828,-8.07873 42.8044,-27.90734 67.6136,-44.06359 62.65017,-40.79905 68.53794,-46.70866 69.64081,-69.89895 0.65532,-13.77968 -1.09468,-20.18535 -7.17589,-26.26656 -6.86478,-6.86478 -15.28831,-9.45949 -30.70949,-9.45949 -26.59442,0 -37.83655,9.86387 -40.24664,35.3125 l -0.73987,7.8125 h -39.81925 -39.81924 l 0.0436,-12.1875 c 0.10484,-29.29798 8.34818,-50.95891 26.6797,-70.10589 13.06184,-13.64288 30.04068,-24.12032 49.87937,-30.77995 28.30932,-9.50312 70.74134,-9.49594 100.89732,0.0171 46.91671,14.80037 70.2683,46.83176 70.11824,96.18126 -0.0624,20.50658 -2.68309,33.43581 -9.50698,46.90211 -10.71327,21.14163 -25.26049,32.96584 -79.16652,64.34789 l -27.91319,16.25 60.10922,0.3245 60.10923,0.32451 v 38.11299 38.113 h -126.25 -126.25 v -33.12391 z"
       style="font-variation-settings:normal;vector-effect:none;fill:#216340;fill-opacity:1;stroke-width:6.16008;stroke-linecap:butt;stroke-linejoin:miter;stroke-miterlimit:4;stroke-dasharray:none;stroke-dashoffset:0;stroke-opacity:1;stop-color:#000000;stop-opacity:1" /><path
       inkscape:connector-curvature="0"
       id="path3567"
       d="M 228.48212,708.77123 V 675.8052 l 53.4375,-34.75468 c 90.42936,-58.81347 96.09705,-63.00997 102.54971,-75.93016 5.80189,-11.61715 6.47249,-28.69056 1.50708,-38.37006 -3.00939,-5.86647 -6.89008,-9.31003 -14.38487,-12.7645 -5.46532,-2.51907 -8.16198,-2.87003 -21.85942,-2.84492 -13.82072,0.0253 -16.31153,0.36642 -21.5703,2.95382 -10.75239,5.29035 -16.82609,15.4397 -18.06205,30.18224 l -0.73024,8.7103 H 270.25241 231.1353 l -0.82517,-5.50264 c -1.43295,-9.55556 1.65045,-31.40509 6.10573,-43.26639 13.95632,-37.1559 49.96461,-62.42804 98.12102,-68.8655 13.41584,-1.79341 42.01839,-0.78367 56.21242,1.98442 37.58417,7.32959 64.36166,25.90926 77.09044,53.48953 7.36975,15.96848 8.68869,22.92867 8.69998,45.91058 0.0113,23.49232 -1.60035,31.9019 -9.07804,47.36232 -9.82209,20.30758 -27.80456,34.75969 -82.72956,66.48794 l -26.875,15.52474 61.5625,0.32427 61.5625,0.32429 v 37.48821 37.48823 h -126.25 -126.25 z"
       style="font-variation-settings:normal;vector-effect:none;fill:#216340;fill-opacity:1;stroke-width:6.16008;stroke-linecap:butt;stroke-linejoin:miter;stroke-miterlimit:4;stroke-dasharray:none;stroke-dashoffset:0;stroke-opacity:1;stop-color:#000000;stop-opacity:1" /></g><path
     class="st1"
     d="m 105.14103,260.4361 7.85,9.65 6.4,-5.3 c 1.4,-1.25 2.65,-2.45 3.6,-3.6 -0.15,3 -0.15,6.3 -0.15,9.9 v 23.65 h 15 v -49.95 h -13.4 z"
     id="path3476-5"
     inkscape:connector-curvature="0"
     style="font-variation-settings:normal;vector-effect:none;fill:#216340;fill-opacity:1;stroke-width:1;stroke-linecap:butt;stroke-linejoin:miter;stroke-miterlimit:4;stroke-dasharray:none;stroke-dashoffset:0;stroke-opacity:1;stop-color:#000000;stop-opacity:1" /><path
     class="st1"
     d="m 166.86746,274.4171 -36.81831,36.81832 c -1.60929,1.60928 -1.97992,3.67695 -0.81319,4.84369 l 4.20729,4.20727 c 1.16672,1.16674 3.48188,1.04359 5.09117,-0.56567 l 36.81832,-36.81834 c 1.60928,-1.60927 1.68364,-3.87568 0.51692,-5.04239 l -4.2073,-4.20729 c -1.16671,-1.16672 -3.18552,-0.84527 -4.7949,0.76441 z"
     id="path3478-3"
     inkscape:connector-curvature="0"
     style="font-variation-settings:normal;vector-effect:none;fill:#216340;fill-opacity:1;stroke-width:1;stroke-linecap:butt;stroke-linejoin:miter;stroke-miterlimit:4;stroke-dasharray:none;stroke-dashoffset:0;stroke-opacity:1;stop-color:#000000;stop-opacity:1" /></g></svg>
