<?xml version="1.0" encoding="utf-8"?>
<!-- Generator: Adobe Illustrator 20.1.0, SVG Export Plug-In . SVG Version: 6.00 Build 0)  -->
<svg version="1.1" id="Layer_1" xmlns="http://www.w3.org/2000/svg" xmlns:xlink="http://www.w3.org/1999/xlink" x="0px" y="0px"
	 viewBox="0 0 400 225" style="enable-background:new 0 0 400 225;" xml:space="preserve">
<style type="text/css">
	.st0{clip-path:url(#SVGID_2_);}
	.st1{fill:#F6C358;}
	.st2{opacity:0.5;clip-path:url(#SVGID_2_);}
	.st3{opacity:0.15;}
	.st4{fill:#231F20;}
	.st5{clip-path:url(#SVGID_2_);fill:#FFFFFF;}
	.st6{fill:#A4A4A5;}
	.st7{clip-path:url(#SVGID_2_);fill:#895836;}
</style>
<title>drag the words</title>
<g>
	<defs>
		<rect id="SVGID_1_" width="400" height="225"/>
	</defs>
	<clipPath id="SVGID_2_">
		<use xlink:href="#SVGID_1_"  style="overflow:visible;"/>
	</clipPath>
	<g class="st0">
		<rect x="151.6" y="37.2" class="st1" width="99.9" height="11.8"/>
		<polygon class="st1" points="257,36.9 257,54.4 146.2,54.4 146.2,36.9 109,36.9 109,190.7 291.6,190.7 291.6,36.9 		"/>
	</g>
	<g class="st2">
		<g class="st3">
			<rect x="123.4" y="70.1" class="st4" width="48" height="62"/>
		</g>
	</g>
	<g class="st2">
		<g class="st3">
			<rect x="179.6" y="70.1" class="st4" width="105.9" height="62"/>
		</g>
	</g>
	<g class="st2">
		<g class="st3">
			<rect x="124.3" y="139" class="st4" width="161.2" height="43.6"/>
		</g>
	</g>
	<rect x="119.7" y="66.4" class="st5" width="47.4" height="60.1"/>
	<rect x="176.4" y="66.4" class="st5" width="104" height="60.1"/>
	<rect x="119.1" y="135.8" class="st5" width="161.4" height="41"/>
	<g class="st0">
		<g>
			<polygon class="st6" points="188.3,77.8 188.3,82 254.7,82 254.7,77.8 			"/>
			<rect x="188.3" y="85.7" class="st6" width="18.8" height="4.4"/>
			<rect x="188.3" y="101.1" class="st6" width="55.6" height="4.5"/>
			<rect x="188.3" y="109.5" class="st6" width="33.4" height="4.6"/>
			<rect x="129.4" y="149.3" class="st6" width="103.7" height="4.5"/>
			<rect x="129.1" y="157.9" class="st6" width="82" height="4.6"/>
			<rect x="129.4" y="77.6" class="st6" width="23.7" height="4.4"/>
			<polygon class="st6" points="144.5,105.6 144.6,101.3 129.4,101.3 129.4,105.6 132.8,105.6 			"/>
		</g>
	</g>
	<rect x="151.6" y="36.9" class="st7" width="100" height="12.4"/>
</g>
</svg>
