<svg xmlns="http://www.w3.org/2000/svg" viewBox="0 0 400 225">
  <defs>
    <style>
      .cls-1 {
        isolation: isolate;
      }

      .cls-2 {
        opacity: 0.15;
        mix-blend-mode: multiply;
      }

      .cls-3 {
        fill: #91cade;
      }

      .cls-4 {
        fill: #f26262;
      }

      .cls-5 {
        fill: #8ac97a;
      }

      .cls-6 {
        fill: #589b42;
      }

      .cls-7 {
        fill: #e0e0e0;
      }

      .cls-8 {
        fill: #fff;
      }

      .cls-9 {
        fill: none;
      }
    </style>
  </defs>
  <title>flashcards</title>
  <g class="cls-1">
    <g id="Layer_2" data-name="Layer 2">
      <g id="flashcards">
        <g>
          <g>
            <g class="cls-2">
              <rect x="127.79" y="46.96" width="152.71" height="137.32" rx="12.36" ry="12.36" transform="translate(-17.34 38.23) rotate(-10.27)"/>
            </g>
            <rect class="cls-3" x="127.79" y="44.68" width="152.71" height="137.32" rx="12.36" ry="12.36" transform="translate(-16.93 38.2) rotate(-10.27)"/>
          </g>
          <g>
            <g class="cls-2">
              <rect x="124.14" y="40.16" width="152.71" height="137.75" rx="12.36" ry="12.36" transform="translate(-9.21 18.97) rotate(-5.3)"/>
            </g>
            <rect class="cls-4" x="124.14" y="37.89" width="152.71" height="137.75" rx="12.36" ry="12.36" transform="translate(-9 18.96) rotate(-5.3)"/>
          </g>
          <g>
            <g class="cls-2">
              <rect x="118" y="35.5" width="152" height="133" rx="12.36" ry="12.36"/>
            </g>
            <rect class="cls-5" x="118" y="33.5" width="152" height="133" rx="12.36" ry="12.36"/>
          </g>
          <polygon class="cls-6" points="251.47 73.03 259 80.66 259 121.5 130 121.5 130 103.86 159.8 74.86 174.69 89.36 186.34 77.93 221.44 42.89 251.47 73.03"/>
          <circle class="cls-6" cx="143.41" cy="54.82" r="11.93"/>
          <rect class="cls-7" x="147" y="134.5" width="90" height="15" rx="7.41" ry="7.41"/>
          <rect class="cls-8" x="147" y="136.5" width="90" height="15" rx="7.41" ry="7.41"/>
        </g>
        <rect class="cls-9" width="400" height="225"/>
      </g>
    </g>
  </g>
</svg>
