<?xml version="1.0" encoding="utf-8"?>
<!-- Generator: Adobe Illustrator 27.8.1, SVG Export Plug-In . SVG Version: 6.00 Build 0)  -->
<svg version="1.1" id="Layer_1" xmlns="http://www.w3.org/2000/svg" xmlns:xlink="http://www.w3.org/1999/xlink" x="0px" y="0px"
	 viewBox="0 0 400 225" style="enable-background:new 0 0 400 225;" xml:space="preserve">
<style type="text/css">
	.st0{fill:none;}
</style>
<g>
	<g id="Layer_2_00000025420857896847875940000007123222534921666178_">
		<g id="drag_and_drop">
			<rect y="0" class="st0" width="400" height="225"/>
			<path d="M299,34.3c0,51.4,0,102.7,0,154c-1.3,3.3-3.7,4.4-7.2,4.4c-60.2-0.1-120.3-0.1-180.5-0.1c-5.1,0-7.1-2-7.1-7.1
				c0-49.4,0-98.7,0-148.2c0-5.3,2-7.3,7.3-7.3c59.9,0,119.8,0,179.7-0.1C294.8,30,297.4,31,299,34.3z M185.3,84.6
				c-4.7,0.3-7.9,3.6-7.9,8.7c0,12,0,24.1,0,36.1c0,1.2,0.1,2.4,0.5,3.6c1.2,3.9,6.4,6.7,12,3.5c10.6-6.2,21.2-12.4,31.8-18.6
				c5.3-3.1,5.3-9.7,0-12.8c-10.6-6.3-21.3-12.5-32-18.6C188.5,85.6,186.8,85.2,185.3,84.6z M115.7,41.6c0,3.3,0,6.4,0,9.7
				c6.4,0,12.8,0,19.3,0c0-3.3,0-6.4,0-9.7C128.5,41.6,122.2,41.6,115.7,41.6z M146.6,51.3c6.4,0,12.7,0,19,0c0-3.3,0-6.4,0-9.6
				c-6.4,0-12.7,0-19,0C146.6,44.9,146.6,48.1,146.6,51.3z M257.3,41.7c-6.4,0-12.7,0-19,0c0,3.3,0,6.5,0,9.6c6.4,0,12.6,0,19,0
				C257.3,48.1,257.3,44.9,257.3,41.7z M115.7,181.1c6.5,0,12.8,0,19.2,0c0-3.3,0-6.5,0-9.7c-6.4,0-12.8,0-19.2,0
				C115.7,174.7,115.7,177.9,115.7,181.1z M146.6,181.1c6.4,0,12.7,0,18.9,0c0-3.3,0-6.5,0-9.6c-6.4,0-12.7,0-18.9,0
				C146.6,174.7,146.6,177.9,146.6,181.1z M238.3,171.4c0,3.3,0,6.5,0,9.8c6.4,0,12.6,0,18.9,0c0-3.3,0-6.5,0-9.8
				C250.9,171.4,244.7,171.4,238.3,171.4z M177.2,51.3c6.4,0,12.7,0,18.9,0c0-3.3,0-6.4,0-9.6c-6.4,0-12.7,0-18.9,0
				C177.2,44.9,177.2,48.1,177.2,51.3z M207.7,51.3c6.4,0,12.6,0,18.9,0c0-3.3,0-6.4,0-9.7c-6.4,0-12.6,0-18.9,0
				C207.7,44.9,207.7,48.1,207.7,51.3z M196.2,171.6c-6.4,0-12.8,0-18.9,0c0,3.3,0,6.4,0,9.6c6.4,0,12.6,0,18.9,0
				C196.2,177.9,196.2,174.7,196.2,171.6z M226.6,171.5c-6.4,0-12.6,0-18.8,0c0,3.3,0,6.5,0,9.7c6.3,0,12.5,0,18.8,0
				C226.6,177.9,226.6,174.8,226.6,171.5z M268.9,51.3c6.2,0,12.5,0,18.5,0c0-3.3,0-6.5,0-9.6c-6.3,0-12.4,0-18.5,0
				C268.9,44.9,268.9,48.1,268.9,51.3z M268.9,181.1c6.4,0,12.5,0,18.5,0c0-3.3,0-6.5,0-9.6c-6.2,0-12.4,0-18.5,0
				C268.9,174.8,268.9,177.9,268.9,181.1z"/>
		</g>
	</g>
</g>
</svg>
