<svg xmlns="http://www.w3.org/2000/svg" viewBox="0 0 400 225">
  <defs>
    <style>
      .cls-1 {
        fill: #bbd39f;
      }

      .cls-2 {
        fill: #31387a;
      }

      .cls-3 {
        fill: none;
      }
    </style>
  </defs>
  <title>iframe embedder</title>
  <g id="Layer_2" data-name="Layer 2">
    <g id="iframe_embedder" data-name="iframe embedder">
      <g>
        <circle class="cls-1" cx="204" cy="113.5" r="87.17"/>
        <g>
          <path class="cls-2" d="M261.25,110.25,232.72,81.72a4.56,4.56,0,0,0-6.5,0l-3.06,3.06a4.55,4.55,0,0,0,0,6.5l22.22,22.22-22.22,22.22a4.55,4.55,0,0,0,0,6.5l3.06,3.06a4.56,4.56,0,0,0,6.5,0l28.53-28.53a4.56,4.56,0,0,0,0-6.5Z"/>
          <path class="cls-2" d="M184.83,135.72,162.61,113.5l22.22-22.22a4.55,4.55,0,0,0,0-6.5l-3.06-3.06a4.56,4.56,0,0,0-6.5,0l-28.53,28.53a4.56,4.56,0,0,0,0,6.5l28.53,28.53a4.56,4.56,0,0,0,6.5,0l3.06-3.06A4.55,4.55,0,0,0,184.83,135.72Z"/>
          <path class="cls-2" d="M221.3,72.3a4.55,4.55,0,0,0-2.74-2.2h0l-3.76-1a4.35,4.35,0,0,0-1.25-.18h0a4.58,4.58,0,0,0-4.36,3.3l-22.84,79.05a4.58,4.58,0,0,0,3.12,5.67h0l3.76,1a4.35,4.35,0,0,0,1.25.18,4.58,4.58,0,0,0,4.36-3.3l22.84-79.05A4.52,4.52,0,0,0,221.3,72.3Z"/>
        </g>
      </g>
      <rect class="cls-3" width="400" height="225"/>
    </g>
  </g>
</svg>
