<?xml version="1.0" encoding="utf-8"?>
<!-- Generator: Adobe Illustrator 20.1.0, SVG Export Plug-In . SVG Version: 6.00 Build 0)  -->
<svg version="1.1" id="Layer_1" xmlns="http://www.w3.org/2000/svg" xmlns:xlink="http://www.w3.org/1999/xlink" x="0px" y="0px"
	 viewBox="0 0 400 225" style="enable-background:new 0 0 400 225;" xml:space="preserve">
<style type="text/css">
	.st0{fill:none;}
	.st1{fill:#CECECE;}
	.st2{fill:#FFFFFF;}
	.st3{fill:#FAC361;}
	.st4{fill:#97BAF6;}
	.st5{fill:#F0F1F5;}
	.st6{fill:#3C5F84;}
	.st7{opacity:0.2;}
	.st8{fill:#51BC86;}
</style>
<title>interactive video</title>
<g id="Layer_2">
	<g id="interactive_video">
		<rect class="st0" width="400" height="225"/>
		<g>
			<g>
				<g>
					<path class="st1" d="M225.5,110.6h-2.4v-3h2.4c0.3,0,0.5,0,0.8-0.1l1.5-0.3l0.5,3l-1.5,0.3C226.4,110.5,226,110.6,225.5,110.6z
						 M219.1,110.6h-5v-3h5V110.6z M210.1,110.6h-5v-3h5V110.6z M201.1,110.6h-5v-3h5V110.6z M192.1,110.6h-5v-3h5V110.6z
						 M183.1,110.6h-2.3c-0.5,0-1,0-1.5-0.1l-1.5-0.3l0.6-2.9l1.5,0.3c0.3,0.1,0.6,0.1,0.9,0.1h2.3V110.6z M232.5,106.4l-2.9-0.9
						l0.5-1.4c0.2-0.5,0.3-1,0.3-1.6l0.1-1.5l3,0.1l-0.1,1.5c0,0.8-0.2,1.6-0.4,2.4L232.5,106.4z M173.8,106.3l-0.4-1.4
						c-0.2-0.8-0.4-1.6-0.4-2.4l0-1.5l3-0.1l0,1.5c0,0.5,0.1,1.1,0.3,1.6l0.4,1.4L173.8,106.3z M233.4,97h-3v-5h3V97z M175.9,96.9
						h-3v-5h3V96.9z M233.4,88h-3v-5h3V88z M175.9,87.9h-3v-5h3V87.9z M233.4,79h-3v-5h3V79z M175.9,78.9h-3v-5h3V78.9z M233.4,70
						h-3v-5h3V70z M175.9,69.9h-3v-5h3V69.9z M233.4,61h-3v-5h3V61z M175.9,60.9h-3v-5h3V60.9z M233.4,52h-3v-2.5
						c0-0.3,0-0.5-0.1-0.8l-0.2-1.5l3-0.4l0.2,1.5c0.1,0.4,0.1,0.8,0.1,1.2V52z M175.9,51.9h-3v-2.4c0-0.5,0-0.9,0.1-1.4l0.2-1.5
						l3,0.5l-0.2,1.5c0,0.3-0.1,0.6-0.1,0.9V51.9z M228.7,45.1l-1.4-0.6c-0.5-0.2-1-0.3-1.5-0.3l-0.3,0H222v-3h2.5l0-0.1l1.3,0.1
						h1.3v0.2c0.5,0.1,0.9,0.2,1.4,0.4l1.4,0.6L228.7,45.1z M177.8,45.1l-1.1-2.8l1.4-0.6c0.8-0.3,1.6-0.5,2.4-0.5l1.5-0.1l0.1,3
						l-1.5,0.1c-0.5,0-1,0.1-1.5,0.3L177.8,45.1z M218,44.2h-5v-3h5V44.2z M209,44.2h-5v-3h5V44.2z M200,44.2h-5v-3h5V44.2z
						 M191,44.2h-5v-3h5V44.2z"/>
				</g>
			</g>
		</g>
		<g>
			<g>
				<rect x="109.3" y="45" class="st2" width="53.7" height="45.3"/>
				<circle class="st3" cx="123.2" cy="58.7" r="6.3"/>
				<path class="st4" d="M163.1,53.9v36.8h-53.9V50c0-1.9,1.6-3.5,3.5-3.5h47c1.9,0,3.5,1.6,3.5,3.5V53.9z M160.6,40.6h-49
					c-3.9,0-7,3.1-7,7v56.3c0,3.9,3.1,7,7,7h49c3.9,0,7-3.1,7-7V47.6C167.6,43.8,164.5,40.6,160.6,40.6z"/>
			</g>
			<path class="st5" d="M154.5,98.6h-36.8c-0.7,0-1.3-0.6-1.3-1.3v-1c0-0.7,0.6-1.3,1.3-1.3h36.8c0.7,0,1.3,0.6,1.3,1.3v1
				C155.8,98,155.2,98.6,154.5,98.6z"/>
			<path class="st5" d="M145.9,101.9h-19.5c-0.7,0-1.3,0.6-1.3,1.3v1c0,0.7,0.6,1.3,1.3,1.3h19.5c0.7,0,1.3-0.6,1.3-1.3v-1
				C147.1,102.5,146.6,101.9,145.9,101.9z"/>
		</g>
		<g>
			<g>
				<rect x="243.8" y="119.3" class="st2" width="53.7" height="45.3"/>
				<circle class="st3" cx="257.7" cy="133" r="6.3"/>
				<path class="st4" d="M297.6,130.8V165h-53.9v-40.7c0-1.9,1.6-3.5,3.5-3.5h47c1.9,0,3.5,1.6,3.5,3.5V130.8z M295.1,115h-49
					c-3.9,0-7,3.1-7,7v56.3c0,3.9,3.1,7,7,7h49c3.9,0,7-3.1,7-7v-56.3C302.1,118.1,299,115,295.1,115z"/>
			</g>
			<path class="st5" d="M289,172.9h-36.8c-0.7,0-1.3-0.6-1.3-1.3v-1c0-0.7,0.6-1.3,1.3-1.3H289c0.7,0,1.3,0.6,1.3,1.3v1
				C290.3,172.3,289.7,172.9,289,172.9z"/>
			<path class="st5" d="M280.3,176.2h-19.5c-0.7,0-1.3,0.6-1.3,1.3v1c0,0.7,0.6,1.3,1.3,1.3h19.5c0.7,0,1.3-0.6,1.3-1.3v-1
				C281.6,176.8,281,176.2,280.3,176.2z"/>
		</g>
		<g>
			<g>
				<rect x="176.5" y="119.3" class="st2" width="53.7" height="45.3"/>
				<circle class="st3" cx="190.5" cy="133" r="6.3"/>
				<path class="st4" d="M230.4,130.8V165h-53.9v-40.7c0-1.9,1.6-3.5,3.5-3.5h47c1.9,0,3.5,1.6,3.5,3.5V130.8z M227.9,115h-49
					c-3.9,0-7,3.1-7,7v56.3c0,3.9,3.1,7,7,7h49c3.9,0,7-3.1,7-7v-56.3C234.8,118.1,231.7,115,227.9,115z"/>
			</g>
			<path class="st5" d="M221.7,172.9H185c-0.7,0-1.3-0.6-1.3-1.3v-1c0-0.7,0.6-1.3,1.3-1.3h36.8c0.7,0,1.3,0.6,1.3,1.3v1
				C223,172.3,222.4,172.9,221.7,172.9z"/>
			<path class="st5" d="M213.1,176.2h-19.5c-0.7,0-1.3,0.6-1.3,1.3v1c0,0.7,0.6,1.3,1.3,1.3h19.5c0.7,0,1.3-0.6,1.3-1.3v-1
				C214.4,176.8,213.8,176.2,213.1,176.2z"/>
		</g>
		<g>
			<g>
				<rect x="109.3" y="119.3" class="st2" width="53.7" height="45.3"/>
				<circle class="st3" cx="123.2" cy="133" r="6.3"/>
				<path class="st4" d="M163.1,130.8V165h-53.9v-40.7c0-1.9,1.6-3.5,3.5-3.5h47c1.9,0,3.5,1.6,3.5,3.5V130.8z M160.6,115h-49
					c-3.9,0-7,3.1-7,7v56.3c0,3.9,3.1,7,7,7h49c3.9,0,7-3.1,7-7v-56.3C167.6,118.1,164.5,115,160.6,115z"/>
			</g>
			<path class="st5" d="M154.5,172.9h-36.8c-0.7,0-1.3-0.6-1.3-1.3v-1c0-0.7,0.6-1.3,1.3-1.3h36.8c0.7,0,1.3,0.6,1.3,1.3v1
				C155.8,172.3,155.2,172.9,154.5,172.9z"/>
			<path class="st5" d="M145.9,176.2h-19.5c-0.7,0-1.3,0.6-1.3,1.3v1c0,0.7,0.6,1.3,1.3,1.3h19.5c0.7,0,1.3-0.6,1.3-1.3v-1
				C147.1,176.8,146.6,176.2,145.9,176.2z"/>
		</g>
		<path class="st6" d="M159.9,150.2l3.1,2.4v12.4h-53.9v-5.2l10-7.3c1.2-0.9,3.2-0.9,4.5,0l3.9,2.8l4.8-3.5l12.6-9.2
			c1.2-0.9,3.2-0.9,4.5,0L159.9,150.2z"/>
		<path class="st6" d="M227.2,150.2l3.1,2.4v12.4h-53.9v-5.2l10-7.3c1.2-0.9,3.2-0.9,4.5,0l3.9,2.8l4.8-3.5l12.6-9.2
			c1.2-0.9,3.2-0.9,4.5,0L227.2,150.2z"/>
		<path class="st6" d="M294.4,150.2l3.1,2.4v12.4h-53.9v-5.2l10-7.3c1.2-0.9,3.2-0.9,4.5,0l3.9,2.8l4.8-3.5l12.6-9.2
			c1.2-0.9,3.2-0.9,4.5,0L294.4,150.2z"/>
		<g>
			<g>
				<rect x="243.8" y="45" class="st2" width="53.7" height="45.3"/>
				<circle class="st3" cx="257.7" cy="58.7" r="6.3"/>
				<path class="st4" d="M297.6,56.5v34.1h-53.9V50c0-1.9,1.6-3.5,3.5-3.5h47c1.9,0,3.5,1.6,3.5,3.5V56.5z M295.1,40.6h-49
					c-3.9,0-7,3.1-7,7v56.3c0,3.9,3.1,7,7,7h49c3.9,0,7-3.1,7-7V47.6C302.1,43.8,299,40.6,295.1,40.6z"/>
			</g>
			<path class="st5" d="M289,98.6h-36.8c-0.7,0-1.3-0.6-1.3-1.3v-1c0-0.7,0.6-1.3,1.3-1.3H289c0.7,0,1.3,0.6,1.3,1.3v1
				C290.3,98,289.7,98.6,289,98.6z"/>
			<path class="st5" d="M280.3,101.9h-19.5c-0.7,0-1.3,0.6-1.3,1.3v1c0,0.7,0.6,1.3,1.3,1.3h19.5c0.7,0,1.3-0.6,1.3-1.3v-1
				C281.6,102.5,281,101.9,280.3,101.9z"/>
		</g>
		<path class="st6" d="M294.4,75.9l3.1,2.4v12.4h-53.9v-5.2l10-7.3c1.2-0.9,3.2-0.9,4.5,0l3.9,2.8l4.8-3.5l12.6-9.2
			c1.2-0.9,3.2-0.9,4.5,0L294.4,75.9z"/>
		<path class="st6" d="M159.9,76.8l3.1,2.4v12.4h-53.9v-5.2l10-7.3c1.2-0.9,3.2-0.9,4.5,0l3.9,2.8l4.8-3.5l12.6-9.2
			c1.2-0.9,3.2-0.9,4.5,0L159.9,76.8z"/>
		<g>
			<g>
				<g>
					<path class="st7" d="M243.1,29.2h-49c-3.9,0-7,3.1-7,7v56.3c0,3.9,3.1,7,7,7h49c3.9,0,7-3.1,7-7V36.2
						C250.1,32.3,247,29.2,243.1,29.2z"/>
					<polygon class="st2" points="185.3,27.7 239,27.7 239.3,73.5 185.1,73.4 					"/>
					<circle class="st3" cx="199.2" cy="41.4" r="6.3"/>
					<g>
						<path class="st8" d="M239.1,36.6v36.8h-53.9V32.7c0-1.9,1.6-3.5,3.5-3.5h47c1.9,0,3.5,1.6,3.5,3.5V36.6z M236.6,23.3h-49
							c-3.9,0-7,3.1-7,7v56.3c0,3.9,3.1,7,7,7h49c3.9,0,7-3.1,7-7V30.3C243.6,26.4,240.5,23.3,236.6,23.3z"/>
					</g>
				</g>
				<path class="st5" d="M230.5,81.3h-36.8c-0.7,0-1.3-0.6-1.3-1.3v-1c0-0.7,0.6-1.3,1.3-1.3h36.8c0.7,0,1.3,0.6,1.3,1.3v1
					C231.8,80.7,231.2,81.3,230.5,81.3z"/>
				<path class="st5" d="M221.9,84.6h-19.5c-0.7,0-1.3,0.6-1.3,1.3v1c0,0.7,0.6,1.3,1.3,1.3h19.5c0.7,0,1.3-0.6,1.3-1.3v-1
					C223.1,85.2,222.6,84.6,221.9,84.6z"/>
			</g>
			<path class="st6" d="M236.1,58.6l3.1,2.4v12.4l-54.1,0l0-5.1l10.2-7.4c1.2-0.9,3.2-0.9,4.5,0l3.9,2.8l4.8-3.5l12.6-9.2
				c1.2-0.9,3.2-0.9,4.5,0L236.1,58.6z"/>
		</g>
	</g>
</g>
</svg>
