<svg height="40" viewBox="0 0 40 40" width="40" xmlns="http://www.w3.org/2000/svg" xmlns:xlink="http://www.w3.org/1999/xlink"><defs><linearGradient id="a" x1="50%" x2="50%" y1="0%" y2="100%"><stop offset="0" stop-color="#fff" stop-opacity=".5"/><stop offset="1" stop-opacity=".5"/></linearGradient><rect id="b" height="40" rx="12" width="40"/><filter id="c" height="181.3%" width="165%" x="-32.5%" y="-40.6%"><feOffset dx="0" dy="1" in="SourceAlpha" result="shadowOffsetOuter1"/><feGaussianBlur in="shadowOffsetOuter1" result="shadowBlurOuter1" stdDeviation="1"/><feColorMatrix in="shadowBlurOuter1" result="shadowMatrixOuter1" type="matrix" values="0 0 0 0 0   0 0 0 0 0   0 0 0 0 0  0 0 0 0.48 0"/><feMerge><feMergeNode in="shadowMatrixOuter1"/><feMergeNode in="SourceGraphic"/></feMerge></filter><mask id="d" fill="#fff"><use fill="#fff" fill-rule="evenodd" xlink:href="#b"/></mask></defs><g fill="none" fill-rule="evenodd"><use fill="#0095d5" fill-opacity=".2" xlink:href="#b"/><use fill="url(#a)" fill-opacity=".16" xlink:href="#b"/><g fill-rule="nonzero" filter="url(#c)" mask="url(#d)"><g transform="translate(10 13)"><path d="m.0001 0c2.5003 1.4546 5.001 2.9086 7.5006 4.3643-.002.9696 0 1.9389-.001 2.9086-1.6656-.9717-3.3333-1.9393-4.9993-2.91-.0006 1.9393-.0003 3.8789-.0003 5.8182-.833-.4856-1.6673-.969-2.5-1.4556 0-2.9083-.00029-5.8169 0-8.7255z" fill="#00b0ff"/><path d="m7.5 10.1851.0067.0047c.328.2162.6776.3984 1.0143.6011.4853.2783.9633.571 1.454.8391.849.4736 1.6829.9757 2.5259 1.461-.0016.9697 0 1.9393-.0006 2.909-1.666-.9713-3.3333-1.9396-5-2.9096-.0003-.9687.0004-1.937-.0003-2.9053z" fill="#00b0ff"/><g fill="#0081cb"><path d="m7.501 4.3642c2.4996-1.4543 4.9999-2.908 7.4989-4.3633.0007 2.909.0003 5.8179 0 8.7272-1.633.9502-3.2663 1.9-4.8986 2.8508-.0413.0182-.077.0615-.1263.0511-.4907-.2682-.9687-.5609-1.454-.8391-.3367-.2027-.6863-.385-1.0143-.6011.3283-.2165.68-.3994 1.0173-.6028 1.3253-.7713 2.6509-1.5416 3.9759-2.3139.0004-.9693.001-1.9386-.0003-2.9079-1.6666.9689-3.3323 1.9396-4.9996 2.9076.001-.9697-.001-1.939.001-2.9086z"/><path d="m17.5008 1.4542c.8343-.482 1.6656-.9693 2.499-1.4533.0003.9697.001 1.9393-.0004 2.9093-.8326.4846-1.6649.9706-2.4989 1.453-.0004-.9697-.001-1.9393.0003-2.909z"/><path d="m17.5 7.2735c.8334-.4846 1.6673-.969 2.5-1.455-.0003 1.94.001 3.88-.001 5.8196-2.5 1.4536-4.9986 2.9093-7.4989 4.3619.0007-.9696-.001-1.9393.0007-2.9089 1.6669-.969 3.3339-1.938 4.9992-2.9096 0-.9694 0-1.9387 0-2.908z"/></g></g></g></g></svg>