<svg height="40" viewBox="0 0 40 40" width="40" xmlns="http://www.w3.org/2000/svg" xmlns:xlink="http://www.w3.org/1999/xlink"><defs><linearGradient id="a" x1="50%" x2="50%" y1="0%" y2="100%"><stop offset="0" stop-color="#fff" stop-opacity=".5"/><stop offset="1" stop-opacity=".5"/></linearGradient><rect id="b" height="40" rx="12" width="40"/><filter id="c" height="172.2%" width="165%" x="-32.5%" y="-36.1%"><feOffset dx="0" dy="1" in="SourceAlpha" result="shadowOffsetOuter1"/><feGaussianBlur in="shadowOffsetOuter1" result="shadowBlurOuter1" stdDeviation="1"/><feColorMatrix in="shadowBlurOuter1" result="shadowMatrixOuter1" type="matrix" values="0 0 0 0 0   0 0 0 0 0   0 0 0 0 0  0 0 0 0.48 0"/><feMerge><feMergeNode in="shadowMatrixOuter1"/><feMergeNode in="SourceGraphic"/></feMerge></filter><mask id="d" fill="#fff"><use fill="#fff" fill-rule="evenodd" xlink:href="#b"/></mask></defs><g fill="none" fill-rule="evenodd"><use fill="#61dafb" fill-opacity=".2" xlink:href="#b"/><use fill="url(#a)" fill-opacity=".16" xlink:href="#b"/><g fill="#61dafb" fill-rule="nonzero" filter="url(#c)" mask="url(#d)"><path d="m14.0644109 0-.0004109.004.1630613.00633799c.2189308.01663233.4239707.06683451.6102883.15304799l.1361522.07145037c1.1496128.66742962 1.4105178 2.75211719.8234815 5.37239643 2.5438239.78690776 4.2030167 2.05584802 4.2030167 3.39482719 0 1.33485923-1.6510395 2.60379953-4.1785569 3.39070723.591113 2.6120394.3342846 4.692607-.8112515 5.3600366-.2690583.1565576-.578883.2307165-.9213208.2307165-1.1210763 0-2.588667-.7992676-4.0725642-2.1918059-1.48389731 1.4007782-2.95148801 2.2082856-4.07256424 2.2082856-.34243783 0-.65226254-.0741588-.91724419-.2307164-1.14961272-.6674296-1.41051774-2.7521172-.82348146-5.3723964-2.54382388-.7869078-4.20301671-2.0558481-4.20301671-3.39482723 0-1.33485924 1.65103954-2.59967956 4.18671015-3.39070726-.59111292-2.61203937-.33428455-4.692607.81125153-5.36003662.21524664-.12524605.45658377-.19775692.71983693-.22175143l.2014839-.00896498c1.12107623-.00411994 2.58866694.79514763 4.07256421 2.18768597 1.40579738-1.32705304 2.79695958-2.12164146 3.89272068-2.2016063zm-8.98899304 12.6440833c-.0896861.4161135-.16306564.8239872-.20790869 1.2112612-.18752548 1.5738155.05299633 2.7974365.60741949 3.1187915.12229922.0700389.27721158.1071183.46066041.1112382.8479413 0 2.0953934-.6839093 3.42437832-1.9322499-.57480636-.6056306-1.14553608-1.2977798-1.6958826-2.059968-.91724419-.0988784-1.78964533-.2513161-2.58866693-.449073zm9.85731754-.0082399c-.7990216.2018769-1.6714227.3543145-2.5927436.453193-.5421932.7621881-1.1129229 1.4502174-1.6836526 2.055848 1.3289849 1.2401007 2.5805136 1.9198901 3.4243783 1.9198901.1875255 0 .3465145-.0329594.4688137-.1071183.5503465-.3254749.7867917-1.5490959.5951896-3.1229114-.0448431-.383154-.1182226-.7827878-.2119854-1.1989014zm-3.8035059.5479515c-.3709743.0205997-.7501019.0288396-1.13330614.0288396-.3791276 0-.75417856-.0123598-1.12107623-.0288396.37505095.4820325.75417855.9228657 1.13330617 1.3183795.3750509-.3955138.7541785-.836347 1.1210762-1.3183795zm-1.1292295-7.46944379c-.61964941 0-1.23522218.02883955-1.84264166.08239872-.33836119.49027237-.66449246 1.01762417-.98247045 1.57381552-.30574806.5397116-.59111292 1.09178301-.84386465 1.64385443.25682837.55207141.53811659 1.10002292.84794129 1.63973452.31797799.5520714.6481859 1.0753032.98654709 1.5655756.60334284.0494392 1.21891561.0782788 1.83448838.0782788.6196494 0 1.2352222-.0288396 1.8426417-.0823987.3383612-.4902724.6644924-1.0176242.9824704-1.5738155.3057481-.5397116.5870363-1.09178306.8438647-1.64385447-.2568284-.55207141-.5381166-1.10002289-.8479413-1.63973449-.317978-.55207141-.6481859-1.07530327-.9865471-1.56557565-.6033429-.04943923-1.2189156-.07827878-1.8344884-.07827878zm4.1418671 4.39185169c-.1671423.3295949-.3424378.6633097-.5299633.9929045-.1875255.3337149-.3872809.6591898-.5870363.9764249.5829597-.0865187 1.1455361-.197757 1.679576-.3295949-.1549123-.5355917-.3424378-1.0876631-.5625764-1.6397345zm-8.28781084.0164797c-.21198533.5479515-.39951081 1.095903-.55034652 1.6273747.53403995.131838 1.09253975.2389563 1.67142275.325475-.1997554-.3131152-.39543416-.6344702-.58703628-.964065-.19160212-.3295949-.36689768-.6591898-.53403995-.9887847zm-1.44313086-3.62142363c-.39543416.12771801-.7786384.2636759-1.12922952.41611353-1.44313086.61799038-2.37668161 1.43785763-2.37668161 2.08468757s.93355075 1.46257723 2.37668161 2.08468753c.35466776.1524377.737872.2925155 1.14145944.4202335.22829189-.8033875.52996331-1.63973449.90501427-2.49668116-.3791276-.86106661-.68487566-1.70153353-.91724419-2.50904097zm11.1618426-.00411994c-.2282918.80338751-.5299633 1.6397345-.9050142 2.49668117.3791276.8610666.6848756 1.7015335.9172442 2.509041.3954341-.127718.7786384-.2636759 1.1292295-.4161136 1.4431308-.6179903 2.3766816-1.43785759 2.3807582-2.08468753 0-.64682994-.9335507-1.46257725-2.3766816-2.08468757-.3587444-.15243763-.7419486-.29251545-1.1455361-.42023347zm-5.57684464.62211033c1.02892024 0 1.86302484.84296307 1.86302484 1.88281071 0 1.03984763-.8341046 1.88281073-1.86302484 1.88281073-1.02892022 0-1.86302487-.8429631-1.86302487-1.88281073 0-1.03984764.83410465-1.88281071 1.86302487-1.88281071zm-3.02486751-1.19066148c-.58295964.08651865-1.14553608.19775692-1.67957603.32547493.15491235.53559167.34243783 1.08766309.56257644 1.6397345.16714227-.32959488.34243783-.65918975.52996331-.98878462.18752548-.33371481.38728088-.65918975.58703628-.97642481zm6.04973505 0c.1997554.31311513.3995108.63447013.5870363.964065.1916021.32959487.3668976.65918975.5340399.98878462.2119853-.54795148.3995108-1.09590295.5503465-1.62737469-.5340399-.13183794-1.0925397-.23895628-1.6714227-.32547493zm-7.10150839-4.99336233c-.18752548.00411994-.34651447.03707943-.4688137.11123827-.55034651.32547494-.78679168 1.5490959-.59518956 3.12291142.04891969.38315404.11822258.78278783.21198532 1.19478142.79902161-.20187686 1.67142275-.35431449 2.59274358-.45319295.54219324-.76218815 1.11292295-1.45021744 1.68365267-2.05584802-1.25080933-1.16715361-2.43300696-1.83797612-3.27129642-1.91285782zm8.14071749-.01722545-.1493082.0078208c-.8412634.07533788-2.0198499.75026607-3.2706592 1.92517485.5748064.60563058 1.1455361 1.29777981 1.6958826 2.05996796.9172442.09887846 1.7896453.25131609 2.5886669.44907301.0896861-.41611353.1630657-.82398718.2079087-1.21126116.1875255-1.57381551-.0529963-2.79743648-.6074195-3.11879148-.0947819-.05252918-.2033224-.08651866-.3307811-.10023032l-.1339559-.00688802zm-4.07222992 2.58394553c-.37505096.39551384-.75417856.83634699-1.12107624 1.31837949.37097432-.02059968.75010192-.02883955 1.13330616-.02883955.3791276 0 .7541786.0123598 1.1210762.02883955-.3750509-.4820325-.7541785-.92286565-1.13330612-1.31837949z" transform="translate(10 11)"/></g></g></svg>