<svg width="41" height="40" viewBox="0 0 41 40" fill="none" xmlns="http://www.w3.org/2000/svg">
<g filter="url(#filter0_b)">
<rect x="0.5" width="40" height="40" rx="12" fill="#FFAE00" fill-opacity="0.2"/>
<rect x="0.5" width="40" height="40" rx="12" fill="url(#paint0_linear)" fill-opacity="0.16"/>
</g>
<path fill-rule="evenodd" clip-rule="evenodd" d="M20.4176 29.1819L10.5002 17.5081L14.7964 11.6102L20.4176 11.0001L26.0388 11.6102L30.335 17.5081L20.4176 29.1819Z" fill="#FFAE00"/>
<path fill-rule="evenodd" clip-rule="evenodd" d="M20.4176 29.1819L10.5002 17.5081H30.335L20.4176 29.1819Z" fill="#EC6C00"/>
<path fill-rule="evenodd" clip-rule="evenodd" d="M20.4171 29.1819L14.5149 17.5081H26.3193L20.4171 29.1819Z" fill="#FFAE00"/>
<path fill-rule="evenodd" clip-rule="evenodd" d="M20.4171 11L14.5149 17.5081L26.3193 17.5081L20.4171 11Z" fill="#FFEFB4"/>
<path fill-rule="evenodd" clip-rule="evenodd" d="M14.7959 11.6102L12.5876 14.5794L10.4997 17.5081L14.555 17.5081L14.7959 11.6102Z" fill="#FFAE00"/>
<path fill-rule="evenodd" clip-rule="evenodd" d="M26.0381 11.6102L28.2464 14.5794L30.3343 17.5081L26.279 17.5081L26.0381 11.6102Z" fill="#FFAE00"/>
<path fill-rule="evenodd" clip-rule="evenodd" d="M14.7958 11.6102L14.5148 17.5081L20.417 11L14.7958 11.6102Z" fill="#FED305"/>
<path fill-rule="evenodd" clip-rule="evenodd" d="M26.1212 11.6102L26.4022 17.5081L20.5 11L26.1212 11.6102Z" fill="#FED305"/>
<defs>
<filter id="filter0_b" x="-9.5" y="-10" width="60" height="60" filterUnits="userSpaceOnUse" color-interpolation-filters="sRGB">
<feFlood flood-opacity="0" result="BackgroundImageFix"/>
<feGaussianBlur in="BackgroundImage" stdDeviation="5"/>
<feComposite in2="SourceAlpha" operator="in" result="effect1_backgroundBlur"/>
<feBlend mode="normal" in="SourceGraphic" in2="effect1_backgroundBlur" result="shape"/>
</filter>
<linearGradient id="paint0_linear" x1="0.5" y1="0" x2="0.5" y2="40" gradientUnits="userSpaceOnUse">
<stop stop-color="white" stop-opacity="0.5"/>
<stop offset="1" stop-opacity="0.5"/>
</linearGradient>
</defs>
</svg>
