<svg height="711" viewBox="0 0 711 711" width="711" xmlns="http://www.w3.org/2000/svg" xmlns:xlink="http://www.w3.org/1999/xlink"><linearGradient id="a" x1=".246254%" x2="99.753746%" y1="0%" y2="100%"><stop offset="0" stop-color="#ffc107"/><stop offset="1" stop-color="#7a0c2e"/></linearGradient><linearGradient id="b" x1="0%" x2="100%" y1="0%" y2="100%"><stop offset="0" stop-color="#00ab55"/><stop offset="1" stop-color="#08660d"/></linearGradient><g fill="none" fill-rule="evenodd" opacity=".16"><path d="m157.558905 104.877806 409.623445-.604188c22.091366-.032585 40.026372 17.849591 40.058956 39.940957.000058.039284.000058.078568 0 .117853l-.604521 410.863305c-.02619 17.800295-1.884227 24.253006-5.367609 30.759207s-8.58997 11.612808-15.096158 15.096213c-6.506189 3.483406-12.958893 5.341466-30.759188 5.367721l-409.623445.604189c-22.091366.032584-40.026371-17.849591-40.058956-39.940957-.000057-.039284-.000058-.078569 0-.117853l.604521-410.863305c.026191-17.800296 1.884228-24.253006 5.367609-30.759207 3.483382-6.506202 8.58997-11.612808 15.096159-15.096214 6.506188-3.483405 12.958892-5.341466 30.759187-5.367721z" fill="url(#a)" opacity=".48" transform="matrix(.42261826 .90630779 -.90630779 .42261826 528.155579 -117.741515)"/><path d="m156.138153 104.932583 410.246946-.788936c22.091349-.042484 40.034365 17.831654 40.076849 39.923003.000098.051282.000098.102564 0 .153846l-.788937 410.246946c-.034213 17.791104-1.892729 24.239836-5.37528 30.742268-3.482552 6.502431-8.586348 11.606227-15.08878 15.088779-6.502431 3.482552-12.951163 5.341067-30.742268 5.375281l-410.246946.788936c-22.091349.042484-40.034365-17.831654-40.076849-39.923003-.000098-.051282-.000098-.102564 0-.153846l.788937-410.246946c.034213-17.791105 1.892728-24.239836 5.37528-30.742268 3.482552-6.502431 8.586348-11.606227 15.08878-15.088779 6.502431-3.482552 12.951163-5.341067 30.742268-5.375281z" fill="url(#b)" opacity=".48" transform="matrix(.70710678 .70710678 -.70710678 .70710678 355.302954 -147.170858)"/></g></svg>