<?xml version="1.0" encoding="UTF-8" standalone="no"?>
<svg
   xmlns:dc="http://purl.org/dc/elements/1.1/"
   xmlns:cc="http://creativecommons.org/ns#"
   xmlns:rdf="http://www.w3.org/1999/02/22-rdf-syntax-ns#"
   xmlns:svg="http://www.w3.org/2000/svg"
   xmlns="http://www.w3.org/2000/svg"
   xmlns:sodipodi="http://sodipodi.sourceforge.net/DTD/sodipodi-0.dtd"
   xmlns:inkscape="http://www.inkscape.org/namespaces/inkscape"
   viewBox="0 0 400 225"
   version="1.1"
   id="svg6218"
   sodipodi:docname="agamotto.svg"
   inkscape:version="0.92.0 r15299">
  <title
     id="title7915">agamotto</title>
  <metadata
     id="metadata6222">
    <rdf:RDF>
      <cc:Work
         rdf:about="">
        <dc:format>image/svg+xml</dc:format>
        <dc:type
           rdf:resource="http://purl.org/dc/dcmitype/StillImage" />
        <dc:title>agamotto</dc:title>
      </cc:Work>
    </rdf:RDF>
  </metadata>
  <sodipodi:namedview
     pagecolor="#ffffff"
     bordercolor="#666666"
     borderopacity="1"
     objecttolerance="10"
     gridtolerance="10"
     guidetolerance="10"
     inkscape:pageopacity="0"
     inkscape:pageshadow="2"
     inkscape:window-width="1846"
     inkscape:window-height="1178"
     id="namedview6220"
     showgrid="false"
     inkscape:zoom="3.5"
     inkscape:cx="146.69857"
     inkscape:cy="139.1209"
     inkscape:window-x="66"
     inkscape:window-y="-8"
     inkscape:window-maximized="1"
     inkscape:current-layer="svg6218" />
  <defs
     id="defs6158">
    <style
       id="style6156">
      .cls-1 {
        fill: #f06060;
      }

      .cls-2 {
        opacity: 0.15;
      }

      .cls-3 {
        fill: #231f20;
      }

      .cls-4 {
        fill: #fff;
      }

      .cls-5 {
        fill: #79aad3;
      }

      .cls-6 {
        fill: #b0afad;
      }

      .cls-7 {
        fill: none;
      }
    </style>
  </defs>
  <rect
     style="fill:#f77e4f;fill-opacity:1"
     id="rect6162"
     height="173.59"
     width="139.14"
     y="26.709999"
     x="134.42999"
     class="cls-1" />
  <g
     id="g6170">
    <g
       style="opacity:0.15"
       id="g6166"
       class="cls-2">
      <rect
         style="fill:#231f20"
         id="rect6164"
         height="146.09"
         width="112.96"
         y="43.369999"
         x="150.44"
         class="cls-3" />
    </g>
    <rect
       style="fill:#ffffff"
       id="rect6168"
       height="146.09"
       width="112.96"
       y="40.459999"
       x="147.52"
       class="cls-4" />
  </g>
  <rect
     class="cls-7"
     width="400"
     height="225"
     id="rect6214"
     x="0"
     y="0"
     style="fill:none" />
  <g
     transform="matrix(0.58139534,0,0,0.58139534,85.999744,18.006278)"
     id="g6154">
    <g
       transform="matrix(0.98850573,0,0,1,-4.8863252,180.03612)"
       id="g5075">
      <g
         transform="translate(190.7168,237.58788)"
         id="g5136">
        <rect
           x="-66.413193"
           y="-367.724"
           class="st3"
           width="173"
           height="125"
           id="rect20-2-8"
           style="fill:#ffffff" />
        <rect
           x="-67.413193"
           y="-368.724"
           class="st5"
           width="174"
           height="129"
           id="rect22-0-6"
           style="fill:#96b9f5" />
        <polygon
           class="st6"
           points="117,166.3 156.6,126.1 180.8,149.5 241.7,92 291,131.1 291,177.8 117,177.9 "
           id="polygon24-0-7"
           style="fill:#3c5f84"
           transform="translate(-184.41319,-418.224)" />
        <g
           class="st7"
           id="g28-5-4"
           style="opacity:0.2"
           transform="matrix(0.90419677,0,0,0.90419677,-167.07281,-404.22715)">
          <path
             d="m 177.8,146.1 c 0,0 -36.6,34.9 -35.8,34.8 0.2,0 6.5,0.2 6.5,0.2 L 181,149.2 Z"
             id="path26-8-6"
             inkscape:connector-curvature="0" />
        </g>
        <path
           class="st8"
           d="m -39.11319,-337.524 c 0,-4.9 2.9,-9.3 7.5,-11.2 -8.2,-1.8 -16.4,3.4 -18.2,11.6 -1.8,8.2 3.4,16.4 11.6,18.2 6.7,1.5 13.6,-1.7 16.8,-7.8 -6,3.1 -13.3,0.7 -16.3,-5.3 -1,-1.7 -1.4,-3.6 -1.4,-5.5 z"
           id="path30-3-6"
           inkscape:connector-curvature="0"
           style="fill:#fefefe" />
        <circle
           transform="rotate(-2.2906123)"
           class="st8"
           cx="0.76862413"
           cy="-347.26996"
           id="ellipse32-8-3"
           r="0.99999905"
           style="fill:#fefefe" />
        <circle
           class="st8"
           cx="-2.3131838"
           cy="-345.52402"
           r="1"
           id="circle34-9-7"
           style="fill:#fefefe" />
        <circle
           class="st8"
           cx="-6.8131838"
           cy="-336.42401"
           r="1"
           id="circle36-4-1"
           style="fill:#fefefe" />
        <g
           style="opacity:0.79000005"
           transform="translate(-184.41319,-418.224)"
           id="g62-2-3">
          <rect
             style="fill:#ffffff"
             id="rect50-0-9"
             height="125"
             width="173"
             class="st3"
             y="50.5"
             x="118" />
          <rect
             style="fill:#d3eeff"
             id="rect52-5-6"
             height="129"
             width="174"
             class="st10"
             y="49.5"
             x="117" />
          <g
             style="opacity:0.2"
             id="g56-9-0"
             class="st7">
            <path
               inkscape:connector-curvature="0"
               id="path54-1-6"
               d="m 173.8,143 c 0,0 -36.5,35 -35.8,34.8 0.2,0 6.5,0.2 6.5,0.2 L 177,146.1 Z" />
          </g>
          <ellipse
             style="fill:#fac361"
             id="ellipse58-8-0"
             ry="14.7"
             rx="14.6"
             cy="74.199997"
             cx="264.89999"
             class="st11"
             transform="matrix(0.3672,-0.9302,0.9302,0.3672,98.6771,293.3748)" />
          <polygon
             style="fill:#51bc86"
             id="polygon60-7-6"
             points="291,177.8 117,177.9 117,166.3 156.6,126.1 181.2,149.3 241.7,92 291,131.1 "
             class="st12" />
        </g>
      </g>
    </g>
    <g
       transform="matrix(0.88187691,0,0,0.88187691,78.996437,184.16887)"
       id="g4675">
      <path
         id="path4656"
         d="M 43.093954,-26.148418 H 238.13251 V -7.1085593 H 43.093954 Z"
         style="fill:#34495e;fill-opacity:1;fill-rule:nonzero;stroke:none"
         inkscape:connector-curvature="0" />
      <path
         id="path4658"
         d="M 51.093895,-19.10847 H 230.13256 v 4.959963 H 51.093895 Z"
         style="fill:#2c3e50;fill-opacity:1;fill-rule:nonzero;stroke:none"
         inkscape:connector-curvature="0" />
      <path
         id="path4660"
         d="m 61.093821,-20.148463 h 7.039948 v 7.039948 h -7.039948 z"
         style="fill:#ecf0f1;fill-opacity:1;fill-rule:nonzero;stroke:none"
         inkscape:connector-curvature="0" />
    </g>
  </g>
  <path
     style="fill:#b0afad"
     inkscape:connector-curvature="0"
     id="path6176"
     d="m 168.92318,146.20927 h -13.73 a 1.17,1.17 0 0 1 -1.17,-1.17 v -4.66 a 1.35,1.35 0 0 1 1.17,-1.36 h 13.73 a 1.35,1.35 0 0 1 1.17,1.36 v 4.66 a 1.17,1.17 0 0 1 -1.17,1.17 z"
     class="cls-6" />
  <rect
     style="fill:#b0afad"
     id="rect6184"
     ry="1.17"
     rx="1.17"
     height="7.1900001"
     width="19.68"
     y="160.55077"
     x="175.66135"
     class="cls-6" />
  <rect
     style="fill:#b0afad"
     id="rect6190"
     ry="1.17"
     rx="1.17"
     height="7.1900001"
     width="9.9399996"
     y="128.2543"
     x="166.07703"
     class="cls-6" />
  <rect
     style="fill:#b0afad"
     id="rect6194"
     ry="1.17"
     rx="1.17"
     height="7.1900001"
     width="39.68"
     y="149.63585"
     x="188.96678"
     class="cls-6" />
  <rect
     style="fill:#b0afad"
     id="rect6196"
     ry="1.17"
     rx="1.17"
     height="7.1900001"
     width="8.9200001"
     y="128.2543"
     x="154.02299"
     class="cls-6" />
  <rect
     style="fill:#b0afad"
     id="rect6198"
     ry="1.17"
     rx="1.17"
     height="7.1900001"
     width="13.95"
     y="128.2543"
     x="179.25299"
     class="cls-6" />
  <rect
     style="fill:#b0afad"
     id="rect6200"
     ry="1.17"
     rx="1.17"
     height="7.1900001"
     width="24.200001"
     y="128.2543"
     x="196.51691"
     class="cls-6" />
  <rect
     style="fill:#b0afad"
     id="rect6202"
     ry="1.17"
     rx="1.17"
     height="7.1900001"
     width="14.02"
     y="128.2543"
     x="223.65057"
     class="cls-6" />
  <rect
     style="fill:#b0afad"
     id="rect6206"
     ry="1.17"
     rx="1.17"
     height="7.1900001"
     width="23.709999"
     y="149.78432"
     x="154.02299"
     class="cls-6" />
  <rect
     style="fill:#b0afad"
     id="rect6208"
     ry="1.17"
     rx="1.17"
     height="7.1900001"
     width="5.0700002"
     y="149.78432"
     x="181.08299"
     class="cls-6" />
  <rect
     style="fill:#b0afad"
     id="rect6194-9"
     ry="1.17"
     rx="1.17"
     height="7.1900001"
     width="39.68"
     y="139.0193"
     x="172.89708"
     class="cls-6" />
  <rect
     style="fill:#b0afad"
     id="rect6208-5"
     ry="1.17"
     rx="1.17"
     height="7.1900001"
     width="5.0700002"
     y="160.55077"
     x="154.02299"
     class="cls-6" />
  <rect
     style="fill:#b0afad"
     id="rect6190-7"
     ry="1.17"
     rx="1.17"
     height="7.1900001"
     width="9.9399996"
     y="160.55077"
     x="162.10922"
     class="cls-6" />
  <rect
     style="fill:#b0afad"
     id="rect6208-1"
     ry="1.17"
     rx="1.17"
     height="7.1900001"
     width="5.0700002"
     y="160.55077"
     x="198.68739"
     class="cls-6" />
</svg>
