<svg xmlns="http://www.w3.org/2000/svg" viewBox="0 0 400 225">
  <defs>
    <style>
      .cls-1 {
        isolation: isolate;
      }

      .cls-2 {
        fill: #e66d7e;
      }

      .cls-3 {
        fill: #62a6ef;
      }

      .cls-4 {
        fill: #23c596;
      }

      .cls-5 {
        fill: #f7cf5c;
      }

      .cls-6 {
        fill: #3d6084;
      }

      .cls-7 {
        opacity: 0.1;
        mix-blend-mode: multiply;
      }

      .cls-8 {
        fill: none;
      }
    </style>
  </defs>
  <title>chart</title>
  <g class="cls-1">
    <g id="Layer_2" data-name="Layer 2">
      <g id="chart">
        <g>
          <g>
            <rect class="cls-2" x="215.64" y="95.81" width="22" height="82.31"/>
            <rect class="cls-3" x="182.19" y="110.3" width="22" height="67.82"/>
            <rect class="cls-4" x="282.55" y="110.3" width="22" height="67.82"/>
            <rect class="cls-5" x="249.1" y="71.66" width="22" height="106.46"/>
            <polygon class="cls-6" points="174 185.5 174 70.5 165 70.5 165 194.5 173.6 194.5 305 194.5 305 185.5 174 185.5"/>
          </g>
          <g>
            <g class="cls-7">
              <path d="M165.39,93.81V34.94a59,59,0,0,1,41.54,17.32h0Z"/>
              <path d="M165.39,34.94V93.81l-.29.29-41.83,41.83h0a59.17,59.17,0,0,1,41.84-101Z"/>
              <path d="M165.39,93.81l41.53-41.54h0a59.2,59.2,0,0,1,0,83.68h0L165.1,94.09Z"/>
              <path d="M206.93,135.93a59.19,59.19,0,0,1-83.67,0h0L165.1,94.09l41.82,41.83Z"/>
            </g>
            <g>
              <path class="cls-5" d="M162.64,91.06V32.19a59,59,0,0,1,41.54,17.32h0Z"/>
              <path class="cls-3" d="M162.64,32.19V91.06l-.29.29-41.83,41.83h0a59.17,59.17,0,0,1,41.84-101Z"/>
              <path class="cls-4" d="M162.64,91.06l41.53-41.54h0a59.2,59.2,0,0,1,0,83.68h0L162.35,91.34Z"/>
              <path class="cls-2" d="M204.18,133.18a59.19,59.19,0,0,1-83.67,0h0l41.83-41.83,41.82,41.83Z"/>
            </g>
          </g>
        </g>
        <rect class="cls-8" width="400" height="225"/>
      </g>
    </g>
  </g>
</svg>
