<?xml version="1.0" encoding="utf-8"?>
<!-- Generator: Adobe Illustrator 20.1.0, SVG Export Plug-In . SVG Version: 6.00 Build 0)  -->
<svg version="1.1" id="Layer_1" xmlns="http://www.w3.org/2000/svg" xmlns:xlink="http://www.w3.org/1999/xlink" x="0px" y="0px"
	 viewBox="0 0 400 225" style="enable-background:new 0 0 400 225;" xml:space="preserve">
<style type="text/css">
	.st0{clip-path:url(#SVGID_2_);fill:#DEDEDE;}
	.st1{opacity:0.2;clip-path:url(#SVGID_2_);}
	.st2{fill:#C1C1BC;}
	.st3{fill:#9B9B9B;}
	.st4{clip-path:url(#SVGID_2_);}
	.st5{fill:#E9EAE0;}
	.st6{fill:#FFFFFF;}
	.st7{fill:#080808;}
	.st8{fill:#C88F6A;}
	.st9{fill:#DCA283;}
	.st10{fill:#7B4A32;}
	.st11{fill:#A0BBE1;}
	.st12{fill:#59595B;}
	.st13{fill:#8BC97B;}
	.st14{opacity:0.2;clip-path:url(#SVGID_2_);enable-background:new    ;}
	.st15{fill:#010101;}
	.st16{clip-path:url(#SVGID_2_);fill:#FFFFFF;}
	.st17{clip-path:url(#SVGID_2_);fill:#A0BBE1;}
	.st18{fill:#E64F3E;}
	.st19{fill:#C12E3C;}
</style>
<title>interactive video</title>
<g>
	<defs>
		<rect id="SVGID_1_" width="400" height="225"/>
	</defs>
	<clipPath id="SVGID_2_">
		<use xlink:href="#SVGID_1_"  style="overflow:visible;"/>
	</clipPath>
	<path class="st0" d="M177.6,30.2h-50.2c-9.6,0-17.5,7.8-17.5,17.5V91c0,9.6,7.8,17.5,17.5,17.5h50.2c9.5,0,17.5-8,17.5-17.5V47.6
		C195,38,187.2,30.2,177.6,30.2z M189.6,91c0,6.5-5.5,12-12,12h-50.2c-6.6,0-12-5.4-12-12V47.6c0-6.6,5.4-12,12-12h50.2
		c6.6,0,12,5.4,12,12V91z"/>
	<g class="st1">
		<g>
			<path class="st2" d="M162.7,58.5c-2.7-0.7-6-0.1-9.1,1.4c-3.1-1.6-6.8-2.2-10-1.6c-6.7,1.1-11.3,5.7-9.9,13.9s8.2,17.9,15,17.1
				c1.4-0.2,2.7-0.5,3.9-1c1,0.4,2,0.7,3.1,0.9c6.7,1.3,13.3-8.2,15.2-16.3C172.8,64.7,169.3,60.1,162.7,58.5z"/>
		</g>
		<g>
			<ellipse class="st3" cx="152.5" cy="64.6" rx="4.5" ry="2.5"/>
		</g>
		<g>
			<path class="st3" d="M151.2,64.6c0,0,0-0.1,0-0.2c0-0.2,0-0.3,0-0.7c0-0.3,0-0.7,0-1c0-0.4,0.1-0.8,0.1-1.3
				c0.2-1.9,0.8-4.5,2-6.9c0.6-1.2,1.4-2.3,2.2-3.3c0.9-1,1.9-1.8,2.9-2.4c0.5-0.3,1-0.5,1.5-0.7c0.2-0.1,0.4-0.2,0.7-0.2
				c0.2-0.1,0.4-0.1,0.6-0.1c0.4-0.1,0.7-0.1,0.8-0.1c0.2,0,0.3,0,0.3,0v4.7h-0.1c-0.1,0-0.2,0-0.4,0c-0.1,0-0.2,0-0.3,0
				s-0.2,0-0.3,0.1c-0.2,0.1-0.5,0.1-0.8,0.2c-0.6,0.2-1.3,0.7-2,1.3s-1.4,1.4-2,2.3c-0.6,0.9-1.1,1.9-1.5,2.8
				c-0.2,0.5-0.4,1-0.5,1.4c-0.2,0.4-0.3,0.9-0.4,1.3c-0.1,0.4-0.2,0.8-0.2,1.1c-0.1,0.3-0.1,0.6-0.1,0.9c-0.1,0.2-0.1,0.4-0.1,0.6
				c0,0.2,0,0.2,0,0.2H151.2z"/>
		</g>
		<g>
			<path class="st2" d="M149.8,46c3.2,3.1,2.8,9.7,2.8,9.7s-6.1-0.1-9.2-3.2c-3.1-3.1-2.5-8.8-2.5-8.8S146.7,42.9,149.8,46z"/>
		</g>
	</g>
	<path class="st0" d="M272.8,30.2h-50.2c-9.6,0-17.5,7.8-17.5,17.5V91c0,9.6,7.8,17.5,17.5,17.5h50.2c9.5,0,17.5-8,17.5-17.5V47.6
		C290.3,38,282.5,30.2,272.8,30.2z M284.8,91c0,6.5-5.5,12-12,12h-50.2c-6.6,0-12-5.4-12-12V47.6c0-6.6,5.4-12,12-12h50.2
		c6.6,0,12,5.4,12,12V91z"/>
	<g class="st4">
		<g>
			<path class="st2" d="M226.6,50.5c5.7-4.9,12.9,3.6,13,7.7c0.1,4.5-10.8,15.1-10.8,15.1S218,57.9,226.6,50.5z"/>
		</g>
		<g>
			<path class="st2" d="M267.2,50.5c-5.7-4.9-12.9,3.6-13,7.7c-0.1,4.5,10.8,15.1,10.8,15.1S275.8,57.9,267.2,50.5z"/>
		</g>
		<g>
			<path class="st5" d="M267.4,70.9c0,12.3-9.1,18.4-20.3,18.4s-20.3-9.1-20.3-18.4c0-10.2,9.1-18.4,20.3-18.4
				C258.3,52.4,267.4,60.7,267.4,70.9z"/>
		</g>
		<g>
			<path class="st6" d="M263.2,70.1c-0.8,4-6.7,3.4-11.1,2.5s-5.1-4.9-4.3-8.9s2.2-7.5,6.5-6.6S263.9,66.1,263.2,70.1z"/>
		</g>
		<g>
			<path class="st6" d="M231.2,70.1c0.8,4,6.7,3.4,11.1,2.5c4.4-0.9,5.1-4.9,4.3-8.9s-2.2-7.5-6.5-6.6
				C235.7,58,230.4,66.1,231.2,70.1z"/>
		</g>
		<g>
			<path class="st7" d="M250.7,81.4c-1.4,1.4-1.6,2.8-3.7,2.8s-2.1-1.2-3.7-2.8c-1.1-1.1,1.6-2.8,3.7-2.8S251.8,80.3,250.7,81.4z"/>
		</g>
		<g>
			<ellipse class="st7" cx="239.9" cy="65.6" rx="2.8" ry="3.5"/>
		</g>
		<g>
			<ellipse class="st7" cx="254.2" cy="65.6" rx="2.8" ry="3.5"/>
		</g>
		<g>
			<ellipse class="st6" cx="240.6" cy="64" rx="1.1" ry="1.3"/>
		</g>
		<g>
			<ellipse class="st6" cx="255.3" cy="63.8" rx="1.1" ry="1.3"/>
		</g>
	</g>
	<path class="st0" d="M177.6,116h-50.2c-9.6,0-17.5,7.8-17.5,17.5v43.4c0,9.6,7.8,17.5,17.5,17.5h50.2c9.5,0,17.5-8,17.5-17.5v-43.4
		C195,123.9,187.2,116,177.6,116z M189.6,176.9c0,6.5-5.5,12-12,12h-50.2c-6.6,0-12-5.4-12-12v-43.4c0-6.6,5.4-12,12-12h50.2
		c6.6,0,12,5.4,12,12V176.9z"/>
	<g class="st4">
		<g>
			<path class="st8" d="M172.9,154.4c-8.1,8.1-8.9,18-19.9,18s-12.4-10.5-19.9-18c-7-7,8.9-18,19.9-18S179.9,147.3,172.9,154.4z"/>
		</g>
		<g>
			<ellipse class="st9" cx="147.1" cy="149.7" rx="6.3" ry="7.9"/>
		</g>
		<g>
			<ellipse class="st9" cx="159.2" cy="150.1" rx="5.9" ry="7.5"/>
		</g>
		<g>
			<path class="st7" d="M157,165.6c-1.5,1.5-1.7,3-3.9,3s-2.3-1.3-3.9-3c-1.1-1.1,1.7-3,3.9-3C155.2,162.6,158.1,164.4,157,165.6z"
				/>
		</g>
		<g>
			<ellipse class="st6" cx="146.2" cy="149.7" rx="3.7" ry="4.6"/>
		</g>
		<g>
			<ellipse class="st7" cx="145.8" cy="150.9" rx="2.7" ry="3.4"/>
		</g>
		<g>
			<ellipse class="st6" cx="144.5" cy="152.6" rx="0.9" ry="1"/>
		</g>
		<g>
			<ellipse class="st6" cx="159.9" cy="149.7" rx="3.7" ry="4.6"/>
		</g>
		<g>
			<ellipse class="st7" cx="159.5" cy="150.9" rx="2.7" ry="3.4"/>
		</g>
		<g>
			<ellipse class="st6" cx="158.3" cy="152.6" rx="0.9" ry="1"/>
		</g>
		<g>
			<path class="st10" d="M171.8,164c3.7,0.8,7.7-11.6,6.4-15.9c-1.4-4.6-14.6-9.1-14.6-9.1S166.3,162.8,171.8,164z"/>
		</g>
		<g>
			<path class="st10" d="M134.3,164c-3.7,0.8-7.7-11.6-6.4-15.9c1.4-4.6,14.6-9.1,14.6-9.1S139.7,162.8,134.3,164z"/>
		</g>
	</g>
	<g class="st4">
		<g>
			<path class="st6" d="M222.6,193.3c-8.1,0-14.7-6.6-14.7-14.7v-43.4c0-8.1,6.6-14.7,14.7-14.7h50.2c8.1,0,14.7,6.6,14.7,14.7v43.4
				c0,8-6.8,14.7-14.7,14.7H222.6z"/>
		</g>
		<g>
			<path class="st11" d="M272.8,120.4h-4.4v5.5h4.4V120.4L272.8,120.4L272.8,120.4z M264.1,120.4h-4.4v5.5h4.4V120.4L264.1,120.4z
				 M255.4,120.4H251v5.5h4.4V120.4L255.4,120.4z M246.6,120.4h-4.4v5.5h4.4V120.4L246.6,120.4z M237.9,120.4h-4.4v5.5h4.4V120.4
				L237.9,120.4z M229.2,120.4h-4.4v5.5h4.4V120.4L229.2,120.4z M220.5,120.6c-1.5,0.2-2.9,0.7-4.1,1.3l2.3,4.9
				c0.8-0.4,1.7-0.7,2.6-0.8L220.5,120.6L220.5,120.6z M212.7,124.3c-1.1,1-2,2.1-2.7,3.4l4.7,2.8c0.5-0.8,1-1.5,1.7-2.1
				L212.7,124.3L212.7,124.3z M208.4,131.7c-0.1,0.5-0.2,1.1-0.3,1.7l0,0v0.1l0,0l0,0l0,0l0,0l0,0l0,0l0,0c0,0,0,0,0,0.1l0,0l0,0
				l0,0l0,0l0,0l0,0l0,0l0,0l0,0c0,0,0,0,0,0.1l0,0l0,0l0,0l0,0l0,0l0,0l0,0l0,0l0,0l0,0l0,0l0,0l0,0l0,0l0,0l0,0l0,0l0,0l0,0
				c0,0,0,0,0,0.1l0,0l0,0l0,0l0,0l0,0l0,0l0,0l0,0l0,0c0,0,0,0,0,0.1l0,0l0,0l0,0l0,0l0,0l0,0l0,0l0,0l0,0l0,0l0,0l0,0l0,0l0,0l0,0
				l0,0l0,0l0,0l0,0l0,0l0,0l0,0l0,0l0,0l0,0l0,0l0,0l0,0l0,0l0,0l0,0l0,0l0,0l0,0l0,0l0,0l0,0l0,0l0,0l0,0l0,0l0,0l0,0l0,0l0,0l0,0
				l0,0l0,0l0,0l0,0l0,0l0,0l0,0l0,0l0,0l0,0l0,0l0,0l0,0l0,0l0,0l0,0l0,0l0,0l0,0l0,0l0,0l0,0l0,0l0,0l0,0l0,0l0,0l0,0l0,0l0,0l0,0
				l0,0l0,0l0,0l0,0l0,0l0,0l0,0l0,0l0,0l0,0l0,0l0,0l0,0l0,0l0,0l0,0l0,0l0,0l0,0l0,0l0,0l0,0l0,0l0,0l0,0l0,0l0,0l0,0l0,0l0,0l0,0
				l0,0l0,0l0,0l0,0l0,0l0,0l0,0l0,0l0,0l0,0l0,0l0,0l0,0l0,0l0,0l0,0l0,0l0,0l0,0l0,0l0,0l0,0l0,0l0,0l0,0l0,0l0,0l0,0l0,0l0,0l0,0
				l0,0l0,0l0,0l0,0l0,0l0,0l0,0l0,0l0,0l0,0l0,0l0,0l0,0l0,0l0,0l0,0l0,0l0,0l0,0l0,0l0,0l0,0l0,0l0,0l0,0l0,0l0,0l0,0l0,0l0,0l0,0
				l0,0l0,0l0,0l0,0l0,0l0,0l0,0l0,0l0,0l0,0l0,0l0,0l0,0l0,0l0,0l0,0l0,0l0,0l0,0l0,0l0,0l0,0l0,0l0,0v0.9h5.5v-0.9
				c0-0.8,0.1-1.5,0.3-2.2L208.4,131.7L208.4,131.7z M213.4,140.4h-5.5v4.4h5.5V140.4L213.4,140.4z M213.4,149.1h-5.5v4.4h5.5V149.1
				L213.4,149.1z M213.4,157.9h-5.5v4.4h5.5V157.9L213.4,157.9z M213.4,166.6h-5.5v4.4h5.5V166.6L213.4,166.6z M213.4,175.3h-5.5
				v3.3l0,0l0,0l0,0l0,0l0,0l0,0l0,0l0,0l0,0l0,0l0,0l0,0l0,0l0,0l0,0l0,0l0,0l0,0l0,0l0,0l0,0l0,0l0,0l0,0l0,0l0,0l0,0l0,0l0,0l0,0
				l0,0l0,0l0,0l0,0l0,0l0,0l0,0l0,0l0,0c0,0,0,0,0,0.1l0,0c0,0,0,0,0,0.1l0,0c0,0.1,0,0.1,0,0.1l0,0c0,0.1,0,0.1,0,0.1l0,0
				c0,0,0,0,0,0.1l0,0c0,0,0,0,0,0.1l0,0l0,0l0,0l0,0l0,0l0,0l0,0l0,0l0,0l0,0l0,0l0,0l0,0l0,0l0,0l0,0c0,0,0,0,0,0.1l0,0
				c0,0.1,0,0.2,0,0.3l5.5-0.4c0-0.2,0-0.4,0-0.7V175.3L213.4,175.3z M214,181.9l-5.1,2c0,0.1,0.1,0.2,0.1,0.2l0,0c0,0,0,0,0,0.1
				l0,0c0,0,0,0,0,0.1l0,0c0,0,0,0,0,0.1l0,0c0,0,0,0,0,0.1l0,0l0,0l0,0l0,0l0,0l0,0l0,0c0,0,0,0,0,0.1l0,0c0,0,0,0,0,0.1l0,0
				c0,0,0,0,0,0.1l0,0c0,0,0,0,0,0.1l0,0l0,0l0,0l0,0l0,0l0,0l0,0l0,0l0,0l0,0l0,0l0,0l0,0l0,0l0,0l0,0l0,0l0,0l0,0l0,0l0,0l0,0l0,0
				l0,0l0,0l0,0l0,0c0,0,0,0,0,0.1l0,0l0,0l0,0l0,0l0,0l0,0l0,0l0,0l0,0l0,0l0,0l0,0l0,0l0,0l0,0l0,0l0,0l0,0l0,0l0,0l0,0l0,0l0,0
				l0,0l0,0l0,0l0,0c0,0,0,0,0,0.1l0,0l0,0l0,0l0,0l0,0l0,0l0,0l0,0l0,0l0,0l0,0l0,0l0,0l0,0l0,0l0,0l0,0l0,0l0,0l0,0l0,0l0,0l0,0
				l0,0l0,0l0,0l0,0c0,0,0,0,0,0.1l0,0c0,0,0,0,0,0.1l0,0l0,0l0,0l0,0l0,0l0,0l0,0l0,0l0,0l0,0l0,0l0,0l0,0l0,0l0,0l0,0l0,0l0,0l0,0
				c0,0,0,0,0,0.1l0,0c0,0,0,0,0,0.1l0,0c0,0,0,0,0,0.1l0,0c0,0,0,0,0,0.1l0,0c0,0,0,0,0,0.1l0,0c0,0,0,0,0,0.1l0,0c0,0,0,0,0,0.1
				l0,0l0,0l0,0c0,0,0,0,0,0.1l0,0c0,0.1,0.1,0.1,0.1,0.1l0,0c0,0,0,0,0,0.1l0,0c0,0.1,0.1,0.1,0.1,0.1l0,0c0,0,0,0,0,0.1l0,0
				c0,0,0,0,0,0.1l0,0c0,0,0,0,0,0.1l0,0c0,0,0,0,0,0.1l0,0c0.2,0.3,0.3,0.5,0.5,0.8l0,0c0,0,0,0,0,0.1l0,0c0,0,0,0,0,0.1l0,0
				c0,0,0,0,0,0.1l0,0c0,0,0,0,0,0.1l0,0l0,0l0,0l0,0l0,0l0,0l0,0l0,0l0,0l0,0l0,0l0,0l0,0l0,0l0,0l0,0l0,0l0,0l0,0l0,0l0,0l0,0l0,0
				l0,0l0,0l0,0l0,0l0,0l0,0l0,0l0,0l0,0l0,0l0,0l0,0l0,0l0,0l0,0l0,0l0,0l0,0l0,0l0,0l0,0l0,0l0,0l0,0l0,0l0,0l0,0l0,0l0,0l0,0l0,0
				l0,0l0,0l0,0l0,0l0,0l0,0l0,0l0,0l0,0l0,0c0.1,0.1,0.2,0.2,0.3,0.4l4.3-3.4C214.8,183.6,214.4,182.8,214,181.9L214,181.9z
				 M217.4,186.2l-3.1,4.5c1.2,0.8,2.5,1.5,3.9,1.9l1.7-5.2C218.9,187.2,218.1,186.7,217.4,186.2L217.4,186.2z M222.5,187.9
				l-0.1,5.5c0.1,0,0.1,0,0.1,0l0,0l0,0l0,0l0,0l0,0l0,0l0,0l0,0l0,0l0,0l0,0l0,0l0,0l0,0l0,0l0,0l0,0h4.1v-5.5H222.5L222.5,187.9
				L222.5,187.9z M235.5,187.9h-4.4v5.5h4.4V187.9L235.5,187.9z M244.2,187.9h-4.4v5.5h4.4V187.9L244.2,187.9z M253,187.9h-4.4v5.5
				h4.4V187.9L253,187.9z M261.7,187.9h-4.4v5.5h4.4V187.9L261.7,187.9z M270.4,187.9H266v5.5h4.4V187.9L270.4,187.9z M276.7,187
				c-0.8,0.4-1.7,0.7-2.6,0.8l0.8,5.4l0,0l0,0l0,0l0,0l0,0l0,0l0,0l0,0l0,0l0,0l0,0l0,0l0,0l0,0l0,0l0,0l0,0l0,0l0,0l0,0l0,0l0,0
				l0,0l0,0l0,0l0,0l0,0l0,0l0,0c0,0,0,0,0.1,0l0,0c0,0,0,0,0.1,0l0,0c0,0,0,0,0.1,0l0,0c0,0,0,0,0.1,0l0,0c0,0,0,0,0.1,0l0,0
				c0.5-0.1,1.1-0.2,1.7-0.4l0,0c0,0,0,0,0.1,0l0,0c0,0,0,0,0.1,0l0,0c0,0,0,0,0.1,0l0,0c0,0,0,0,0.1,0l0,0c0,0,0,0,0.1,0l0,0
				c0,0,0,0,0.1,0l0,0c0,0,0,0,0.1,0l0,0c0,0,0,0,0.1,0l0,0c0,0,0,0,0.1,0l0,0l0,0l0,0l0,0l0,0l0,0l0,0l0,0l0,0l0,0l0,0l0,0l0,0l0,0
				l0,0l0,0l0,0l0,0l0,0l0,0l0,0l0,0l0,0l0,0l0,0l0,0l0,0l0,0l0,0l0,0l0,0l0,0l0,0l0,0l0,0l0,0l0,0l0,0l0,0l0,0l0,0l0,0l0,0l0,0l0,0
				l0,0l0,0l0,0l0,0l0,0l0,0l0,0l0,0l0,0l0,0l0,0l0,0l0,0l0,0l0,0l0,0l0,0l0,0l0,0l0,0l0,0l0,0l0,0l0,0l0,0l0,0l0,0l0,0l0,0l0,0l0,0
				l0,0l0,0l0,0l0,0l0,0l0,0l0,0l0,0l0,0l0,0l0,0l0,0l0,0l0,0l0,0l0,0l0,0l0,0l0,0l0,0l0,0l0,0c0,0,0,0,0.1,0l0,0c0,0,0,0,0.1,0l0,0
				l0,0l0,0l0,0l0,0c0,0,0,0,0.1,0l0,0c0,0,0,0,0.1,0l0,0c0,0,0,0,0.1,0l0,0c0,0,0,0,0.1,0l0,0c0,0,0,0,0.1,0l0,0c0,0,0,0,0.1,0l0,0
				c0,0,0,0,0.1,0l0,0c0,0,0,0,0.1,0l0,0l0,0l0,0l0,0l0,0c0,0,0,0,0.1,0l0,0c0,0,0,0,0.1,0l0,0c0,0,0,0,0.1,0l0,0l0,0l0,0l0,0l0,0
				c0,0,0,0,0.1,0l0,0c0.1,0,0.1,0,0.1-0.1l0,0c0.1,0,0.1-0.1,0.1-0.1l0,0c0.1-0.1,0.2-0.1,0.3-0.1L276.7,187L276.7,187z
				 M280.7,183.3c-0.5,0.8-1.1,1.5-1.8,2.1l3.7,4.1c0.9-0.8,1.6-1.6,2.3-2.6l0,0l0,0l0,0l0,0l0,0l0,0l0,0l0,0l0,0l0,0l0,0l0,0l0,0
				l0,0l0,0l0,0l0,0l0,0l0,0l0,0l0,0l0,0l0,0l0,0l0,0l0,0l0,0l0,0l0,0l0,0l0,0l0,0l0,0l0,0l0,0l0,0l0,0l0,0l0,0l0,0l0,0l0,0l0,0l0,0
				l0,0l0,0l0,0l0,0c0.1-0.1,0.2-0.3,0.2-0.4L280.7,183.3L280.7,183.3z M287.6,177.9h-5.5v0.7c0,0.8-0.1,1.5-0.3,2.2l5.3,1.4
				c0.1-0.2,0.1-0.3,0.1-0.5l0,0l0,0l0,0c0,0,0,0,0-0.1l0,0l0,0l0,0l0,0l0,0c0,0,0,0,0-0.1l0,0l0,0l0,0l0,0l0,0l0,0l0,0l0,0l0,0l0,0
				l0,0l0,0l0,0l0,0l0,0l0,0l0,0l0,0l0,0l0,0l0,0l0,0l0,0l0,0l0,0l0,0l0,0l0,0l0,0l0,0l0,0l0,0l0,0l0,0l0,0l0,0l0,0l0,0l0,0l0,0l0,0
				l0,0l0,0l0,0l0,0l0,0l0,0l0,0l0,0l0,0l0,0l0,0l0,0l0,0l0,0l0,0l0,0l0,0l0,0l0,0v-0.1l0,0l0,0l0,0v-0.1l0,0l0,0l0,0v-0.1l0,0l0,0
				l0,0v-0.1l0,0l0,0l0,0V181l0,0c0.1-0.3,0.1-0.6,0.1-0.9l0,0c0-0.1,0-0.1,0-0.1l0,0l0,0l0,0v-0.1l0,0l0,0l0,0v-0.1l0,0l0,0l0,0
				v-0.1l0,0l0,0l0,0v-0.1l0,0l0,0l0,0l0,0l0,0c0,0,0,0,0-0.1l0,0l0,0l0,0l0,0l0,0c0,0,0,0,0-0.1l0,0l0,0l0,0l0,0l0,0c0,0,0,0,0-0.1
				l0,0l0,0l0,0l0,0l0,0c0,0,0,0,0-0.1l0,0l0,0l0,0l0,0l0,0c0,0,0,0,0-0.1l0,0l0,0l0,0l0,0l0,0c0,0,0,0,0-0.1l0,0l0,0l0,0l0,0l0,0
				l0,0l0,0l0,0l0,0l0,0l0,0l0,0l0,0l0,0l0,0l0,0l0,0l0,0l0,0l0,0l0,0l0,0l0,0l0,0l0,0l0,0l0,0l0,0l0,0l0,0l0,0l0,0l0,0l0,0l0,0l0,0
				l0,0l0,0l0,0l0,0l0,0l0,0l0,0l0,0l0,0l0,0l0,0l0,0l0,0l0,0l0,0l0,0l0,0l0,0l0,0l0,0l0,0l0,0l0,0l0,0l0,0l0,0l0,0l0,0l0,0l0,0l0,0
				l0,0l0,0l0,0l0,0l0,0l0,0l0,0l0,0l0,0l0,0l0,0l0,0l0,0l0,0l0,0l0,0l0,0l0,0l0,0l0,0l0,0l0,0l0,0l0,0l0,0l0,0l0,0v-1.9h0.3V177.9z
				 M287.6,169.2h-5.5v4.4h5.5V169.2L287.6,169.2z M287.6,160.4h-5.5v4.4h5.5V160.4L287.6,160.4z M287.6,151.7h-5.5v4.4h5.5V151.7
				L287.6,151.7z M287.6,143h-5.5v4.4h5.5V143L287.6,143z M287.6,134.2l-5.5,0.3c0,0.2,0,0.4,0,0.6v3.4h5.5v-3.4l0,0l0,0l0,0l0,0
				l0,0l0,0l0,0l0,0l0,0l0,0l0,0l0,0l0,0l0,0l0,0l0,0l0,0l0,0l0,0l0,0l0,0l0,0l0,0l0,0l0,0l0,0l0,0l0,0l0,0l0,0l0,0l0,0l0,0
				c0,0,0,0,0-0.1l0,0l0,0l0,0l0,0l0,0l0,0l0,0c0,0,0,0,0-0.1l0,0l0,0l0,0c0-0.1,0-0.2,0-0.3l0,0v-0.1l0,0l0,0l0,0l0,0l0,0
				c0,0,0,0,0-0.1l0,0l0,0l0,0l0,0l0,0l0,0l0,0l0,0l0,0l0,0l0,0l0,0l0,0l0,0l0,0l0,0C287.6,134.3,287.6,134.3,287.6,134.2
				L287.6,134.2z M284.5,126.2l-4.3,3.3c0.5,0.7,1,1.5,1.3,2.4l5.1-1.9c-0.1-0.3-0.2-0.6-0.4-0.9l0,0c0,0,0,0,0-0.1l0,0
				c0,0,0,0,0-0.1l0,0c0,0,0,0,0-0.1l0,0l0,0l0,0l0,0l0,0l0,0l0,0l0,0l0,0l0,0l0,0l0,0l0,0l0,0l0,0l0,0l0,0l0,0l0,0l0,0l0,0l0,0l0,0
				l0,0l0,0l0,0l0,0l0,0l0,0l0,0l0,0l0,0l0,0l0,0l0,0l0,0l0,0l0,0l0,0l0,0l0,0l0,0l0,0l0,0l0,0l0,0l0,0l0,0l0,0l0,0l0,0l0,0l0,0l0,0
				l0,0l0,0l0,0l0,0l0,0l0,0c0,0,0,0,0-0.1l0,0c0,0,0-0.1-0.1-0.1l0,0C285.5,127.6,285.1,126.9,284.5,126.2L284.5,126.2z
				 M277.5,121.2l-1.7,5.2c0.9,0.3,1.7,0.7,2.5,1.3l3.2-4.4l0,0l0,0l0,0l0,0l0,0l0,0l0,0l0,0l0,0l0,0l0,0c-0.5-0.4-1.1-0.7-1.7-1
				l0,0c0,0-0.1,0-0.1-0.1l0,0c0,0,0,0-0.1,0l0,0c0,0,0,0-0.1,0l0,0c0,0,0,0-0.1,0l0,0c0,0,0,0-0.1,0l0,0c0,0,0,0-0.1,0l0,0l0,0l0,0
				l0,0l0,0l0,0l0,0l0,0l0,0l0,0l0,0l0,0l0,0l0,0l0,0l0,0l0,0l0,0l0,0l0,0l0,0l0,0l0,0l0,0l0,0l0,0l0,0l0,0l0,0l0,0l0,0l0,0l0,0l0,0
				l0,0l0,0l0,0l0,0l0,0l0,0l0,0l0,0l0,0l0,0l0,0l0,0l0,0l0,0l0,0l0,0l0,0l0,0l0,0l0,0l0,0l0,0l0,0l0,0l0,0l0,0l0,0l0,0l0,0l0,0l0,0
				l0,0l0,0l0,0l0,0l0,0l0,0l0,0l0,0l0,0l0,0l0,0c0,0,0,0-0.1,0l0,0c0,0,0,0-0.1,0l0,0c0,0,0,0-0.1,0l0,0c0,0,0,0-0.1,0l0,0
				c0,0,0,0-0.1,0l0,0C278.3,121.5,277.9,121.3,277.5,121.2L277.5,121.2z M272.8,120.4v5.5c0.1,0,0.2,0,0.3,0l0.2-5.5h-0.1l0,0l0,0
				l0,0l0,0l0,0l0,0l0,0l0,0l0,0l0,0l0,0l0,0l0,0l0,0l0,0l0,0l0,0l0,0l0,0l0,0l0,0l0,0l0,0l0,0l0,0l0,0l0,0l0,0l0,0l0,0l0,0l0,0l0,0
				l0,0l0,0l0,0l0,0l0,0l0,0l0,0l0,0l0,0l0,0l0,0l0,0l0,0C272.9,120.4,272.9,120.4,272.8,120.4C272.9,120.4,272.9,120.4,272.8,120.4
				C272.9,120.4,272.9,120.4,272.8,120.4C272.9,120.4,272.9,120.4,272.8,120.4C272.9,120.4,272.9,120.4,272.8,120.4
				C272.9,120.4,272.9,120.4,272.8,120.4C272.9,120.4,272.9,120.4,272.8,120.4L272.8,120.4L272.8,120.4L272.8,120.4L272.8,120.4z"/>
		</g>
	</g>
	<g class="st4">
		<g>
			<path class="st12" d="M245.7,151.2c0,0,0-0.1,0-0.2c0-0.1,0-0.2,0-0.5c0-0.2,0-0.5,0-0.8s0.1-0.6,0.1-1c0.2-1.4,0.6-3.3,1.5-5.1
				c0.4-0.9,1-1.7,1.6-2.5c0.7-0.7,1.4-1.4,2.1-1.7c0.4-0.2,0.8-0.4,1.1-0.5c0.2-0.1,0.3-0.1,0.5-0.2s0.3-0.1,0.4-0.1
				c0.3-0.1,0.5-0.1,0.6-0.1c0.2,0,0.2,0,0.2,0v3.4h-0.1c-0.1,0-0.2,0-0.3,0s-0.1,0-0.2,0c-0.1,0-0.2,0-0.2,0.1
				c-0.2,0.1-0.4,0.1-0.6,0.2c-0.4,0.2-1,0.5-1.5,0.9s-1,1-1.5,1.7c-0.4,0.7-0.8,1.4-1.1,2.1c-0.2,0.4-0.3,0.7-0.4,1
				c-0.1,0.3-0.2,0.7-0.3,1s-0.1,0.6-0.2,0.8c-0.1,0.3-0.1,0.4-0.1,0.7c0,0.2-0.1,0.3-0.1,0.4c0,0.1,0,0.2,0,0.2L245.7,151.2z"/>
		</g>
		<g>
			<path class="st13" d="M245.2,137.6c2.1,2.5,1.4,7.3,1.4,7.3s-4.5-0.5-6.5-3.1c-2.1-2.5-1.1-6.7-1.1-6.7S243.2,135.1,245.2,137.6z
				"/>
		</g>
		<g>
			<path class="st13" d="M259.3,164.2c-0.1-0.5-0.2-0.9-0.4-1.3c-0.1-0.2-1.1-1.8-1.9-2.8c-3.3-4.8-5.6-10.4-10.1-11.1
				c-4.5,0.8-6.8,6.3-10.1,11.1c-0.8,1-1.8,2.6-1.9,2.8c-0.2,0.4-0.3,0.8-0.4,1.3c-0.2,0.7-0.3,1.4-0.3,2.1c0,4.2,2.9,7.7,6.8,8.6
				c1.1,0.4,2.2,0.5,3.2,0.4s1.9-0.2,2.6-0.4h0.1h0.1c0.8,0.2,1.6,0.4,2.6,0.4c1,0.1,2.1-0.1,3.2-0.4c3.9-0.9,6.8-4.4,6.8-8.6
				C259.6,165.6,259.5,164.9,259.3,164.2z"/>
		</g>
	</g>
	<g class="st14">
		<path class="st15" d="M177.5,155.2c-8.1,0-14.7-6.6-14.7-14.7V97c0-8.1,6.6-14.7,14.7-14.7h50.2c8.1,0,14.7,6.6,14.7,14.7v43.4
			c0,8.1-6.6,14.7-14.7,14.7h-50.2V155.2z"/>
	</g>
	<path class="st16" d="M171.6,148.1c-8.1,0-14.7-6.6-14.7-14.7V90c0-8.1,6.6-14.7,14.7-14.7h50.2c8.1,0,14.7,6.6,14.7,14.7v43.4
		c0,8.1-6.6,14.7-14.7,14.7L171.6,148.1L171.6,148.1z"/>
	<path class="st17" d="M221.8,72.5h-50.2c-9.7,0-17.5,7.9-17.5,17.5v43.3c0,9.7,7.9,17.5,17.5,17.5h50.2c9.7,0,17.5-7.8,17.5-17.4
		V90C239.3,80.3,231.4,72.5,221.8,72.5z M233.8,133.3c0,6.6-5.4,12-12,12h-50.2c-6.6,0-12-5.4-12-12V89.9c0-6.6,5.4-12,12-12
		l50.2,0.1c6.6,0,12,5.4,12,12V133.3z"/>
	<g class="st4">
		<g>
			<path class="st18" d="M208.4,101.8c-2.7-0.7-6-0.1-9.1,1.4c-3.1-1.6-6.8-2.2-10-1.6c-6.7,1.1-11.3,5.7-9.9,13.9
				c1.4,8.2,8.2,17.9,15,17.1c1.4-0.2,2.7-0.5,3.9-1c1,0.4,2,0.7,3.1,0.9c6.7,1.3,13.3-8.2,15.2-16.3
				C218.5,108.1,215,103.4,208.4,101.8z"/>
		</g>
		<g>
			<ellipse class="st19" cx="198.1" cy="108" rx="4.5" ry="2.5"/>
		</g>
		<g>
			<path class="st12" d="M196.8,108c0,0,0-0.1,0-0.2c0-0.2,0-0.3,0-0.7c0-0.3,0-0.7,0-1c0-0.4,0.1-0.8,0.1-1.3
				c0.2-1.9,0.8-4.5,2-6.9c0.6-1.2,1.4-2.3,2.2-3.3c0.9-1,1.9-1.8,2.9-2.4c0.5-0.3,1-0.5,1.5-0.7c0.2-0.1,0.4-0.2,0.7-0.2
				c0.2-0.1,0.4-0.1,0.6-0.1c0.4-0.1,0.7-0.1,0.8-0.1c0.2,0,0.3,0,0.3,0v4.7h-0.1c-0.1,0-0.2,0-0.4,0c-0.1,0-0.2,0-0.3,0
				s-0.2,0-0.3,0.1c-0.2,0.1-0.5,0.1-0.8,0.2c-0.6,0.2-1.3,0.7-2,1.3c-0.7,0.6-1.4,1.4-2,2.3s-1.1,1.9-1.5,2.8
				c-0.2,0.5-0.4,1-0.5,1.4c-0.2,0.4-0.3,0.9-0.4,1.3c-0.1,0.4-0.2,0.8-0.2,1.1c-0.1,0.3-0.1,0.6-0.1,0.9c-0.1,0.2-0.1,0.4-0.1,0.6
				s0,0.2,0,0.2L196.8,108z"/>
		</g>
		<g>
			<path class="st13" d="M195.5,89.4c3.2,3.1,2.8,9.7,2.8,9.7s-6.1-0.1-9.2-3.2c-3.1-3.1-2.5-8.8-2.5-8.8S192.3,86.2,195.5,89.4z"/>
		</g>
	</g>
</g>
</svg>
