<?xml version="1.0" encoding="utf-8"?>
<!-- Generator: Adobe Illustrator 20.1.0, SVG Export Plug-In . SVG Version: 6.00 Build 0)  -->
<svg version="1.1" id="Layer_1" xmlns="http://www.w3.org/2000/svg" xmlns:xlink="http://www.w3.org/1999/xlink" x="0px" y="0px"
	 viewBox="0 0 400 225" style="enable-background:new 0 0 400 225;" xml:space="preserve">
<style type="text/css">
	.st0{fill:none;}
	.st1{fill:#FFFFFF;}
	.st2{fill:#647684;}
	.st3{fill:#1F2E3A;}
	.st4{fill:#61C385;}
	.st5{fill:#3497DA;}
	.st6{fill:#EA964D;}
	.st7{fill:#294159;}
	.st8{fill:#97B9F5;}
	.st9{fill:#405F84;}
</style>
<title>speak the words</title>
<g id="Layer_2">
	<g id="speak_the_words">
		<rect x="0.1" y="0" class="st0" width="400" height="225"/>
		<rect x="263.3" y="83.3" class="st1" width="24" height="11.2"/>
		<circle class="st2" cx="203.3" cy="201.5" r="3.2"/>
		<circle class="st2" cx="219.9" cy="201.5" r="3.2"/>
		<circle class="st3" cx="187.2" cy="201.5" r="3.2"/>
		<g>
			<path class="st4" d="M138.1,94.5c0.6,1.9,1.2,3.8,1.7,5.7c-0.1,0-0.1,0-0.2,0c-1.2-0.3-2.4-0.5-3.6-0.8c-1.4-0.3-2.9-0.6-4.3-1
				c-0.8-0.2-1.5-0.3-2.3-0.5c-0.1,0-0.2,0-0.3,0c-0.4,0-0.8,0.1-1.3,0.1c-0.7,0-1.4,0-2.1,0c-0.4,0-0.8-0.1-1.2-0.1
				c-0.6-0.1-1.2-0.2-1.8-0.3c-1.4-0.3-2.7-0.7-4-1.2c-2-0.9-3.9-2.1-5.5-3.6c-1.3-1.3-2.4-2.8-3.2-4.5c-0.5-1.2-0.9-2.4-1.1-3.6
				c-0.1-0.9-0.2-1.8-0.1-2.8c0.2-2.5,1-4.7,2.5-6.7c1.1-1.5,2.5-2.8,4-3.8c1.5-1,3.1-1.7,4.8-2.2c0.9-0.3,1.8-0.5,2.7-0.6
				c0.7-0.1,1.4-0.2,2.1-0.2c0.4,0,0.8,0,1.2,0c0.6,0,1.2,0,1.8,0.1c0.8,0.1,1.5,0.2,2.3,0.3c2.9,0.6,5.6,1.8,7.9,3.6
				c1.5,1.1,2.7,2.5,3.7,4.1c0.8,1.3,1.5,2.8,1.8,4.3c0.2,0.7,0.2,1.4,0.3,2.1c0,0.5,0,1,0,1.5c-0.1,0.7-0.2,1.4-0.4,2.1
				c-0.6,2.4-1.8,4.5-3.5,6.3c-0.6,0.6-1.2,1.2-1.9,1.6C138.2,94.4,138.1,94.4,138.1,94.5C138.1,94.5,138.1,94.5,138.1,94.5z"/>
		</g>
		<path class="st5" d="M211.9,33.3c-0.4-1.6-1-3.1-1.9-4.5c-1-1.7-2.4-3.1-3.9-4.3c-2.5-1.9-5.3-3.1-8.3-3.8
			c-0.8-0.2-1.6-0.3-2.4-0.4c-0.6-0.1-1.3-0.1-1.9-0.1c-0.4,0-0.8,0-1.3,0c-0.7,0-1.4,0.1-2.2,0.2c-0.9,0.1-1.9,0.3-2.8,0.6
			c-1.8,0.5-3.5,1.3-5.1,2.3c-1.7,1.1-3.1,2.4-4.2,4c-1.5,2.1-2.4,4.5-2.6,7.1c-0.1,1,0,1.9,0.1,2.9c0.2,1.3,0.6,2.6,1.1,3.8
			c0.8,1.8,2,3.3,3.4,4.7c1.7,1.6,3.6,2.8,5.7,3.8c1.4,0.6,2.8,1,4.2,1.3c0.6,0.1,1.2,0.2,1.9,0.3c0.4,0,0.8,0.1,1.3,0.1
			c0.7,0,1.5,0,2.2,0c0.4,0,0.9-0.1,1.3-0.1c0.1,0,0.2,0,0.3,0c0.8,0.2,1.6,0.4,2.4,0.5c1.5,0.3,3,0.7,4.5,1
			c1.2,0.3,2.5,0.6,3.7,0.8c0.1,0,0.1,0,0.2,0c-0.6-2-1.2-4-1.8-5.9c0,0,0,0,0-0.1c0,0,0.1-0.1,0.1-0.1c0.8-0.5,1.4-1.1,2-1.7
			c1.8-1.9,3-4.1,3.6-6.6c0.1-0.3,0.2-0.6,0.2-1c0,0,0-0.1,0-0.1c0,0,0-0.1,0-0.1c0.1-0.3,0.1-0.7,0.1-1c0-0.4,0-0.8,0-1.2
			c0-0.2,0-0.3,0-0.5C212.2,34.7,212.1,34,211.9,33.3z"/>
		<g>
			<path class="st1" d="M135.7,80l-8.6,8.6l-1.6,1.6c-0.2,0.2-0.5,0.3-0.8,0.3c-0.3,0-0.6-0.1-0.8-0.3l-1.6-1.6l-4.3-4.3
				c-0.2-0.2-0.3-0.5-0.3-0.8s0.1-0.6,0.3-0.8l1.6-1.6c0.2-0.2,0.5-0.3,0.8-0.3c0.3,0,0.6,0.1,0.8,0.3l3.5,3.5l7.8-7.8
				c0.2-0.2,0.5-0.3,0.8-0.3c0.3,0,0.6,0.1,0.8,0.3l1.6,1.6c0.2,0.2,0.3,0.5,0.3,0.8C136.1,79.5,136,79.8,135.7,80z"/>
		</g>
		<g>
			<path class="st1" d="M197.2,37.1c-0.8,0.5-1.3,1.4-1.3,1.8c0,0.3-0.2,0.6-0.5,0.6h-3.2c-0.3,0-0.5-0.5-0.5-0.7v-0.6
				c0-1.6,1.6-3,2.8-3.5c1-0.5,1.4-0.9,1.4-1.8c0-0.7-1-1.4-2-1.4c-0.6,0-1.1,0.2-1.4,0.4c-0.3,0.2-0.6,0.5-1.4,1.5
				c-0.1,0.1-0.3,0.2-0.4,0.2c-0.1,0-0.2,0-0.3-0.1l-2.2-1.7c-0.2-0.2-0.3-0.5-0.1-0.7c1.4-2.4,3.4-3.5,6.2-3.5c2.8,0,6,2.3,6,5.3
				C200.1,35.4,198.4,36.4,197.2,37.1z M195.9,44.1c0,0.3-0.2,0.5-0.5,0.5h-3.2c-0.3,0-0.5-0.2-0.5-0.5v-3.2c0-0.3,0.2-0.5,0.5-0.5
				h3.2c0.3,0,0.5,0.2,0.5,0.5V44.1z"/>
		</g>
		<g>
			<path class="st6" d="M285.4,100.5c0.6,1.9,1.1,3.7,1.7,5.6c-0.1,0-0.1,0-0.2,0c-1.2-0.3-2.4-0.5-3.5-0.8
				c-1.4-0.3-2.8-0.6-4.3-0.9c-0.7-0.2-1.5-0.3-2.2-0.5c-0.1,0-0.2,0-0.3,0c-0.4,0-0.8,0.1-1.3,0.1c-0.7,0-1.4,0-2.1,0
				c-0.4,0-0.8-0.1-1.2-0.1c-0.6-0.1-1.2-0.2-1.8-0.3c-1.4-0.3-2.7-0.7-4-1.2c-2-0.9-3.8-2-5.4-3.5c-1.3-1.3-2.4-2.7-3.2-4.4
				c-0.5-1.1-0.9-2.3-1.1-3.6c-0.1-0.9-0.2-1.8-0.1-2.7c0.2-2.5,1-4.7,2.5-6.7c1.1-1.5,2.4-2.8,4-3.8c1.5-1,3.1-1.7,4.8-2.2
				c0.9-0.3,1.7-0.4,2.6-0.6c0.7-0.1,1.4-0.2,2-0.2c0.4,0,0.8,0,1.2,0c0.6,0,1.2,0,1.8,0.1c0.8,0.1,1.5,0.2,2.3,0.3
				c2.9,0.6,5.5,1.8,7.8,3.6c1.5,1.1,2.7,2.5,3.7,4c0.8,1.3,1.4,2.7,1.8,4.2c0.2,0.7,0.2,1.4,0.3,2.1c0,0.5,0,1,0,1.5
				c-0.1,0.7-0.2,1.4-0.4,2.1c-0.6,2.3-1.8,4.4-3.4,6.2c-0.6,0.6-1.2,1.2-1.9,1.6C285.5,100.4,285.5,100.4,285.4,100.5
				C285.4,100.4,285.4,100.4,285.4,100.5z M264.2,88.8c0,0.3,0,0.6,0.1,0.9c0.2,0.8,0.6,1.6,1.2,2.1c0.6,0.5,1.2,0.8,2,0.8
				c0.7,0,1.3-0.2,1.8-0.5c0.5-0.4,0.9-0.8,1.2-1.4c0.3-0.7,0.4-1.4,0.4-2.2c-0.1-0.7-0.3-1.3-0.7-1.9c-0.4-0.6-1-1.1-1.7-1.4
				c-0.4-0.1-0.8-0.2-1.2-0.2c-0.4,0-0.8,0.1-1.1,0.2c-0.6,0.3-1.1,0.7-1.5,1.4C264.3,87.4,264.1,88.1,264.2,88.8z M273.5,88.9
				c0,0.2,0,0.5,0.1,0.7c0.1,0.7,0.3,1.3,0.7,1.8c0.3,0.4,0.6,0.7,1,0.9c0.5,0.3,1,0.4,1.6,0.3c0.6-0.1,1-0.3,1.4-0.7
				c0.4-0.4,0.7-0.8,0.8-1.3c0.3-0.7,0.3-1.5,0.2-2.2c-0.1-0.6-0.3-1.1-0.7-1.5c-0.2-0.3-0.5-0.6-0.8-0.8c-0.5-0.3-0.9-0.4-1.5-0.4
				c-0.6,0-1.2,0.2-1.7,0.6c-0.3,0.3-0.6,0.6-0.8,1C273.6,87.8,273.5,88.4,273.5,88.9z M281.5,89.2c0,0.3,0,0.6,0.1,0.9
				c0.1,0.6,0.4,1.1,0.8,1.6c0.2,0.3,0.5,0.5,0.9,0.7c0.4,0.2,0.9,0.3,1.3,0.2c0.4-0.1,0.8-0.3,1.2-0.6c0.3-0.3,0.5-0.6,0.7-1
				c0.4-0.9,0.4-1.8,0.2-2.7c-0.2-0.6-0.4-1.1-0.8-1.5c-0.5-0.5-1-0.7-1.7-0.7c-0.6,0-1,0.2-1.5,0.5c-0.3,0.2-0.5,0.5-0.6,0.8
				C281.6,87.9,281.5,88.5,281.5,89.2z"/>
		</g>
		<path class="st0" d="M130.6,111.6c0-2.3,0.1-4.7,0.3-7c0,0,0,0,0,0C130.7,106.9,130.6,109.2,130.6,111.6c0-0.1,0,0.4,0,0.2
			c0,2.7,0.3,5.3,0.6,7.8c-0.3-2.6-0.6-5.1-0.6-7.8C130.6,111.7,130.6,111.6,130.6,111.6z"/>
		<path class="st7" d="M130.6,111.6c0,0,0,0.1,0,0.3C130.6,111.8,130.6,111.7,130.6,111.6z"/>
		<path class="st7" d="M149.2,74.3c5.9-10.5,14.3-18.7,24.3-23.8c0.3-0.1,0.6-0.3,0.9-0.4c-4.3,0.8-8.4,2.1-12.4,4.1
			c-6.8,3.4-12.5,8.3-17.1,14c0.4,0.4,0.8,0.8,1.2,1.3C147.4,71.1,148.4,72.6,149.2,74.3z"/>
		<path class="st7" d="M133.6,131.3c1.9,6.4,4.8,12.6,8.6,18.1c7.2,10.4,17.9,18.7,30.4,21.5c0.6,0.1,1.2,0.2,1.8,0.3
			c-8.6-4.1-16.4-10.8-22.3-19.4c-4-5.8-7.1-12.2-9.2-19.2c-1-3.3-1.7-6.6-2.2-9.8c-0.5-3.5-1-7-1-10.8c0-1.8,0.1-3.7,0.2-5.5
			c-1.3-0.2-2.5-0.5-3.8-0.7c-1.7-0.3-3.5-0.7-5.2-1c-0.2,2.3-0.3,4.7-0.3,7c0-0.1,0,0.5,0,0.3c0,2.7,0.3,5.2,0.6,7.8
			c0.1,0.8,0.2,1.6,0.4,2.4C132,125.2,132.7,128.3,133.6,131.3z"/>
		<path class="st7" d="M130.6,111.6c0,0.1,0,0.2,0,0.3C130.6,112,130.6,111.4,130.6,111.6z"/>
		<path class="st8" d="M130.6,111.8c0-0.1,0-0.2,0-0.3C130.6,111.6,130.6,111.6,130.6,111.8z"/>
		<path class="st8" d="M130.6,111.5c0,0.1,0,0.2,0,0.3C130.6,112,130.6,111.4,130.6,111.5z"/>
		<path class="st7" d="M151,79.9c0.1,0.7,0.2,1.3,0.2,2c0,0.1,0,0.1,0,0.2c0,0.7,0,1.3,0,2c0,0.1,0,0.2,0,0.2c0,0.2,0,0.5,0,0.7
			c-0.1,0.8-0.2,1.5-0.4,2.3c-0.4,1.8-1.1,3.6-2,5.3c-0.9,1.8-2.1,3.4-3.5,4.9c0,0.1,0,0.2-0.1,0.3c0,0,0,0,0,0
			c0.5,1.8,1.1,3.6,1.6,5.4c0.4,1.5,0.9,3,1.3,4.5c0,0.1,0,0.2,0,0.2c0,0-0.1,0-0.1,0c0,0-0.1,0-0.1,0c-0.3-0.1-0.6-0.1-0.9-0.2
			c-1-0.2-2.1-0.4-3.1-0.6c-0.1,1.5-0.1,3-0.1,4.4c0-0.1,0,0.5,0,0.3c0,3.5,0.5,6.8,1,10.2c0.5,3.1,1.2,6.2,2.1,9.2
			c1.9,6.4,4.8,12.6,8.6,18.1c7.2,10.4,17.9,18.7,30.4,21.5c0.9,0.2,1.8,0.4,2.7,0.5c0,0,0,0,0,0c-8.4-4.2-15.9-10.8-21.7-19.3
			c-4-5.8-7.1-12.3-9.2-19.4c-1-3.3-1.8-6.6-2.2-9.9c-0.5-3.5-1-7.1-1-10.9c0-12.6,2.9-24.8,8.3-35.5c4.6-9.1,11-16.5,18.7-22
			c-0.9-0.5-1.7-1.1-2.5-1.7c-1.2,0.5-2.4,1-3.5,1.6C164.3,59.9,156.2,69.1,151,79.9z"/>
		<path class="st8" d="M175.8,49.9c-0.1-0.1-0.2-0.2-0.3-0.3c-0.4,0.2-0.7,0.3-1.1,0.5C174.9,50.1,175.4,50,175.8,49.9z"/>
		<path class="st8" d="M141.9,111.6c0,0,0,0.1,0,0.3C141.9,111.8,141.9,111.7,141.9,111.6z"/>
		<path class="st8" d="M145.1,97.6c0,0.1,0,0.1,0,0.2c0-0.1,0-0.2,0.1-0.3c0,0,0,0,0,0C145.2,97.5,145.2,97.6,145.1,97.6z"/>
		<path class="st8" d="M141.9,111.6c0,0.1,0,0.2,0,0.3C141.9,112,141.9,111.4,141.9,111.6z"/>
		<path class="st8" d="M143.9,111.5C143.9,111.6,143.9,111.6,143.9,111.5c0,0.1,0,0.1,0,0.1c0,0,0,0.1,0,0.1
			C143.9,111.7,143.9,111.6,143.9,111.5z"/>
		<path class="st8" d="M143.9,111.5C143.9,111.6,143.9,111.6,143.9,111.5C143.9,111.6,143.9,111.6,143.9,111.5
			C143.9,111.5,143.9,111.5,143.9,111.5z"/>
		<path class="st8" d="M143.9,111.7c0,0,0,0.1,0,0.1v0C143.9,111.8,143.9,111.7,143.9,111.7z"/>
		<path class="st8" d="M143.9,111.8C143.9,111.8,143.9,111.8,143.9,111.8c0,0.2,0-0.4,0-0.3c0,0,0,0,0,0
			C143.9,111.6,143.9,111.7,143.9,111.8z"/>
		<polygon class="st8" points="143.9,111.5 143.9,111.5 143.9,111.5 		"/>
		<polygon class="st8" points="143.9,111.8 143.9,111.8 143.9,111.8 		"/>
		<path class="st9" d="M263,106.9c-0.4-0.2-0.9-0.4-1.3-0.6c0,0,0,0,0,0.1C262.1,106.6,262.6,106.8,263,106.9
			C263,107,263,107,263,106.9z"/>
		<path class="st0" d="M253.1,80.6c0.3-0.6,0.7-1.2,1.1-1.8c0,0,0,0,0-0.1C253.8,79.3,253.4,79.9,253.1,80.6z"/>
		<path class="st9" d="M251.9,83.3C251.9,83.3,251.9,83.4,251.9,83.3c0.2-0.5,0.4-1.2,0.7-1.8c-0.1,0.3-0.2,0.5-0.3,0.8
			C252.2,82.7,252.1,83,251.9,83.3z"/>
		<path class="st9" d="M251.9,83.4C251.9,83.4,251.9,83.4,251.9,83.4C251.9,83.4,251.9,83.4,251.9,83.4
			C251.9,83.4,251.9,83.4,251.9,83.4z"/>
		<path class="st9" d="M252.6,81.6c0.1-0.3,0.3-0.7,0.5-1c0,0.1-0.1,0.1-0.1,0.2C252.9,81,252.8,81.3,252.6,81.6z"/>
		<path class="st9" d="M261.7,106.4c-1.2-0.7-2.3-1.4-3.4-2.3c-1.9-1.6-3.5-3.4-4.8-5.6c-1.4-2.4-2.3-5.1-2.5-7.9c0-0.2,0-0.4,0-0.6
			c0-0.1,0-0.2-0.1-0.3v-1.3c0.1-0.1,0.1-0.2,0.1-0.3c0-0.8,0.1-1.6,0.3-2.4c0.1-0.4,0.2-0.8,0.3-1.2c0.1-0.4,0.2-0.8,0.3-1.1
			c0,0,0,0,0,0c0,0,0-0.1,0-0.1c0.1-0.3,0.2-0.6,0.4-1c0.1-0.3,0.2-0.5,0.3-0.8c0.1-0.3,0.3-0.6,0.4-0.8c0-0.1,0.1-0.1,0.1-0.2
			c0.3-0.6,0.7-1.2,1-1.8c-1.2-2.4-2.6-4.7-4.1-6.8c-6.7-9.6-15.9-16.6-26-19.8c-3.4-1.1-6.9-1.7-10.4-1.9c-0.2,0.2-0.4,0.5-0.6,0.7
			c0,0-0.1,0.1-0.1,0.1c0,0.1,0,0.1,0.1,0.2c0.1,0.2,0.1,0.4,0.2,0.6c0.5,1.6,0.9,3.1,1.4,4.7c0.4,1.5,0.9,3,1.3,4.5
			c0,0,0,0.1,0,0.1c0,0,0,0.1,0,0.1c0,0-0.1,0-0.1,0c0,0-0.1,0-0.1,0c-0.3-0.1-0.6-0.1-0.9-0.2c-1.9-0.4-3.8-0.7-5.8-1.1
			c-1.7-0.3-3.4-0.7-5.1-1c-1.8-0.3-3.5-0.7-5.3-1c-0.2,0-0.3,0-0.5,0c-0.6,0.1-1.2,0.1-1.8,0.2c-1.1,0.1-2.1,0.1-3.2,0
			c-1-0.1-1.9-0.2-2.9-0.3c-1-0.2-2-0.4-3-0.7c-16.7,10.4-27.4,31.3-27.6,54.6l0,0.2c0,0.1,0,0.2,0,0.3c0,3.5,0.5,6.8,1,10.1
			c0.5,3,1.2,6.1,2.1,9.2c2,6.5,4.8,12.5,8.5,17.9c7.4,10.8,17.7,18.2,29.1,21c0.3,0.1,0.7,0.2,1,0.2c2.4,0.5,4.7,0.8,7,1
			c21.9,1.3,39.6-14.8,47.3-31.7C260.4,129.1,262.4,117.6,261.7,106.4z"/>
		<path class="st8" d="M157.2,111.8c0-0.1,0-0.2,0-0.3C157.2,111.6,157.2,111.7,157.2,111.8z"/>
		<path class="st8" d="M157.2,111.6c0,0.1,0,0.2,0,0.3C157.2,112,157.2,111.4,157.2,111.6z"/>
		<path class="st8" d="M254.4,68.9C247,58.3,236.8,50.6,225.6,47c-2.8-0.9-5.8-1.5-8.7-1.9c-0.1,0.3-0.3,0.6-0.4,0.9
			c-0.4,0.7-0.8,1.5-1.3,2.2c-0.5,0.7-1,1.3-1.5,2c3.5,0.2,7,0.9,10.4,1.9c10.1,3.2,19.3,10.2,26,19.8c1.5,2.2,2.9,4.5,4.1,6.8
			c0,0,0,0,0,0.1c1-1.5,2.3-2.9,3.7-4.1c0,0,0.1-0.1,0.1-0.1C256.9,72.7,255.7,70.7,254.4,68.9z"/>
		<g>
			<path class="st8" d="M174.8,48.8c-0.7-0.8-1.3-1.6-1.8-2.5c-4.4,0.9-8.7,2.3-12.8,4.3c-7.1,3.6-13.3,8.7-18.4,15.1
				c1,0.7,2,1.5,2.9,2.4c0.1,0.1,0.2,0.2,0.2,0.3c4.6-5.7,10.3-10.6,17.1-14c3.9-2,8.1-3.4,12.4-4.1c0.4-0.2,0.7-0.4,1.1-0.5
				C175.3,49.4,175,49.1,174.8,48.8z"/>
			<path class="st8" d="M178,52c-0.2-0.2-0.4-0.4-0.6-0.6c-0.5-0.5-1-1-1.5-1.5c-0.5,0.1-0.9,0.1-1.4,0.2c-0.3,0.1-0.6,0.3-0.9,0.4
				c-10,5-18.4,13.2-24.3,23.8c0.4,0.9,0.8,1.8,1.1,2.7c0.2,0.6,0.4,1.2,0.5,1.9c0.1,0.3,0.1,0.7,0.2,1
				c5.2-10.8,13.3-20.1,24.4-25.7c1.2-0.6,2.3-1.1,3.5-1.6C178.6,52.5,178.3,52.2,178,52z"/>
			<path class="st8" d="M267.1,108.6c-0.5-0.1-1.1-0.3-1.6-0.5c-0.9-0.3-1.7-0.7-2.5-1.1c-0.4-0.2-0.9-0.4-1.3-0.6
				c0.7,11.2-1.3,22.7-6.1,33.1c-7.7,17-25.4,33-47.3,31.7c-2.3-0.1-4.6-0.5-7-1c-0.3-0.1-0.7-0.2-1-0.2
				c-11.4-2.8-21.7-10.2-29.1-21c-3.7-5.4-6.6-11.4-8.5-17.9c-0.9-3.1-1.6-6.2-2.1-9.2c-0.5-3.3-1-6.6-1-10.1c0-0.1,0-0.2,0-0.3
				l0-0.2c0.1-23.3,10.8-44.2,27.6-54.6c-0.5-0.1-1-0.3-1.5-0.5c-0.5-0.2-0.9-0.4-1.4-0.6c-1-0.4-2-0.9-3-1.4
				c-7.7,5.5-14,12.9-18.7,22c-5.4,10.6-8.3,22.9-8.3,35.5c0,3.9,0.5,7.4,1,10.9c0.5,3.3,1.3,6.6,2.2,9.9c2.1,7,5.2,13.6,9.2,19.4
				c5.8,8.5,13.3,15.1,21.7,19.3c0,0,0,0,0,0c-0.9-0.1-1.8-0.3-2.7-0.5c-12.5-2.8-23.2-11-30.4-21.5c-3.8-5.5-6.7-11.7-8.6-18.1
				c-0.9-3-1.6-6.1-2.1-9.2c-0.5-3.4-1-6.7-1-10.2c0,0,0,0,0,0c0-0.1,0-0.1,0-0.1c0,0,0,0,0-0.1c0,0,0-0.1,0-0.1c0,0,0,0,0,0
				c0-1.5,0.1-3,0.1-4.4c-0.6-0.1-1.3-0.2-1.9-0.4c-0.3-0.1-0.5-0.1-0.8-0.2c-0.5-0.1-0.9-0.2-1.4-0.3c-0.1,1.8-0.2,3.7-0.2,5.5
				c0,3.8,0.5,7.3,1,10.8c0.5,3.2,1.2,6.5,2.2,9.8c2.1,7,5.2,13.4,9.2,19.2c6,8.6,13.7,15.3,22.3,19.4c-0.6-0.1-1.2-0.2-1.8-0.3
				c-12.5-2.8-23.2-11-30.4-21.5c-3.8-5.5-6.7-11.7-8.6-18.1c-0.9-3-1.6-6.1-2.1-9.2c-0.1-0.8-0.2-1.6-0.4-2.4
				c-0.4-2.6-0.6-5.1-0.6-7.8c0-0.2,0-0.3,0-0.3c0-2.3,0.1-4.7,0.4-7c-0.1,0-0.1,0-0.2,0c-0.2,0-0.4,0-0.5,0
				c-0.6,0.1-1.2,0.1-1.8,0.2c-0.5,0-1.1,0-1.6,0c-0.2,2.4-0.3,4.7-0.3,7.1c0,3.8,0.5,7.3,1,10.8c0.5,3.2,1.2,6.5,2.2,9.8
				c2.1,7,5.2,13.4,9.2,19.2c8.3,12,20,20.3,32.9,23.1c2.7,0.6,5.5,1,8.2,1.1l0,0l0.8,0c0.4,0,0.8,0,1.2,0c0.2,0,0.4,0,0.5,0
				l25.3,0.5h5c9.7-0.5,19.2-3.9,27.7-10.1c8.5-6.2,15.4-14.8,19.9-24.7C265.2,131.3,267.4,119.9,267.1,108.6z"/>
		</g>
		<path class="st8" d="M157.2,111.8c0-0.2,0-0.2,0-0.3C157.2,111.4,157.2,112,157.2,111.8z"/>
		<path class="st8" d="M141.9,111.6c0-0.1,0,0.5,0,0.3C141.9,111.7,141.9,111.6,141.9,111.6z"/>
		<g>
			<path class="st1" d="M194.4,106.2c0.4-1.3,1.2-2.6,2.8-2.1c1.9,0.6,1.7,3,1.7,4.6c0,4.2,0.6,8.2,2.6,11.9
				c3.6,6.5,11.2,10.7,18.5,7.6c7.8-3.2,10.7-11.6,10.7-19.4c0-1.4,0.1-3.9,2.1-4c2.1,0,2.2,2.5,2.2,3.9c0,4.2-0.5,8.3-2,12.2
				c-1.6,3.9-4,7.5-7.3,10.1c-1.6,1.3-3.5,2.3-5.5,2.9c-1.5,0.5-1.4,0.4-1.4,1.9c0,1.1-0.1,2.2,0,3.3c2.7-0.2,10.9-2.7,10.7,2
				c-0.2,4-6.7,3.3-9.5,3.6c-4.5,0.5-9,1-13.5,1.5c-1.9,0.2-3.8,0.4-4.3-1.8c-0.6-2.5,1.4-3.7,3.5-4c1.2-0.1,2.5-0.2,3.7-0.3
				c0.7-0.1,3.3,0.1,3.7-0.3c0.3-0.3,0.5-4.6,0.2-4.9c-0.2-0.3-2.2-0.3-2.6-0.4c-1.1-0.2-2.1-0.6-3.1-1c-1.7-0.8-3.4-1.8-4.8-3
				C195.6,124.2,194.4,115.1,194.4,106.2C194.5,105.9,194.4,107.5,194.4,106.2z"/>
			<path class="st1" d="M203.9,99.3c0-7-1.3-16.2,5.7-20.5c6.7-4.1,14.4,0.9,16.7,7.6c1.4,4,0.9,8.4,0.9,12.5
				c0,4.1,0.5,8.7-0.3,12.7c-1.3,7-8.2,12.7-15.5,9.7c-3.6-1.5-6-5-7-8.6C204.1,111.3,203.5,99.3,203.9,99.3
				C203.9,96.2,203.9,99.3,203.9,99.3z"/>
		</g>
	</g>
</g>
</svg>
