<?xml version="1.0" encoding="utf-8"?>
<!-- Generator: Adobe Illustrator 20.1.0, SVG Export Plug-In . SVG Version: 6.00 Build 0)  -->
<svg version="1.1" id="Layer_1" xmlns="http://www.w3.org/2000/svg" xmlns:xlink="http://www.w3.org/1999/xlink" x="0px" y="0px"
	 viewBox="0 0 400 225" style="enable-background:new 0 0 400 225;" xml:space="preserve">
<style type="text/css">
	.st0{fill:#E5E5E5;}
	.st1{fill:#F4F4EF;}
	.st2{fill:#D3A079;}
	.st3{opacity:0.85;}
	.st4{fill:#AE7750;}
	.st5{fill:#C9C9C9;}
	.st6{fill:#CEDCDD;}
	.st7{fill:#FFFFFF;}
	.st8{fill:#B4C6DB;}
	.st9{fill:#9DB1C4;}
	.st10{fill:#A5BACE;}
	.st11{fill:#E5455C;}
	.st12{fill:#C13A5B;}
	.st13{opacity:0.25;}
	.st14{fill:#997E53;}
	.st15{fill:#52B700;}
	.st16{fill:#5BBA6D;}
	.st17{fill:#55A562;}
	.st18{fill:#BC995B;}
	.st19{fill:#474747;}
	.st20{fill:#2D2D2D;}
	.st21{fill:#EFC413;}
	.st22{fill:#006BEB;}
	.st23{fill:#292D2D;}
	.st24{fill:#FF4385;}
	.st25{fill:none;}
</style>
<title>image hotpots</title>
<g id="Layer_2">
	<g id="image_hotpots">
		<g>
			<g>
				<g>
					<g>
						<path class="st0" d="M293.2,117.4c-27.8-2.9-56.2-4.6-84.5-4.6c-28.4,0-56.7,1.7-84.5,4.7c0-0.8,0-1.6,0-2.3
							c27.8-2.6,56.1-4.2,84.5-4.2c28.4,0,56.8,1.5,84.5,4.1C293.2,115.8,293.2,116.6,293.2,117.4z"/>
					</g>
					<g>
						<path class="st1" d="M293.2,134.8c-55.6-10.3-113.5-10.2-169.1,0.2c0-5.8,0-11.6,0-17.5c27.8-2.9,56.1-4.7,84.5-4.7
							c28.4,0,56.8,1.7,84.5,4.6C293.2,123.2,293.2,129,293.2,134.8z"/>
					</g>
					<g>
						<g>
							<g>
								<path class="st2" d="M293.2,146.8c-55.5-13.2-113.3-13.1-168.7,0.1c0-9.8,0-19.7,0-29.5c27.7-2.9,56-4.6,84.4-4.6
									c28.3,0,56.6,1.7,84.4,4.6C293.2,127.2,293.2,137,293.2,146.8z"/>
							</g>
						</g>
						<g class="st3">
							<g>
								<path class="st4" d="M293.2,141.1c-55.5-11.8-113.3-11.7-168.7,0.1c0-0.1,0-0.3,0-0.4c55.5-11.8,113.3-11.8,168.7-0.1
									C293.2,140.8,293.2,140.9,293.2,141.1z"/>
							</g>
						</g>
						<g class="st3">
							<g>
								<path class="st4" d="M293.2,135.3c-55.5-10.4-113.3-10.3-168.7,0.1c0-0.1,0-0.3,0-0.4c55.4-10.4,113.3-10.4,168.7-0.1
									C293.2,135.1,293.2,135.2,293.2,135.3z"/>
							</g>
						</g>
						<g class="st3">
							<g>
								<path class="st4" d="M293.2,129.6c-27.7-4.4-56.1-6.8-84.4-6.7c-28.3,0-56.6,2.4-84.4,6.8c0-0.1,0-0.3,0-0.4
									c27.7-4.4,56-6.8,84.4-6.8c28.3,0,56.6,2.3,84.4,6.7C293.2,129.3,293.2,129.4,293.2,129.6z"/>
							</g>
						</g>
						<g class="st3">
							<g>
								<path class="st4" d="M293.2,123.8c-27.7-3.7-56-5.7-84.4-5.7c-28.3,0-56.6,2.1-84.4,5.8c0-0.1,0-0.3,0-0.4
									c27.7-3.7,56-5.7,84.4-5.7c28.3,0,56.6,2,84.4,5.6C293.2,123.6,293.2,123.7,293.2,123.8z"/>
							</g>
						</g>
					</g>
					<g>
						<path class="st5" d="M293.2,115.1c-27.8-2.6-56.2-4.2-84.5-4.1c-28.4,0-56.8,1.6-84.5,4.2c0-0.5,0-1,0-1.5
							c27.8-2.4,56.1-4,84.5-3.9c28.4,0,56.8,1.5,84.5,3.9C293.2,114.1,293.2,114.6,293.2,115.1z"/>
					</g>
					<g>
						<path class="st6" d="M294.2,113.6c-27.8-2.4-56.1-4-84.5-3.9c-28.4,0-56.8,1.5-84.5,3.9c0-23.7,0-47.3,0-71
							c27.8,6.5,56.2,8.8,84.5,8.9c28.4-0.1,56.8-2.5,84.5-9.1C294.2,66.1,294.2,89.9,294.2,113.6z"/>
					</g>
					<g>
						<g>
							<path class="st7" d="M282,57c-9.9,1.4-19.9,2.5-30,3.2c-0.2,0-0.4,0.2-0.4,0.4c0,17.8,0,35.6,0,53.5
								c10.3,0.6,20.6,1.4,30.8,2.3c0-19.7,0-39.4,0-59C282.4,57.1,282.2,57,282,57z"/>
						</g>
						<g>
							<path class="st8" d="M254.3,114.2c0-17,0-33.9,0-50.9c0-0.2,0.2-0.4,0.4-0.4c8.3-0.6,16.5-1.4,24.7-2.4
								c0.2,0,0.4,0.1,0.4,0.3c0,18.4,0,36.9,0,55.3C271.3,115.3,262.8,114.7,254.3,114.2z"/>
						</g>
						<g>
							<path class="st7" d="M270,79.3c-2.6,2-5.3,3.9-7.9,5.8c-0.4,0-0.7-0.3-0.7-0.8c0-3.3,0-6.7,0-10c0-0.4,0.3-0.8,0.7-1.1
								c2.6-1.9,5.3-3.8,7.9-5.8c0.4,0,0.7,0.3,0.7,0.7c0,3.4,0,6.9,0,10.3C270.7,78.9,270,79.3,270,79.3z"/>
						</g>
						<g>
							<path class="st9" d="M262.8,74.8C262.8,74.8,262.8,74.8,262.8,74.8c0.1-0.1,0.1-0.1,0.1-0.1c2.2-1.6,4.4-3.3,6.6-5
								c0,2.6,0,5.2,0,7.8c0,0-0.3,0.2-0.3,0.2c0,0-0.1,0.1-0.1,0.1c-2.1,1.7-4.2,3.3-6.3,4.9C262.8,80,262.8,77.4,262.8,74.8z"/>
						</g>
						<g>
							<path class="st1" d="M254.3,114.2c8.5,0.5,17,1.1,25.5,1.9c0-4.9,0-9.9,0-14.8c0-1.2,0-2.5,0-3.7
								C271.3,103.6,262.8,109,254.3,114.2z"/>
						</g>
						<g>
							<path class="st0" d="M279.8,97.6c-8.5,6-17,11.4-25.5,16.6c0-0.7,0-1.4,0-2c8.5-5.2,17-10.7,25.5-16.8
								C279.8,96.1,279.8,96.9,279.8,97.6z"/>
						</g>
						<g>
							<path class="st10" d="M279.8,95.4c-8.5,6.1-17,11.6-25.5,16.8c0-0.2,0-0.4,0-0.7c8.5-5.2,17-10.7,25.5-16.8
								C279.8,94.9,279.8,95.2,279.8,95.4z"/>
						</g>
						<g>
							<path class="st10" d="M279.8,94.7c-8.5,6.1-17,11.6-25.5,16.8c0-0.2,0-0.4,0-0.7c8.5-5.2,17-10.8,25.5-16.9
								C279.8,94.2,279.8,94.4,279.8,94.7z"/>
						</g>
					</g>
					<g>
						<g>
							<g>
								<path class="st11" d="M190.1,104.5c-1.2,0-2.5,0-3.7,0.1c0-1.9,0-3.8,0-5.7c0,0,5.7-3.1,6.4-1.6
									C195.1,103,190.1,104.5,190.1,104.5z"/>
							</g>
							<g>
								<path class="st11" d="M232.5,104.6c1.2,0,2.5,0.1,3.7,0.1c0-1.9,0-3.9,0-5.8c0,0-5.7-3.1-6.3-1.6
									C227.5,103,232.5,104.5,232.5,104.6z"/>
							</g>
							<g>
								<path class="st12" d="M238.9,102.1c0-1.7-1.4-3-3.1-3c-1.7,0-3.1,1.3-3.1,2.9c0,0.1,0,0.1,0,0.2c0,0,0,0,0,0
									c0,2.5,0,4.9,0,7.4c-7-0.2-14-0.3-21-0.3c-0.2,0-0.4,0-0.6,0c-7,0-14,0.1-21.1,0.2c0-2.4,0-4.9,0-7.3c0,0,0,0,0,0
									c0-0.1,0-0.1,0-0.2c0-1.6-1.4-2.9-3.1-2.9c-1.7,0-3.1,1.4-3.1,3c0,1.3,0.8,2.3,2,2.7c0,0,0,0,0,0c0,3.6,0,7.3,0,10.9
									c0,0.7,0.6,1.3,1.3,1.3c8.2-0.3,16.4-0.5,24.6-0.5c8,0.1,15.9,0.3,23.9,0.6c0.7,0,1.3-0.6,1.3-1.3c0-3.7,0-7.3,0-11
									c0,0,0,0,0,0C238,104.4,238.9,103.3,238.9,102.1z"/>
							</g>
							<g>
								<g>
									<path class="st12" d="M232.7,104.6c-1-0.8-2-1.6-3.1-2.5c-6.1-0.1-12.2-0.1-18.4-0.1c-6.1,0-12.2,0-18.4,0
										c-0.9,0.8-1.9,1.6-2.8,2.4c-0.1,0-0.2,0-0.2,0c0,1.7,0,3.4,0,5c7.1-0.2,14.2-0.2,21.3-0.2c0.1,0,0.2,0,0.4,0
										c7.1,0,14.2,0.1,21.3,0.3C232.7,107.9,232.7,106.2,232.7,104.6C232.7,104.6,232.7,104.6,232.7,104.6z"/>
								</g>
								<g>
									<path class="st12" d="M212.6,103.8c5.5-0.3,11.1-0.6,16.6-0.8c0.3,0.2,0.6,0.4,0.9,0.6c0-3,0-5.9,0-8.9
										c0-1.5-1.2-2.7-2.7-2.7c-5.1,0-10.3,0-15.4,0c-0.5,0-1,0-1.5,0c-5.1,0-10.3,0-15.4,0c-1.5,0-2.7,1.2-2.7,2.7
										c0,2.9,0,5.7,0,8.6c0.2-0.1,0.4-0.2,0.5-0.4c5.7,0.5,11.5,1,17.2,1.5C211,104.1,211.8,103.9,212.6,103.8z"/>
								</g>
							</g>
							<g>
								<path class="st11" d="M210,102.1c-5.3,0-10.7,0-16,0.1c-0.4,0-0.7-0.2-0.7-0.5c0-2.6,0-5.1,0-7.7c0-0.5,0.5-1,1.2-1
									c5.2,0,10.3,0,15.5,0c0.4,0,0.7,0.2,0.7,0.6c0,2.7,0,5.4,0,8.1C210.6,101.8,210.3,102.1,210,102.1z"/>
							</g>
							<g>
								<path class="st11" d="M212.1,102.1c5.3,0,10.7,0.1,16,0.1c0.4,0,0.7-0.2,0.7-0.5c0-2.6,0-5.1,0-7.7c0-0.5-0.5-1-1.2-1
									c-5.2,0-10.3,0-15.5,0c-0.4,0-0.7,0.2-0.7,0.6c0,2.7,0,5.4,0,8.1C211.4,101.8,211.7,102.1,212.1,102.1z"/>
							</g>
							<g>
								<path class="st11" d="M209.1,108.9c-6,0-12,0.1-18,0.2c-0.8,0-1.5-0.6-1.5-1.5c0,0,3.9-4.8,4.7-4.8
									c4.9-0.1,9.8-0.1,14.7-0.1c0.8,0,1.5,0.7,1.5,1.5c0,1,0,2.1,0,3.1C210.6,108.2,209.9,108.9,209.1,108.9z"/>
							</g>
							<g>
								<path class="st11" d="M212.9,108.9c6.1,0,12.3,0.1,18.4,0.3c0.8,0,1.5-0.6,1.5-1.5c0,0-4.1-4.8-4.9-4.8
									c-5-0.1-10-0.1-15-0.1c-0.8,0-1.5,0.7-1.5,1.5c0,1,0,2.1,0,3.1C211.4,108.2,212.1,108.9,212.9,108.9z"/>
							</g>
						</g>
						<g>
							<path class="st7" d="M203.6,80.4c-3.8,0-7.5,0-11.3-0.1c-0.1,0-0.2-0.1-0.2-0.2c0-4.4,0-8.7,0-13.1c0-0.1,0.1-0.2,0.2-0.2
								c3.8,0.1,7.5,0.1,11.3,0.2c0.1,0,0.2,0.1,0.2,0.2c0,4.3,0,8.6,0,13C203.8,80.3,203.7,80.4,203.6,80.4z"/>
						</g>
						<g>
							<path class="st6" d="M193.6,78.6c0-3.3,0-6.6,0-9.9c0-0.1,0.1-0.2,0.2-0.2c2.7,0.1,5.5,0.1,8.2,0.1c0.1,0,0.2,0.1,0.2,0.2
								c0,3.3,0,6.6,0,9.9c0,0.1-0.1,0.2-0.2,0.2c-2.7,0-5.5,0-8.2-0.1C193.7,78.8,193.6,78.7,193.6,78.6z"/>
						</g>
						<g>
							<path class="st7" d="M219.3,78.7c0-3.8,0-7.6,0-11.4c0-0.1,0.1-0.2,0.2-0.2c4.3-0.1,8.6-0.2,12.9-0.3c0.1,0,0.2,0.1,0.2,0.2
								c0,3.8,0,7.7,0,11.5c0,0.1-0.1,0.2-0.2,0.2c-4.3,0.1-8.6,0.1-12.9,0.1C219.4,78.9,219.3,78.8,219.3,78.7z"/>
						</g>
						<g>
							<path class="st6" d="M221.1,68.7c3.3,0,6.5-0.1,9.8-0.2c0.1,0,0.2,0.1,0.2,0.2c0,2.8,0,5.6,0,8.4c0,0.1-0.1,0.2-0.2,0.2
								c-3.3,0.1-6.5,0.1-9.8,0.1c-0.1,0-0.2-0.1-0.2-0.2c0-2.8,0-5.5,0-8.3C220.9,68.8,221,68.7,221.1,68.7z"/>
						</g>
						<g>
							<path class="st7" d="M217.3,73.1c-3.8,0-7.6,0-11.3,0c-0.1,0-0.2-0.1-0.2-0.2c0-3.6,0-7.2,0-10.8c0-0.1,0.1-0.2,0.2-0.2
								c3.8,0,7.6,0,11.3,0c0.1,0,0.2,0.1,0.2,0.2c0,3.6,0,7.2,0,10.8C217.5,73,217.4,73.1,217.3,73.1z"/>
						</g>
						<g>
							<path class="st6" d="M207.3,71.4c0-2.6,0-5.1,0-7.7c0-0.1,0.1-0.2,0.2-0.2c2.7,0,5.5,0,8.2,0c0.1,0,0.2,0.1,0.2,0.2
								c0,2.6,0,5.1,0,7.7c0,0.1-0.1,0.2-0.2,0.2c-2.7,0-5.5,0-8.2,0C207.4,71.5,207.3,71.5,207.3,71.4z"/>
						</g>
						<g>
							<path class="st7" d="M217.3,86.6c-3.8,0-7.6,0-11.3,0c-0.1,0-0.2-0.1-0.2-0.2c0-3.6,0-7.2,0-10.8c0-0.1,0.1-0.2,0.2-0.2
								c3.8,0,7.6,0,11.3,0c0.1,0,0.2,0.1,0.2,0.2c0,3.6,0,7.2,0,10.8C217.5,86.6,217.4,86.6,217.3,86.6z"/>
						</g>
						<g>
							<path class="st6" d="M207.3,84.9c0-2.6,0-5.1,0-7.7c0-0.1,0.1-0.2,0.2-0.2c2.7,0,5.5,0,8.2,0c0.1,0,0.2,0.1,0.2,0.2
								c0,2.6,0,5.1,0,7.7c0,0.1-0.1,0.2-0.2,0.2c-2.7,0-5.5,0-8.2,0C207.4,85.1,207.3,85,207.3,84.9z"/>
						</g>
						<g>
							<g class="st13">
								<path class="st7" d="M197.5,71.5c0,0.5-0.4,0.9-0.9,0.9c-0.5,0-0.9-0.4-0.9-1c0-0.5,0.4-0.9,0.9-0.9
									C197.1,70.5,197.5,70.9,197.5,71.5z"/>
							</g>
						</g>
						<g>
							<g class="st13">
								<path class="st7" d="M200.8,75.5c0,0.9-0.7,1.6-1.6,1.6c-0.9,0-1.6-0.8-1.6-1.7c0-0.9,0.7-1.6,1.6-1.6
									C200.1,73.9,200.8,74.6,200.8,75.5z"/>
							</g>
						</g>
						<g>
							<g class="st13">
								<ellipse class="st7" cx="213.5" cy="66.4" rx="0.7" ry="0.7"/>
							</g>
						</g>
						<g>
							<g class="st13">
								<ellipse class="st7" cx="210.3" cy="68.7" rx="1.3" ry="1.3"/>
							</g>
						</g>
						<g>
							<g class="st13">
								<path class="st7" d="M227.4,74.8c0-0.5,0.4-0.9,0.9-0.9c0.5,0,0.9,0.4,0.9,0.9c0,0.5-0.4,0.9-0.9,0.9
									C227.8,75.7,227.4,75.3,227.4,74.8z"/>
							</g>
						</g>
						<g>
							<g class="st13">
								<path class="st7" d="M222.9,71.6c0-0.9,0.7-1.5,1.5-1.6c0.8,0,1.5,0.7,1.5,1.5c0,0.9-0.7,1.6-1.5,1.6
									C223.6,73.1,222.9,72.4,222.9,71.6z"/>
							</g>
						</g>
						<g>
							<g class="st13">
								<ellipse class="st7" cx="210.3" cy="79.6" rx="0.7" ry="0.7"/>
							</g>
						</g>
						<g>
							<g class="st13">
								
									<ellipse transform="matrix(1 -1.664328e-03 1.664328e-03 1 -0.1365 0.3548)" class="st7" cx="213.1" cy="82.2" rx="1.3" ry="1.3"/>
							</g>
						</g>
					</g>
					<g>
						<g>
							<path class="st7" d="M150.1,72c-6.1-0.4-12.1-0.9-18.2-1.5c-0.2,0-0.3-0.2-0.3-0.4c0-0.4,0-0.8,0-1.2c0-0.2,0.2-0.3,0.3-0.3
								c6,0.6,12.1,1.2,18.2,1.6c0.2,0,0.3,0.2,0.3,0.3c0,0.4,0,0.7,0,1.1C150.4,71.9,150.3,72,150.1,72z"/>
						</g>
						<g>
							<path class="st7" d="M168.2,84.6c-6.1-0.1-12.2-0.2-18.3-0.4c-0.2,0-0.3-0.2-0.3-0.3c0-0.4,0-0.7,0-1.1
								c0-0.2,0.2-0.3,0.3-0.3c6.1,0.2,12.2,0.3,18.3,0.4c0.2,0,0.4,0.1,0.4,0.3c0,0.3,0,0.7,0,1C168.6,84.5,168.4,84.6,168.2,84.6z
								"/>
						</g>
						<g>
							<g>
								<path class="st14" d="M139.4,62.8c0.1,0.8,0.3,1.7,0.5,2.5c0.1,0.4,0.7,0.5,0.7,0.1c0.1-0.7,0.2-1.4,0.4-2.2
									c0.1-0.4,0.1-0.9-0.3-1.2c-1-0.6-0.9,1.7-0.8,2.3c0.1,0.6,0.9,0.4,0.7-0.2c0-0.3-0.1-0.5-0.1-0.8c0-0.1,0-0.2,0-0.4
									c0.1-0.2,0.1-0.2,0-0.1c-0.1-0.1-0.2-0.1-0.3-0.2c0-0.1,0-0.1,0,0.1c0,0.1,0,0.2-0.1,0.3c0,0.2-0.1,0.4-0.1,0.6
									c-0.1,0.4-0.1,0.9-0.2,1.3c0.2,0,0.5,0.1,0.7,0.1c-0.2-0.8-0.4-1.6-0.5-2.5C140,62,139.3,62.2,139.4,62.8L139.4,62.8z"/>
							</g>
						</g>
						<g>
							<path class="st15" d="M139.3,61.6c-0.3,0.4-0.9,0.4-1.2,0c-0.2-0.3-0.3-0.7-0.3-1.1c0-0.3,0-0.6-0.1-0.9
								c0-0.5-1.2-3.4-1.2-3.9c0.1-0.5,1.4,1,1.7,1.1c0.5,0.1,1-1.3,1.5-1.3c0.4,0,0.5,0.1,0.9,0.2c0.5,0.2,1.2,1.5,1.5,2
								c0.3,0.4,1,1.2,1.2,1.6c0.2,0.6-0.3,0.9-0.4,1.5c0,0.1,0,0.2-0.1,0.3c-0.1,0.1-0.1,0.1-0.2,0.1c-0.5,0.1-0.8,0.4-1.3,0.3
								c-0.5-0.1-1.2-0.7-1.6-0.3c-0.2,0.2-0.4,0.6-0.8,0.6"/>
						</g>
						<g>
							<g>
								<path class="st16" d="M138.2,56.7c0.2-1.3-1.1-1.7-1.9-2.1c0,0.3-0.1,0.6-0.1,0.9c0.1,0,0.5,0.1,0.7,0.2c0-0.3,0-0.6,0-0.9
									c-0.4,0.1-1.1,0-1.2,0.6c-0.1,0.7,0.8,1.7,1.2,2c0.1-0.3,0.1-0.5,0.2-0.8c-0.5,0-1,0-1.1,0.8c-0.1,0.6,0.4,1.1,0.9,1
									c0.2,0,0.4-0.4,0.2-0.6c0-0.1-0.1-0.1-0.1-0.2c-0.1,0.2-0.3,0.4-0.4,0.6c0.5,0.2,1,0.3,1.3-0.2c0.1-0.3,0.2-0.7,0.3-1.1
									c0.1-0.2,0.3-0.5-0.1-0.4c-0.1,0-0.3,0.3-0.4,0.4c-0.2,0.2-0.1,0.6,0.2,0.8c0.9,0.5,1.5-0.2,1.9-0.8
									c-0.2-0.1-0.5-0.1-0.7-0.2c0.2,0.4,0.2,0.6,0,0.4c-0.1-0.1-0.3-0.1-0.4-0.2c-0.3-0.1-0.5-0.2-0.8-0.3
									c-0.4-0.2-0.7,0.5-0.3,0.8c0.2,0.1,0.3,0.2,0.5,0.3c0.5,0.3,0.8-0.4,0.4-0.7c0,0-0.1,0-0.1-0.1c-0.5-0.3-0.8,0.4-0.4,0.7
									c0,0,0.1,0,0.1,0.1c0.1-0.2,0.3-0.5,0.4-0.7c-0.2-0.1-0.3-0.2-0.5-0.3c-0.1,0.3-0.2,0.5-0.3,0.8c0.5,0.2,1.3,0.8,1.8,0.6
									c0.5-0.2,0.4-1,0.3-1.5c-0.1-0.4-0.5-0.5-0.7-0.2C139,56.5,138.7,57,138.2,56.7c0,0.3,0.1,0.5,0.1,0.8
									c0.3-0.3,0.7-0.6,0.8-1.1c0-0.4-0.2-0.9-0.6-1c-0.4-0.1-0.7,0.2-0.8,0.5c-0.1,0.3-0.2,0.6-0.3,0.9c-0.1,0.4-0.1,0.8-0.6,0.6
									c-0.3-0.1-0.6,0.2-0.4,0.6c0,0.1,0.1,0.1,0.1,0.2c0.1-0.2,0.2-0.4,0.2-0.6c0.1,0,0.2,0,0.4,0c0.4,0,0.5-0.5,0.2-0.8
									c-0.2-0.2-0.4-0.4-0.5-0.6c-0.1-0.1-0.2-0.3-0.2-0.4c-0.1-0.2-0.1-0.1-0.1,0.1c0.1,0.1,0.5-0.1,0.7-0.1
									c0.3-0.1,0.4-0.8,0-0.9c-0.3-0.1-0.6-0.1-0.9-0.2c-0.4-0.1-0.5,0.7-0.1,0.9c0.2,0.1,1.4,0.5,1.4,0.9
									C137.4,56.9,138.1,57.3,138.2,56.7C138.2,56.7,138.2,56.7,138.2,56.7z"/>
							</g>
						</g>
						<g>
							<g>
								<path class="st16" d="M137.8,58.1c-0.4-0.1-0.7-0.4-1-0.3c-0.3,0.1-0.5,0.4-0.4,0.8c0.1,0.4,0.3,0.7,0.6,0.9
									c0.3,0.2,0.7,0.4,1,0.2c0.3-0.2,0.2-0.7-0.1-0.8c-0.4-0.2-0.9-0.1-0.9,0.5c0,0.5,0.5,0.8,0.8,0.9c0.4,0.1,0.5-0.6,0.2-0.8
									c-0.5-0.4-1.6-1.1-2-0.3c-0.3,0.8,0.8,1.5,1.2,1.7c0.5,0.3,0.7-0.6,0.2-0.8c-0.2-0.1-0.3-0.2-0.5-0.3
									c-0.1-0.1-0.4-0.5-0.3-0.2c0,0.1,0,0.2,0.1,0.2c0.1,0,0.2,0.1,0.2,0.1c0.2,0.1,0.4,0.2,0.5,0.3c0.1-0.3,0.1-0.5,0.2-0.8
									c-0.1,0.1-0.1,0.2-0.2,0.3c0-0.3-0.1-0.6-0.1-0.8c0.1-0.1-0.1-0.1-0.2-0.1c0,0-0.4-0.2-0.3-0.1c0,0.1,0.2,0.1,0.3,0.1
									c0.1,0.1,0.2,0.1,0.4,0.1C138.2,59.2,138.2,58.3,137.8,58.1C137.8,58.1,137.8,58.1,137.8,58.1z"/>
							</g>
						</g>
						<g>
							<g>
								<path class="st17" d="M141.2,58.6c0.3-0.6,0.7-1,1.4-1.1c-0.2-0.1-0.3-0.2-0.5-0.4c0.1,0.3,0,0.5-0.2,0.7
									c-0.2,0.2-0.1,0.7,0.2,0.8c0.4,0.1,0.8,0.2,1.2,0.3c-0.1-0.2-0.2-0.5-0.3-0.7c-0.1,0.2-0.2,0.3-0.3,0.4
									c-0.2,0.2-0.1,0.6,0.2,0.8c0.2,0.1,0.4,0.3,0.6,0.3c0-0.1,0-0.1,0-0.2c-0.2,0.1-0.4,0.2-0.5,0.2c-0.3,0.1-0.4,0.7,0,0.9
									c0.3,0.1,0.9,0.2,1.1,0.6c0-0.1,0-0.3,0-0.4c-0.1,0.2-1.4-0.5-1.6-0.6c-0.5-0.3-0.7,0.6-0.2,0.8c0.5,0.3,2.1,1.1,2.4,0.4
									c0.4-0.9-1-1.4-1.5-1.6c0,0.3,0,0.6,0,0.9c0.4-0.1,1.2-0.3,1.2-0.9c0-0.7-0.9-0.9-1.3-1.1c0.1,0.3,0.1,0.5,0.2,0.8
									c0.2-0.2,0.3-0.3,0.4-0.5c0.2-0.3,0-0.7-0.3-0.7c-0.3,0-0.7-0.1-1-0.2c0.1,0.3,0.1,0.5,0.2,0.8c0.4-0.4,0.5-0.9,0.4-1.5
									c0-0.2-0.3-0.4-0.5-0.4c-0.8,0.1-1.5,0.6-1.8,1.5C140.3,58.5,140.9,59.1,141.2,58.6C141.2,58.6,141.2,58.6,141.2,58.6z"/>
							</g>
						</g>
						<g>
							<g>
								<path class="st16" d="M141.2,58.4c0.4-0.8,0.8-1.6,0.5-2.6c-0.3-0.9-1-0.9-1.4-0.2c0.2,0,0.4,0,0.6,0
									c-0.5-0.6-1.5-1.6-2-0.5c-0.4,1.1,0.4,2.2,1.1,2.9c0.4,0.4,0.9-0.2,0.5-0.6c-0.3-0.4-0.7-0.7-0.9-1.2
									c-0.1-0.3-0.2-0.7,0.1-0.6c0.2,0,0.4,0.4,0.5,0.5c0.2,0.2,0.5,0.2,0.6,0c-0.1-0.3-0.1-0.3,0-0.1c0,0.1,0.1,0.3,0.1,0.4
									c0,0.2,0,0.4-0.1,0.5c-0.1,0.3-0.3,0.6-0.4,0.9C140.3,58.3,141,58.8,141.2,58.4C141.2,58.4,141.2,58.4,141.2,58.4z"/>
							</g>
						</g>
						<g>
							<g>
								<path class="st17" d="M142.3,61.5c0.1-0.4,0.1-0.8,0.2-1.1c-0.1,0.1-0.2,0.2-0.4,0.3c0.3,0,0.3,0.8,0.3,1.1
									c0.1-0.1,0.1-0.2,0.2-0.4c-0.5,0.4-1.2-0.1-1.7-0.3c-0.6-0.2-1.1-0.2-1.7-0.9c-0.4-0.4-0.9,0.1-0.5,0.6
									c0.5,0.7,1.1,0.9,1.8,1.1c0.4,0.1,0.7,0.3,1,0.4c0.4,0.1,0.8,0.1,1.2,0c1.1-0.2,0.5-2.5-0.5-2.5c-0.2,0-0.3,0.1-0.4,0.3
									c-0.1,0.3-0.1,0.7-0.2,1.1C141.5,61.8,142.2,62.1,142.3,61.5C142.3,61.5,142.3,61.5,142.3,61.5z"/>
							</g>
						</g>
						<g>
							<g>
								<path class="st16" d="M137.8,59.6c-0.4,0.2-0.7,0.5-0.6,1c0.1,0.2,0.2,0.4,0.3,0.6c0.2,0.2,0.2,0.4,0.3,0.7
									c0.2,0.4,0.5,0.9,0.9,1c0.5,0.2,0.7-0.3,1-0.6c0.3-0.4-0.2-1.1-0.5-0.7c-0.1,0.1-0.3,0.4-0.4,0.4c-0.2-0.1-0.3-0.5-0.3-0.7
									c-0.1-0.2-0.1-0.4-0.2-0.5c0-0.1-0.1-0.1-0.2-0.2c0,0,0,0-0.1-0.1c0.1,0,0.2,0,0.2,0C138.6,60.2,138.3,59.4,137.8,59.6
									C137.8,59.6,137.8,59.6,137.8,59.6z"/>
							</g>
						</g>
						<g>
							<path class="st18" d="M142.7,69.6c-1.5-0.1-3-0.3-4.5-0.4c-0.4-1.1-0.9-2.3-1.3-3.4c-0.2-0.5,0.1-1,0.6-1
								c1.2,0.1,2.4,0.3,3.6,0.4c0.8,0.1,1.5,0.2,2.3,0.2c0.4,0,0.7,0.6,0.6,1C143.5,67.5,143.1,68.5,142.7,69.6z"/>
						</g>
						<g>
							<path class="st14" d="M143,69c-1.7-0.1-3.3-0.3-5-0.5c0.1,0.2,0.2,0.4,0.2,0.6c1.5,0.1,3,0.3,4.5,0.4
								C142.8,69.4,142.9,69.2,143,69z"/>
						</g>
						<g>
							<path class="st7" d="M172,109.9c-13.7,0.6-27.3,1.4-40.8,2.5c-0.1,0-0.2,0.1-0.2,0.2c0,2.5,0,5.1,0,7.6
								c0,0.1,0.1,0.2,0.2,0.2c13.5-1.5,27.1-2.7,40.8-3.5c0.1,0,0.2-0.1,0.2-0.2c0-2.2,0-4.4,0-6.6
								C172.2,109.9,172.2,109.8,172,109.9z"/>
						</g>
						<g>
							<path class="st19" d="M164,92.9c-8.3,0-16.5,0.1-24.8,0.1c-0.1,0-0.2,0.1-0.2,0.2c0,5.7,0,11.4,0,17.1c0,0.1,0.1,0.2,0.2,0.2
								c8.2-0.5,16.5-1,24.8-1.4c0.1,0,0.2-0.1,0.2-0.2c0-5.2,0-10.5,0-15.7C164.2,93,164.1,92.9,164,92.9z"/>
						</g>
						<g>
							<path class="st20" d="M140.3,108.8c0-4.8,0-9.5,0-14.3c7.5,0,15-0.1,22.5-0.2c0,4.4,0,8.9,0,13.3
								C155.3,108,147.8,108.4,140.3,108.8z"/>
						</g>
						<g>
							<path class="st20" d="M159.3,109.1c-5.2,0.3-10.4,0.6-15.5,0.9c-0.1,0-0.2,0.1-0.2,0.2c0,0.4,0,0.7,0,1.1
								c0,0.1,0.1,0.2,0.2,0.2c5.2-0.4,10.3-0.7,15.5-0.9c0.1,0,0.2-0.1,0.2-0.2c0-0.3,0-0.7,0-1
								C159.5,109.2,159.4,109.1,159.3,109.1z"/>
						</g>
						<g>
							<path class="st0" d="M151,112.7c-6,0.4-12,0.9-18,1.4c-0.1,0-0.2,0.1-0.2,0.2c0,1.2,0,2.3,0,3.5c0,0.1,0.1,0.2,0.2,0.2
								c6-0.6,12-1.1,18-1.6c0.1,0,0.2-0.1,0.2-0.2c0-1.1,0-2.2,0-3.3C151.2,112.8,151.1,112.7,151,112.7z"/>
						</g>
						<g>
							<path class="st0" d="M170.4,111.6c-6,0.3-12.1,0.6-18.1,1c-0.1,0-0.2,0.1-0.2,0.2c0,1.1,0,2.2,0,3.3c0,0.1,0.1,0.2,0.2,0.2
								c6-0.5,12-0.9,18.1-1.2c0.1,0,0.2-0.1,0.2-0.2c0-1,0-2.1,0-3.1C170.6,111.7,170.5,111.6,170.4,111.6z"/>
						</g>
						<g>
							<path class="st5" d="M140.7,119.1c-2.2,0.2-4.5,0.5-6.7,0.7c-0.1,0-0.2,0.1-0.2,0.2c0,0.3,0,0.6,0,1c0,0.1,0.1,0.2,0.2,0.2
								c2.2-0.3,4.5-0.5,6.7-0.7c0.1,0,0.2-0.1,0.2-0.2c0-0.3,0-0.6,0-0.9C140.9,119.2,140.8,119.1,140.7,119.1z"/>
						</g>
						<g>
							<path class="st5" d="M168.7,116.9c-2.3,0.1-4.5,0.3-6.8,0.4c-0.1,0-0.2,0.1-0.2,0.2c0,0.3,0,0.6,0,0.9c0,0.1,0.1,0.2,0.2,0.2
								c2.3-0.2,4.5-0.3,6.8-0.5c0.1,0,0.2-0.1,0.2-0.2c0-0.3,0-0.6,0-0.9C168.9,116.9,168.8,116.9,168.7,116.9z"/>
						</g>
						<g>
							<path class="st11" d="M155,76.6c-0.5,0-1,0-1.5-0.1c-0.1,0-0.1,0-0.1,0.1c0,2,0,4,0,6c0,0,0,0.1,0.1,0.1c0.5,0,1,0,1.5,0
								c0.1,0,0.1,0,0.1-0.1C155.1,80.6,155.1,78.6,155,76.6C155.1,76.6,155.1,76.6,155,76.6z"/>
						</g>
						<g>
							<path class="st21" d="M156.4,76.6c-0.4,0-0.8,0-1.2-0.1c-0.1,0-0.1,0-0.1,0.1c0,2,0,3.9,0,5.9c0,0,0,0.1,0.1,0.1
								c0.4,0,0.8,0,1.2,0c0.1,0,0.1,0,0.1-0.1C156.5,80.7,156.5,78.7,156.4,76.6C156.5,76.7,156.5,76.6,156.4,76.6z"/>
						</g>
						<g>
							<path class="st22" d="M157.7,76.7c-0.3,0-0.6,0-1,0c-0.1,0-0.2,0.1-0.2,0.2c0.2,1.9,0.5,3.7,0.7,5.6c0,0.1,0.1,0.2,0.2,0.2
								c0.3,0,0.6,0,1,0c0.1,0,0.2-0.1,0.2-0.2c-0.2-1.9-0.5-3.7-0.7-5.6C157.9,76.8,157.8,76.7,157.7,76.7z"/>
						</g>
						<g>
							<path class="st7" d="M167.6,75.5c-1.9-0.1-3.9-0.1-5.8-0.2c-0.3,0-0.5-0.3-0.5-0.5c0.6-1.4,1.1-2.9,1.7-4.3
								c0-0.3,0.2-0.5,0.5-0.5c0.8,0,1.6,0.1,2.4,0.1c0.3,0,0.5,0.3,0.5,0.5c0.6,1.5,1.1,3,1.7,4.4
								C168.1,75.3,167.9,75.6,167.6,75.5z"/>
						</g>
						<g>
							<path class="st0" d="M166.5,71c-0.1-0.1-0.1-0.3-0.2-0.4c0-0.3-0.2-0.5-0.5-0.5c-0.8,0-1.6-0.1-2.4-0.1
								c-0.3,0-0.5,0.2-0.5,0.5c-0.1,0.1-0.1,0.3-0.2,0.4C164.1,70.9,165.3,71,166.5,71z"/>
						</g>
						<g>
							<path class="st5" d="M164.9,82.2c-0.2,0-0.5,0-0.7,0c0-2.2,0-4.5,0-6.7c0.2,0,0.5,0,0.7,0C164.9,77.7,164.9,79.9,164.9,82.2z
								"/>
						</g>
						<g>
							<path class="st5" d="M162.9,82.9c0-0.3,0-0.5,0-0.8c1.2,0,2.3,0.1,3.5,0.1c0,0.3,0,0.5,0,0.8C165.2,82.9,164,82.9,162.9,82.9
								z"/>
						</g>
					</g>
				</g>
				<g>
					<g class="st13">
						<g>
							<path d="M147.3,99.3c0-13-10.5-23.5-23.5-23.5c-13,0-23.5,10.5-23.5,23.5c0,13,10.5,23.5,23.5,23.5c0,0,0,0,0,0
								C136.8,122.8,147.3,112.3,147.3,99.3z"/>
						</g>
					</g>
				</g>
				<path class="st23" d="M291.5,163.2c-1-1.1-2.5-2.3-4.5-3.3c-4-2.2-10.1-4.3-17.5-6c-7.8-1.8-17-3.2-27.2-4.2
					c-10.7-1-22-1.6-33.7-1.6c-11.7,0-23.1,0.5-33.7,1.6c-10.2,1-19.4,2.4-27.2,4.2c-7.5,1.7-13.5,3.8-17.5,6
					c-2,1.1-3.5,2.2-4.5,3.3c-1.2,1.3-1.7,2.6-1.7,4c0,2.2,1.4,4.2,4.2,6.1c2.7,1.8,6.6,3.5,11.7,5.1c10.6,3.3,25.8,5.7,42.8,7
					l5.7,0.3l-0.4,0.4c-0.5,0.5-0.6,1.3-0.3,1.9c0.3,0.6,1,0.8,1.6,0.8c0.2,0,0.4,0,0.6-0.1l11.9-3.6c0.7-0.2,1.1-0.8,1.2-1.4
					c0-0.7-0.4-1.3-1.1-1.5l-11.7-4.4c-0.7-0.3-1.8-0.1-2.3,0.7c-0.4,0.6-0.3,1.4,0.3,1.9l0.5,0.4l-7.9-0.6
					c-17.3-1.4-28.6-3.8-35-5.6c-4.3-1.2-7.6-2.4-10.1-3.7c-3.5-1.8-3.9-3.2-3.9-3.7c0-1.7,4.6-5.7,22-9.2c15-3.1,34.6-4.8,55-4.8
					s40,1.7,55,4.8c17.3,3.6,22,7.5,22,9.2c0,0.6-0.7,1.5-1.8,2.3c-1.5,1.1-3.7,2.2-6.5,3.2c-6,2.2-14.5,4.1-24.6,5.6
					c-2.1,0.3-2.9,1.5-2.9,2.5c0,0.4,0.2,1.5,1.6,2.1c0.6,0.3,1.4,0.4,2.2,0.4c0.3,0,0.6,0,0.9-0.1c11.9-1.7,21.8-4.1,28.6-6.9
					c6.8-2.8,10.3-5.9,10.3-9.2C293.2,165.8,292.6,164.5,291.5,163.2z"/>
				<path class="st7" d="M262.8,119.6c-5.5,0-10.3,3.6-11.9,8.7c-3.1-1.9-6.7-2.9-10.8-2.9c-2.7,0-5.2,0.4-7.5,1.2
					c-2.1,0.7-3.9,1.8-5.5,3.2l-1.1-0.6c-4-2.4-9.7-3.9-15-3.9c-3.3,0-6.5,0.6-9.3,1.9c-1.9,0.8-3.6,1.9-5.2,3.2v-4.6h-38.3v20.5
					h5.4v2.1l-9.1,17.3l4.3,3.2c4.8,3.6,11.8,5.8,18.4,5.8c5.8,0,10.9-1.6,14.7-4.7c0.8-0.6,1.5-1.3,2.1-2c3.9,4.4,9.4,6.7,15.9,6.7
					c3.4,0,6.5-0.7,9.3-1.9c2.4-1.1,4.4-2.6,6-4.5c3.6,4.1,8.7,6.2,14.9,6.2c6.5,0,11.9-2.5,15.5-7.1c3.4-4.3,5.1-10.1,5.1-17.4
					c0-2-0.1-4-0.4-5.8c0.8,0.2,1.7,0.3,2.5,0.3c6.9,0,12.5-5.6,12.5-12.4C275.2,125.2,269.6,119.6,262.8,119.6z"/>
				<g>
					<g>
						<g>
							<path class="st23" d="M268.9,132.1c0,3.4-2.8,6.1-6.1,6.1c-3.4,0-6.1-2.7-6.1-6.1c0-3.4,2.8-6.1,6.1-6.1
								C266.2,125.9,268.9,128.7,268.9,132.1z M260.5,132.1c0,1.2,1,2.2,2.3,2.2c1.2,0,2.3-1,2.3-2.2c0-1.2-1-2.3-2.3-2.3
								C261.5,129.8,260.5,130.8,260.5,132.1z"/>
						</g>
					</g>
				</g>
				<g>
					<g>
						<path class="st23" d="M191.9,156.6c0,7-5.7,11.8-14.7,11.8c-5.4,0-11-1.8-14.6-4.6l4.2-8.1c2.9,3.1,6.1,4.7,9.5,4.7
							c3.4,0,5.2-1.3,5.2-3.8c0-2.5-1.8-3.8-5.2-3.8h-6.4v-5.6l7.6-7.3h-13v-7.9h25.6v6l-9,8.3l1.7,0.3
							C188.2,147.6,191.9,151.2,191.9,156.6z"/>
					</g>
				</g>
				<g>
					<g>
						<path class="st23" d="M211.6,139.4c-5,0-7.6,3-7.5,8.2c1.6-2.1,4.2-3.4,7.8-3.4c6.9,0,11.4,4.7,11.4,11.7
							c0,7.6-5.4,12.5-13.4,12.5c-9.6,0-15.5-6.9-15.5-17.9c0-11.5,6.6-18.9,16.6-18.9c4.1,0,8.7,1.2,11.7,3l-3.9,7.2
							C216.9,140.3,214.4,139.4,211.6,139.4z M205.1,156c0,2.5,1.4,4.3,4.4,4.3c2.7,0,4.3-1.5,4.3-4.4c0-2.7-1.5-4.2-4.2-4.2
							C206.7,151.6,205.1,153.4,205.1,156z"/>
					</g>
				</g>
				<g>
					<g>
						<path class="st23" d="M254.4,150c0,11.8-5.1,18.2-14.3,18.2c-9.3,0-14.3-6.4-14.3-18.2c0-11.7,5.1-18.2,14.3-18.2
							C249.2,131.8,254.4,138.3,254.4,150z M235.9,150c0,7.9,1.1,11,4.2,11c3,0,4.1-3.1,4.1-11c0-7.9-1.1-11-4.1-11
							C237,139,235.9,142,235.9,150z"/>
					</g>
				</g>
				<g>
					<g>
						<path class="st7" d="M118.9,79.3c2.4,0,4.8,0.5,7.1,1.5c9.1,3.9,13.2,14.5,9.3,23.6c-2.9,6.7-9.5,10.8-16.4,10.8
							c-2.4,0-4.8-0.5-7.1-1.5c-9.1-3.9-13.2-14.5-9.3-23.6C105.4,83.3,112,79.3,118.9,79.3 M118.9,73.9v5.4V73.9
							c-4.5,0-8.9,1.3-12.6,3.7c-3.9,2.5-6.9,6.1-8.8,10.3c-1.3,2.9-1.9,5.9-1.9,9.1c0,3,0.5,6,1.6,8.8c1.1,2.8,2.7,5.4,4.8,7.5
							c2.2,2.3,4.7,4,7.6,5.3c3,1.3,6.1,1.9,9.3,1.9c4.5,0,8.9-1.3,12.6-3.7c3.9-2.5,6.9-6.1,8.8-10.3c1.3-2.9,1.9-5.9,1.9-9.1
							c0-3-0.5-6-1.6-8.8c-1.1-2.8-2.7-5.4-4.8-7.5c-2.2-2.3-4.7-4-7.6-5.3C125.2,74.5,122.1,73.9,118.9,73.9L118.9,73.9z"/>
					</g>
					<g>
						
							<ellipse transform="matrix(0.3987 -0.9171 0.9171 0.3987 -17.6739 167.4541)" class="st24" cx="118.9" cy="97.2" rx="17.9" ry="17.9"/>
					</g>
				</g>
				<g>
					<g>
						<path class="st7" d="M115.4,107.8v-6.5c0-0.6-0.4-1-1-1h-6.3c-0.6,0-1-0.4-1-1v-3.8c0-0.6,0.4-1,1-1h6.3c0.6,0,1-0.4,1-1v-6.5
							c0-0.6,0.4-1,1-1h4.6c0.6,0,1,0.4,1,1v6.5c0,0.6,0.4,1,1,1h6.3c0.6,0,1,0.4,1,1v3.8c0,0.6-0.4,1-1,1H123c-0.6,0-1,0.4-1,1v6.5
							c0,0.6-0.4,1-1,1h-4.6C115.9,108.8,115.4,108.4,115.4,107.8z"/>
					</g>
				</g>
				<g>
					<g class="st13">
						<g>
							<path d="M310.1,79.7c0-13-10.5-23.5-23.5-23.5c-13,0-23.5,10.5-23.5,23.5c0,13,10.5,23.5,23.5,23.5c0,0,0,0,0,0
								C299.6,103.1,310.1,92.6,310.1,79.7z"/>
						</g>
					</g>
				</g>
				<g>
					<g>
						<path class="st7" d="M281.9,58c2.4,0,4.8,0.5,7.1,1.5c9.1,3.9,13.2,14.5,9.3,23.6c-2.9,6.7-9.5,10.8-16.4,10.8
							c-2.4,0-4.8-0.5-7.1-1.5c-9.1-3.9-13.2-14.5-9.3-23.6C268.4,62,275,58,281.9,58 M281.9,52.5V58V52.5c-4.5,0-8.9,1.3-12.6,3.7
							c-3.9,2.5-6.9,6.1-8.8,10.3c-1.3,2.9-1.9,5.9-1.9,9.1c0,3,0.5,6,1.6,8.8c1.1,2.8,2.7,5.4,4.8,7.5c2.2,2.3,4.7,4,7.6,5.3
							c3,1.3,6.1,1.9,9.3,1.9c4.5,0,8.9-1.3,12.6-3.7c3.9-2.5,6.9-6.1,8.8-10.3c1.3-2.9,1.9-5.9,1.9-9.1c0-3-0.5-6-1.6-8.8
							c-1.1-2.8-2.7-5.4-4.8-7.5c-2.2-2.3-4.7-4-7.6-5.3C288.3,53.2,285.1,52.5,281.9,52.5L281.9,52.5z"/>
					</g>
					<g>
						
							<ellipse transform="matrix(0.3987 -0.9171 0.9171 0.3987 99.9545 304.1598)" class="st24" cx="281.9" cy="75.9" rx="17.9" ry="17.9"/>
					</g>
				</g>
				<g>
					<g>
						<path class="st7" d="M278.5,86.5v-6.5c0-0.6-0.4-1-1-1h-6.3c-0.6,0-1-0.4-1-1v-3.8c0-0.6,0.4-1,1-1h6.3c0.6,0,1-0.4,1-1v-6.5
							c0-0.6,0.4-1,1-1h4.6c0.6,0,1,0.4,1,1v6.5c0,0.6,0.4,1,1,1h6.3c0.6,0,1,0.4,1,1v3.8c0,0.6-0.4,1-1,1h-6.3c-0.6,0-1,0.4-1,1
							v6.5c0,0.6-0.4,1-1,1h-4.6C279,87.5,278.5,87,278.5,86.5z"/>
					</g>
				</g>
				<g>
					<g>
						<path class="st0" d="M131.2,42.6c0.6,0.1,1.2,0.3,1.9,0.4c0.7,0.2,1.3,0.3,2,0.4c-0.7-0.1-1.3-0.3-2-0.4
							C132.5,42.9,131.8,42.8,131.2,42.6z"/>
					</g>
					<g>
						<g>
							<path class="st0" d="M284.7,41.7c-9.8,2.2-21.3,4-34,5.2c-13.4,1.3-27.5,1.9-42.2,1.9s-28.8-0.7-42.2-1.9
								c-12.8-1.2-24.2-3-34-5.2c-2.5-0.6-4.9-1.2-7.1-1.8v3c2.2,0.6,4.6,1.2,7.1,1.8c9.8,2.2,21.3,4,34,5.2
								c13.4,1.3,27.5,1.9,42.2,1.9s28.8-0.7,42.2-1.9c12.8-1.2,24.2-3,34-5.2c3.2-0.7,6.6-1.6,9.4-2.4v-3
								C291.3,40.2,288,41,284.7,41.7z"/>
						</g>
					</g>
				</g>
			</g>
		</g>
		<rect y="0" class="st25" width="400" height="225"/>
	</g>
</g>
</svg>
