<?xml version="1.0" encoding="utf-8"?>
<!-- Generator: Adobe Illustrator 20.1.0, SVG Export Plug-In . SVG Version: 6.00 Build 0)  -->
<svg version="1.1" id="Layer_1" xmlns="http://www.w3.org/2000/svg" xmlns:xlink="http://www.w3.org/1999/xlink" x="0px" y="0px"
	 viewBox="0 0 24 24" style="enable-background:new 0 0 24 24;" xml:space="preserve">
<style type="text/css">
	.st0{clip-path:url(#SVGID_2_);fill:#F5F5F5;}
	.st1{clip-path:url(#SVGID_4_);fill:#F5F5F5;}
</style>
<g>
	<g>
		<g>
			<g>
				<defs>
					<rect id="SVGID_1_" y="0" width="24" height="24"/>
				</defs>
				<clipPath id="SVGID_2_">
					<use xlink:href="#SVGID_1_"  style="overflow:visible;"/>
				</clipPath>
				<path class="st0" d="M21.6,11c0-0.1-0.1-0.2-0.3-0.2L19,10.5c0,0-1.1-2.2-1.3-2.3l0,0l0,0l0,0c-0.1,0.1-1.2,2.3-1.2,2.3
					l-2.3,0.3c-0.2,0-0.3,0.1-0.3,0.2c0,0.1,0,0.1,0.1,0.2l1.6,1.7l-0.4,2.4v0.1c0,0.1,0.1,0.2,0.2,0.2s2.3-1.2,2.3-1.2
					s2.2,1.2,2.3,1.2s0.2-0.1,0.2-0.2v-0.1l-0.4-2.4C19.8,12.9,21.6,11.1,21.6,11z"/>
			</g>
		</g>
	</g>
	<g>
		<g>
			<g>
				<defs>
					<rect id="SVGID_3_" y="0" width="24" height="24"/>
				</defs>
				<clipPath id="SVGID_4_">
					<use xlink:href="#SVGID_3_"  style="overflow:visible;"/>
				</clipPath>
				<path class="st1" d="M12.7,12.4c-0.5-0.5-0.6-1.1-0.6-1.4c0-0.2,0-0.3,0.1-0.5h-8c-1,0-1.8,0.8-1.8,1.8l0,0c0,1,0.8,1.8,1.8,1.8
					h9.5l0.1-0.7L12.7,12.4z"/>
			</g>
		</g>
	</g>
</g>
</svg>
