<?xml version="1.0" encoding="UTF-8" standalone="no"?>
<!-- Generator: Adobe Illustrator 20.1.0, SVG Export Plug-In . SVG Version: 6.00 Build 0)  -->

<svg
   xmlns:dc="http://purl.org/dc/elements/1.1/"
   xmlns:cc="http://creativecommons.org/ns#"
   xmlns:rdf="http://www.w3.org/1999/02/22-rdf-syntax-ns#"
   xmlns:svg="http://www.w3.org/2000/svg"
   xmlns="http://www.w3.org/2000/svg"
   xmlns:sodipodi="http://sodipodi.sourceforge.net/DTD/sodipodi-0.dtd"
   xmlns:inkscape="http://www.inkscape.org/namespaces/inkscape"
   version="1.1"
   id="Layer_1"
   x="0px"
   y="0px"
   viewBox="0 0 400 225"
   style="enable-background:new 0 0 400 225;"
   xml:space="preserve"
   inkscape:version="0.91 r13725"
   sodipodi:docname="icon.svg"><metadata
     id="metadata4429"><rdf:RDF><cc:Work
         rdf:about=""><dc:format>image/svg+xml</dc:format><dc:type
           rdf:resource="http://purl.org/dc/dcmitype/StillImage" /><dc:title>accordion</dc:title></cc:Work></rdf:RDF></metadata><defs
     id="defs4427" /><sodipodi:namedview
     pagecolor="#ffffff"
     bordercolor="#666666"
     borderopacity="1"
     objecttolerance="10"
     gridtolerance="10"
     guidetolerance="10"
     inkscape:pageopacity="0"
     inkscape:pageshadow="2"
     inkscape:window-width="1871"
     inkscape:window-height="1056"
     id="namedview4425"
     showgrid="false"
     inkscape:zoom="1.0765701"
     inkscape:cx="78.248721"
     inkscape:cy="12.752379"
     inkscape:window-x="49"
     inkscape:window-y="24"
     inkscape:window-maximized="1"
     inkscape:current-layer="Layer_1" /><style
     type="text/css"
     id="style4385">
	.st0{fill:#DDDDDD;}
	.st1{fill:#C6C6C6;}
	.st2{fill:#8DB7E2;}
	.st3{fill:#2376C1;}
	.st4{fill:none;}
</style><title
     id="title4387">accordion</title><g
     id="g4868"><rect
       style="fill:none"
       y="0"
       x="0"
       id="rect4423"
       height="225"
       width="400"
       class="st4" /><g
       id="g4851"><path
         style="fill:#8db7e2"
         d="M 158.29883 73.896484 L 158.29883 77.507812 L 158.29883 148.18945 L 158.29883 151.80078 L 287.19922 151.80078 C 288.79922 151.80078 290.19922 150.09898 290.19922 147.87305 L 290.19922 144.26172 L 290.19922 119.58984 L 290.19922 115.97852 L 290.19922 109.71875 L 290.19922 106.10742 L 290.19922 99.169922 L 290.19922 95.558594 L 290.19922 81.435547 L 290.19922 77.824219 C 290.19922 75.729229 288.89922 73.896484 287.19922 73.896484 L 158.29883 73.896484 z "
         id="path4397-6" /><path
         style="fill:#8db7e2"
         d="M 158.29883 32.099609 L 158.29883 68.238281 L 287.19922 68.238281 C 288.79922 68.238281 290.19922 66.536475 290.19922 64.310547 L 290.19922 36.027344 C 290.19922 33.932354 288.89922 32.099609 287.19922 32.099609 L 158.29883 32.099609 z "
         id="path4397" /><path
         style="fill:#8db7e2"
         d="M 158.29883 157.08984 L 158.29883 192.90039 L 287.19922 192.90039 C 288.79922 192.90039 290.19922 191.21351 290.19922 189.00781 L 290.19922 160.98242 C 290.19922 158.90646 288.89922 157.08984 287.19922 157.08984 L 158.29883 157.08984 z "
         id="path4401" /><rect
         style="fill:#2376c1"
         id="rect4415"
         height="9.3000002"
         width="56.400002"
         class="st3"
         y="52.712223"
         x="164.54175" /><path
         style="fill:#23c596;fill-opacity:1"
         d="M 122.80078 73.896484 C 121.10078 73.896484 119.80078 75.598292 119.80078 77.824219 L 119.80078 81.435547 L 119.80078 95.558594 L 119.80078 99.169922 L 119.80078 106.10742 L 119.80078 109.71875 L 119.80078 123.83984 L 119.80078 127.45117 L 119.80078 144.26172 L 119.80078 147.87305 C 119.80078 149.96804 121.10077 151.80078 122.80078 151.80078 L 158.29883 151.80078 L 158.29883 148.18945 L 158.29883 77.507812 L 158.29883 73.896484 L 122.80078 73.896484 z "
         id="path4397-6-0-6" /><path
         style="fill:#e66d7e;fill-opacity:1"
         d="m 122.79883,32.099609 c -1.7,0 -3,1.701808 -3,3.927735 l 0,28.28125 c 0,2.094991 1.3,3.929687 3,3.929687 l 35.5,0 0,-36.138672 -35.5,0 z"
         id="path4397-4-3"
         inkscape:connector-curvature="0" /><path
         style="fill:#f7cf5c;fill-opacity:1"
         d="m 122.79883,157.08984 c -1.7,0 -3,1.68688 -3,3.89258 l 0,28.02539 c 0,2.07595 1.3,3.89258 3,3.89258 l 35.5,0 0,-35.81055 -35.5,0 z"
         id="path4401-4-1"
         inkscape:connector-curvature="0" /><rect
         style="fill:#2376c1"
         id="rect4415-7"
         height="9.3000002"
         width="116.3125"
         class="st3"
         y="37.825882"
         x="164.54175" /><rect
         style="fill:#2376c1"
         id="rect4415-5"
         height="9.3000002"
         width="89.375099"
         class="st3"
         y="93.315666"
         x="164.54175" /><rect
         style="fill:#2376c1"
         id="rect4415-7-8"
         height="9.3000002"
         width="100.52161"
         class="st3"
         y="79.086136"
         x="164.54175" /><rect
         style="fill:#2376c1"
         id="rect4415-70"
         height="9.3000002"
         width="56.400002"
         class="st3"
         y="123.50412"
         x="164.54175" /><rect
         style="fill:#2376c1"
         id="rect4415-7-4"
         height="9.3000002"
         width="109.70335"
         class="st3"
         y="108.61776"
         x="164.54175" /><rect
         style="fill:#2376c1"
         id="rect4415-5-8"
         height="9.3000002"
         width="89.375099"
         class="st3"
         y="162.71362"
         x="164.54175" /><rect
         style="fill:#2376c1"
         id="rect4415-70-0"
         height="9.3000002"
         width="56.400002"
         class="st3"
         y="177.23048"
         x="164.54175" /><rect
         style="fill:#2376c1"
         id="rect4415-70-6"
         height="9.3000002"
         width="66.909035"
         class="st3"
         y="137.9198"
         x="164.54175" /></g></g></svg>