<?xml version="1.0" encoding="UTF-8" standalone="no"?>
<svg
   xmlns:ns="&amp;#38;ns_sfw;"
   xmlns:dc="http://purl.org/dc/elements/1.1/"
   xmlns:cc="http://creativecommons.org/ns#"
   xmlns:rdf="http://www.w3.org/1999/02/22-rdf-syntax-ns#"
   xmlns:svg="http://www.w3.org/2000/svg"
   xmlns="http://www.w3.org/2000/svg"
   xmlns:sodipodi="http://sodipodi.sourceforge.net/DTD/sodipodi-0.dtd"
   xmlns:inkscape="http://www.inkscape.org/namespaces/inkscape"
   version="1.1"
   id="Livello_1"
   x="0px"
   y="0px"
   viewBox="0 0 1794.1 2249.9999"
   xml:space="preserve"
   sodipodi:docname="microsoft_store.svg"
   width="1794.1"
   height="2250"
   inkscape:version="1.0 (4035a4fb49, 2020-05-01)"><defs
   id="defs50" /><sodipodi:namedview
   inkscape:document-rotation="0"
   pagecolor="#ffffff"
   bordercolor="#666666"
   borderopacity="1"
   objecttolerance="10"
   gridtolerance="10"
   guidetolerance="10"
   inkscape:pageopacity="0"
   inkscape:pageshadow="2"
   inkscape:window-width="1920"
   inkscape:window-height="1017"
   id="namedview48"
   showgrid="false"
   fit-margin-bottom="1.6"
   lock-margins="true"
   fit-margin-left="0"
   fit-margin-top="0"
   fit-margin-right="0"
   inkscape:zoom="0.23845593"
   inkscape:cx="746.29821"
   inkscape:cy="975.02291"
   inkscape:window-x="1912"
   inkscape:window-y="-8"
   inkscape:window-maximized="1"
   inkscape:current-layer="Livello_1"
   inkscape:pagecheckerboard="false" />
<style
   type="text/css"
   id="style31">
	.st0{fill:#E8E8E8;}
	.st1{fill:#F25022;}
	.st2{fill:#7FBA00;}
	.st3{fill:#00A4EF;}
	.st4{fill:#FFB900;}
</style>
<metadata
   id="metadata33">
	<ns:sfw>
		<ns:slices />
		<ns:sliceSourceBounds
   bottomLeftOrigin="true"
   height="1782.3"
   width="1794.1"
   x="-865.1"
   y="-859.1" />
	</ns:sfw>
<rdf:RDF><cc:Work
     rdf:about=""><dc:format>image/svg+xml</dc:format><dc:type
       rdf:resource="http://purl.org/dc/dcmitype/StillImage" /><dc:title></dc:title></cc:Work></rdf:RDF></metadata>
<path
   class="st0"
   d="m 1380.2,451.5 v -40 c 0,-108.6 -51.7,-210.6 -139.2,-274.9 44.5,59 68.5,130.9 68.4,204.8 v 110.1 h -71 V 341.4 C 1238.5,152.9 1085.6,0 897.1,0 708.6,0 555.6,152.9 555.6,341.4 V 451.5 H 0 v 1200.7 c 0,71.8 58.2,130.1 130.1,130.1 0,0 0,0 0,0 h 1534 c 71.8,0 130.1,-58.2 130.1,-130.1 0,0 0,0 0,0 V 451.5 Z M 626.4,341.4 C 626.3,192 747.4,70.8 896.9,70.8 c 0.1,0 0.1,0 0.2,0 148.1,3.2 267.4,122.5 270.7,270.7 V 451.6 H 768.1 v -40 C 768,262.2 889.1,141 1038.6,140.9 c 0.1,0 0.1,0 0.2,0 12.5,0 24.9,0.9 37.2,2.8 -33.9,-15.6 -70.7,-23.7 -108,-23.8 -87.5,-0.1 -169.7,42.3 -220.4,113.6 -32.9,53.6 -50.3,115.2 -50.2,178 v 40 h -71 z"
   id="path35" />
<g
   id="g45">
	<rect
   x="520.90002"
   y="740.5"
   class="st1"
   width="347.20001"
   height="347.29999"
   id="rect37" />
	<rect
   x="926"
   y="740.5"
   class="st2"
   width="347.20001"
   height="347.29999"
   id="rect39" />
	<rect
   x="520.90002"
   y="1145.6"
   class="st3"
   width="347.20001"
   height="347.20001"
   id="rect41" />
	<rect
   x="926"
   y="1145.6"
   class="st4"
   width="347.20001"
   height="347.20001"
   id="rect43" />
</g>
</svg>
