<?xml version="1.0" encoding="utf-8"?>
<!-- Generator: Adobe Illustrator 20.1.0, SVG Export Plug-In . SVG Version: 6.00 Build 0)  -->
<svg version="1.1" id="Layer_1" xmlns="http://www.w3.org/2000/svg" xmlns:xlink="http://www.w3.org/1999/xlink" x="0px" y="0px"
	 viewBox="0 0 24 24" style="enable-background:new 0 0 24 24;" xml:space="preserve">
<style type="text/css">
	.st0{fill:none;}
</style>
<title>plus</title>
<g id="plus">
	<rect class="st0" width="24" height="24"/>
</g>
<path fill="#8d8d8d" d="M19.6,8l-2.4-2.4C16.9,5.2,16.3,5,15.9,5h-7C8.5,5,8.2,5.3,8.2,5.7V11c0.1,0,0.8,0.2,1,0.3V6h6v3.2c0,0.4,0.3,0.7,0.7,0.7
	h3.2v8H12c-0.2,0.4-0.3,0.7-0.6,1h7.9c0.4,0,0.7-0.3,0.7-0.7V9.4C20,8.7,19.8,8.2,19.6,8z M16.1,9V6.1c0.1,0,2.9,2.8,3,2.9H16.1z"/>
<path fill="#8d8d8d" d="M7.3,12c-2.2,0-4,1.8-4,4s1.8,4,4,4s4-1.8,4-4S9.5,12,7.3,12z M4.4,16c0-0.7,0.2-1.3,0.6-1.8l3.7,4.4
	C8.3,18.8,7.8,19,7.3,19C5.7,18.9,4.4,17.6,4.4,16z M9.6,17.7L6,13.4C6.4,13.2,6.8,13,7.3,13c1.6,0,2.9,1.3,2.9,2.9
	C10.2,16.6,10,17.2,9.6,17.7z"/>
<path fill="#8d8d8d" d="M18.2,17v-2.5L15.7,12l-3.3,3.3c0,0.2,0,0.4,0,0.7c0,0.3,0,0.6-0.1,1H18.2z"/>
<path fill="#8d8d8d" d="M13.2,11.5c0-0.8-0.7-1.5-1.5-1.5s-1.5,0.7-1.5,1.5c0,0.1,0,0.2,0,0.3c0.4,0.3,0.8,0.7,1.1,1.1c0.1,0,0.2,0,0.3,0
	C12.6,13,13.2,12.3,13.2,11.5z"/>
</svg>
