<svg xmlns="http://www.w3.org/2000/svg" viewBox="0 0 400 225">
  <defs>
    <style>
      .cls-1 {
        fill: #97baf6;
      }

      .cls-2 {
        fill: #fff;
      }

      .cls-3 {
        fill: #3d6084;
      }

      .cls-4 {
        opacity: 0.1;
      }

      .cls-5 {
        fill: none;
      }
    </style>
  </defs>
  <title>college</title>
  <g id="Layer_2" data-name="Layer 2">
    <g id="college">
      <g>
        <rect class="cls-1" x="212.5" y="121.75" width="80.36" height="78.66"/>
        <circle class="cls-2" cx="237.59" cy="160.45" r="10.63"/>
        <polygon class="cls-3" points="212.61 200.5 244.69 200.5 212.65 162.5 212.61 200.5"/>
        <polygon class="cls-3" points="291 196.25 252.63 150.93 212.33 198.38 212.27 200.5 291 200.5 291 196.25"/>
        <polygon class="cls-3" points="292 200.5 292 156.7 254.98 200.5 292 200.5"/>
        <g class="cls-4">
          <polygon points="251.15 200.42 254.98 200.42 275.73 176.47 273.82 174.26 251.15 200.42"/>
        </g>
        <g class="cls-4">
          <polygon points="213 193.82 213 198.24 227.9 180.76 226.12 178.55 213 193.82"/>
        </g>
        <rect class="cls-1" x="115.13" y="26.08" width="80.36" height="174.33"/>
        <circle class="cls-2" cx="140.22" cy="160.45" r="10.63"/>
        <polygon class="cls-3" points="115 200.5 147.32 200.5 115 163.27 115 200.5"/>
        <polygon class="cls-3" points="194 196.25 155.41 150.93 115 198.34 115 200.5 194 200.5 194 196.25"/>
        <polygon class="cls-3" points="195.69 200.5 195.19 156.25 157.61 200.5 195.69 200.5"/>
        <g class="cls-4">
          <polygon points="153.78 200.42 157.61 200.42 178.36 176.47 176.45 174.26 153.78 200.42"/>
        </g>
        <g class="cls-4">
          <polygon points="115 193.82 115 198.24 130.22 180.76 128.27 178.55 115 193.82"/>
        </g>
        <rect class="cls-1" x="212.5" y="26.08" width="80.36" height="78.66"/>
        <g class="cls-4">
          <polygon points="219 129.5 292 129.5 292 121.5 212 121.5 212 200.5 219 200.5 219 129.5"/>
        </g>
        <g class="cls-4">
          <polygon points="123 35.5 195 35.5 195 26.5 115 26.5 115 200.5 123 200.5 123 35.5"/>
        </g>
        <circle class="cls-2" cx="237.59" cy="64.78" r="10.63"/>
        <polygon class="cls-3" points="212.36 104.58 244.69 104.42 212.69 67.58 212.36 104.58"/>
        <polygon class="cls-3" points="292 100.58 253.41 55.26 213 102.67 213 104.5 292 104.5 292 100.58"/>
        <polygon class="cls-3" points="292 104.5 292 61.03 254.98 104.5 292 104.5"/>
        <g class="cls-4">
          <polygon points="251.15 104.75 254.98 104.75 275.73 80.8 273.82 78.59 251.15 104.75"/>
        </g>
        <g class="cls-4">
          <polygon points="213 98.15 213 102.57 227.9 85.08 226.12 82.88 213 98.15"/>
        </g>
        <g class="cls-4">
          <polygon points="219 35.5 292 35.5 292 26.5 212 26.5 212 104.5 219 104.5 219 35.5"/>
        </g>
      </g>
      <rect class="cls-5" width="400" height="225"/>
    </g>
  </g>
</svg>
