<svg xmlns="http://www.w3.org/2000/svg" viewBox="0 0 400 225">
  <defs>
    <style>
      .cls-1 {
        fill: none;
      }

      .cls-2, .cls-7 {
        fill: #ba5454;
      }

      .cls-3 {
        fill: #54a36e;
      }

      .cls-4 {
        fill: #ef5f5f;
      }

      .cls-5 {
        fill: #61c385;
      }

      .cls-6, .cls-7 {
        opacity: 0.8;
      }

      .cls-8 {
        fill: #3aaa72;
      }

      .cls-9 {
        fill: #fff;
      }
    </style>
  </defs>
  <title>audio-recorder</title>
  <g id="Layer_2" data-name="Layer 2">
    <g id="Layer_42" data-name="Layer 42">
      <text></text>
    </g>
    <g id="audio_recorder" data-name="audio recorder">
      <rect class="cls-1" width="400" height="225"/>
      <path class="cls-2" d="M140.52,163H118.21v6.18a25.07,25.07,0,0,0,25,25H192.4l8.5-8.7-61.9-3Q139.77,172.6,140.52,163Z"/>
      <path class="cls-3" d="M233.91,163l-25.68,23.43-7.67,7.85,57.52.16a23.62,23.62,0,0,0,23.55-23.55c0,2.9.14-1.19,0-7.9Z"/>
      <path class="cls-4" d="M143.21,185.65h57.57l80.91-82.79v-47a25.07,25.07,0,0,0-25-25H143.21a25.07,25.07,0,0,0-25,25V160.65A25.07,25.07,0,0,0,143.21,185.65Z"/>
      <path class="cls-5" d="M208.6,186.1h49.49a23.62,23.62,0,0,0,23.55-23.55V111.37Z"/>
      <g class="cls-6">
        <path class="cls-2" d="M226.5,96a3.55,3.55,0,0,0-3.5,3.62v3.87a25.5,25.5,0,0,1-51,0V99.59a4,4,0,0,0-8,0v3.87c0,16.73,13,30.51,30,32.32v6.72H179.54a3.5,3.5,0,1,0,0,7H215.7a3.5,3.5,0,1,0,0-7H201v-6.72a32.83,32.83,0,0,0,29-32.32V99.59A3.55,3.55,0,0,0,226.5,96Z"/>
      </g>
      <rect class="cls-7" x="179.22" y="60.44" width="37.19" height="58.79" rx="16.15" ry="16.15"/>
      <path class="cls-8" d="M271.25,171.48a1.65,1.65,0,0,1,1.66,1.66v.39a1.65,1.65,0,0,1-1.66,1.66H249.56a1.65,1.65,0,0,1-1.66-1.66v-.39a1.65,1.65,0,0,1,1.66-1.66Zm-1.92-13.29a1,1,0,0,1-.24,1.21l-7.73,7.73a1.08,1.08,0,0,1-1.55,0l-7.73-7.73a1,1,0,0,1-.24-1.21,1,1,0,0,1,1-.67h4.42v-7.73a1.12,1.12,0,0,1,1.1-1.1h4.42a1.12,1.12,0,0,1,1.1,1.1v7.73h4.42A1,1,0,0,1,269.32,158.18Z"/>
      <path class="cls-9" d="M269,169.26a1.65,1.65,0,0,1,1.66,1.66v.39A1.65,1.65,0,0,1,269,173H247.35a1.65,1.65,0,0,1-1.66-1.66v-.39a1.65,1.65,0,0,1,1.66-1.66ZM267.11,156a1,1,0,0,1-.24,1.21l-7.73,7.73a1.08,1.08,0,0,1-1.55,0l-7.73-7.73a1,1,0,0,1-.24-1.21,1,1,0,0,1,1-.67H255v-7.73a1.12,1.12,0,0,1,1.1-1.1h4.42a1.12,1.12,0,0,1,1.1,1.1v7.73h4.42A1,1,0,0,1,267.11,156Z"/>
      <path class="cls-9" d="M222.5,92a3.55,3.55,0,0,0-3.5,3.62v3.87a25.5,25.5,0,0,1-51,0V95.59a4,4,0,0,0-8,0v3.87c0,16.73,13,30.51,30,32.32v6.72H175.54a3.5,3.5,0,1,0,0,7H211.7a3.5,3.5,0,1,0,0-7H197v-6.72a32.83,32.83,0,0,0,29-32.32V95.59A3.55,3.55,0,0,0,222.5,92Z"/>
      <rect class="cls-9" x="175.22" y="56.44" width="37.19" height="58.79" rx="16.15" ry="16.15"/>
    </g>
  </g>
</svg>
