<?xml version="1.0" encoding="UTF-8" standalone="no"?>
<svg
   sodipodi:docname="button-task-icon-blue.svg"
   inkscape:version="1.1 (ce6663b3b7, 2021-05-25)"
   version="1.1"
   id="svg2"
   viewBox="0 0 35.999999 36"
   height="36"
   width="36"
   xmlns:inkscape="http://www.inkscape.org/namespaces/inkscape"
   xmlns:sodipodi="http://sodipodi.sourceforge.net/DTD/sodipodi-0.dtd"
   xmlns="http://www.w3.org/2000/svg"
   xmlns:svg="http://www.w3.org/2000/svg"
   xmlns:rdf="http://www.w3.org/1999/02/22-rdf-syntax-ns#"
   xmlns:cc="http://creativecommons.org/ns#"
   xmlns:dc="http://purl.org/dc/elements/1.1/">
  <defs
     id="defs4" />
  <sodipodi:namedview
     inkscape:document-rotation="0"
     units="px"
     inkscape:window-maximized="1"
     inkscape:window-y="27"
     inkscape:window-x="60"
     inkscape:window-height="1016"
     inkscape:window-width="1860"
     fit-margin-bottom="0"
     fit-margin-right="0"
     fit-margin-left="0"
     fit-margin-top="0"
     showgrid="false"
     inkscape:current-layer="layer1"
     inkscape:document-units="px"
     inkscape:cy="72.402256"
     inkscape:cx="-23.292643"
     inkscape:zoom="4.357599"
     inkscape:pageshadow="2"
     inkscape:pageopacity="0.0"
     borderopacity="1.0"
     bordercolor="#666666"
     pagecolor="#ffffff"
     id="base"
     inkscape:pagecheckerboard="0" />
  <metadata
     id="metadata7">
    <rdf:RDF>
      <cc:Work
         rdf:about="">
        <dc:format>image/svg+xml</dc:format>
        <dc:type
           rdf:resource="http://purl.org/dc/dcmitype/StillImage" />
      </cc:Work>
    </rdf:RDF>
  </metadata>
  <g
     transform="translate(-234.28572,-393.50507)"
     id="layer1"
     inkscape:groupmode="layer"
     inkscape:label="Layer 1">
    <path
       d="m 243.50258,395.97093 c -0.21639,0 -0.43278,0.0826 -0.59765,0.24804 l -4.47657,4.45117 -1.5957,-1.55469 c -0.32974,-0.33087 -0.86557,-0.33087 -1.19531,0 l -1.10352,1.10548 c -0.33089,0.32974 -0.33089,0.86558 0,1.19531 l 3.3457,3.33202 c 0.34688,0.32973 0.89141,0.32973 1.23829,0 l 1.0957,-1.09766 5.07617,-5.07617 c 0.32908,-0.32952 0.33162,-0.86248 0.006,-1.19531 l -1.19531,-1.16016 c -0.16487,-0.16545 -0.38126,-0.24805 -0.59766,-0.24805 z m 5.4082,2.25196 c -0.62132,0 -1.125,0.50367 -1.125,1.125 v 2.25 c 0,0.62133 0.50367,1.125 1.125,1.125 h 20.25 c 0.62132,0 1.125,-0.50368 1.125,-1.125 v -2.25 c 0,-0.62133 -0.50368,-1.125 -1.125,-1.125 z m -5.4082,8.94139 c -0.21639,0 -0.43278,0.0826 -0.59765,0.24804 l -4.47657,4.48048 -1.5957,-1.55468 c -0.32974,-0.33088 -0.86557,-0.33088 -1.19531,0 l -1.10352,1.10352 c -0.33089,0.32974 -0.33089,0.86556 0,1.19531 l 3.33789,3.33983 c 0.34664,0.32964 0.88969,0.32964 1.23633,0 l 1.10352,-1.10352 5.07812,-5.07812 c 0.32788,-0.32727 0.33041,-0.85692 0.006,-1.1875 l -1.19531,-1.19532 c -0.16487,-0.16545 -0.38126,-0.24804 -0.59766,-0.24804 z m 5.4082,2.30861 c -0.62132,0 -1.125,0.50367 -1.125,1.125 v 2.25 c 0,0.62132 0.50368,1.125 1.125,1.125 h 20.25 c 0.62132,0 1.125,-0.50368 1.125,-1.125 v -2.25 c 0,-0.62133 -0.50368,-1.125 -1.125,-1.125 z m -12.57031,9.77539 c -0.0829,0 -0.15756,0.019 -0.22656,0.0605 -0.0691,0.0415 -0.14562,0.0913 -0.22852,0.14648 l -0.87109,0.86915 c -0.0553,0.0553 -0.10303,0.12412 -0.14453,0.20702 -0.0414,0.0829 -0.0625,0.1671 -0.0625,0.25 0,0.0829 0.021,0.16514 0.0625,0.24804 0.0415,0.0829 0.0893,0.15183 0.14453,0.20703 l 1.90625,1.90625 -1.90625,1.94922 c -0.0553,0.0553 -0.10303,0.12413 -0.14453,0.20703 -0.0414,0.0829 -0.0625,0.16514 -0.0625,0.24804 0,0.0553 0.021,0.12414 0.0625,0.20704 0.0415,0.0829 0.0893,0.15183 0.14453,0.20703 l 0.91211,0.91211 c 0.0552,0.0552 0.1184,0.0973 0.1875,0.125 0.0691,0.0277 0.14366,0.041 0.22656,0.041 0.0829,0 0.1671,-0.0133 0.25,-0.041 0.0829,-0.0276 0.15183,-0.0698 0.20703,-0.125 l 1.90625,-1.94727 1.94727,1.94727 c 0.0553,0.0552 0.12413,0.0973 0.20703,0.125 0.0829,0.0277 0.1671,0.041 0.25,0.041 0.0829,0 0.15756,-0.0133 0.22656,-0.041 0.0691,-0.0276 0.1323,-0.0698 0.1875,-0.125 l 0.91211,-0.91211 c 0.0552,-0.0553 0.0953,-0.12413 0.12305,-0.20703 0.0277,-0.0829 0.043,-0.16515 0.043,-0.24805 0,-0.0829 -0.0153,-0.15942 -0.043,-0.22852 -0.0276,-0.0691 -0.0678,-0.13034 -0.12305,-0.18554 l -1.94922,-1.94922 1.94922,-1.90625 c 0.0552,-0.0553 0.0953,-0.12413 0.12305,-0.20703 0.0277,-0.0829 0.043,-0.16515 0.043,-0.24804 0,-0.0829 -0.0153,-0.16711 -0.043,-0.25 -0.0276,-0.0829 -0.0678,-0.15184 -0.12305,-0.20702 l -0.91211,-0.86915 c -0.0553,-0.0553 -0.12413,-0.10499 -0.20703,-0.14648 -0.0829,-0.0414 -0.16515,-0.0605 -0.24805,-0.0605 -0.0553,0 -0.12608,0.019 -0.20898,0.0605 -0.0829,0.0415 -0.15183,0.0913 -0.20703,0.14648 l -1.94727,1.90625 -1.90625,-1.90625 c -0.0553,-0.0553 -0.12413,-0.10499 -0.20703,-0.14648 -0.0829,-0.0414 -0.1671,-0.0605 -0.25,-0.0605 z m 12.57031,1.47461 c -0.62133,0 -1.125,0.50367 -1.125,1.125 v 2.25 c 0,0.62132 0.50368,1.125 1.125,1.125 h 20.25 c 0.62132,0 1.125,-0.50368 1.125,-1.125 v -2.25 c 0,-0.62133 -0.50368,-1.125 -1.125,-1.125 z"
       inkscape:transform-center-y="-298.35337"
       inkscape:transform-center-x="231.90278"
       style="font-variation-settings:normal;vector-effect:none;fill:#1a73d9;fill-opacity:0.941176;stroke:none;stroke-width:26.3936;stroke-linecap:butt;stroke-linejoin:miter;stroke-miterlimit:4;stroke-dasharray:none;stroke-dashoffset:0;stroke-opacity:0.690751;stop-color:#000000"
       id="path1521" />
  </g>
</svg>
