<?xml version="1.0" encoding="UTF-8" standalone="no"?>
<svg
   xmlns:dc="http://purl.org/dc/elements/1.1/"
   xmlns:cc="http://creativecommons.org/ns#"
   xmlns:rdf="http://www.w3.org/1999/02/22-rdf-syntax-ns#"
   xmlns:svg="http://www.w3.org/2000/svg"
   xmlns="http://www.w3.org/2000/svg"
   xmlns:sodipodi="http://sodipodi.sourceforge.net/DTD/sodipodi-0.dtd"
   xmlns:inkscape="http://www.inkscape.org/namespaces/inkscape"
   width="36"
   height="36"
   viewBox="0 0 35.999999 36"
   id="svg2"
   version="1.1"
   inkscape:version="1.0 (6e3e5246a0, 2020-05-07)"
   sodipodi:docname="button-fullscreen-exit-icon.svg">
  <defs
     id="defs4" />
  <sodipodi:namedview
     id="base"
     pagecolor="#ffffff"
     bordercolor="#666666"
     borderopacity="1.0"
     inkscape:pageopacity="0.0"
     inkscape:pageshadow="2"
     inkscape:zoom="3.0812878"
     inkscape:cx="37.993315"
     inkscape:cy="66.837206"
     inkscape:document-units="px"
     inkscape:current-layer="layer1"
     showgrid="false"
     fit-margin-top="0"
     fit-margin-left="0"
     fit-margin-right="0"
     fit-margin-bottom="0"
     inkscape:window-width="1860"
     inkscape:window-height="1016"
     inkscape:window-x="60"
     inkscape:window-y="27"
     inkscape:window-maximized="1"
     units="px"
     inkscape:document-rotation="0" />
  <metadata
     id="metadata7">
    <rdf:RDF>
      <cc:Work
         rdf:about="">
        <dc:format>image/svg+xml</dc:format>
        <dc:type
           rdf:resource="http://purl.org/dc/dcmitype/StillImage" />
        <dc:title></dc:title>
      </cc:Work>
    </rdf:RDF>
  </metadata>
  <g
     inkscape:label="Layer 1"
     inkscape:groupmode="layer"
     id="layer1"
     transform="translate(-234.28572,-393.50507)">
    <g
       style="font-variation-settings:normal;opacity:1;vector-effect:none;fill:#1a73d9;fill-opacity:0.941176;stroke:none;stroke-width:128.08;stroke-linecap:butt;stroke-linejoin:miter;stroke-miterlimit:4;stroke-dasharray:none;stroke-dashoffset:0;stroke-opacity:0.690751;stop-color:#000000;stop-opacity:1"
       transform="matrix(0.03513442,0,0,-0.03513442,234.27294,427.24529)"
       id="g2355">
      <path
         style="font-variation-settings:normal;vector-effect:none;fill:#1a73d9;fill-opacity:0.941176;stroke:none;stroke-width:128.08;stroke-linecap:butt;stroke-linejoin:miter;stroke-miterlimit:4;stroke-dasharray:none;stroke-dashoffset:0;stroke-opacity:0.690751;stop-color:#000000;stop-opacity:1"
         fill="currentColor"
         d="m 548,146 q 0,-25 10,-35.5 10,-10.5 33,-10.5 v 0 q 22,0 32.5,11 10.5,11 10.5,35 v 44 45 32 L 871,30 906,-5 948,-47 q 17,-17 31,-17 14,0 29,16 9,8 13,15 4,7 4,14 0,8 -4.5,16 -4.5,8 -14.5,18 l -88.5,88.5 q 0,0 -83.5,82.5 -30,30 -61,61.5 -31,31.5 -65,65.5 l -6,6 q 0,0 -6,7 h -1 16 15 46.5 44.5 q 23,0 34,10.5 11,10.5 11,32.5 0,11 -2.5,19 -2.5,8 -7.5,13 -6,6 -14,8.5 -8,2.5 -20,2.5 H 764 707 652 594 Q 569,412 559,401.5 549,391 549,367 548,319 548,265 Z M 198,702 316,585 q 3,-3 6,-6.5 3,-3.5 7,-7.5 0,-1 0.5,-1 0.5,0 0.5,-1 H 314 298 250.5 204 q -21,0 -31,-11 -10,-11 -10,-32 1,-26 14,-34 13,-8 26,-8 61,-1 121.5,-1 60.5,0 113.5,1 18,0 28.5,10 10.5,10 10.5,28 v 124 114 q 0,8 -2.5,15 -2.5,7 -7.5,12 -6,5 -14.5,8 -8.5,3 -19.5,3 -21,-1 -31,-11 -10,-10 -11,-29 v -37 -36 -22 -22 q 0,-2 -0.5,-4.5 -0.5,-2.5 -0.5,-5.5 -3,3 -5.5,5 -2.5,2 -4.5,5 L 270,750 Q 224,797 178,842.5 132,888 80,940 70,951 61.5,955.5 53,960 45,960 H 44 Q 37,960 29.5,955.5 22,951 14,942 -1,926 0.5,912.5 2,899 19,881 l 92.5,-92.5 z"
         id="path2353" />
    </g>
  </g>
</svg>
