<?xml version="1.0" encoding="UTF-8" standalone="no"?>
<svg
   width="36"
   height="36"
   viewBox="0 0 35.999999 36"
   id="svg2"
   version="1.1"
   inkscape:version="1.1 (ce6663b3b7, 2021-05-25)"
   sodipodi:docname="button-camera-icon-grey.svg"
   xmlns:inkscape="http://www.inkscape.org/namespaces/inkscape"
   xmlns:sodipodi="http://sodipodi.sourceforge.net/DTD/sodipodi-0.dtd"
   xmlns="http://www.w3.org/2000/svg"
   xmlns:svg="http://www.w3.org/2000/svg"
   xmlns:rdf="http://www.w3.org/1999/02/22-rdf-syntax-ns#"
   xmlns:cc="http://creativecommons.org/ns#"
   xmlns:dc="http://purl.org/dc/elements/1.1/">
  <defs
     id="defs4" />
  <sodipodi:namedview
     id="base"
     pagecolor="#ffffff"
     bordercolor="#666666"
     borderopacity="1.0"
     inkscape:pageopacity="0.0"
     inkscape:pageshadow="2"
     inkscape:zoom="4.357599"
     inkscape:cx="24.440064"
     inkscape:cy="38.897567"
     inkscape:document-units="px"
     inkscape:current-layer="layer1"
     showgrid="false"
     fit-margin-top="0"
     fit-margin-left="0"
     fit-margin-right="0"
     fit-margin-bottom="0"
     inkscape:window-width="1860"
     inkscape:window-height="1016"
     inkscape:window-x="60"
     inkscape:window-y="27"
     inkscape:window-maximized="1"
     units="px"
     inkscape:document-rotation="0"
     inkscape:pagecheckerboard="0" />
  <metadata
     id="metadata7">
    <rdf:RDF>
      <cc:Work
         rdf:about="">
        <dc:format>image/svg+xml</dc:format>
        <dc:type
           rdf:resource="http://purl.org/dc/dcmitype/StillImage" />
      </cc:Work>
    </rdf:RDF>
  </metadata>
  <g
     inkscape:label="Layer 1"
     inkscape:groupmode="layer"
     id="layer1"
     transform="translate(-234.28572,-393.50507)">
    <g
       transform="matrix(0.02008929,0,0,-0.02008929,234.28572,424.36222)"
       id="g4"
       style="font-variation-settings:normal;opacity:1;vector-effect:none;fill:#808080;fill-opacity:0.941176;stroke:none;stroke-width:1244.44;stroke-linecap:butt;stroke-linejoin:miter;stroke-miterlimit:4;stroke-dasharray:none;stroke-dashoffset:0;stroke-opacity:0.690751;-inkscape-stroke:none;stop-color:#000000;stop-opacity:1">
      <path
         fill="currentColor"
         d="M 1792,1184 V 96 q 0,-42 -39,-59 -13,-5 -25,-5 -27,0 -45,19 L 1280,454 V 288 Q 1280,169 1195.5,84.5 1111,0 992,0 H 288 Q 169,0 84.5,84.5 0,169 0,288 V 992 Q 0,1111 84.5,1195.5 169,1280 288,1280 h 704 q 119,0 203.5,-84.5 Q 1280,1111 1280,992 V 827 l 403,402 q 18,19 45,19 12,0 25,-5 39,-17 39,-59 z"
         id="path2"
         style="font-variation-settings:normal;vector-effect:none;fill:#808080;fill-opacity:0.941176;stroke:none;stroke-width:1244.44;stroke-linecap:butt;stroke-linejoin:miter;stroke-miterlimit:4;stroke-dasharray:none;stroke-dashoffset:0;stroke-opacity:0.690751;-inkscape-stroke:none;stop-color:#000000;stop-opacity:1" />
    </g>
  </g>
</svg>
