<svg width="153" height="115" viewBox="0 0 153 115" fill="none" xmlns="http://www.w3.org/2000/svg">
<g clip-path="url(#clip0_226_1164)">
<path d="M153 0.11499H0V115.115H153V0.11499Z" fill="#DCE2E9"/>
<path d="M83.2333 41.3383C83.2333 41.1467 83.2333 40.955 83.2333 40.7633C83.1568 39.92 82.4683 39.23 81.5886 39.1917C81.5503 39.1917 81.5121 39.1917 81.4356 39.1917C80.8618 39.1917 80.4028 39.46 79.9821 39.8433C77.3046 42.4883 74.6271 45.1333 71.9496 47.7783C71.8731 47.855 71.7966 47.8933 71.7201 47.9317C71.5671 48.0083 71.4141 48.0467 71.2611 48.0467C70.5726 48.0467 69.8841 48.0467 69.1956 48.0467C68.5071 48.0467 67.8186 48.0467 67.1301 48.0467C65.5236 48.0467 64.2996 48.8517 63.7258 50.1167C63.4963 50.615 63.3816 51.1517 63.3816 51.8033C63.3816 55.2533 63.3816 58.7033 63.3816 62.1533C63.3816 64.3767 64.9116 65.8717 67.1683 65.8717C67.8568 65.8717 68.5071 65.8717 69.1956 65.8717C69.8841 65.8717 70.5343 65.8717 71.2228 65.8717C71.5288 65.8717 71.7201 65.9483 71.9113 66.1783C74.5506 68.785 77.1898 71.43 79.8673 74.0367C79.9821 74.1517 80.0968 74.305 80.2498 74.42C80.5941 74.6883 80.9766 74.8033 81.3591 74.8033C82.1241 74.8033 82.8508 74.305 83.0803 73.5C83.1568 73.2317 83.1568 72.9633 83.1568 72.6567C83.1568 72.005 83.1568 71.3533 83.1568 70.7017C83.1568 67.175 83.1568 63.61 83.1568 60.0833C83.1568 59.0483 83.1568 58.0133 83.1568 56.9783C83.2333 51.765 83.2333 46.5517 83.2333 41.3383Z" fill="#ADB3BA"/>
<path d="M76.1952 16C53.4747 16 35 34.515 35 57.285C35 80.055 53.4747 98.57 76.1952 98.57C98.9157 98.57 117.391 80.055 117.391 57.285C117.391 34.515 98.9157 16 76.1952 16ZM43.7592 57.285C43.7592 49.6567 46.3985 42.6033 50.8355 37.0833L58.7915 45.4783C60.3597 43.2933 62.9607 41.9133 65.9825 41.9133C66.4797 41.9133 66.977 41.9133 67.4742 41.9133L57.185 31.0267C62.54 27.1167 69.119 24.8167 76.2335 24.8167C94.0962 24.8167 108.669 39.3833 108.669 57.3233C108.669 65.0667 105.954 72.1967 101.402 77.7933L89.6592 65.3733V75.8767C89.6592 76.375 89.6592 77.1033 89.4297 77.9083L95.0142 83.8117C89.6975 87.6067 83.2332 89.83 76.2335 89.83C58.3325 89.7917 43.7592 75.1867 43.7592 57.285Z" fill="#ADB3BA"/>
</g>
<defs>
<clipPath id="clip0_226_1164">
<rect width="153" height="115" fill="white"/>
</clipPath>
</defs>
</svg>
