<?xml version="1.0" encoding="utf-8"?>
<!-- Generator: Adobe Illustrator 25.3.1, SVG Export Plug-In . SVG Version: 6.00 Build 0)  -->
<svg version="1.1" id="Layer_1" xmlns="http://www.w3.org/2000/svg" xmlns:xlink="http://www.w3.org/1999/xlink" x="0px" y="0px"
	 viewBox="0 0 500 500" style="enable-background:new 0 0 500 500;" xml:space="preserve">
<style type="text/css">
	.st0{fill:#DCE2E9;}
	.st1{fill:#ADB3BA;}
	.st2{fill:#B6BCC2;}
</style>
<rect class="st0" width="500" height="500"/>
<polygon class="st1" points="255.2,500 255.2,398.8 122.7,317.4 0,404.8 0,500 "/>
<polygon class="st2" points="0,436.3 145.5,332.5 123.1,317 0,403.5 "/>
<path class="st2" d="M64,0c31,77.2,106.4,131.7,194.7,131.7c88.2,0,163.7-54.6,194.6-131.7H64z"/>
<g>
	<g>
		<path class="st1" d="M285.1,0L147,99.3c32.3,20.4,70.6,32.2,111.7,32.2c88.2,0,163.6-54.4,194.6-131.6H285.1z"/>
	</g>
</g>
<polygon class="st1" points="500,317.5 407.3,260.6 71.1,500 500,500 "/>
<polygon class="st2" points="129.5,500 437.1,280.4 407.8,260.1 66.3,500 "/>
</svg>
