<svg width="153" height="153" viewBox="0 0 153 153" fill="none" xmlns="http://www.w3.org/2000/svg">
<g clip-path="url(#clip0_226_1139)">
<path d="M153.092 0H-0.0305176V152.663H153.092V0Z" fill="#DCE2E9"/>
<path d="M76.5001 20.7774C45.8695 20.7774 20.9917 45.6858 20.9917 76.2858C20.9917 106.886 45.8695 131.825 76.5001 131.825C107.131 131.825 132.009 106.916 132.009 76.3164C132.009 45.7164 107.131 20.7774 76.5001 20.7774ZM32.8033 76.2858C32.8033 66.0042 36.3835 56.5488 42.3199 49.0824L57.2833 64.872V55.5696V47.7054L50.8573 40.9122C58.0789 35.649 66.9223 32.589 76.5307 32.589C100.644 32.589 120.228 52.2036 120.228 76.2858C120.228 86.7204 116.556 96.2676 110.466 103.795L94.6765 87.1182L84.7621 92.8404L84.1501 93.2076L101.837 111.874C94.6765 116.984 85.9249 120.013 76.5307 120.013C52.3873 120.013 32.8033 100.429 32.8033 76.2858Z" fill="#ADB3BA"/>
<path d="M81.2124 65.5146L64.9026 56.0592V69.7068V74.9088V93.7278L81.2124 84.3336L97.5222 74.9088L81.2124 65.5146Z" fill="#ADB3BA"/>
</g>
<defs>
<clipPath id="clip0_226_1139">
<rect width="153" height="153" fill="white"/>
</clipPath>
</defs>
</svg>
