<?xml version="1.0" encoding="utf-8"?>
<!-- Generator: Adobe Illustrator 25.3.1, SVG Export Plug-In . SVG Version: 6.00 Build 0)  -->
<svg version="1.1" id="Layer_1" xmlns="http://www.w3.org/2000/svg" xmlns:xlink="http://www.w3.org/1999/xlink" x="0px" y="0px"
	 viewBox="0 0 640 360" style="enable-background:new 0 0 640 360;" xml:space="preserve">
<style type="text/css">
	.st0{fill:#DCE2E9;}
	.st1{fill:#ADB3BA;}
	.st2{fill:#B6BCC2;}
</style>
<rect x="0.1" class="st0" width="639.8" height="327.2"/>
<polygon class="st1" points="374.1,360.1 374.1,271.2 258,199.7 32.9,360.1 "/>
<polygon class="st1" points="639.9,206.5 520.2,134.4 203.7,360.1 639.9,360.1 "/>
<polygon class="st1" points="278.4,360.1 73.5,213.9 0.1,268.1 0.1,360.1 "/>
<polygon class="st2" points="0.1,292.8 93.1,228.4 72.6,215.1 0.1,268.4 "/>
<polygon class="st2" points="262.7,360.1 548.3,153.1 520.2,134.4 206.6,360.1 "/>
<polygon class="st2" points="71.9,360.1 277.9,213 258.3,199.4 29.7,360.1 "/>
<path class="st2" d="M81,0c22.1,54.5,75.4,93,137.7,93S334.5,54.5,356.5,0H81z"/>
<g>
	<g>
		<path class="st1" d="M236.9,0l-97.3,70c22.9,14.5,50,22.9,79.1,22.9c62.3,0,115.7-38.4,137.7-92.9H236.9z"/>
	</g>
</g>
</svg>
