<?xml version="1.0" encoding="utf-8"?>
<!-- Generator: Adobe Illustrator 25.3.1, SVG Export Plug-In . SVG Version: 6.00 Build 0)  -->
<svg version="1.1" id="Layer_1" xmlns="http://www.w3.org/2000/svg" xmlns:xlink="http://www.w3.org/1999/xlink" x="0px" y="0px"
	 viewBox="0 0 300 200" style="enable-background:new 0 0 300 200;" xml:space="preserve">
<style type="text/css">
	.st0{fill:#DCE2E9;}
	.st1{fill:#ADB3BA;}
	.st2{fill:#B6BCC2;}
</style>
<rect x="0" y="0" class="st0" width="300.1" height="200.1"/>
<polygon class="st1" points="227.9,200.1 227.9,146.6 156.2,102.4 19,200.1 "/>
<polygon class="st1" points="300.1,75.1 124.6,200.1 300.1,200.1 "/>
<polygon class="st1" points="0,200.1 166.9,200.1 42.2,111.3 0,142.4 "/>
<polygon class="st2" points="0,157.8 54.4,120.2 41.7,112.1 0,142.5 "/>
<polygon class="st2" points="300.1,75.2 126.4,200.1 161,200.1 300.1,99.4 "/>
<polygon class="st2" points="43.2,200.1 168.5,110.6 156.4,102.2 17.1,200.1 "/>
<path class="st2" d="M50.5,0c13.7,33.5,46.5,57.1,85,57.1c38.5,0,71.3-23.7,85-57.1H50.5z"/>
<g>
	<g>
		<path class="st1" d="M146.4,0L86.6,43c14.1,8.9,30.9,14.1,48.9,14.1c38.5,0,71.3-23.6,85-57.1H146.4z"/>
	</g>
</g>
</svg>
