<svg width="153" height="153" viewBox="0 0 153 153" fill="none" xmlns="http://www.w3.org/2000/svg">
<g clip-path="url(#clip0_226_1146)">
<path d="M153.123 0H-0.0305176V153H153.123V0Z" fill="#DCE2E9"/>
<path d="M85.4564 54.7892C85.4564 54.5443 85.4564 54.2689 85.4564 54.024C85.3646 52.8916 84.4464 51.9734 83.2528 51.9428C83.1916 51.9428 83.1609 51.9428 83.0385 51.9428C82.2734 51.9428 81.6612 52.3101 81.1103 52.7998C77.5294 56.3195 73.9485 59.8698 70.3676 63.3895C70.2758 63.4813 70.1533 63.5425 70.0615 63.6037C69.8473 63.6955 69.6636 63.7568 69.4494 63.7568C68.5312 63.7568 67.613 63.7568 66.6949 63.7568C65.7767 63.7568 64.8585 63.7568 63.9403 63.7568C61.7979 63.7568 60.1451 64.828 59.38 66.5113C59.0739 67.1846 58.9209 67.8886 58.9209 68.7762C58.9209 73.3671 58.9209 77.9886 58.9209 82.5795C58.9209 85.5483 60.9715 87.5377 63.9709 87.5377C64.8891 87.5377 65.7461 87.5377 66.6949 87.5377C67.6436 87.5377 68.47 87.5377 69.4188 87.5377C69.8167 87.5377 70.0921 87.6295 70.337 87.9356C73.8567 91.4247 77.407 94.9444 80.9573 98.4029C81.1103 98.5559 81.2634 98.7702 81.4776 98.9232C81.9367 99.2905 82.457 99.4435 82.9467 99.4435C83.9567 99.4435 84.9361 98.7702 85.2422 97.699C85.334 97.3317 85.334 96.995 85.334 96.5665C85.334 95.7095 85.334 94.822 85.334 93.965C85.334 89.2517 85.334 84.5077 85.334 79.7944C85.334 78.4171 85.334 77.0398 85.334 75.6625C85.4564 68.715 85.4564 61.7674 85.4564 54.7892Z" fill="#ADB3BA"/>
<path d="M76.0604 21C45.6991 21 21 45.6991 21 76.0604C21 106.422 45.6991 131.121 76.0604 131.121C106.422 131.121 131.121 106.422 131.121 76.0604C131.121 45.6991 106.422 21 76.0604 21ZM32.6915 76.0604C32.6915 65.8992 36.2112 56.4725 42.1488 49.127L52.7692 60.3289C54.8504 57.4213 58.3395 55.5849 62.3795 55.5849C63.0528 55.5849 63.6955 55.5849 64.3689 55.5849L50.6573 41.047C57.8192 35.844 66.6031 32.7528 76.1216 32.7528C99.9944 32.7528 119.491 52.1876 119.491 76.1216C119.491 86.4359 115.848 95.9544 109.788 103.422L94.0874 86.8644V100.882C94.0874 101.555 94.0874 102.504 93.7814 103.606L101.249 111.472C94.1486 116.522 85.4871 119.491 76.1522 119.491C52.1876 119.429 32.6915 99.9332 32.6915 76.0604Z" fill="#ADB3BA"/>
</g>
<defs>
<clipPath id="clip0_226_1146">
<rect width="153" height="153" fill="white"/>
</clipPath>
</defs>
</svg>
