<svg width="153" height="114" viewBox="0 0 153 114" fill="none" xmlns="http://www.w3.org/2000/svg">
<g clip-path="url(#clip0_226_1191)">
<path d="M153 0.455994H0V115H153V0.455994Z" fill="#DCE2E9"/>
<path d="M76.5395 16C53.6278 16 35 34.506 35 57.268C35 80.03 53.6278 98.536 76.5395 98.536C99.4513 98.536 118.079 80.03 118.079 57.268C118.079 34.506 99.4513 16 76.5395 16ZM43.8357 57.268C43.8357 49.63 46.5133 42.6 50.9503 37.052L62.1575 48.794V41.878V36.026L57.338 30.972C62.7313 27.058 69.3485 24.778 76.5395 24.778C94.5935 24.778 109.243 39.37 109.243 57.268C109.243 65.02 106.489 72.126 101.938 77.712L90.1183 65.324L82.6978 69.58L82.2388 69.846L95.4733 83.716C90.1183 87.516 83.5775 89.758 76.5395 89.758C58.4855 89.758 43.8357 75.204 43.8357 57.268Z" fill="#ADB3BA"/>
<path d="M80.0584 49.25L67.8567 42.22V52.366V56.242V70.226L80.0584 63.234L92.2602 56.242L80.0584 49.25Z" fill="#ADB3BA"/>
</g>
<defs>
<clipPath id="clip0_226_1191">
<rect width="153" height="114" fill="white"/>
</clipPath>
</defs>
</svg>
