<svg width="153" height="86" viewBox="0 0 153 86" fill="none" xmlns="http://www.w3.org/2000/svg">
<g clip-path="url(#clip0_226_1183)">
<path d="M153 0.167236H0V85.7372H153V0.167236Z" fill="#DCE2E9"/>
<path d="M76.5 11.6817C59.3353 11.6817 45.374 25.6328 45.374 42.785C45.374 59.9372 59.3353 73.8883 76.5 73.8883C93.6646 73.8883 107.626 59.9372 107.626 42.785C107.626 25.6328 93.6646 11.6817 76.5 11.6817ZM51.9961 42.785C51.9961 37.0278 54.0042 31.7244 57.3271 27.5439L65.7182 36.3828V31.175V26.7556L62.1084 22.9572C66.1486 20.0189 71.0971 18.2989 76.5 18.2989C90.0309 18.2989 101.004 29.2878 101.004 42.785C101.004 48.6378 98.9479 53.9889 95.5293 58.1933L86.684 48.8528L81.1139 52.0539L80.7792 52.245L90.7003 62.7083C86.684 65.575 81.7832 67.2711 76.5239 67.2711C62.969 67.2711 51.9961 56.3061 51.9961 42.785Z" fill="#ADB3BA"/>
<path d="M79.1297 36.7411L69.9976 31.4378V39.0822V42.0205V52.5556L79.1297 47.2761L88.2858 42.0205L79.1297 36.7411Z" fill="#ADB3BA"/>
</g>
<defs>
<clipPath id="clip0_226_1183">
<rect width="153" height="86" fill="white"/>
</clipPath>
</defs>
</svg>
