<svg width="153" height="102" viewBox="0 0 153 102" fill="none" xmlns="http://www.w3.org/2000/svg">
<g clip-path="url(#clip0_226_1198)">
<path d="M153 0.153H0V101.847H153V0.153Z" fill="#DCE2E9"/>
<path d="M76.5001 9.486C53.6011 9.486 34.9351 28.101 34.9351 51.051C34.9351 74.001 53.5501 92.616 76.5001 92.616C99.4501 92.616 118.065 74.001 118.065 51.051C118.065 28.101 99.3991 9.486 76.5001 9.486ZM43.8091 51C43.8091 43.299 46.4611 36.261 50.9491 30.651L62.1691 42.483V35.547V29.631L57.3241 24.531C62.7301 20.604 69.3601 18.258 76.5001 18.258C94.5541 18.258 109.191 32.946 109.191 50.949C109.191 58.752 106.437 65.892 101.847 71.553L90.0661 59.16L82.6201 63.444L82.1611 63.699L95.4211 77.673C90.0661 81.498 83.5381 83.742 76.4491 83.742C58.4461 83.742 43.8091 69.054 43.8091 51Z" fill="#ADB3BA"/>
<path d="M80.0191 42.942L67.8301 35.853V46.104V49.98V64.056L80.0191 57.018L92.2081 49.98L80.0191 42.942Z" fill="#ADB3BA"/>
</g>
<defs>
<clipPath id="clip0_226_1198">
<rect width="153" height="102" fill="white"/>
</clipPath>
</defs>
</svg>
