<svg width="153" height="86" viewBox="0 0 153 86" fill="none" xmlns="http://www.w3.org/2000/svg">
<g clip-path="url(#clip0_226_1170)">
<path d="M153 0H0V85.9044H153V0Z" fill="#DCE2E9"/>
<path d="M82.1464 30.92C82.1464 30.7767 82.1464 30.6333 82.1464 30.49C82.0985 29.845 81.5726 29.3433 80.9271 29.2956C80.9032 29.2956 80.8554 29.2956 80.8315 29.2956C80.4012 29.2956 80.0665 29.4867 79.7557 29.7972C77.7476 31.78 75.7395 33.7389 73.7553 35.7217C73.7074 35.7694 73.6357 35.8172 73.5879 35.8411C73.4923 35.9128 73.3728 35.9367 73.2293 35.9367C72.7273 35.9367 72.2014 35.9367 71.6993 35.9367C71.1973 35.9367 70.6714 35.9367 70.1693 35.9367C68.974 35.9367 68.0417 36.5339 67.6114 37.4895C67.444 37.8478 67.3484 38.2778 67.3484 38.7317C67.3484 41.3117 67.3484 43.8917 67.3484 46.4717C67.3484 48.1439 68.4959 49.2667 70.1932 49.2667C70.6953 49.2667 71.1973 49.2667 71.6993 49.2667C72.2014 49.2667 72.7034 49.2667 73.2054 49.2667C73.4206 49.2667 73.5879 49.3383 73.7314 49.4817C75.7156 51.4406 77.6998 53.3994 79.684 55.3583C79.7796 55.4539 79.8753 55.5494 79.9709 55.645C80.2339 55.8361 80.5207 55.9317 80.8076 55.9317C81.3814 55.9317 81.9312 55.5733 82.0985 54.9522C82.1464 54.7611 82.1464 54.5461 82.1464 54.3311C82.1464 53.8533 82.1464 53.3517 82.1464 52.8739C82.1464 50.2222 82.1464 47.5706 82.1464 44.9428C82.1464 44.1783 82.1464 43.39 82.1464 42.6256C82.1464 38.7078 82.1464 34.8139 82.1464 30.92Z" fill="#ADB3BA"/>
<path d="M76.863 12C59.8417 12 46 25.8317 46 42.8406C46 59.8494 59.8417 73.6811 76.863 73.6811C93.8842 73.6811 107.726 59.8494 107.726 42.8406C107.726 25.8317 93.8842 12 76.863 12ZM52.5742 42.8406C52.5742 37.1311 54.5584 31.8756 57.8575 27.7428L63.8102 34.0017C65.0055 32.3772 66.918 31.35 69.1891 31.3261C69.5716 31.3261 69.9302 31.3261 70.3127 31.3261L62.6148 23.2039C66.6311 20.2894 71.5558 18.5694 76.863 18.5694C90.2505 18.5694 101.152 29.4628 101.152 42.8406C101.152 48.6217 99.1197 53.9489 95.725 58.1294L86.9036 48.8367V56.6722C86.9036 57.0306 86.9036 57.58 86.7362 58.2011L90.9198 62.6206C86.9514 65.4633 82.0984 67.1356 76.8391 67.1356C63.4755 67.1117 52.5742 56.2183 52.5742 42.8406Z" fill="#ADB3BA"/>
</g>
<defs>
<clipPath id="clip0_226_1170">
<rect width="153" height="86" fill="white"/>
</clipPath>
</defs>
</svg>
