<?xml version="1.0" encoding="utf-8"?>
<!-- Generator: Adobe Illustrator 25.3.1, SVG Export Plug-In . SVG Version: 6.00 Build 0)  -->
<svg version="1.1" id="Layer_1" xmlns="http://www.w3.org/2000/svg" xmlns:xlink="http://www.w3.org/1999/xlink" x="0px" y="0px"
	 viewBox="0 0 400 300" style="enable-background:new 0 0 400 300;" xml:space="preserve">
<style type="text/css">
	.st0{fill:#DCE2E9;}
	.st1{fill:#ADB3BA;}
	.st2{fill:#B6BCC2;}
</style>
<rect x="0.1" y="0" class="st0" width="400" height="300"/>
<polygon class="st1" points="343.2,300 343.2,219.8 235.6,153.6 30.1,300 "/>
<polygon class="st1" points="400,300 400,149.1 188.2,300 "/>
<polygon class="st1" points="0.1,300 251.6,300 64.7,166.7 0.1,214.6 "/>
<polygon class="st2" points="0.1,237.4 83,180.1 64,167.9 0.1,214.7 "/>
<polygon class="st2" points="242.9,300 400,186.1 400,149.6 191,300 "/>
<polygon class="st2" points="66.3,300 254.1,165.8 235.9,153.3 27.2,300 "/>
<path class="st2" d="M77.7,0C98.3,50.2,147.5,85.5,205,85.5c57.5,0,106.8-35.4,127.3-85.5H77.7z"/>
<g>
	<g>
		<path class="st1" d="M221.1,0l-89.4,64.2C152.9,77.7,178,85.4,205,85.4c57.5,0,106.7-35.2,127.2-85.4H221.1z"/>
	</g>
</g>
</svg>
