<svg width="151" height="102" viewBox="0 0 151 102" fill="none" xmlns="http://www.w3.org/2000/svg">
<g clip-path="url(#clip0_226_1158)">
<path d="M153 0H0V102H153V0Z" fill="#DCE2E9"/>
<path d="M76.7081 88.332C96.9453 88.332 113.351 71.7092 113.351 51.204C113.351 30.6988 96.9453 14.076 76.7081 14.076C56.4709 14.076 40.0654 30.6988 40.0654 51.204C40.0654 71.7092 56.4709 88.332 76.7081 88.332Z" fill="#DCE2E9" stroke="#ADB3BA" stroke-miterlimit="10"/>
<path d="M82.6152 35.245C82.6152 35.041 82.6152 34.837 82.6152 34.684C82.5649 33.817 81.8602 33.154 81.0046 33.103C80.9542 33.103 80.9039 33.103 80.8536 33.103C80.2999 33.103 79.8469 33.358 79.4442 33.766C76.8269 36.418 74.1592 39.019 71.5419 41.671C71.4916 41.722 71.3909 41.773 71.3406 41.824C71.1896 41.926 71.0386 41.926 70.8876 41.926C70.2332 41.926 69.5286 41.926 68.8742 41.926C68.2199 41.926 67.5152 41.926 66.8609 41.926C65.3006 41.926 64.0422 42.742 63.4886 43.966C63.2872 44.476 63.1362 45.037 63.1362 45.649C63.1362 49.066 63.1362 52.534 63.1362 56.002C63.1362 58.246 64.6462 59.725 66.9112 59.725C67.5656 59.725 68.2199 59.725 68.9246 59.725C69.5789 59.725 70.2332 59.725 70.9379 59.725C71.2399 59.725 71.4412 59.827 71.6426 60.031C74.2599 62.632 76.8772 65.284 79.4946 67.885C79.5952 67.987 79.7462 68.14 79.8972 68.242C80.2496 68.497 80.6019 68.65 81.0046 68.65C81.7596 68.65 82.4642 68.14 82.7159 67.375C82.7662 67.12 82.7662 66.814 82.7662 66.559C82.7662 65.896 82.7662 65.233 82.7662 64.621C82.7662 61.102 82.7662 57.532 82.7662 54.013C82.7662 52.993 82.7662 51.973 82.7662 50.902C82.6152 45.649 82.6152 40.447 82.6152 35.245Z" fill="#ADB3BA"/>
<path d="M75.6693 10C53.271 10 35 28.462 35 51.208C35 73.954 53.2207 92.416 75.6693 92.416C98.118 92.416 116.339 73.954 116.339 51.208C116.339 28.462 98.0677 10 75.6693 10ZM43.6573 51.157C43.6573 43.558 46.2747 36.52 50.6537 30.961L58.5057 39.325C60.066 37.132 62.5827 35.755 65.6027 35.755C66.106 35.755 66.6093 35.755 67.1127 35.755L56.9453 24.892C62.2303 21.016 68.7233 18.721 75.7197 18.721C93.3867 18.721 107.732 33.256 107.732 51.157C107.732 58.909 105.064 65.998 100.584 71.557L88.9573 59.164V69.619C88.9573 70.129 88.9573 70.843 88.756 71.659L94.2423 77.524C89.0077 81.298 82.6153 83.542 75.7197 83.542C58.0023 83.593 43.6573 69.058 43.6573 51.157Z" fill="#ADB3BA"/>
</g>
<defs>
<clipPath id="clip0_226_1158">
<rect width="151" height="102" fill="white"/>
</clipPath>
</defs>
</svg>
