<?xml version="1.0" encoding="utf-8"?>
<!-- Generator: Adobe Illustrator 20.1.0, SVG Export Plug-In . SVG Version: 6.00 Build 0)  -->
<svg version="1.1" id="Layer_1" xmlns="http://www.w3.org/2000/svg" xmlns:xlink="http://www.w3.org/1999/xlink" x="0px" y="0px"
	 viewBox="0 0 400 225" style="enable-background:new 0 0 400 225;" xml:space="preserve">
<style type="text/css">
	.st0{fill:none;}
	.st1{fill:#F0F1F6;}
	.st2{fill:#E2E3E8;}
	.st3{fill:#FFFFFF;}
	.st4{clip-path:url(#SVGID_2_);}
	.st5{fill:#96B9F5;}
	.st6{fill:#3C5F84;}
	.st7{opacity:0.2;}
	.st8{fill:#FEFEFE;}
	.st9{clip-path:url(#SVGID_4_);}
	.st10{fill:#D3EEFF;}
	.st11{fill:#FAC361;}
	.st12{fill:#51BC86;}
	.st13{opacity:0.25;}
	.st14{fill:#FE2E63;}
</style>
<g id="Layer_2">
	<g id="before-after">
		<rect class="st0" width="400" height="225"/>
		<g>
			<rect x="105.2" y="37.9" class="st1" width="195.6" height="150.2"/>
			<path class="st2" d="M301.4,188.7H104.5V37.2h196.9V188.7z M105.8,187.4h194.3V38.5H105.8L105.8,187.4z"/>
		</g>
		<rect x="112.6" y="45.5" class="st3" width="181.1" height="135.6"/>
		<g>
			<defs>
				<rect id="SVGID_1_" x="117" y="49.5" width="87" height="128"/>
			</defs>
			<clipPath id="SVGID_2_">
				<use xlink:href="#SVGID_1_"  style="overflow:visible;"/>
			</clipPath>
			<g class="st4">
				<g>
					<rect x="118" y="50.5" class="st3" width="173" height="125"/>
					<rect x="117" y="49.5" class="st5" width="174" height="129"/>
					<polygon class="st6" points="291,131.1 291,177.8 117,177.9 117,166.3 156.6,126.1 180.8,149.5 241.7,92 					"/>
					<g class="st7">
						<path d="M177.8,146.1c0,0-36.6,34.9-35.8,34.8c0.2,0,6.5,0.2,6.5,0.2l32.5-31.9L177.8,146.1z"/>
					</g>
					<path class="st8" d="M145.3,80.7c0-4.9,2.9-9.3,7.5-11.2c-8.2-1.8-16.4,3.4-18.2,11.6c-1.8,8.2,3.4,16.4,11.6,18.2
						c6.7,1.5,13.6-1.7,16.8-7.8c-6,3.1-13.3,0.7-16.3-5.3C145.7,84.5,145.3,82.6,145.3,80.7L145.3,80.7z"/>
					
						<ellipse transform="matrix(0.9992 -3.996804e-02 3.996804e-02 0.9992 -2.7072 6.9043)" class="st8" cx="171.3" cy="71.2" rx="1" ry="1"/>
					<circle class="st8" cx="182.1" cy="72.7" r="1"/>
					<circle class="st8" cx="177.6" cy="81.8" r="1"/>
				</g>
			</g>
		</g>
		<g>
			<defs>
				<rect id="SVGID_3_" x="204" y="49.5" width="85" height="128"/>
			</defs>
			<clipPath id="SVGID_4_">
				<use xlink:href="#SVGID_3_"  style="overflow:visible;"/>
			</clipPath>
			<g class="st9">
				<g>
					<rect x="118" y="50.5" class="st3" width="173" height="125"/>
					<rect x="117" y="49.5" class="st10" width="174" height="129"/>
					<g class="st7">
						<path d="M173.8,143c0,0-36.5,35-35.8,34.8c0.2,0,6.5,0.2,6.5,0.2l32.5-31.9L173.8,143z"/>
					</g>
					
						<ellipse transform="matrix(0.3672 -0.9302 0.9302 0.3672 98.6771 293.3748)" class="st11" cx="264.9" cy="74.2" rx="14.6" ry="14.7"/>
					<polygon class="st12" points="291,131.1 291,177.8 117,177.9 117,166.3 156.6,126.1 181.2,149.3 241.7,92 					"/>
				</g>
			</g>
		</g>
		<g class="st13">
			<rect x="206" y="49.5" width="6" height="128"/>
		</g>
		<g class="st13">
			<path d="M191.9,103.6h30.6c7.7,0,13.9,6.2,13.9,13.9v0c0,7.7-6.2,13.9-13.9,13.9h-30.6c-7.7,0-13.9-6.2-13.9-13.9v0
				C178,109.8,184.2,103.6,191.9,103.6z"/>
		</g>
		<rect x="201" y="49.5" class="st14" width="5" height="128"/>
		<path class="st14" d="M188,99.6h30.6c7.7,0,13.9,6.2,13.9,13.9v0c0,7.7-6.2,13.9-13.9,13.9H188c-7.7,0-13.9-6.2-13.9-13.9v0
			C174.1,105.9,180.3,99.6,188,99.6z"/>
		<path class="st3" d="M195.1,114.2c0.1,0.5-0.3,1-0.9,1.1c0,0-0.1,0-0.1,0H188l2.5,2.5c0.4,0.4,0.4,1.1,0,1.5c0,0,0,0,0,0l-0.6,0.7
			c-0.2,0.2-0.5,0.3-0.8,0.3c-0.3,0-0.6-0.1-0.8-0.3l-5.6-5.6c-0.2-0.2-0.3-0.5-0.3-0.8c0-0.3,0.1-0.6,0.3-0.8l5.6-5.6
			c0.2-0.2,0.5-0.3,0.8-0.3c0.3,0,0.6,0.1,0.8,0.3l0.6,0.6c0.4,0.4,0.4,1.1,0,1.6c0,0,0,0,0,0L188,112h6.1c0.6,0,1,0.4,1,1
			c0,0,0,0.1,0,0.1L195.1,114.2z"/>
		<path class="st3" d="M212.4,113.6c-0.1-0.5,0.3-1,0.9-1.1c0,0,0.1,0,0.1,0h6.1l-2.5-2.5c-0.4-0.4-0.4-1.1,0-1.5c0,0,0,0,0,0
			l0.6-0.7c0.2-0.2,0.5-0.3,0.8-0.3c0.3,0,0.6,0.1,0.8,0.3l5.6,5.6c0.2,0.2,0.3,0.5,0.3,0.8c0,0.3-0.1,0.6-0.3,0.8l-5.6,5.6
			c-0.2,0.2-0.5,0.3-0.8,0.3c-0.3,0-0.6-0.1-0.8-0.3l-0.6-0.6c-0.4-0.4-0.4-1.1,0-1.6c0,0,0,0,0,0l2.5-2.5h-6.1c-0.6,0-1-0.4-1-1
			c0,0,0-0.1,0-0.1V113.6z"/>
	</g>
</g>
</svg>
