<?xml version="1.0" encoding="utf-8"?>
<!-- Generator: Adobe Illustrator 25.3.1, SVG Export Plug-In . SVG Version: 6.00 Build 0)  -->
<svg version="1.1"
	 id="Layer_1" xmlns:cc="http://creativecommons.org/ns#" xmlns:dc="http://purl.org/dc/elements/1.1/" xmlns:inkscape="http://www.inkscape.org/namespaces/inkscape" xmlns:rdf="http://www.w3.org/1999/02/22-rdf-syntax-ns#" xmlns:sodipodi="http://sodipodi.sourceforge.net/DTD/sodipodi-0.dtd" xmlns:svg="http://www.w3.org/2000/svg"
	 xmlns="http://www.w3.org/2000/svg" xmlns:xlink="http://www.w3.org/1999/xlink" x="0px" y="0px" viewBox="0 0 400 225"
	 style="enable-background:new 0 0 400 225;" xml:space="preserve">
<style type="text/css">
	.st0{fill:none;}
	.st1{fill:#5443B9;}
	.st2{fill:#F0F1F5;}
	.st3{fill:#5443B9;fill-opacity:0.11;stroke:#363351;stroke-width:2.8019;stroke-dasharray:5.6038,5.6038;stroke-dashoffset:2;}
	.st4{opacity:0.2;enable-background:new    ;}
	.st5{fill:#55B08B;}
</style>
<sodipodi:namedview  bordercolor="#666666" borderopacity="1" gridtolerance="10" guidetolerance="10" id="namedview2485" inkscape:current-layer="Layer_1" inkscape:cx="182.3356" inkscape:cy="224.4269" inkscape:pageopacity="0" inkscape:pageshadow="2" inkscape:window-height="1016" inkscape:window-maximized="1" inkscape:window-width="1860" inkscape:window-x="60" inkscape:window-y="27" inkscape:zoom="1.0436737" objecttolerance="10" pagecolor="#ffffff" showgrid="false">
	</sodipodi:namedview>
<rect id="rect2480" class="st0" width="400" height="225"/>
<g>
	<path id="path2452" class="st1" d="M114.2,32.1h164.4c1.7,0,3,1.4,3,3v21.6c0,1.7-1.4,3-3,3H114.2c-1.7,0-3-1.4-3-3V35.1
		C111.2,33.4,112.5,32.1,114.2,32.1z"/>
	<path id="rect2470" class="st2" d="M123.1,43.4h55.4c0.3,0,0.5,0.2,0.5,0.5v4.6c0,0.3-0.2,0.5-0.5,0.5h-55.4
		c-0.3,0-0.5-0.2-0.5-0.5v-4.6C122.6,43.6,122.8,43.4,123.1,43.4z"/>
	<path id="rect2460-1-0-5-9" class="st2" d="M185.8,43.4H201c0.3,0,0.5,0.2,0.5,0.5v4.6c0,0.3-0.2,0.5-0.5,0.5h-15.2
		c-0.3,0-0.5-0.2-0.5-0.5v-4.6C185.3,43.6,185.5,43.4,185.8,43.4z"/>
	<path id="path2456" class="st1" d="M114.2,165.3h164.4c1.7,0,3,1.4,3,3v21.6c0,1.7-1.4,3-3,3H114.2c-1.7,0-3-1.4-3-3v-21.6
		C111.2,166.6,112.5,165.3,114.2,165.3z"/>
	<path id="rect2458" class="st2" d="M123.1,176H140c0.3,0,0.5,0.2,0.5,0.5v4.6c0,0.3-0.2,0.5-0.5,0.5h-16.9c-0.3,0-0.5-0.2-0.5-0.5
		v-4.6C122.6,176.2,122.8,176,123.1,176z"/>
	<path id="rect2458-7" class="st2" d="M147.7,176h64.9c0.3,0,0.5,0.2,0.5,0.5v4.6c0,0.3-0.2,0.5-0.5,0.5h-64.9
		c-0.3,0-0.5-0.2-0.5-0.5v-4.6C147.2,176.2,147.4,176,147.7,176z"/>
	<path id="path2456-1" class="st1" d="M114.2,130.5h164.4c1.7,0,3,1.4,3,3v21.6c0,1.7-1.4,3-3,3H114.2c-1.7,0-3-1.4-3-3v-21.6
		C111.2,131.8,112.5,130.5,114.2,130.5z"/>
	<path id="rect2458-3" class="st2" d="M123.1,141H149c0.3,0,0.5,0.2,0.5,0.5v4.6c0,0.3-0.2,0.5-0.5,0.5h-25.9
		c-0.3,0-0.5-0.2-0.5-0.5v-4.6C122.6,141.3,122.8,141,123.1,141z"/>
	<path id="rect2458-7-1" class="st2" d="M157.3,141h43.6c0.3,0,0.5,0.2,0.5,0.5v4.6c0,0.3-0.2,0.5-0.5,0.5h-43.6
		c-0.3,0-0.5-0.2-0.5-0.5v-4.6C156.8,141.3,157,141,157.3,141z"/>
	<path id="path2454-0" class="st3" d="M115.5,68.3c-1.7,0-2.9,1.2-2.9,2.8v5.3v15.2v1.6V97v1.6v15.2v5.3c0,1.5,1.3,2.8,2.9,2.8
		h161.6c1.6,0,2.9-1.2,2.9-2.8v-5.3V98.5V97v-3.8v-1.6V76.5v-5.3c0-1.5-1.3-2.8-2.9-2.8H115.5z"/>
	<g id="g3862" transform="translate(4.4646077,2.3618813)">
		<path id="path2454-9" class="st4" d="M132.3,81.1c-1.7,0-3,1.3-3,3v5.6v16v1.7v4v1.7v16v5.6c0,1.6,1.3,3,3,3h164.4
			c1.6,0,3-1.3,3-3v-5.6v-16v-1.7v-4v-1.7v-16v-5.6c0-1.6-1.3-3-3-3H132.3z"/>
		<g id="g3292" transform="translate(10.840273,3.087796)">
			<path id="path2454" class="st5" d="M115.4,70.2c-1.7,0-3,1.3-3,3v5.6v16v1.7v4v1.7v16v5.6c0,1.6,1.3,3,3,3h164.4c1.6,0,3-1.3,3-3
				v-5.6v-16v-1.7v-4v-1.7v-16v-5.6c0-1.6-1.3-3-3-3L115.4,70.2z"/>
			<path id="rect2460" class="st2" d="M129.8,81.4H172c0.3,0,0.5,0.2,0.5,0.5v4.6c0,0.3-0.2,0.5-0.5,0.5h-42.2
				c-0.3,0-0.5-0.2-0.5-0.5v-4.6C129.3,81.7,129.5,81.4,129.8,81.4z"/>
			<path id="rect2470-0" class="st2" d="M129.4,94.4h70.9c0.3,0,0.5,0.2,0.5,0.5v4.6c0,0.3-0.2,0.5-0.5,0.5h-70.9
				c-0.3,0-0.5-0.2-0.5-0.5v-4.6C128.9,94.6,129.2,94.4,129.4,94.4z"/>
			<path id="rect2460-1" class="st2" d="M180,81.4h32.8c0.3,0,0.5,0.2,0.5,0.5v4.6c0,0.3-0.2,0.5-0.5,0.5H180
				c-0.3,0-0.5-0.2-0.5-0.5v-4.6C179.5,81.7,179.7,81.4,180,81.4z"/>
			<path id="rect2460-1-0" class="st2" d="M129.4,108.6H155c0.3,0,0.5,0.2,0.5,0.5v4.6c0,0.3-0.2,0.5-0.5,0.5h-25.6
				c-0.3,0-0.5-0.2-0.5-0.5v-4.6C128.9,108.8,129.1,108.6,129.4,108.6z"/>
			<path id="rect2460-1-0-5" class="st2" d="M162.3,108.6h15.2c0.3,0,0.5,0.2,0.5,0.5v4.6c0,0.3-0.2,0.5-0.5,0.5h-15.2
				c-0.3,0-0.5-0.2-0.5-0.5v-4.6C161.8,108.8,162,108.6,162.3,108.6z"/>
			<path id="rect2460-1-0-5-1" class="st2" d="M184.6,108.6h39.3c0.3,0,0.5,0.2,0.5,0.5v4.6c0,0.3-0.2,0.5-0.5,0.5h-39.3
				c-0.3,0-0.5-0.2-0.5-0.5v-4.6C184.1,108.8,184.3,108.6,184.6,108.6z"/>
		</g>
	</g>
</g>
</svg>
