<svg xmlns="http://www.w3.org/2000/svg" viewBox="0 0 400 225">
  <defs>
    <style>
      .cls-1 {
        fill: none;
      }

      .cls-2 {
        fill: #ea964d;
      }

      .cls-3 {
        fill: #fff;
      }

      .cls-4 {
        fill: #3497da;
      }

      .cls-5 {
        fill: #97b9f5;
      }

      .cls-6 {
        fill: #405f84;
      }

      .cls-7 {
        fill: #61c385;
      }
    </style>
  </defs>
  <title>speak the words</title>
  <g id="Layer_2" data-name="Layer 2">
    <g id="speak_the_words" data-name="speak the words">
      <rect class="cls-1" width="400" height="225"/>
      <g>
        <text></text>
        <path class="cls-2" d="M306.71,101.42c0-10.12-11.49-18.35-25.68-18.35s-25.68,8.2-25.68,18.35,11.49,18.35,25.68,18.35h.81l17.1,4.5-3.05-7.94c.4-.18.78-.35,1.13-.53C302,113.24,306.71,107.24,306.71,101.42Z"/>
        <g>
          <path class="cls-3" d="M268.7,96.8a4.42,4.42,0,1,1-4.2,4.41A4.14,4.14,0,0,1,268.7,96.8Z"/>
          <path class="cls-3" d="M281.24,96.8a4.42,4.42,0,1,1-4.2,4.41A4.14,4.14,0,0,1,281.24,96.8Z"/>
          <path class="cls-3" d="M293.58,96.8a4.42,4.42,0,1,1-4.2,4.41A4.14,4.14,0,0,1,293.58,96.8Z"/>
        </g>
        <path class="cls-4" d="M118.21,52.37c0-10.66,12.11-19.33,27.06-19.33s27.06,8.64,27.06,19.33S160.21,71.7,145.26,71.7h-.85l-18,4.74,3.21-8.36c-.42-.19-.82-.37-1.19-.56C123.13,64.83,118.21,58.5,118.21,52.37Z"/>
        <path class="cls-3" d="M155.39,47.55a7,7,0,0,1-1,3.69,6,6,0,0,1-1.14,1.24,10.61,10.61,0,0,1-1.19.9l-1.27.74a4.07,4.07,0,0,0-1.42,1.35,2.83,2.83,0,0,0-.57,1.39,1.09,1.09,0,0,1-.25.67.72.72,0,0,1-.58.32h-5a.62.62,0,0,1-.53-.38,1.56,1.56,0,0,1-.22-.78v-.93a4.84,4.84,0,0,1,1.35-3.25,8.78,8.78,0,0,1,3-2.25,5.12,5.12,0,0,0,1.74-1.16,2.33,2.33,0,0,0,.52-1.58,1.88,1.88,0,0,0-1-1.54,3.84,3.84,0,0,0-2.23-.66,3.93,3.93,0,0,0-2.24.6,14.16,14.16,0,0,0-2.22,2.39.81.81,0,0,1-.64.33,1,1,0,0,1-.52-.17l-3.41-2.6a.8.8,0,0,1-.32-.52.82.82,0,0,1,.11-.58A10.61,10.61,0,0,1,146,39.24a9.31,9.31,0,0,1,3.34.64,11.28,11.28,0,0,1,3,1.72,8.62,8.62,0,0,1,2.2,2.65A6.8,6.8,0,0,1,155.39,47.55ZM148.83,60v5a.85.85,0,0,1-.83.83h-5a.85.85,0,0,1-.83-.83V60a.85.85,0,0,1,.83-.83h5a.85.85,0,0,1,.83.83Z"/>
        <g>
          <path class="cls-5" d="M261,78.13A43.67,43.67,0,0,1,275.41,74,82.49,82.49,0,0,0,173.08,32.11a27,27,0,0,1,9.07,12.5A67.72,67.72,0,0,1,261,78.13Z"/>
          <path class="cls-5" d="M133.36,109.63a67.45,67.45,0,0,1,6.11-28.1L122.1,86.1a82.44,82.44,0,0,0,5.14,60.13A41.22,41.22,0,0,1,141,140.79,67.41,67.41,0,0,1,133.36,109.63Z"/>
          <path class="cls-5" d="M281,127.77a47.06,47.06,0,0,1-14.14-2.13,67.71,67.71,0,0,1-81.48,49.88,27.21,27.21,0,0,1-9.47,11.32q-.62.44-1.26.86a82.4,82.4,0,0,0,106.79-59.93Z"/>
          <path class="cls-6" d="M141,140.79a48.41,48.41,0,0,1,9.84-1c9.44,0,18.37,2.66,25.14,7.5,7.24,5.17,11.22,12.19,11.22,19.78a21.45,21.45,0,0,1-1.75,8.46,67.71,67.71,0,0,0,81.48-49.88,38.6,38.6,0,0,1-10.82-5.31c-7.18-5.13-11.14-12.1-11.14-19.62s4-14.5,11.14-19.62a36.29,36.29,0,0,1,5-3,67.72,67.72,0,0,0-78.9-33.52,22.32,22.32,0,0,1,1.14,7c0,7.93-4.17,15.27-11.73,20.67-7.08,5.05-16.41,7.84-26.29,7.84h-.48l-5.32,1.4A67.69,67.69,0,0,0,141,140.79Z"/>
        </g>
        <path class="cls-7" d="M124.92,167.77c0-10.2,11.58-18.49,25.88-18.49s25.88,8.26,25.88,18.49-11.58,18.49-25.88,18.49H150l-17.23,4.53,3.07-8c-.4-.18-.79-.36-1.14-.54C129.63,179.69,124.92,173.64,124.92,167.77Z"/>
        <path class="cls-3" d="M165.24,162a1.66,1.66,0,0,1-.5,1.22l-13,13-2.44,2.44a1.73,1.73,0,0,1-2.44,0l-2.44-2.44-6.5-6.5a1.73,1.73,0,0,1,0-2.44l2.44-2.44a1.73,1.73,0,0,1,2.44,0l5.28,5.29,11.77-11.79a1.73,1.73,0,0,1,2.44,0l2.44,2.44A1.66,1.66,0,0,1,165.24,162Z"/>
        <path class="cls-3" d="M225,100.87a3,3,0,0,0-3,2.86v3.06a20,20,0,1,1-40,0v-3.06a2.52,2.52,0,1,0-5,0v3.06c0,13.25,9,24.17,22,25.6v5.1H188.57a3,3,0,0,0,0,6h28.64a3,3,0,0,0,0-6H206v-5.1c12-1.43,22-12.35,22-25.6v-3.06A3,3,0,0,0,225,100.87Z"/>
        <rect class="cls-3" x="188.32" y="72.73" width="29.45" height="46.56" rx="14.19" ry="14.19"/>
      </g>
    </g>
  </g>
</svg>
