<?xml version="1.0" encoding="utf-8"?>
<!-- Generator: Adobe Illustrator 25.4.1, SVG Export Plug-In . SVG Version: 6.00 Build 0)  -->
<svg version="1.1" id="Layer_1" xmlns="http://www.w3.org/2000/svg" xmlns:xlink="http://www.w3.org/1999/xlink" x="0px" y="0px"
	 viewBox="0 0 400 225" style="enable-background:new 0 0 400 225;" xml:space="preserve">
<style type="text/css">
	.st0{clip-path:url(#SVGID_00000181773592031166632630000003888797030770094216_);}
	.st1{fill:#5443B9;}
	.st2{fill:#FFFFFF;}
	.st3{fill:#FFC81A;}
	.st4{fill:#D0A700;}
	.st5{fill:#E29563;}
	.st6{fill:#363351;}
	.st7{fill:#FC707B;}
	.st8{enable-background:new    ;}
</style>
<g>
	<g>
		<defs>
			<rect id="SVGID_1_" width="400" height="225"/>
		</defs>
		<clipPath id="SVGID_00000080196361811698575700000006951387133317339064_">
			<use xlink:href="#SVGID_1_"  style="overflow:visible;"/>
		</clipPath>
		<g style="clip-path:url(#SVGID_00000080196361811698575700000006951387133317339064_);">
			<g>
				<rect x="113.3" y="30.9" class="st1" width="163.3" height="163.3"/>
			</g>
			<g>
				<rect x="167.7" y="38.4" class="st2" width="29.5" height="29.5"/>
				<path class="st1" d="M199.2,69.9h-33.5V36.4h33.5V69.9z M169.7,65.9h25.5V40.4h-25.5V65.9z"/>
			</g>
			<g>
				<rect x="167.7" y="67.9" class="st2" width="29.5" height="29.5"/>
				<path class="st1" d="M199.2,99.4h-33.5V65.9h33.5V99.4z M169.7,95.4h25.5V69.9h-25.5V95.4z"/>
			</g>
			<g>
				<rect x="167.7" y="97.5" class="st2" width="29.5" height="29.5"/>
				<path class="st1" d="M199.2,129h-33.5V95.5h33.5V129z M169.7,125h25.5V99.5h-25.5V125z"/>
			</g>
			<g>
				<rect x="167.7" y="127.1" class="st2" width="29.5" height="29.5"/>
				<path class="st1" d="M199.2,158.6h-33.5v-33.5h33.5V158.6z M169.7,154.6h25.5v-25.5h-25.5V154.6z"/>
			</g>
			<g>
				<rect x="197.5" y="127.1" class="st2" width="29.5" height="29.5"/>
				<path class="st1" d="M229,158.6h-33.5v-33.5H229V158.6z M199.5,154.6H225v-25.5h-25.5V154.6z"/>
			</g>
			<g>
				<rect x="138" y="127.1" class="st2" width="29.5" height="29.5"/>
				<path class="st1" d="M169.5,158.6H136v-33.5h33.5V158.6z M140,154.6h25.5v-25.5H140V154.6z"/>
			</g>
			<g>
				<rect x="226.9" y="68" class="st2" width="29.5" height="29.5"/>
				<path class="st1" d="M258.4,99.5h-33.5V66h33.5V99.5z M228.9,95.5h25.5V70h-25.5V95.5z"/>
			</g>
			<g>
				<rect x="197.5" y="68" class="st2" width="29.5" height="29.5"/>
				<path class="st1" d="M229,99.5h-33.5V66H229V99.5z M199.5,95.5H225V70h-25.5V95.5z"/>
			</g>
			<g>
				<rect x="138" y="68" class="st2" width="29.5" height="29.5"/>
				<path class="st1" d="M169.5,99.5H136V66h33.5V99.5z M140,95.5h25.5V70H140V95.5z"/>
			</g>
			<g>
				<rect x="167.7" y="156.8" class="st2" width="29.5" height="29.5"/>
				<path class="st1" d="M199.2,188.3h-33.5v-33.5h33.5V188.3z M169.7,184.3h25.5v-25.5h-25.5V184.3z"/>
			</g>
			<g>
				<g>
					<path class="st2" d="M222.8,138.2c0.9,0,1.2-0.1,27.5-7.2l0,0c1-0.3,1.8-0.8,2.5-1.5l0,0c0.1-0.1,10.3-11.5,20.3-23.1
						c21.6-25.2,21.5-27.1,21.2-29.7c-0.8-9.7-13.1-20.8-23-20.8c-0.4,0-0.8,0-1.2,0c-2.4,0.2-4.7,0.3-26.9,24.9
						c-10.3,11.4-20.2,23-20.3,23.1l0,0c-0.6,0.7-1,1.6-1.2,2.5l0,0c0,0-1,6.4-2,12.9c-0.5,3.2-1,6.5-1.4,8.9
						c-0.4,2.3-0.6,3.8-0.6,4.9l0,0v5.2L222.8,138.2z"/>
				</g>
				<g>
					<g>
						<polygon class="st3" points="237.8,116.9 248.8,126.3 278.8,92.2 267.7,82.8 						"/>
					</g>
					<g>
						<polygon class="st4" points="226.7,107.5 237.8,116.9 267.7,82.8 256.7,73.4 						"/>
					</g>
					<g>
						<g>
							<path class="st5" d="M230.4,125.2c1.7,1.4,3.4,3.1,4.8,4.8l13.7-3.7c0,0-2.1-5.9-9.2-12c-6.9-5.9-12.9-6.9-12.9-6.9
								l-2.2,13.6C226.6,122.2,228.6,123.6,230.4,125.2z"/>
						</g>
						<g>
							<path class="st6" d="M224.4,121c0,0-1.9,12.2-1.8,12.2c0,0.2,12.6-3.2,12.6-3.2c-1.5-1.7-3.1-3.3-4.8-4.8
								C228.6,123.6,226.6,122.2,224.4,121z"/>
						</g>
					</g>
					<g>
						
							<rect x="267.4" y="66.7" transform="matrix(0.6473 -0.7622 0.7622 0.6473 33.2219 234.3328)" class="st2" width="4.9" height="29.1"/>
					</g>
					<g>
						<path class="st7" d="M259.6,69.9l22.2,18.9c0,0,7.7-7,7.3-11.4c-0.6-7.3-11.4-16.7-18.6-16.1C266,61.5,259.6,69.9,259.6,69.9z
							"/>
					</g>
				</g>
			</g>
			<g class="st8">
				<path class="st1" d="M160.3,134.2v14.7h-5v-5.4h-4.6v5.4h-5v-14.7h5v5.2h4.6v-5.2H160.3z"/>
			</g>
			<g class="st8">
				<path class="st1" d="M187.3,140.4c1,0.9,1.5,2,1.5,3.4c0,0.9-0.2,1.8-0.7,2.6c-0.5,0.8-1.2,1.4-2.2,1.9c-1,0.5-2.3,0.7-3.8,0.7
					c-1,0-2.1-0.1-3.1-0.3c-1-0.2-1.9-0.6-2.7-1l1.7-3.7c0.6,0.3,1.3,0.6,1.9,0.8c0.7,0.2,1.3,0.3,2,0.3c0.6,0,1-0.1,1.4-0.3
					c0.4-0.2,0.5-0.5,0.5-0.9c0-0.4-0.2-0.6-0.5-0.8c-0.3-0.2-0.9-0.3-1.7-0.3h-4.3l0.7-8.9h9.8v3.7h-5.7l-0.1,1.4h0.8
					C184.8,139.1,186.3,139.6,187.3,140.4z"/>
			</g>
			<g class="st8">
				<path class="st1" d="M216.5,134.9c1,0.4,1.8,1.1,2.3,1.9s0.8,1.8,0.8,2.9s-0.3,2.1-0.8,2.9s-1.3,1.5-2.3,1.9
					c-1,0.4-2.2,0.7-3.5,0.7h-2.1v3.6h-5v-14.7h7.1C214.3,134.2,215.5,134.4,216.5,134.9z M214.2,141c0.3-0.3,0.5-0.7,0.5-1.3
					s-0.2-1-0.5-1.3c-0.3-0.3-0.8-0.5-1.5-0.5h-1.8v3.4h1.8C213.3,141.5,213.8,141.3,214.2,141z"/>
			</g>
		</g>
	</g>
</g>
</svg>
