<svg xmlns="http://www.w3.org/2000/svg" xml:space="preserve" id="Layer_1" x="0" y="0" style="enable-background:new 0 0 400 225" version="1.1" viewBox="0 0 400 225"><style id="style2" type="text/css">.st0{fill:none}.st3{fill:#3d5591}.st4{opacity:.19;enable-background:new}.st5{fill:#0a0a0a}.st6{fill:#098e7b}.st7{fill:#f0f3f7}.st10{fill:#fff}</style><g id="g119"><g id="g7"><path id="rect5" d="M0 0h400v225H0z" class="st0"/></g><path id="path9" d="m288.7 23-39.6 24.1c-4.3 2.2-9.2 3.6-14.4 3.6-3.4 0-6.7-.6-9.8-1.6l-49.5-24.5c-6.2-3.1-13.6-3.1-19.8 0l-50.3 30.2c-1.8 1.1-2.9 3-2.9 5.1v137.7c0 4.6 7.9 5.7 11.9 3.3l36.5-21.9c4.7-2.6 10-4.2 15.7-4.2 3.5 0 6.8.6 10 1.7l50.6 25c5.8 2.9 12.7 2.6 18.3-.6l46.7-28.5c3.4-2.1 5.4-5.7 5.4-9.7l.2-136.1c0-4.6-5.7-6.9-9-3.6z" style="fill:#f0f1f5"/><g id="g13"><path id="path11" d="M254.9 56.4c-11.6 7-25.9 7.5-38 1.6l-37.2-18.3c-9.5-4.7-20.7-4.3-29.9 1.2l-26 15.6c-6 3.6-9.6 10.1-9.6 17v103.3c0 4.4 4.8 7.1 8.6 4.8l23.1-13.9c11.6-7 25.9-7.5 38-1.6l45.5 22.5c4.3 2.2 9.4 1.9 13.6-.5l36.6-22c4.3-2.6 6.9-7.1 6.9-12.1l.2-106.6c0-4.4-4.8-7.1-8.6-4.8l-23.2 13.8z" style="fill:#c2d0ef"/></g><g id="g113"><g id="g23"><g id="g21"><g id="g19"><g id="g17"><path id="line15" d="M164.3 123.8h.2" class="st0"/></g></g></g></g><g id="g51"><path id="path25" d="m153.8 130.8-1.6 1.9 1.6-1.9c-1.1-.9-2.6-.7-3.5.4-.9 1.1-.7 2.7.4 3.5.5.4 1 .6 1.6.6.7 0 1.4-.3 1.9-.9.9-1.1.7-2.6-.3-3.5 0-.1-.1-.1-.1-.1z" class="st3"/><path id="path27" d="m148.8 123-1.6 1.9 1.6-1.9c-1.1-.9-2.6-.7-3.5.4-.9 1.1-.7 2.7.4 3.5.5.4 1 .6 1.6.6.7 0 1.4-.3 1.9-.9.9-1.1.7-2.6-.3-3.5l-.1-.1z" class="st3"/><path id="path29" d="m160.7 134.2-.8 2.4.8-2.4c-1.3-.5-2.8.2-3.2 1.6-.4 1.3.3 2.7 1.6 3.2h.2c.2.1.5.1.7.1 1.1 0 2-.7 2.4-1.7.3-1.4-.4-2.8-1.7-3.2z" class="st3"/><path id="path31" d="m170.1 136.3-.4 2.5.4-2.5c-1.4-.2-2.7.7-2.9 2.1-.2 1.4.7 2.6 2.1 2.8h.5c1.2 0 2.3-.9 2.5-2.2.1-1.3-.9-2.5-2.2-2.7z" class="st3"/><path id="path33" d="M259.3 128.6c.3 1.1 1.3 1.8 2.4 1.8.2 0 .5 0 .7-.1 1.3-.4 2.1-1.8 1.7-3.1v-.1c-.4-1.3-1.8-2-3.1-1.6-1.3.4-2.1 1.8-1.7 3.1z" class="st3"/><path id="path35" d="M186.2 117.3c.3.1.6.1.8.1 1 0 2-.6 2.4-1.7l.1-.1c.4-1.3-.3-2.7-1.6-3.2-1.3-.4-2.7.3-3.2 1.6l2.3.9-2.4-.8c-.4 1.3.3 2.7 1.6 3.2z" class="st3"/><path id="path37" d="M117.4 72.3h-.1c-1.3-.3-2.6.5-3 1.8-.4 1.3.5 2.7 1.8 3.1.2.1.4.1.7.1 1.1 0 2.1-.7 2.4-1.8.3-1.5-.4-2.9-1.8-3.2z" class="st3"/><path id="path39" d="M135.3 84.6c-.7-1.3-2.2-1.8-3.4-1.2-1.2.6-1.7 2.1-1.1 3.4v.1c.4.9 1.3 1.4 2.2 1.4.4 0 .8-.1 1.1-.3 1.3-.7 1.8-2.2 1.2-3.4z" class="st3"/><path id="path41" d="m127.4 76.5-1.4 2.1 1.4-2.1c-1.2-.8-2.8-.5-3.5.7-.8 1.2-.4 2.7.7 3.5l.1.1c.4.3.9.4 1.3.4.8 0 1.6-.4 2.1-1.2.8-1.2.4-2.8-.7-3.5z" class="st3"/><path id="path43" d="M258 121.1c.4 0 .8-.1 1.1-.3 1.2-.6 1.7-2.1 1.1-3.4l-.1-.1c-.7-1.2-2.1-1.6-3.4-1-1.2.7-1.7 2.2-1 3.4.5.9 1.4 1.4 2.3 1.4z" class="st3"/><path id="path45" d="M284.8 136.2c-1-1-2.6-.9-3.5.1l-.1.1c-.9 1-.9 2.6.2 3.5.5.4 1.1.7 1.7.7.7 0 1.4-.3 1.9-.8.8-1.1.7-2.7-.2-3.6z" class="st3"/><path id="path47" d="M193.1 103.8c-1.1-.8-2.7-.5-3.5.6l-.1.1c-.8 1.1-.4 2.6.7 3.4.4.3.9.4 1.4.4.8 0 1.6-.4 2.1-1.1.8-1.1.5-2.6-.6-3.4z" class="st3"/><path id="path49" d="M201.9 97.5c-1.1-.8-2.7-.5-3.5.6l-.1.1c-.8 1.1-.4 2.6.7 3.4.4.3.9.4 1.4.4.8 0 1.6-.4 2.1-1.1.8-1.1.5-2.6-.6-3.4z" class="st3"/></g><g id="g55" class="st4"><circle id="circle53" cx="141.5" cy="106.3" r="16.9" class="st5"/></g><g id="g59" class="st4"><circle id="circle57" cx="194.6" cy="137.4" r="16.3" class="st5"/></g><g id="g63" class="st4"><circle id="circle61" cx="266.2" cy="149.5" r="16.3" class="st5"/></g><g id="g67" class="st4"><circle id="circle65" cx="232.6" cy="102.1" r="22.9" class="st5"/></g><g id="g73"><circle id="circle69" cx="138.7" cy="103.5" r="14.1" class="st6"/><path id="path71" d="M138.7 119.6c-8.9 0-16.1-7.2-16.1-16.1s7.2-16.1 16.1-16.1 16.1 7.2 16.1 16.1-7.3 16.1-16.1 16.1zm0-28.2c-6.7 0-12.1 5.4-12.1 12.1s5.4 12.1 12.1 12.1 12.1-5.4 12.1-12.1-5.5-12.1-12.1-12.1z" class="st7"/></g><g id="g79"><circle id="circle75" cx="191.7" cy="136.1" r="13.4" class="st6"/><path id="path77" d="M191.7 151.5c-8.5 0-15.4-6.9-15.4-15.4s6.9-15.4 15.4-15.4 15.4 6.9 15.4 15.4-6.9 15.4-15.4 15.4zm0-26.8c-6.3 0-11.4 5.1-11.4 11.4s5.1 11.4 11.4 11.4 11.4-5.1 11.4-11.4-5.1-11.4-11.4-11.4z" class="st7"/></g><g id="g89"><g id="g83"><path id="path81" d="M229.9 119.3c-11.7 0-21.1-9.5-21.1-21.1s9.5-21.1 21.1-21.1S251 86.6 251 98.2s-9.5 21.1-21.1 21.1z" style="fill:#8e44ad"/></g><g id="g87"><path id="path85" d="M229.9 79.2c10.5 0 19 8.5 19 19s-8.5 19-19 19-19-8.5-19-19 8.5-19 19-19m0-4.3c-12.8 0-23.3 10.4-23.3 23.3s10.4 23.3 23.3 23.3 23.3-10.4 23.3-23.3-10.5-23.3-23.3-23.3z" class="st7"/></g></g><g id="g95"><circle id="circle91" cx="263.8" cy="147.2" r="13.9" style="fill:#dd2f3c"/><path id="path93" d="M263.8 163.1c-8.8 0-15.9-7.1-15.9-15.9s7.1-15.9 15.9-15.9 15.9 7.1 15.9 15.9c0 8.7-7.2 15.9-15.9 15.9zm0-27.8c-6.6 0-11.9 5.3-11.9 11.9s5.3 11.9 11.9 11.9 11.9-5.3 11.9-11.9-5.4-11.9-11.9-11.9z" class="st7"/></g><g id="g111"><g id="g109"><g id="g101"><path id="path97" d="M229.5 109.4c-.5-.2-.9-.5-1-1V106.7c0-.7.5-1.5 1.5-1.5h1.2c.6.1 1.2.6 1.2 1.3v1.7c0 .7-.5 1.1-1.1 1.3-.6-.1-1.2-.1-1.8-.1z" class="st10"/><path id="path99" d="M231.3 110h-.1c-.6-.1-1.1-.1-1.7-.1h-.2c-.7-.3-1.2-.8-1.3-1.4v-1.8c0-1 .7-2 2-2h1.2c.9.1 1.7.8 1.7 1.8v1.7c0 .8-.5 1.5-1.4 1.8h-.2zm-1.7-1.1c.5 0 1.1 0 1.6.1.6-.3.6-.7.6-.8v-1.7c0-.4-.4-.7-.8-.8h-1.1c-.7 0-1 .6-1 1v1.7c.1 0 .2.3.7.5z" class="st10"/></g><g id="g107"><path id="path103" d="M230.4 103.1h-.5c-.7 0-1.2-.5-1.2-1.2 0-1.4.5-2.7 1.5-3.7.7-.7 1.5-1.4 2.3-2 .4-.3.7-.6 1-1 .6-.9.5-2-.2-2.8-.5-.6-1.2-.9-2-1s-1.7-.1-2.4.3-1.2.9-1.5 1.6c0 .1-.1.2-.1.3-.3.7-.8 1-1.6.9-.5-.1-1-.1-1.4-.2-.5-.1-.8-.4-.7-.9.3-1.7 1.3-2.9 2.7-3.8 1-.7 2.1-1 3.3-1.1 1.2-.1 2.4 0 3.6.3 1.7.5 3 1.5 3.9 3.1.8 1.6.7 3.5-.5 5-.7.9-1.5 1.6-2.4 2.3-.4.4-.9.8-1.3 1.2-.5.5-.7 1.1-.8 1.7-.1.7-.6 1.1-1.3 1.1-.1-.1-.3-.1-.4-.1z" class="st10"/><path id="path105" d="M230.8 103.7h-.2l-.1-.1h-.6c-1 0-1.7-.7-1.7-1.7 0-1.6.6-3 1.6-4.1.7-.7 1.5-1.4 2.4-2 .4-.3.6-.5.9-.9.4-.7.4-1.5-.2-2.2-.4-.5-.9-.7-1.7-.8-.9-.1-1.6 0-2.1.2-.6.4-1 .8-1.3 1.3 0 .1-.1.2-.1.2v.1c-.4.9-1.1 1.3-2.1 1.2-.3-.1-.5-.1-.7-.1-.3 0-.5-.1-.8-.1-.8-.2-1.2-.7-1.1-1.5.3-1.7 1.3-3.1 2.9-4.1 1-.7 2.1-1.1 3.5-1.2 1.2-.1 2.5 0 3.8.3 1.9.6 3.3 1.6 4.2 3.3.9 1.9.7 4-.5 5.6-.8 1-1.7 1.8-2.5 2.4l-.6.6-.6.6c-.3.3-.6.8-.7 1.4-.1 1-.8 1.6-1.7 1.6zm-.4-12.9c.3 0 .6 0 .9.1 1 .1 1.8.5 2.3 1.2.9 1 1 2.3.2 3.4-.3.5-.7.8-1.1 1.1-.8.6-1.5 1.3-2.2 2-.9.9-1.4 2-1.4 3.3 0 .4.3.7.7.7h.5c.1 0 .3 0 .5.1.3 0 .6-.2.7-.7.1-.5.3-1.3.9-2 .2-.2.4-.4.7-.6l.6-.6c.8-.6 1.6-1.3 2.4-2.3 1-1.3 1.2-3 .4-4.5-.8-1.4-2-2.4-3.6-2.8-1.1-.3-2.3-.4-3.4-.3-1.2.1-2.2.4-3.1 1-1.4.9-2.2 2.1-2.5 3.5 0 .1 0 .3.3.3.2.1.4.1.7.1.2 0 .5.1.7.1.5.1.8-.1 1-.5 0-.1.1-.2.1-.2v-.1c.3-.8.9-1.4 1.7-1.8.7-.3 1.3-.5 2-.5z" class="st10"/></g></g></g></g><g id="g117"><path id="path115" d="M234.7 50.7c-3.4 0-6.7-.6-9.8-1.6l-49.5-24.5c-2.7-1.3-5.6-2.1-8.6-2.3l.1 152.6c3.3.1 6.5.7 9.5 1.7l50.6 25c3.6 1.8 7.5 2.3 11.3 1.8l.8-153c-1.5.2-2.9.3-4.4.3z" style="opacity:.1"/></g></g></svg>