<svg xmlns="http://www.w3.org/2000/svg" width="36" height="36" viewBox="0 0 9.525 9.525"><path fill="currentColor" d="M1025 203q0 25-10 36t-33 11q-22 0-32.5-11T939 203V82L702 319q-18 19-35 36t-42 41q-17 17-31 17.5T565 398q-9-9-13-16t-4-14q0-7 4.5-15t14.5-18l88.5-88.5L739 163l61-61 65-65q3-3 6-6.5t6-7.5h1-122q-23 0-34-10.5T711-20q0-11 2.5-19t7.5-13q6-5 14-8t20-3h224q25 0 35.5 10.5T1025-18V85ZM279 741 161 859l-6 6-7 7q0 1-.5 1.5l-.5.5h126q21 0 31 11t10 32q-1 26-13.5 34t-26.5 8q-61 1-121.5 1H39q-18 0-28.5-10.5T0 922V684q0-9 3-15.5t8-11.5q5-6 13.5-8.5T44 646q21 1 31.5 10.5T86 686v117q0 2 .5 4.5t.5 5.5l5.5-5.5L98 803l109-110 92-92 98-98q10-10 18.5-15t16.5-5h1q7 0 14.5 4.5T463 501q15 16 13.5 29.5T458 562l-92.5 92.5zM267-64q25 0 36 10.5T314-21q0 23-11.5 33T267 22H146l237 237 36 36 41 41q17 17 17 31t-16 30q-8 8-15 12t-14 4q-8 0-15.5-4.5T399 394q-47-46-88.5-88T227 223q-30-30-61-61.5T101 96q-3-3-6.5-6T87 84v122l-10.5 33.5Q66 273 44 250q-11 0-19-2.5T12 240q-5-5-8-13.5T1 207V-18q0-25 10.5-35T46-63q49-1 103-1zm538 746 118 118 6 6 7 7q1 0 1 .5t1 .5V689q0-21 11-31.5t32-10.5q26 1 34 14t8 26q1 61 1 121.5t-1 113.5q0 18-10 28.5T986 961H748q-9 0-16-2.5t-11-7.5q-6-6-8.5-14.5T710 917q0-21 10-31t30-11h116q3 0 5.5-.5t5.5-.5l-5.5-5.5-4.5-4.5-110-110q-47-46-92.5-92T567 564q-10-10-15-18.5t-5-16.5q0-8 4.5-15.5T565 498q16-15 29.5-13.5T626 503l92.5 92.5z" style="fill:#1a73d9;fill-opacity:1" transform="matrix(.0093 0 0 -.0093 0 8.93)"/></svg>