<svg xmlns="http://www.w3.org/2000/svg" width="36" height="36" viewBox="0 0 9.525 9.525"><path fill="currentColor" d="M547.83 146.393q0-25.009 10.004-35.513 10.003-10.503 33.012-10.503 22.007 0 32.511 11.003 10.504 11.004 10.504 35.013v121.043L870.945 30.352l35.013-35.013 42.014-42.015q17.006-17.006 31.011-17.006 14.005 0 29.011 16.006 9.003 8.003 13.004 15.005Q1025-25.668 1025-18.666q0 8.003-4.502 16.006-4.5 8.003-14.505 18.006l-88.53 88.532-83.53 82.529q-30.012 30.011-61.023 61.522-31.01 31.511-65.023 65.523l-6.002 6.002-6.002 7.003h-1 122.043q23.008 0 34.012 10.504 11.004 10.503 11.004 32.511 0 11.004-2.5 19.007-2.502 8.003-7.504 13.004-6.002 6.003-14.005 8.503-8.002 2.501-20.007 2.501H593.847q-25.009 0-35.013-10.503-10.003-10.504-10.003-34.513-1-48.017-1-102.036zM197.706 702.59l118.042-117.041q3.001-3.001 6.002-6.503 3.001-3.501 7.003-7.502 0-1.001.5-1.001t.5-1H203.708q-21.007 0-31.01-11.004-10.004-11.004-10.004-32.011 1-26.009 14.005-34.012 13.004-8.003 26.01-8.003 61.02-1 121.542-1 60.521 0 113.54 1 18.007 0 28.51 10.003 10.504 10.004 10.504 28.01V760.611q0 8.003-2.5 15.005-2.502 7.003-7.503 12.005-6.003 5.001-14.506 8.002-8.503 3.001-19.507 3.001-21.007-1-31.01-11.003-10.004-10.004-11.004-29.011V641.569q0-2.001-.5-4.502t-.5-5.502q-3.002 3.001-5.503 5.002-2.5 2.001-4.5 5.002l-110.04 109.038q-46.017 47.017-92.033 92.533t-98.035 97.535q-10.003 11.004-18.506 15.505-8.503 4.502-16.506 4.502h-1q-7.003 0-14.506-4.502-7.502-4.501-15.505-13.504Q-1.365 926.67.136 913.165q1.5-13.505 18.506-31.511l92.533-92.533z" style="font-variation-settings:normal;opacity:1;vector-effect:none;fill:#1a73d9;fill-opacity:1;stroke-width:1;stroke-linecap:butt;stroke-linejoin:miter;stroke-miterlimit:4;stroke-dasharray:none;stroke-dashoffset:0;stroke-opacity:1;stop-color:#000;stop-opacity:1" transform="matrix(.0093 0 0 -.0093 0 8.93)"/></svg>