<svg xmlns="http://www.w3.org/2000/svg" width="36" height="36" viewBox="0 0 9.525 9.525"><path fill="currentColor" d="M951.786 448.5Q864.844 583.489 733.859 650.41q34.891-59.486 34.891-128.697 0-105.817-75.216-181.034-75.217-75.216-181.034-75.216t-181.034 75.217q-75.216 75.216-75.216 181.033 0 69.21 34.891 128.697Q160.156 583.49 73.214 448.5q76.074-117.257 190.758-186.754Q378.655 192.25 512.5 192.25q133.845 0 248.528 69.496Q875.712 331.243 951.786 448.5zm-411.83 219.643q0 11.44-8.009 19.448-8.007 8.007-19.447 8.007-71.498 0-122.691-51.193-51.193-51.192-51.193-122.69 0-11.44 8.008-19.448 8.008-8.008 19.447-8.008 11.44 0 19.448 8.008 8.008 8.008 8.008 19.447 0 49.191 34.89 84.082 34.892 34.892 84.083 34.892 11.44 0 19.447 8.007 8.008 8.008 8.008 19.448zM1025 448.5q0-19.448-11.44-39.467-80.078-131.557-215.353-210.777T512.5 119.036q-150.433 0-285.708 79.506Q91.518 278.048 11.44 409.032 0 429.053 0 448.5q0 19.447 11.44 39.467 80.078 130.985 215.352 210.491 135.275 79.506 285.708 79.506 150.432 0 285.707-79.506t215.353-210.49Q1025 467.947 1025 448.5z" style="font-variation-settings:normal;opacity:1;vector-effect:none;fill:#145cad;fill-opacity:1;stroke-width:1;stroke-linecap:butt;stroke-linejoin:miter;stroke-miterlimit:4;stroke-dasharray:none;stroke-dashoffset:0;stroke-opacity:1;-inkscape-stroke:none;stop-color:#000;stop-opacity:1" transform="matrix(.0093 0 0 -.0093 0 8.93)"/></svg>