<svg xmlns="http://www.w3.org/2000/svg" width="36" height="36" viewBox="0 0 9.525 9.525"><path fill="currentColor" d="m317.453 234.005 44.615 80.65q-49.763 36.035-77.791 90.946-28.027 54.911-28.027 116.113 0 69.211 34.891 128.697Q160.156 583.489 73.214 448.5q95.522-147.573 244.239-214.495zm222.503 434.138q0 11.44-8.008 19.447-8.008 8.008-19.448 8.008-71.498 0-122.691-51.193-51.193-51.192-51.193-122.691 0-11.44 8.008-19.447 8.008-8.008 19.448-8.008 11.439 0 19.447 8.008 8.008 8.007 8.008 19.447 0 49.191 34.891 84.082 34.891 34.891 84.082 34.891 11.44 0 19.448 8.008 8.008 8.008 8.008 19.448zm207.631 109.249q0-4.004-.572-5.148Q686.956 664.711 566.839 448.5 446.722 232.289 386.091 124.183l-28.027-50.906q-5.72-9.152-16.016-9.152-6.864 0-76.646 40.039-9.152 5.72-9.152 16.015 0 6.864 25.168 49.763-81.795 37.179-150.719 98.954Q61.775 330.671 11.44 409.033 0 426.764 0 448.5q0 21.735 11.44 39.467 87.514 134.417 217.355 212.207 129.841 77.79 283.705 77.79 50.907 0 102.958-9.724l30.887 55.483q5.72 9.152 16.016 9.152 2.86 0 10.295-3.432 7.436-3.432 17.732-8.866 10.296-5.434 18.876-10.581 8.579-5.148 18.017-10.582 9.438-5.434 11.154-6.578 9.152-5.72 9.152-15.444zm21.163-255.678q0-79.506-45.187-144.998-45.187-65.493-119.545-94.092l160.156 287.137q4.576-25.739 4.576-48.047zM1025 448.5q0-20.02-11.439-39.467-22.308-36.607-62.347-82.938-85.798-98.382-198.765-152.721-112.968-54.339-239.949-54.339l42.327 75.503q121.261 10.295 224.505 78.362 103.244 68.066 172.454 175.6-65.778 102.386-161.3 168.164l36.035 64.063q54.339-36.608 104.388-87.514 50.048-50.907 82.652-105.246Q1025 468.519 1025 448.5z" style="font-variation-settings:normal;opacity:1;vector-effect:none;fill:#145cad;fill-opacity:1;stroke-width:1;stroke-linecap:butt;stroke-linejoin:miter;stroke-miterlimit:4;stroke-dasharray:none;stroke-dashoffset:0;stroke-opacity:1;-inkscape-stroke:none;stop-color:#000;stop-opacity:1" transform="matrix(.0093 0 0 -.0093 0 8.93)"/></svg>