<?xml version="1.0" encoding="utf-8"?>
<!-- Generator: Adobe Illustrator 20.1.0, SVG Export Plug-In . SVG Version: 6.00 Build 0)  -->
<svg version="1.1" id="Layer_1" xmlns="http://www.w3.org/2000/svg" xmlns:xlink="http://www.w3.org/1999/xlink" x="0px" y="0px"
	 viewBox="0 0 24 24" style="enable-background:new 0 0 24 24;" xml:space="preserve">
<style type="text/css">
	.st0{clip-path:url(#SVGID_2_);fill:#333333;}
</style>
<title>menu-multiple-choice-set-icon</title>
<g id="blanks">
	<g>
		<g>
			<defs>
				<rect id="SVGID_1_" y="0" width="24" height="24"/>
			</defs>
			<clipPath id="SVGID_2_">
				<use xlink:href="#SVGID_1_"  style="overflow:visible;"/>
			</clipPath>
			<path class="st0" d="M3.9,15.4l3.6,3.8c1,1,2.7,1,3.8,0l5.6-5.8l3.4,0.2c0,0,1.1,0.1,1.3-0.4c0.1-0.4-0.5-1-0.5-1s-6.5-6.9-8-8.2
				c0,0,0,0,0,0L13,3.9c-0.4-0.4-1.2-0.4-1.6,0l-0.8,0.8C9.8,3.4,8.3,2.6,7,3.2c-3.7,1.7-0.1,5-2.7,7.8c-0.1,0.1-0.1,0.1-0.1,0.2
				l-0.3,0.4C2.9,12.6,2.9,14.3,3.9,15.4z M9.4,5.8L6.9,8.4c0-0.2,0-0.5-0.1-0.7C6.7,6.9,6.3,6,7,5.1c0.3-0.4,1.1-0.4,1.4-0.3
				C9,5,9.2,5.4,9.4,5.8z M6,11.8l4.3-4.5l1-0.9l0,0l0,0l0.1-0.1l0,0l0.8-0.8c1,0.9,4.6,4.7,6.4,6.6L16.1,12L6,11.8z"/>
		</g>
	</g>
</g>
</svg>
