<?xml version="1.0" encoding="utf-8"?>
<!-- Generator: Adobe Illustrator 20.1.0, SVG Export Plug-In . SVG Version: 6.00 Build 0)  -->
<svg version="1.1" id="Layer_1" xmlns="http://www.w3.org/2000/svg" xmlns:xlink="http://www.w3.org/1999/xlink" x="0px" y="0px"
	 viewBox="0 0 24 24" style="enable-background:new 0 0 24 24;" xml:space="preserve">
<style type="text/css">
	.st0{clip-path:url(#SVGID_2_);}
	.st1{clip-path:url(#SVGID_4_);fill:#333333;}
	.st2{clip-path:url(#SVGID_2_);fill:#333333;}
</style>
<title>menu-multiple-choice-set-icon</title>
<g id="blanks">
	<g>
		<g>
			<defs>
				<rect id="SVGID_1_" y="0" width="24" height="24"/>
			</defs>
			<clipPath id="SVGID_2_">
				<use xlink:href="#SVGID_1_"  style="overflow:visible;"/>
			</clipPath>
			<g id="blanks_1_" class="st0">
				<g>
					<g>
						<defs>
							<rect id="SVGID_3_" x="3.2" y="2.2" width="18.8" height="18.8"/>
						</defs>
						<clipPath id="SVGID_4_">
							<use xlink:href="#SVGID_3_"  style="overflow:visible;"/>
						</clipPath>
						<path class="st1" d="M7,13.6l2.6,2.8c0.8,0.8,2,0.8,2.8,0l4.1-4.2l2.5,0.2c0,0,0.8,0.1,0.9-0.3c0.1-0.3-0.3-0.7-0.3-0.7
							s-4.8-5-5.8-6c0,0,0,0,0,0l-0.1-0.1c-0.3-0.3-0.9-0.3-1.2,0l-0.6,0.6c-0.6-0.9-1.6-1.5-2.6-1.1c-2.7,1.2-0.1,3.6-1.9,5.7
							c-0.1,0.1-0.1,0.1-0.1,0.1L7,10.8C6.2,11.6,6.2,12.8,7,13.6z M11,6.6L9.2,8.5c0-0.2,0-0.3-0.1-0.5C9,7.4,8.7,6.7,9.2,6.1
							c0.2-0.3,0.8-0.3,1.1-0.2C10.7,6,10.8,6.3,11,6.6z M8.5,11l3.1-3.3L12.4,7l0,0l0,0l0,0l0,0L13,6.4c0.7,0.7,3.4,3.5,4.7,4.8
							l-1.8-0.1L8.5,11z"/>
					</g>
				</g>
			</g>
			<rect x="3.2" y="18.5" class="st2" width="18.8" height="2.5"/>
		</g>
	</g>
</g>
</svg>
