<?xml version="1.0" encoding="utf-8"?>
<!-- Generator: Adobe Illustrator 20.1.0, SVG Export Plug-In . SVG Version: 6.00 Build 0)  -->
<svg version="1.1" id="Layer_1" xmlns="http://www.w3.org/2000/svg" xmlns:xlink="http://www.w3.org/1999/xlink" x="0px" y="0px"
	 viewBox="0 0 24 24" style="enable-background:new 0 0 24 24;" xml:space="preserve">
<style type="text/css">
	.st0{clip-path:url(#SVGID_2_);fill:#333333;}
</style>
<title>menu-multiple-choice-set-icon</title>
<g id="blanks_1_">
	<g>
		<g>
			<defs>
				<rect id="SVGID_1_" x="0" width="24" height="24"/>
			</defs>
			<clipPath id="SVGID_2_">
				<use xlink:href="#SVGID_1_"  style="overflow:visible;"/>
			</clipPath>
			<rect x="-16.8" y="10.7" class="st0" width="3.3" height="2.4"/>
			<rect x="-11.8" y="10.7" class="st0" width="3.3" height="2.4"/>
			<rect x="-6.9" y="10.7" class="st0" width="3.3" height="2.4"/>
		</g>
	</g>
</g>
<path d="M16.2,4.8h-3v-1H8.6c-2.4,0-4.3,1.9-4.3,4.3v4.4h1v3.2c0,1.8,1.5,3.3,3.3,3.3h7.6c1.8,0,3.3-1.5,3.3-3.3V8.2
	C19.5,6.3,18,4.8,16.2,4.8z M18.5,15.7c0,1.3-1,2.3-2.3,2.3H8.6c-1.3,0-2.3-1-2.3-2.3v-3.2h1V8.2c0-0.7,0.6-1.3,1.3-1.3h4.5v-1h3
	c1.3,0,2.3,1,2.3,2.3V15.7z"/>
</svg>
