<?xml version="1.0" encoding="utf-8"?>
<!-- Generator: Adobe Illustrator 20.1.0, SVG Export Plug-In . SVG Version: 6.00 Build 0)  -->
<svg version="1.1" id="Layer_1" xmlns="http://www.w3.org/2000/svg" xmlns:xlink="http://www.w3.org/1999/xlink" x="0px" y="0px"
	 viewBox="0 0 400 225" style="enable-background:new 0 0 400 225;" xml:space="preserve">
<style type="text/css">
	.st0{fill:none;}
	.st1{fill:#8DB7E2;}
	.st2{fill:#FFFFFF;}
	.st3{opacity:0.2;}
	.st4{fill:#2574A9;}
	.st5{fill:#2376C1;}
</style>
<title>tweeter feed</title>
<g id="Layer_2">
	<g id="tweeter_feed">
		<rect class="st0" width="400" height="225"/>
		<g>
			<path class="st1" d="M151.1,181.4c0,7.7,6.3,14,14,14c0,0,0,0,0.1,0h88c7.7,0,13.9-6.2,13.9-13.9c0,0,0-0.1,0-0.1V45.6
				c0.1-7.7-6-14-13.7-14.1c-0.1,0-0.1,0-0.2,0h-88c-7.8,0-14.1,6.3-14.1,14c0,0,0,0,0,0"/>
			<g>
				<rect x="175" y="64.5" class="st2" width="67" height="7"/>
				<rect x="175" y="88.5" class="st2" width="67" height="7"/>
				<rect x="175" y="111.5" class="st2" width="67" height="6"/>
				<rect x="175" y="133.5" class="st2" width="67" height="7"/>
				<rect x="175" y="156.5" class="st2" width="67" height="7"/>
			</g>
			<g class="st3">
				<path class="st4" d="M267,182.7v-12.5l-47.3-47.4l-53.6,68.9c2.4,2.5,5.7,3.9,9.2,3.9h79.4c6.9-0.1,12.4-5.7,12.3-12.6
					C267,182.8,267,182.8,267,182.7z"/>
			</g>
			<path class="st5" d="M212.5,139.3c0.1,0.8,0.1,1.6,0.1,2.5c0,25.1-19.1,54-54,54c-10.3,0-20.5-2.9-29.2-8.5
				c1.5,0.2,3.1,0.2,4.6,0.2c8.5,0,16.9-2.8,23.6-8.1c-8.1-0.1-15.3-5.4-17.8-13.2c1.2,0.2,2.4,0.3,3.6,0.3c1.7,0,3.3-0.2,4.9-0.6
				c-8.9-1.7-15.4-9.5-15.4-18.6V147c2.7,1.5,5.6,2.3,8.6,2.4c-8.4-5.6-10.9-16.7-5.8-25.4c9.7,11.9,23.9,19.1,39.2,19.9
				c-0.3-1.4-0.5-2.9-0.5-4.4c0-10.5,8.5-19,19-19c5.3,0,10.3,2.2,13.9,6c4.3-0.8,8.3-2.4,12.1-4.6c-1.4,4.4-4.4,8.1-8.4,10.5
				c3.8-0.4,7.4-1.4,10.9-2.9C219.4,133.3,216.2,136.6,212.5,139.3z"/>
		</g>
	</g>
</g>
</svg>
