<svg height="24" viewBox="0 0 24 24" width="24" xmlns="http://www.w3.org/2000/svg"><g fill="#283440"><path d="m22.035 17.866a.376.376 0 0 0 -.383-.012 8.715 8.715 0 0 1 -.987.442 9.566 9.566 0 0 1 -3.365.604c-3.887 0-7.334-2.344-8.126-5.559a6.573 6.573 0 0 0 .158 7.5 6.377 6.377 0 0 0 1.8 1.707 7.66 7.66 0 0 0 4.848.746 12.264 12.264 0 0 0 6.172-4.915.374.374 0 0 0 -.117-.513z" fill="#283440"/><path d="m7.711 22.015a8.569 8.569 0 0 1 1.877-11.962 5.54 5.54 0 0 1 2.14-1.03 6.144 6.144 0 0 0 -1.778-1.359 8.072 8.072 0 0 0 -3.477-.831c-3.29 0-6.032 2.007-6.441 4.584-.005.141-.022.28-.022.423a12.442 12.442 0 0 0 1.135 5.247 11.963 11.963 0 0 0 8.165 6.613 8.4 8.4 0 0 1 -1.599-1.685z"/><path d="m22.927 6.118c-1.986-3.884-6.272-6.118-10.933-6.118a12.058 12.058 0 0 0 -10.553 6.261 9.433 9.433 0 0 1 5.032-1.428 10.023 10.023 0 0 1 4.406 1.06 7.6 7.6 0 0 1 3.3 3.126 5 5 0 0 1 .1 4.93c-.076.1-.309.234-.309.53a.872.872 0 0 0 .442.678 7.685 7.685 0 0 0 3.894.813 5.587 5.587 0 0 0 2.837-.782 5.752 5.752 0 0 0 2.851-4.955 8.286 8.286 0 0 0 -1.067-4.115z" fill="#283440"/></g></svg>