<svg xmlns="http://www.w3.org/2000/svg" width="24" height="24" viewBox="0 0 24 24"><g class="nc-icon-wrapper" fill="#283440"><path d="M19,0a6.531,6.531,0,0,0-4.1,1.7c-.293.22-.575.42-.858.605a6.988,6.988,0,0,0-4.084,0C9.675,2.12,9.393,1.92,9.1,1.7A6.531,6.531,0,0,0,5,0,5.006,5.006,0,0,0,0,5,5.744,5.744,0,0,0,1.168,8.555,3.78,3.78,0,0,1,2,11a4,4,0,0,0,4,4,3.892,3.892,0,0,0,1.78-.439c.088.067.18.126.27.189A.99.99,0,0,0,8,15a4,4,0,0,1-4,4,1,1,0,0,0,0,2,6.006,6.006,0,0,0,5.957-5.309c.015,0,.028.011.043.015v.617a8.974,8.974,0,0,0,3.951,7.44,1.42,1.42,0,0,0,1.8-.187l.111-.111a1.448,1.448,0,0,0,.039-1.974A7.963,7.963,0,0,1,14,16.323v-.617c.015,0,.028-.01.043-.015A6.006,6.006,0,0,0,20,21a1,1,0,0,0,0-2,4,4,0,0,1-4-4,.99.99,0,0,0-.05-.25c.09-.063.182-.122.27-.189A3.892,3.892,0,0,0,18,15a4,4,0,0,0,4-4,3.78,3.78,0,0,1,.832-2.445A5.744,5.744,0,0,0,24,5,5.006,5.006,0,0,0,19,0ZM5,9a6.944,6.944,0,0,0,1.258,3.973A1.759,1.759,0,0,1,6,13a2,2,0,0,1-2-2A5.744,5.744,0,0,0,2.832,7.445,3.78,3.78,0,0,1,2,5,3,3,0,0,1,5,2,4.73,4.73,0,0,1,7.9,3.3l.023.017A6.988,6.988,0,0,0,5,9Zm4,1a1,1,0,1,1,1-1A1,1,0,0,1,9,10Zm6,0a1,1,0,1,1,1-1A1,1,0,0,1,15,10Zm6.168-2.555A5.744,5.744,0,0,0,20,11a2,2,0,0,1-2,2,1.759,1.759,0,0,1-.258-.027,6.954,6.954,0,0,0-1.665-9.656L16.1,3.3A4.73,4.73,0,0,1,19,2a3,3,0,0,1,3,3A3.78,3.78,0,0,1,21.168,7.445Z" fill="#283440"/></g></svg>