<svg height="24" viewBox="0 0 24 24" width="24" xmlns="http://www.w3.org/2000/svg"><g fill="none"><path d="m2.89770175 4.18065217c5.57843735-6.4924098 15.92187375-5.21084211 19.78867695 2.37295188-2.7219662.0009908-6.9843623-.000816-9.2929102 0-1.6743526.00058285-2.7554031-.0374772-3.92610425.578827-1.37633265.7244809-2.41480055 2.0674226-2.77730605 3.64478595z" fill="#ea4335"/><path d="m8.0077305 11.9995673c0 2.2003704 1.78911005 3.9904735 3.9882597 3.9904735 2.1990914 0 3.9882015-1.7901031 3.9882015-3.9904735 0-2.2003121-1.7891101-3.99047355-3.9882015-3.99047355-2.19914965 0-3.9882597 1.79016145-3.9882597 3.99047355z" fill="#4285f4"/><path d="m13.5438183 17.2228241c-2.2385284.6652635-4.8581448-.0725064-6.29307945-2.5493802-1.0953224-1.8906446-3.98930828-6.9322857-5.30470875-9.22474615-4.60695987 7.06103695-.63640893 16.68340255 7.7271986 18.32575355z" fill="#34a853"/><path d="m15.7007348 8.00909375c1.8644306 1.73409145 2.2706255 4.54202325 1.0077106 6.71925455-.9514969 1.6403693-3.988318 6.7658824-5.4601265 9.2478269 8.6171226.5312084 14.898901-7.9142692 12.0614784-15.96708145z" fill="#fbbc05"/></g></svg>