<svg height="24" viewBox="0 0 24 24" width="24" xmlns="http://www.w3.org/2000/svg"><g fill="none" fill-rule="evenodd"><path d="m0 0h24v24h-24z"/><path d="m14.2898151 2.70978564.0057943.00144973.0065384.00165629c.545258.13812408.8766301.69064371.7417092 1.23670312l-4.1007794 16.59691032c-.1347898.5455291-.6862972.8784991-1.23182632.7437093l-.00579434-.0014498-.00653835-.0016563c-.54525798-.138124-.87663007-.6906437-.74170922-1.2367031l4.10077943-16.59691033c.1347898-.54552908.6862972-.87849904 1.2318263-.74370923zm-7.71194547 4.40667492c.00300457.00296734.0059906.00595337.00895794.00895794l.0133156.01348263c.39339952.39833452.39339952 1.03894434 0 1.43727885l-3.38107997 3.42349392 3.38107997 3.4234938c.39339952.3983346.39339952 1.0389444 0 1.4372789l-.0133156.0134826c-.39438312.3993305-1.0378151.4033411-1.43714556.008958l-.00895794-.008958-4.09081611-4.1421333c-.39987728-.4048935-.39987728-1.0593506 0-1.4642441l4.09081611-4.1421333c.39438313-.39933046 1.03781511-.40334106 1.43714556-.00895794zm12.27244837 0 .0089579.00895794 4.0908161 4.1421333c.3998773.4048935.3998773 1.0593506 0 1.4642441l-4.0908161 4.1421333c-.3943831.3993305-1.0378151.4033411-1.4371455.008958-.0030046-.0029674-.0059906-.0059534-.008958-.008958l-.0133156-.0134826c-.3933995-.3983345-.3933995-1.0389443 0-1.4372789l3.38108-3.4234938-3.38108-3.42349392c-.3933995-.39833451-.3933995-1.03894433 0-1.43727885l.0133156-.01348263c.3943831-.39933046 1.0378151-.40334106 1.4371456-.00895794z" fill="#ff4842" fill-rule="nonzero"/></g></svg>