<svg height="24" viewBox="0 0 24 24" width="24" xmlns="http://www.w3.org/2000/svg"><path d="m22 17.5c.5522847 0 1 .4477153 1 1v3.5c0 .5522847-.4477153 1-1 1h-3.5c-.5522847 0-1-.4477153-1-1v-3.5c0-.5522847.4477153-1 1-1zm-18.25-9.16666667c.50626102 0 .91666667.41040565.91666667.91666667v7.3333333c0 1.5187831 1.23121693 2.75 2.75 2.75h7.33333333c.506261 0 .9166667.4104057.9166667.9166667s-.4104057.9166667-.9166667.9166667h-7.33333333c-2.53004873-.0030306-4.58030273-2.0532846-4.58333334-4.5833334v-7.3333333c0-.50626102.41040565-.91666667.91666667-.91666667zm12.8333333-5.5c2.5300488.00303061 4.5803028 2.05328461 4.5833334 4.58333334v7.33333333c0 .506261-.4104057.9166667-.9166667.9166667s-.9166667-.4104057-.9166667-.9166667v-7.33333333c0-1.51878307-1.2312169-2.75-2.75-2.75h-7.3333333c-.50626102 0-.91666667-.41040565-.91666667-.91666667s.41040565-.91666667.91666667-.91666667zm-11.0833333-1.83333333c.55228475 0 1 .44771525 1 1v3.5c0 .55228475-.44771525 1-1 1h-3.5c-.55228475 0-1-.44771525-1-1v-3.5c0-.55228475.44771525-1 1-1z" fill="#1890ff"/></svg>