<svg height="24" viewBox="0 0 24 24" width="24" xmlns="http://www.w3.org/2000/svg"><path d="m14.8964945 11.352115c-.3227155-.01125-.6334785.009-.923325.0555.081426-.660745.3533435-1.472235 1.3162615-1.438485 1.066007.0375 1.2154125 1.04849 1.2191475 1.73398-.44971-.201745-1.006245-.329245-1.612084-.350995m4.5583585-7.176685c-.1785395-.95774-.745533-1.429485-1.2587405-1.614735-.5528-.200995-1.6748345-.408745-3.084474-.575995-1.133987-.133495-2.466683-.122995-3.271978-.09825-.0963665-.66449-.5602705-1.271235-1.080201-1.481235-1.383494-.559495-3.522232-.424495-4.07055-.269995-.4362635.122245-.91959.373495-1.1885195.75974-.1800335.258-.29657.589495-.297317 1.05149 0 .26175.0074705.877495.0134465 1.42499.0067235.548995.0141935 1.04024.0141935 1.04399 0 .488245-.395177.88649-.8844795.88724h-2.243322c-.4788445 0-.8448875.081-1.1235285.20775-.280135.12825-.4780975.299995-.6289965.503245-.299558.404245-.35185.90224-.35038662 1.410735 0 0 .00451312.41625.10461462 1.22024.08292.622495.755244 4.971705 1.393952 6.293945.247266.514495.412359.72899.8986735.95549 1.083936.466495 3.5603305.98474 4.720463 1.13324 1.158639.148495 1.885496.461245 2.318772-.450745.001494-.00225.086655-.22725.203938-.556495.3765015-1.14449.4287935-2.15998.4287935-2.894225 0-.075.109066-.078.109066 0 0 .518245-.0986075 2.35423 1.2826455 2.846975.5453295.194245 1.676328.366745 2.8252555.502495 1.0391145.12 1.793612.530245 1.793612 3.20697 0 1.628235-.3406445 1.851735-2.1215565 1.851735-1.4440035 0-1.994562.037495-1.994562-1.11374 0-.930745.917349-.833245 1.5963965-.833245.30404 0 .083667-.2265.083667-.80099 0-.571495.355585-.901495.0194225-.909745-2.3501465-.06525-3.7328935-.003-3.7328935 2.947475 0 2.678975 1.021186 3.17622 4.355914 3.17622 2.6153415 0 3.5371725-.08625 4.6166265-3.44922.2136495-.66449.7305925-2.690225 1.0428495-6.092945.1979625-2.15098-.1860095-8.64367-.4907965-10.282405m-17.4572725.473245h.001494 2.243322c.1284885 0 .2323255-.105745.2323255-.233245 0-.00075-.026893-1.931235-.026893-2.46823v-.00675c0-.440995.0918845-.82499.252495-1.14749l.076944-.143995c-.0089645.00075-.017182.00525-.026146.0135l-4.358902 4.34021c-.0082175.00675-.0141935.0165-.016435.0255.0903905-.045.21365-.10575.2308315-.11325.3794895-.1725.8396585-.26625 1.390964-.26625" fill="#20c05c" transform="translate(2)"/></svg>