<svg width="24" height="24" xmlns="http://www.w3.org/2000/svg"><g fill-rule="nonzero" fill="none"><path d="M24 18a2.667 2.667 0 0 1-2.667 2.667H2.667A2.667 2.667 0 0 1 0 18V6a2.667 2.667 0 0 1 2.667-2.667h18.666A2.667 2.667 0 0 1 24 6v12z" fill="#C60A1D"/><path fill="#FFC400" d="M24 16H0V8h24z"/><path d="M6 11.333v2a2 2 0 1 0 4 0v-2H6z" fill="#EA596E"/><path fill="#F4A2B2" d="M8 12.667h2v-2H8z"/><path fill="#DD2E44" d="M8 12.667H6v-2h2z"/><path d="M10 9.667c0 .552-.895 1-2 1s-2-.448-2-1c0-.553.895-1 2-1s2 .447 2 1" fill="#EA596E"/><path d="M10 9.167c0-.276-.895-.5-2-.5s-2 .224-2 .5.895.5 2 .5 2-.224 2-.5" fill="#FFAC33"/><path fill="#99AAB5" d="M4.667 15.333h.666v-4.666h-.666zM11.333 15.333h-.666v-4.666h.666z"/><path fill="#66757F" d="M6 15.333H4v-.666h2zM12 15.333h-2v-.666h2zM5.333 10.667h-.666V10h.666zM11.333 10.667h-.666V10h.666z"/></g></svg>