<svg height="24" viewBox="0 0 24 24" width="24" xmlns="http://www.w3.org/2000/svg"><path d="m11.99925 0c-6.62625 0-11.99925 5.393546-11.99925 12.048322 0 5.3220135 3.438 9.837593 8.20725 11.430884.6.110687.819-.2612815.819-.580542 0-.28613-.0105-1.043621-.0165-2.04884-3.33825.728125-4.0425-1.615127-4.0425-1.615127-.54525-1.3914945-1.332-1.761957-1.332-1.761957-1.08975-.7477025.0825-.732643.0825-.732643 1.20375.085086 1.8375 1.2416525 1.8375 1.2416525 1.071 1.8410195 2.80875 1.3094205 3.49275 1.0007015.10875-.778574.41925-1.30942.762-1.6106095-2.66475-.304201-5.466-1.33728-5.466-5.953758 0-1.315444.46725-2.3906895 1.23525-3.2332665-.12375-.304954-.5355-1.529288.117-3.188088 0 0 1.008-.323778 3.3 1.234876.95775-.2673055 1.98375-.4005815 3.0045-.4058525 1.01925.005271 2.046.138547 3.0045.4058525 2.2905-1.558654 3.29625-1.234876 3.29625-1.234876.65475 1.6588.243 2.883134.11925 3.188088.7695.842577 1.23375 1.9178225 1.23375 3.2332665 0 4.6277725-2.80575 5.646545-5.47875 5.9447225.4305.3719685.8145 1.1068705.8145 2.231059 0 1.6106095-.015 2.909488-.015 3.304799 0 .3222725.216.697253.825.579036 4.76475-1.596303 8.19975-6.1088705 8.19975-11.429378 0-6.654776-5.373-12.048322-12.00075-12.048322" fill="#3e75c3" transform="translate(0 .5)"/></svg>