<?xml version="1.0" encoding="utf-8"?>
<!-- Generator: Adobe Illustrator 25.3.1, SVG Export Plug-In . SVG Version: 6.00 Build 0)  -->
<svg version="1.1" id="Layer_1" xmlns="http://www.w3.org/2000/svg" xmlns:xlink="http://www.w3.org/1999/xlink" x="0px" y="0px"
	 viewBox="0 0 400 225" style="enable-background:new 0 0 400 225;" xml:space="preserve">
<style type="text/css">
	.st0{clip-path:url(#SVGID_2_);}
	.st1{opacity:0.43;fill:#BFD9EF;enable-background:new    ;}
	.st2{fill:#5443B9;}
	.st3{fill:#E5EFF9;}
	.st4{fill:#363351;}
	.st5{fill:#333333;}
	.st6{opacity:0.2;fill:#5443B9;}
	.st7{opacity:0.2;}
	.st8{fill:#FFFFFF;}
	.st9{fill:#FC707B;}
	.st10{fill:#FFC81A;}
	.st11{fill:#42D2A5;}
	.st12{fill:#55B08B;}
	.st13{fill:#CA6367;}
	.st14{fill:#D0A700;}
</style>
<g>
	<defs>
		<rect id="SVGID_1_" width="400" height="225"/>
	</defs>
	<clipPath id="SVGID_2_">
		<use xlink:href="#SVGID_1_"  style="overflow:visible;"/>
	</clipPath>
	<g class="st0">
		<g>
			<g>
				<rect x="139.1" y="111.7" class="st1" width="118.1" height="53.4"/>
				<path class="st2" d="M265.1,98.7H134.9c-5.2,0-9.3,4.2-9.3,9.3v61.3c0,5.2,4.2,9.3,9.3,9.3h130.2c5.2,0,9.3-4.2,9.3-9.3V108
					C274.4,102.8,270.3,98.7,265.1,98.7z M257.3,165.1H139.1v-53.4h118.1V165.1z"/>
			</g>
			<path class="st3" d="M270,138.5v0.2c0,2.6-2.1,4.8-4.8,4.8l0,0c-2.6,0-4.8-2.1-4.8-4.8v-0.2c0-2.6,2.1-4.8,4.8-4.8l0,0
				C267.9,133.8,270,135.9,270,138.5z"/>
			<g>
				<g>
					<polygon class="st4" points="171,144.8 185.6,136.5 180.7,133 160,144.6 177,155.2 182.1,151.7 					"/>
				</g>
				<g>
					<polygon class="st4" points="230.3,144.9 217.6,152.1 223.7,155.8 242.3,145.3 221.6,132.4 215.6,135.6 					"/>
				</g>
				<g>
					<polygon class="st4" points="202,127.3 212.8,133.9 218.6,130.7 202.3,120.6 184.6,130.6 190.2,134 					"/>
				</g>
				<g>
					<polygon class="st4" points="207.3,165.1 217.6,159.3 211.6,155.4 199.4,162.4 188.2,155.4 182.8,158.8 193,165.1 					"/>
				</g>
			</g>
			<path class="st5" d="M158.2,141.6"/>
			<path class="st6" d="M199.1,141.8l0.6,20.3l30.6-17.3l9.8-22L206,140.6C204.3,141.5,201.1,141.8,199.1,141.8z"/>
			<g class="st7">
				<path class="st2" d="M199.5,141.8c-2.6,0-7.1-1.3-9.2-2.8l-32.5-22.7l13.2,28.1l28.3,18l30.8-17.5l10-22
					c-14.7,7.4-33.2,17.2-33.2,17.2C205.2,141,203.1,141.8,199.5,141.8z"/>
			</g>
		</g>
		<g>
			<path class="st8" d="M246.6,98.6l0.1,6.4c0,3.8-2.1,7.3-5.5,9.1l-2.9,1.5l-34.6,18.1c-1.5,0.8-3,1.1-4.6,1.2c0,0-0.1,0-0.1,0
				c-2.1,0-4.2-0.6-5.9-1.9l-33.8-23.8c-1.8-1.3-2.9-3.3-2.9-5.5l0-5.2h-7l0,5.2c0,4.5,2.2,8.6,5.9,11.2l33.8,23.8
				c2.9,2.1,6.4,3.2,10,3.2c0,0,0,0,0.1,0c2.8,0,5.5-0.7,7.9-2l36.9-19.3l0.6-0.3c5.7-3,9.3-8.8,9.3-15.3l-0.1-6.5H246.6z"/>
			<path class="st4" d="M242.5,56.9l-32-22.8c-1.8-1.3-3.9-1.9-6-1.9c-1.6,0-3.2,0.4-4.8,1.2C187,40,174.3,46.6,161.6,53.3
				c-3.4,1.8-5.5,5.3-5.5,9.2l0.2,41.3c0,2.2,1.1,4.3,2.9,5.5l33.8,23.8c1.8,1.2,3.8,1.9,5.9,1.9c0,0,0.1,0,0.1,0
				c1.6,0,3.2-0.4,4.6-1.2l34.6-18.1l2.9-1.5c3.4-1.8,5.5-5.3,5.5-9.1l0.1-39.8C246.8,62,245.2,58.8,242.5,56.9z"/>
			<path id="rect2994-0-6_1_" class="st9" d="M202.1,125.8l37.2-19.4l-0.2-38.1l-37.2,19.4L202.1,125.8z"/>
			<path id="rect2912-1-8_1_" class="st10" d="M164,103.2l30.6,21.5l-0.2-37.4l-30.6-21.5L164,103.2z"/>
			<path id="rect2994-6-0-5_1_" class="st11" d="M166.4,59l38.1-19.9l31.9,22.4l-38.1,19.9L166.4,59z"/>
			<polygon class="st12" points="166.8,58.8 204.2,39.5 198,81.6 			"/>
			<polygon class="st13" points="201.8,87.7 239.3,106.5 202.1,125.6 			"/>
			<polygon class="st14" points="164,103.3 194.4,124.7 194.3,87.6 			"/>
		</g>
		<g class="st7">
			<path class="st2" d="M138.7,181.8c0.7,6.1,27.8,11,61.1,11s60.5-4.9,61.1-11H138.7z"/>
		</g>
	</g>
</g>
</svg>
