<?xml version="1.0" encoding="utf-8"?>
<!-- Generator: Adobe Illustrator 20.1.0, SVG Export Plug-In . SVG Version: 6.00 Build 0)  -->
<svg version="1.1" id="Layer_1" xmlns="http://www.w3.org/2000/svg" xmlns:xlink="http://www.w3.org/1999/xlink" x="0px" y="0px"
	 viewBox="0 0 400 225" style="enable-background:new 0 0 400 225;" xml:space="preserve">
<style type="text/css">
	.st0{fill:#FFC234;}
	.st1{fill:#E1AE37;}
	.st2{fill:#E29563;}
	.st3{fill:#3F4040;}
	.st4{fill:#FFFFFF;}
	.st5{fill:#D66F6E;}
	.st6{fill:#C9C8CB;}
	.st7{fill:#F7A896;}
	.st8{fill:#F7A896;fill-opacity:0.5;}
	.st9{fill:#EF5331;}
	.st10{opacity:0.8;fill:#C9C8CB;enable-background:new    ;}
	.st11{fill:none;}
</style>
<title>questionaire</title>
<g id="Layer_2">
	<g id="questionaire">
		<g>
			<g>
				<polygon class="st0" points="236.5,161 250.6,149.1 212.6,105.9 198.6,117.9 				"/>
				<polygon class="st1" points="222.5,173 236.5,161 198.6,117.9 184.5,129.8 				"/>
				<g>
					<path class="st2" d="M181.7,112.7l2.8,17.2c0,0,7.7-1.2,16.4-8.7c9.1-7.7,11.7-15.2,11.7-15.2l-17.3-4.7
						c-1.8,2.2-3.9,4.3-6.1,6.1C186.9,109.4,184.4,111.2,181.7,112.7z"/>
					<path class="st3" d="M189.3,107.4c2.2-1.9,4.2-3.9,6.1-6.1c0,0-16-4.3-16-4.1c-0.1,0,2.3,15.5,2.3,15.5
						C184.4,111.2,186.9,109.4,189.3,107.4z"/>
				</g>
				
					<rect x="220.8" y="159.9" transform="matrix(0.7622 -0.6473 0.6473 0.7622 -48.6491 193.6084)" class="st4" width="36.9" height="6.2"/>
				<path class="st5" d="M239.9,188.4c9.2,0.8,22.8-11.2,23.6-20.4c0.5-5.6-9.2-14.5-9.2-14.5l-28.1,23.9
					C226.2,177.4,234.3,188,239.9,188.4z"/>
			</g>
			<path class="st6" d="M185.5,179.6h-54.9v-54.9h45l-1.6-10.5h-44.3c-5.3,0-9.6,4.3-9.6,9.6v56.7c0,5.3,4.3,9.6,9.6,9.6h56.7
				c5.3,0,9.6-4.3,9.6-9.6v-20.7l-10.5-10.6L185.5,179.6z"/>
			<path class="st7" d="M130.6,40h39.1l8.9-8.9c0.6-0.6,1.2-1.1,1.9-1.6h-50.8c-5.3,0-9.6,4.3-9.7,9.6v56.7c0,5.3,4.3,9.6,9.6,9.6
				h43.1l-1.5-10.5h-40.7V40z"/>
			<polygon class="st8" points="185.5,91.4 196,92.3 196,64.4 185.5,74.9 			"/>
			<path class="st9" d="M196.5,49l-28,28l-5.3,5.3c-1.5,1.4-3.8,1.4-5.3,0l-5.3-5.3l-14-14c-1.4-1.5-1.4-3.8,0-5.3l5.3-5.3
				c1.5-1.4,3.8-1.4,5.3,0l11.4,11.4L186,38.5c1.5-1.4,3.8-1.4,5.3,0l5.3,5.3C198,45.2,198,47.6,196.5,49L196.5,49z"/>
			<path class="st7" d="M220.2,42.4h63.4c2.4,0,4.4,2,4.4,4.4v1.8c0,2.4-2,4.4-4.4,4.4h-63.4c-2.4,0-4.4-2-4.4-4.4v-1.8
				C215.8,44.3,217.8,42.4,220.2,42.4z"/>
			<path class="st7" d="M220.2,81.9h63.4c2.4,0,4.4,2,4.4,4.4v1.8c0,2.4-2,4.4-4.4,4.4h-63.4c-2.4,0-4.4-2-4.4-4.4v-1.8
				C215.8,83.9,217.8,81.9,220.2,81.9z"/>
			<path class="st7" d="M220.2,61.3h63.4c2.4,0,4.4,2,4.4,4.4v1.8c0,2.4-2,4.4-4.4,4.4h-63.4c-2.4,0-4.4-2-4.4-4.4v-1.8
				C215.8,63.2,217.8,61.3,220.2,61.3z"/>
			<g>
				<path class="st10" d="M288,134.1v-1.8c0-2.4-2-4.4-4.4-4.4l0,0h-38.5l9.9,10.6h28.6C286,138.6,288,136.6,288,134.1
					C288,134.2,288,134.2,288,134.1z"/>
				<path class="st10" d="M288,153.1v-1.8c0-2.4-2-4.4-4.4-4.4l0,0h-20.9l9.9,10.6h11C286,157.5,288,155.5,288,153.1
					C288,153.1,288,153.1,288,153.1z"/>
			</g>
		</g>
		<rect class="st11" width="400" height="225"/>
	</g>
</g>
</svg>
